
    <svg xmlns="http://www.w3.org/2000/svg" width="400" height="400" viewBox="0 0 400 400">
      <defs>
        
    <filter id="glow" x="-20%" y="-20%" width="140%" height="140%">
      <feGaussianBlur stdDeviation="2" result="blur" />
      <feComposite in="SourceGraphic" in2="blur" operator="over" />
    </filter>
  
        
    <filter id="cartoon">
      <feColorMatrix type="matrix" values="1 0 0 0 0
                                          0 1 0 0 0
                                          0 0 1 0 0
                                          0 0 0 20 -10" />
      <feGaussianBlur stdDeviation="0.5" />
    </filter>
  
        
        <linearGradient id="grad1" x1="0%" y1="0%" x2="100%" y2="100%">
          <stop offset="0%" stop-color="#F0F7FF" />
          <stop offset="100%" stop-color="#5DADE2" />
        </linearGradient>
        
        <pattern id="pattern1" width="20" height="20" patternUnits="userSpaceOnUse">
          <circle cx="10" cy="10" r="2" fill="#FF9843" opacity="0.3" />
        </pattern>
      </defs>
      
      <!-- Фон -->
      <rect width="400" height="400" fill="url(#grad1)" />
      <rect width="400" height="400" fill="url(#pattern1)" />
      
      <!-- Декоративные элементы -->
      
        <polygon points="258.0828441057233,258.3468546180095 280.3627389625096,302.906644331582 258.0828441057233,347.46643404515453 235.80294924893707,302.906644331582" 
                fill="#5DADE2" opacity="0.8" filter="url(#glow)" />
        <line x1="246.9428966773302" y1="291.76669690318886" x2="269.2227915341165" y2="314.0465917599752" 
              stroke="white" opacity="0.8" stroke-width="2" />
      
        <circle cx="159.9821465891677" cy="232.4031488020349" r="41.61966121783628" fill="#FFD700" filter="url(#glow)" />
        <text x="159.9821465891677" y="237.4031488020349" font-family="Arial" font-size="20.80983060891814" font-weight="bold" text-anchor="middle" fill="#F1C40F">$</text>
      
      
      <!-- Основной роскошный элемент в зависимости от темы -->
      
      <g transform="translate(100, 180) scale(1.5)">
        <!-- Кузов машины -->
        <rect x="10" y="40" width="120" height="30" rx="10" fill="#FF9843" />
        <rect x="20" y="20" width="80" height="30" rx="10" fill="#FF9843" />
        
        <!-- Колеса -->
        <circle cx="30" cy="75" r="15" fill="#5DADE2" stroke="black" stroke-width="2" />
        <circle cx="30" cy="75" r="7" fill="black" />
        <circle cx="110" cy="75" r="15" fill="#5DADE2" stroke="black" stroke-width="2" />
        <circle cx="110" cy="75" r="7" fill="black" />
        
        <!-- Окна -->
        <rect x="25" y="25" width="70" height="20" rx="5" fill="#88CCFF" />
        
        <!-- Фары -->
        <circle cx="15" cy="45" r="5" fill="#FFFF88" />
        <circle cx="125" cy="45" r="5" fill="#FFFF88" />
        
        <!-- Блики -->
        <ellipse cx="60" cy="35" rx="25" ry="10" fill="white" opacity="0.3" />
      </g>
    
      
      <!-- Рамка -->
      <rect width="390" height="390" x="5" y="5" stroke="#3498DB" stroke-width="3" fill="none" rx="15" ry="15" />
      
      <!-- Надпись Bnalbank -->
      <text x="200" y="380" font-family="Arial, sans-serif" font-size="18" font-weight="bold" text-anchor="middle" fill="white">Bnalbank Luxury NFT</text>
    </svg>
  