
  <svg width="256" height="256" viewBox="0 0 256 256" xmlns="http://www.w3.org/2000/svg">
    <defs>
      
    <filter id="shimmer" x="-20%" y="-20%" width="140%" height="140%">
      <feTurbulence type="fractalNoise" baseFrequency="0.01" numOctaves="1" seed="54">
        <animate attributeName="baseFrequency" from="0.01" to="0.02" dur="30s" repeatCount="indefinite" />
      </feTurbulence>
      <feDisplacementMap in="SourceGraphic" scale="5" />
      <feGaussianBlur stdDeviation="2.5" />
      <feComposite in="SourceGraphic" operator="over" />
    </filter>
  
      
    <filter id="metal">
      <feSpecularLighting result="specOut" specularExponent="20" lighting-color="#ffffff">
        <fePointLight x="50%" y="50%" z="200" />
      </feSpecularLighting>
      <feComposite in="SourceGraphic" in2="specOut" operator="arithmetic" k1="0" k2="1" k3="1" k4="0" />
    </filter>
  
    </defs>
    
    <!-- Темный фон с градиентом -->
    <rect width="256" height="256" fill="#1A2933" />
    <rect width="256" height="256" fill="url(#bgGradient)" />
    
    <!-- Градиент фона -->
    <linearGradient id="bgGradient" x1="0%" y1="0%" x2="100%" y2="100%">
      <stop offset="0%" stop-color="#1A2933" />
      <stop offset="50%" stop-color="#06151f" />
      <stop offset="100%" stop-color="#1A2933" />
    </linearGradient>
    
    <!-- Рамка с эффектом шиммера -->
    <rect x="8" y="8" width="240" height="240" fill="none" stroke="#47A6FF" stroke-width="2" filter="url(#shimmer)" />
    
    <!-- Пиксельное искусство по центру -->
    <g transform="translate(0, 0)">
      <rect x="88.25340877914952" y="24.25340877914952" width="7.49318244170096" height="7.49318244170096" fill="#4B6A88" /><rect x="95.98599794238683" y="23.98599794238683" width="8.028004115226338" height="8.028004115226338" fill="#4B6A88" /><rect x="103.99780521262002" y="23.997805212620026" width="8.004389574759946" height="8.004389574759946" fill="#4B6A88" /><rect x="112.21722565157751" y="24.217225651577504" width="7.565548696844993" height="7.565548696844993" fill="#4B6A88" /><rect x="120.24672839506172" y="24.24672839506173" width="7.506543209876543" height="7.506543209876543" fill="#4B6A88" /><rect x="128.25174554183815" y="24.251745541838133" width="7.496508916323731" height="7.496508916323731" fill="#4B6A88" /><rect x="135.71622770919066" y="23.716227709190672" width="8.567544581618655" height="8.567544581618655" fill="#4B6A88" /><rect x="143.66486625514403" y="23.664866255144034" width="8.670267489711934" height="8.670267489711934" fill="#4B6A88" /><rect x="152.35198216735253" y="24.35198216735254" width="7.296035665294925" height="7.296035665294925" fill="#4B6A88" /><rect x="160.01708161865568" y="24.01708161865569" width="7.965836762688615" height="7.965836762688615" fill="#4B6A88" /><rect x="168.3070781893004" y="24.307078189300412" width="7.385843621399177" height="7.385843621399177" fill="#4B6A88" /><rect x="79.9651817558299" y="31.965181755829903" width="8.069636488340192" height="8.069636488340192" fill="#4B6A88" /><rect x="87.98645404663924" y="31.98645404663923" width="8.027091906721537" height="8.027091906721537" fill="#4B6A88" /><rect x="96.24003086419754" y="32.24003086419753" width="7.519938271604938" height="7.519938271604938" fill="#4B6A88" /><rect x="104.3580109739369" y="32.3580109739369" width="7.2839780521262005" height="7.2839780521262005" fill="#4B6A88" /><rect x="112.09101165980796" y="32.091011659807954" width="7.817976680384088" height="7.817976680384088" fill="#4B6A88" /><rect x="119.93039094650206" y="31.930390946502058" width="8.139218106995886" height="8.139218106995886" fill="#4B6A88" /><rect x="128.39713648834018" y="32.397136488340195" width="7.205727023319616" height="7.205727023319616" fill="#4B6A88" /><rect x="135.99742112482852" y="31.997421124828534" width="8.005157750342935" height="8.005157750342935" fill="#4B6A88" /><rect x="143.84482510288066" y="31.84482510288066" width="8.310349794238682" height="8.310349794238682" fill="#4B6A88" /><rect x="151.74922496570645" y="31.749224965706446" width="8.501550068587106" height="8.501550068587106" fill="#4B6A88" /><rect x="160.17234910836763" y="32.17234910836763" width="7.655301783264746" height="7.655301783264746" fill="#4B6A88" /><rect x="167.65" y="31.65" width="8.7" height="8.7" fill="#4B6A88" /><rect x="175.68094307270232" y="31.680943072702334" width="8.638113854595336" height="8.638113854595336" fill="#4B6A88" /><rect x="72.28246227709191" y="40.28246227709191" width="7.435075445816187" height="7.435075445816187" fill="#4B6A88" /><rect x="79.81258230452674" y="39.81258230452675" width="8.374835390946503" height="8.374835390946503" fill="#4B6A88" /><rect x="87.85895747599452" y="39.858957475994515" width="8.282085048010973" height="8.282085048010973" fill="#4B6A88" /><rect x="95.99442729766804" y="39.99442729766804" width="8.011145404663923" height="8.011145404663923" fill="#4B6A88" /><rect x="103.99923868312757" y="39.99923868312757" width="8.001522633744855" height="8.001522633744855" fill="#4B6A88" /><rect x="111.94993484224966" y="39.94993484224966" width="8.100130315500685" height="8.100130315500685" fill="#4B6A88" /><rect x="119.77491083676269" y="39.774910836762686" width="8.450178326474623" height="8.450178326474623" fill="#4B6A88" /><rect x="127.87663580246914" y="39.87663580246914" width="8.246728395061728" height="8.246728395061728" fill="#4B6A88" /><rect x="135.62054183813444" y="39.62054183813443" width="8.758916323731139" height="8.758916323731139" fill="#4B6A88" /><rect x="144.09057956104252" y="40.090579561042524" width="7.818840877914952" height="7.818840877914952" fill="#4B6A88" /><rect x="151.9114403292181" y="39.91144032921811" width="8.177119341563786" height="8.177119341563786" fill="#4B6A88" /><rect x="160.1374451303155" y="40.1374451303155" width="7.725109739368999" height="7.725109739368999" fill="#4B6A88" /><rect x="167.80810013717422" y="39.80810013717421" width="8.383799725651578" height="8.383799725651578" fill="#4B6A88" /><rect x="175.77031893004116" y="39.77031893004115" width="8.459362139917696" height="8.459362139917696" fill="#4B6A88" /><rect x="184.36731138545954" y="40.36731138545953" width="7.265377229080933" height="7.265377229080933" fill="#4B6A88" /><rect x="64.19413923182442" y="48.194139231824416" width="7.611721536351166" height="7.611721536351166" fill="#4B6A88" /><rect x="71.91993827160493" y="47.919938271604934" width="8.160123456790124" height="8.160123456790124" fill="#4B6A88" /><rect x="79.9768072702332" y="47.976807270233195" width="8.046385459533608" height="8.046385459533608" fill="#4B6A88" /><rect x="88.11536351165981" y="48.11536351165981" width="7.7692729766803845" height="7.7692729766803845" fill="#4B6A88" /><rect x="96.02696502057613" y="48.02696502057613" width="7.946069958847737" height="7.946069958847737" fill="#4B6A88" /><rect x="104.23259945130316" y="48.23259945130315" width="7.53480109739369" height="7.53480109739369" fill="#4B6A88" /><rect x="112.03843964334705" y="48.03843964334705" width="7.923120713305899" height="7.923120713305899" fill="#4B6A88" /><rect x="119.7580658436214" y="47.758065843621395" width="8.483868312757203" height="8.483868312757203" fill="#4B6A88" /><rect x="128.00135459533607" y="48.001354595336075" width="7.997290809327847" height="7.997290809327847" fill="#4B6A88" /><rect x="135.63003429355282" y="47.63003429355281" width="8.739931412894377" height="8.739931412894377" fill="#4B6A88" /><rect x="144.37990740740742" y="48.37990740740741" width="7.240185185185186" height="7.240185185185186" fill="#4B6A88" /><rect x="151.74973936899863" y="47.749739368998625" width="8.500521262002744" height="8.500521262002744" fill="#4B6A88" /><rect x="160.15681412894375" y="48.15681412894376" width="7.686371742112483" height="7.686371742112483" fill="#4B6A88" /><rect x="167.95915637860082" y="47.959156378600824" width="8.081687242798354" height="8.081687242798354" fill="#4B6A88" /><rect x="175.94442043895748" y="47.94442043895748" width="8.111159122085049" height="8.111159122085049" fill="#4B6A88" /><rect x="183.68544581618656" y="47.68544581618656" width="8.629108367626886" height="8.629108367626886" fill="#4B6A88" /><rect x="191.7624794238683" y="47.762479423868314" width="8.475041152263374" height="8.475041152263374" fill="#4B6A88" /><rect x="56.25206447187929" y="56.25206447187929" width="7.495871056241427" height="7.495871056241427" fill="#4B6A88" /><rect x="64.28259602194787" y="56.282596021947874" width="7.434807956104253" height="7.434807956104253" fill="#4B6A88" /><rect x="72.25654320987654" y="56.25654320987654" width="7.486913580246914" height="7.486913580246914" fill="#4B6A88" /><rect x="80.33933813443073" y="56.339338134430726" width="7.321323731138546" height="7.321323731138546" fill="#4B6A88" /><rect x="88.01493141289437" y="56.01493141289438" width="7.970137174211248" height="7.970137174211248" fill="#4B6A88" /><rect x="96.30801440329218" y="56.308014403292184" width="7.383971193415638" height="7.383971193415638" fill="#4B6A88" /><rect x="103.87290809327847" y="55.87290809327846" width="8.254183813443072" height="8.254183813443072" fill="#4B6A88" /><rect x="112.14911865569273" y="56.14911865569273" width="7.701762688614541" height="7.701762688614541" fill="#4B6A88" /><rect x="120.38355967078189" y="56.38355967078189" width="7.232880658436214" height="7.232880658436214" fill="#4B6A88" /><rect x="128.11944101508917" y="56.119441015089166" width="7.761117969821674" height="7.761117969821674" fill="#4B6A88" /><rect x="136.3518244170096" y="56.3518244170096" width="7.296351165980796" height="7.296351165980796" fill="#4B6A88" /><rect x="144.14984567901234" y="56.149845679012344" width="7.700308641975309" height="7.700308641975309" fill="#4B6A88" /><rect x="151.94560356652948" y="55.94560356652949" width="8.108792866941016" height="8.108792866941016" fill="#4B6A88" /><rect x="160.28971536351165" y="56.28971536351166" width="7.420569272976681" height="7.420569272976681" fill="#4B6A88" /><rect x="168.07353909465022" y="56.07353909465021" width="7.852921810699589" height="7.852921810699589" fill="#4B6A88" /><rect x="175.8180624142661" y="55.818062414266116" width="8.363875171467765" height="8.363875171467765" fill="#4B6A88" /><rect x="183.62945816186556" y="55.62945816186557" width="8.741083676268861" height="8.741083676268861" fill="#4B6A88" /><rect x="191.82130658436213" y="55.82130658436214" width="8.35738683127572" height="8.35738683127572" fill="#4B6A88" /><rect x="200.2034842249657" y="56.203484224965706" width="7.593031550068587" height="7.593031550068587" fill="#4B6A88" /><rect x="47.637719478738" y="63.637719478738" width="8.724561042524005" height="8.724561042524005" fill="#4B6A88" /><rect x="55.85981481481481" y="63.85981481481481" width="8.28037037037037" height="8.28037037037037" fill="#4B6A88" /><rect x="63.96853566529492" y="63.96853566529492" width="8.062928669410152" height="8.062928669410152" fill="#4B6A88" /><rect x="71.98116598079561" y="63.98116598079561" width="8.037668038408778" height="8.037668038408778" fill="#4B6A88" /><rect x="79.85573045267489" y="63.8557304526749" width="8.288539094650206" height="8.288539094650206" fill="#4B6A88" /><rect x="88.37988340192044" y="64.37988340192044" width="7.240233196159123" height="7.240233196159123" fill="#4B6A88" /><rect x="96.32646433470508" y="64.32646433470508" width="7.347071330589849" height="7.347071330589849" fill="#4B6A88" /><rect x="104.27572016460906" y="64.27572016460906" width="7.4485596707818935" height="7.4485596707818935" fill="#4B6A88" /><rect x="112.30419410150891" y="64.30419410150891" width="7.3916117969821675" height="7.3916117969821675" fill="#4B6A88" /><rect x="120.34028120713306" y="64.34028120713306" width="7.3194375857338825" height="7.3194375857338825" fill="#4B6A88" /><rect x="127.98645061728395" y="63.98645061728395" width="8.027098765432099" height="8.027098765432099" fill="#4B6A88" /><rect x="136.20813443072703" y="64.20813443072703" width="7.583731138545954" height="7.583731138545954" fill="#4B6A88" /><rect x="143.68928326474622" y="63.68928326474623" width="8.621433470507545" height="8.621433470507545" fill="#4B6A88" /><rect x="152.25458847736627" y="64.25458847736626" width="7.49082304526749" height="7.49082304526749" fill="#4B6A88" /><rect x="159.75837105624143" y="63.75837105624143" width="8.483257887517148" height="8.483257887517148" fill="#4B6A88" /><rect x="167.64013717421125" y="63.64013717421125" width="8.719725651577503" height="8.719725651577503" fill="#4B6A88" /><rect x="175.94680041152264" y="63.94680041152263" width="8.106399176954733" height="8.106399176954733" fill="#4B6A88" /><rect x="184.22157064471878" y="64.2215706447188" width="7.556858710562414" height="7.556858710562414" fill="#4B6A88" /><rect x="191.85950960219478" y="63.85950960219479" width="8.280980795610425" height="8.280980795610425" fill="#4B6A88" /><rect x="200.32975308641974" y="64.32975308641976" width="7.340493827160494" height="7.340493827160494" fill="#4B6A88" /><rect x="207.6643998628258" y="63.66439986282579" width="8.671200274348422" height="8.671200274348422" fill="#4B6A88" /><rect x="40.01406721536351" y="72.01406721536351" width="7.9718655692729765" height="7.9718655692729765" fill="#4B6A88" /><rect x="48.27011316872428" y="72.27011316872428" width="7.459773662551441" height="7.459773662551441" fill="#4B6A88" /><rect x="56.15352537722908" y="72.15352537722909" width="7.692949245541838" height="7.692949245541838" fill="#4B6A88" /><rect x="63.770476680384085" y="71.77047668038409" width="8.459046639231826" height="8.459046639231826" fill="#4B6A88" /><rect x="72.23454732510288" y="72.23454732510288" width="7.530905349794239" height="7.530905349794239" fill="#4B6A88" /><rect x="79.75561385459534" y="71.75561385459534" width="8.488772290809328" height="8.488772290809328" fill="#4B6A88" /><rect x="88.39540466392319" y="72.39540466392319" width="7.209190672153635" height="7.209190672153635" fill="#4B6A88" /><rect x="95.88972222222222" y="71.88972222222222" width="8.220555555555556" height="8.220555555555556" fill="#4B6A88" /><rect x="103.73733196159122" y="71.73733196159122" width="8.525336076817558" height="8.525336076817558" fill="#4B6A88" /><rect x="111.95551783264746" y="71.95551783264746" width="8.088964334705075" height="8.088964334705075" fill="#4B6A88" /><rect x="119.70230452674897" y="71.70230452674897" width="8.595390946502057" height="8.595390946502057" fill="#4B6A88" /><rect x="127.7653463648834" y="71.7653463648834" width="8.469307270233196" height="8.469307270233196" fill="#4B6A88" /><rect x="135.7174828532236" y="71.7174828532236" width="8.565034293552813" height="8.565034293552813" fill="#4B6A88" /><rect x="144.1389609053498" y="72.13896090534979" width="7.722078189300412" height="7.722078189300412" fill="#4B6A88" /><rect x="152.30632373113855" y="72.30632373113855" width="7.387352537722908" height="7.387352537722908" fill="#4B6A88" /><rect x="160.14796639231824" y="72.14796639231824" width="7.704067215363512" height="7.704067215363512" fill="#4B6A88" /><rect x="168.06635802469137" y="72.06635802469135" width="7.867283950617284" height="7.867283950617284" fill="#4B6A88" /><rect x="176.22693072702333" y="72.22693072702332" width="7.546138545953361" height="7.546138545953361" fill="#4B6A88" /><rect x="184.1136351165981" y="72.11363511659808" width="7.772729766803841" height="7.772729766803841" fill="#4B6A88" /><rect x="191.95116255144032" y="71.95116255144033" width="8.097674897119342" height="8.097674897119342" fill="#4B6A88" /><rect x="199.9938340192044" y="71.99383401920439" width="8.01233196159122" height="8.01233196159122" fill="#4B6A88" /><rect x="208.08115569272977" y="72.08115569272977" width="7.8376886145404665" height="7.8376886145404665" fill="#4B6A88" /><rect x="216.26004115226337" y="72.26004115226337" width="7.479917695473251" height="7.479917695473251" fill="#4B6A88" /><rect x="32.073700274348425" y="80.07370027434843" width="7.852599451303155" height="7.852599451303155" fill="#4B6A88" /><rect x="39.717194787379974" y="79.71719478737997" width="8.565610425240056" height="8.565610425240056" fill="#4B6A88" /><rect x="47.859660493827164" y="79.85966049382716" width="8.28067901234568" height="8.28067901234568" fill="#4B6A88" /><rect x="56.133196159122086" y="80.13319615912208" width="7.73360768175583" height="7.73360768175583" fill="#4B6A88" /><rect x="64.28841906721536" y="80.28841906721536" width="7.4231618655692735" height="7.4231618655692735" fill="#4B6A88" /><rect x="72.01668724279835" y="80.01668724279835" width="7.966625514403292" height="7.966625514403292" fill="#4B6A88" /><rect x="79.83898834019205" y="79.83898834019205" width="8.322023319615912" height="8.322023319615912" fill="#4B6A88" /><rect x="87.8614951989026" y="79.8614951989026" width="8.277009602194788" height="8.277009602194788" fill="#4B6A88" /><rect x="96.39778806584363" y="80.39778806584363" width="7.204423868312757" height="7.204423868312757" fill="#4B6A88" /><rect x="103.65774348422497" y="79.65774348422497" width="8.684513031550068" height="8.684513031550068" fill="#4B6A88" /><rect x="111.70308984910837" y="79.70308984910837" width="8.593820301783264" height="8.593820301783264" fill="#4B6A88" /><rect x="119.86962962962963" y="79.86962962962963" width="8.26074074074074" height="8.26074074074074" fill="#4B6A88" /><rect x="128.0561282578875" y="80.05612825788752" width="7.887743484224966" height="7.887743484224966" fill="#4B6A88" /><rect x="136.27986968449932" y="80.27986968449932" width="7.440260631001372" height="7.440260631001372" fill="#4B6A88" /><rect x="143.69887860082304" y="79.69887860082305" width="8.60224279835391" height="8.60224279835391" fill="#4B6A88" /><rect x="151.90080932784636" y="79.90080932784636" width="8.19838134430727" height="8.19838134430727" fill="#4B6A88" /><rect x="159.65850137174212" y="79.65850137174212" width="8.682997256515776" height="8.682997256515776" fill="#4B6A88" /><rect x="168.35220164609052" y="80.35220164609053" width="7.29559670781893" height="7.29559670781893" fill="#4B6A88" /><rect x="175.65845336076816" y="79.65845336076818" width="8.683093278463648" height="8.683093278463648" fill="#4B6A88" /><rect x="183.90565157750342" y="79.90565157750343" width="8.188696844993142" height="8.188696844993142" fill="#4B6A88" /><rect x="191.89626543209877" y="79.89626543209877" width="8.20746913580247" height="8.20746913580247" fill="#4B6A88" /><rect x="199.7957270233196" y="79.79572702331961" width="8.408545953360768" height="8.408545953360768" fill="#4B6A88" /><rect x="207.88798696844992" y="79.88798696844994" width="8.224026063100137" height="8.224026063100137" fill="#4B6A88" /><rect x="216.3977366255144" y="80.3977366255144" width="7.204526748971194" height="7.204526748971194" fill="#4B6A88" /><rect x="223.97929698216734" y="79.97929698216736" width="8.041406035665295" height="8.041406035665295" fill="#4B6A88" /><rect x="232.0721742112483" y="80.07217421124828" width="7.85565157750343" height="7.85565157750343" fill="#AACAE0" /><rect x="31.923281893004116" y="87.92328189300412" width="8.15343621399177" height="8.15343621399177" fill="#4B6A88" /><rect x="39.87582990397805" y="87.87582990397806" width="8.248340192043896" height="8.248340192043896" fill="#4B6A88" /><rect x="48.12487997256516" y="88.12487997256515" width="7.750240054869685" height="7.750240054869685" fill="#4B6A88" /><rect x="55.739567901234565" y="87.73956790123457" width="8.520864197530864" height="8.520864197530864" fill="#4B6A88" /><rect x="63.95199245541838" y="87.95199245541838" width="8.096015089163238" height="8.096015089163238" fill="#4B6A88" /><rect x="71.71277091906721" y="87.71277091906721" width="8.57445816186557" height="8.57445816186557" fill="#4B6A88" /><rect x="80.31326131687243" y="88.31326131687243" width="7.373477366255144" height="7.373477366255144" fill="#4B6A88" /><rect x="87.87445130315501" y="87.87445130315501" width="8.251097393689987" height="8.251097393689987" fill="#4B6A88" /><rect x="96.10251371742112" y="88.10251371742112" width="7.79497256515775" height="7.79497256515775" fill="#4B6A88" /><rect x="103.71102880658437" y="87.71102880658437" width="8.577942386831277" height="8.577942386831277" fill="#4B6A88" /><rect x="112.10987311385459" y="88.10987311385459" width="7.780253772290809" height="7.780253772290809" fill="#4B6A88" /><rect x="120.16077503429355" y="88.16077503429355" width="7.678449931412895" height="7.678449931412895" fill="#4B6A88" /><rect x="127.99953703703704" y="87.99953703703704" width="8.000925925925927" height="8.000925925925927" fill="#4B6A88" /><rect x="136.3249245541838" y="88.32492455418381" width="7.3501508916323735" height="7.3501508916323735" fill="#4B6A88" /><rect x="144.35422153635116" y="88.35422153635116" width="7.291556927297668" height="7.291556927297668" fill="#4B6A88" /><rect x="152.04545267489712" y="88.04545267489712" width="7.909094650205762" height="7.909094650205762" fill="#4B6A88" /><rect x="160.18627229080934" y="88.18627229080933" width="7.627455418381344" height="7.627455418381344" fill="#4B6A88" /><rect x="168.34951989026064" y="88.34951989026064" width="7.300960219478738" height="7.300960219478738" fill="#4B6A88" /><rect x="176.31544238683128" y="88.31544238683128" width="7.369115226337449" height="7.369115226337449" fill="#4B6A88" /><rect x="184.1605829903978" y="88.1605829903978" width="7.678834019204389" height="7.678834019204389" fill="#4B6A88" /><rect x="191.8133367626886" y="87.8133367626886" width="8.373326474622772" height="8.373326474622772" fill="#4B6A88" /><rect x="199.67617283950617" y="87.67617283950617" width="8.647654320987655" height="8.647654320987655" fill="#4B6A88" /><rect x="207.9145233196159" y="87.91452331961591" width="8.170953360768175" height="8.170953360768175" fill="#4B6A88" /><rect x="216.01233882030178" y="88.01233882030178" width="7.975322359396434" height="7.975322359396434" fill="#4B6A88" /><rect x="224.19431069958847" y="88.19431069958847" width="7.611378600823046" height="7.611378600823046" fill="#4B6A88" /><rect x="31.914759945130314" y="95.91475994513031" width="8.17048010973937" height="8.17048010973937" fill="#4B6A88" /><rect x="39.813192729766804" y="95.8131927297668" width="8.373614540466392" height="8.373614540466392" fill="#4B6A88" /><rect x="47.93652263374486" y="95.93652263374486" width="8.126954732510288" height="8.126954732510288" fill="#4B6A88" /><rect x="55.82795953360768" y="95.82795953360768" width="8.344080932784637" height="8.344080932784637" fill="#4B6A88" /><rect x="63.682565157750346" y="95.68256515775035" width="8.634869684499314" height="8.634869684499314" fill="#4B6A88" /><rect x="72.16947530864198" y="96.16947530864198" width="7.661049382716049" height="7.661049382716049" fill="#4B6A88" /><rect x="80.12078875171468" y="96.12078875171468" width="7.7584224965706445" height="7.7584224965706445" fill="#4B6A88" /><rect x="88.08712277091907" y="96.08712277091907" width="7.825754458161866" height="7.825754458161866" fill="#4B6A88" /><rect x="95.7598353909465" y="95.7598353909465" width="8.480329218106997" height="8.480329218106997" fill="#4B6A88" /><rect x="103.65991426611797" y="95.65991426611797" width="8.68017146776406" height="8.68017146776406" fill="#4B6A88" /><rect x="111.89353223593965" y="95.89353223593965" width="8.212935528120713" height="8.212935528120713" fill="#4B6A88" /><rect x="119.97426954732511" y="95.97426954732511" width="8.051460905349794" height="8.051460905349794" fill="#4B6A88" /><rect x="127.71200274348422" y="95.71200274348422" width="8.57599451303155" height="8.57599451303155" fill="#4B6A88" /><rect x="136.36846021947875" y="96.36846021947873" width="7.263079561042524" height="7.263079561042524" fill="#4B6A88" /><rect x="143.67944444444444" y="95.67944444444444" width="8.641111111111112" height="8.641111111111112" fill="#4B6A88" /><rect x="151.9437208504801" y="95.9437208504801" width="8.112558299039781" height="8.112558299039781" fill="#4B6A88" /><rect x="160.37857338820302" y="96.37857338820302" width="7.242853223593965" height="7.242853223593965" fill="#4B6A88" /><rect x="168.1420267489712" y="96.14202674897119" width="7.715946502057613" height="7.715946502057613" fill="#4B6A88" /><rect x="176.02173525377228" y="96.02173525377229" width="7.956529492455418" height="7.956529492455418" fill="#4B6A88" /><rect x="184.39053840877915" y="96.39053840877915" width="7.218923182441701" height="7.218923182441701" fill="#4B6A88" /><rect x="192.22868312757203" y="96.22868312757201" width="7.5426337448559675" height="7.5426337448559675" fill="#4B6A88" /><rect x="199.61271262002742" y="95.61271262002744" width="8.77457475994513" height="8.77457475994513" fill="#4B6A88" /><rect x="208.0710219478738" y="96.0710219478738" width="7.857956104252401" height="7.857956104252401" fill="#4B6A88" /><rect x="215.6060802469136" y="95.60608024691358" width="8.78783950617284" height="8.78783950617284" fill="#4B6A88" /><rect x="223.9833196159122" y="95.98331961591221" width="8.033360768175584" height="8.033360768175584" fill="#4B6A88" /><rect x="31.886690672153634" y="103.88669067215363" width="8.22661865569273" height="8.22661865569273" fill="#4B6A88" /><rect x="40.34088477366255" y="104.34088477366255" width="7.318230452674897" height="7.318230452674897" fill="#4B6A88" /><rect x="48.00022290809328" y="104.00022290809328" width="7.999554183813443" height="7.999554183813443" fill="#4B6A88" /><rect x="56.30421124828532" y="104.30421124828533" width="7.391577503429356" height="7.391577503429356" fill="#4B6A88" /><rect x="63.6997633744856" y="103.6997633744856" width="8.600473251028808" height="8.600473251028808" fill="#4B6A88" /><rect x="72.13008916323732" y="104.13008916323732" width="7.739821673525378" height="7.739821673525378" fill="#4B6A88" /><rect x="80.19025034293553" y="104.19025034293553" width="7.6194993141289435" height="7.6194993141289435" fill="#4B6A88" /><rect x="87.74938271604938" y="103.74938271604938" width="8.501234567901236" height="8.501234567901236" fill="#4B6A88" /><rect x="96.03958504801098" y="104.03958504801098" width="7.920829903978053" height="7.920829903978053" fill="#4B6A88" /><rect x="104.01147462277092" y="104.01147462277092" width="7.977050754458162" height="7.977050754458162" fill="#4B6A88" /><rect x="112.15640946502057" y="104.15640946502057" width="7.687181069958848" height="7.687181069958848" fill="#4B6A88" /><rect x="120.19537722908093" y="104.19537722908093" width="7.609245541838135" height="7.609245541838135" fill="#4B6A88" /><rect x="128.23455075445816" y="104.23455075445816" width="7.5308984910836765" height="7.5308984910836765" fill="#4B6A88" /><rect x="135.78751028806585" y="103.78751028806585" width="8.424979423868313" height="8.424979423868313" fill="#4B6A88" /><rect x="144.26413237311385" y="104.26413237311385" width="7.471735253772291" height="7.471735253772291" fill="#4B6A88" /><rect x="151.72614540466392" y="103.72614540466392" width="8.547709190672155" height="8.547709190672155" fill="#4B6A88" /><rect x="159.90935185185185" y="103.90935185185185" width="8.181296296296296" height="8.181296296296296" fill="#4B6A88" /><rect x="167.9125171467764" y="103.91251714677641" width="8.174965706447189" height="8.174965706447189" fill="#4B6A88" /><rect x="175.75292524005488" y="103.75292524005486" width="8.49414951989026" height="8.49414951989026" fill="#4B6A88" /><rect x="184.18860082304528" y="104.18860082304526" width="7.622798353909465" height="7.622798353909465" fill="#4B6A88" /><rect x="191.60719821673524" y="103.60719821673526" width="8.785603566529492" height="8.785603566529492" fill="#4B6A88" /><rect x="199.98155692729767" y="103.98155692729767" width="8.036886145404663" height="8.036886145404663" fill="#4B6A88" /><rect x="208.29192386831275" y="104.29192386831275" width="7.416152263374486" height="7.416152263374486" fill="#4B6A88" /><rect x="215.81484224965706" y="103.81484224965706" width="8.370315500685871" height="8.370315500685871" fill="#4B6A88" /><rect x="224.078707133059" y="104.07870713305898" width="7.84258573388203" height="7.84258573388203" fill="#4B6A88" /><rect x="31.88598765432099" y="111.88598765432099" width="8.228024691358025" height="8.228024691358025" fill="#4B6A88" /><rect x="40.202115912208505" y="112.2021159122085" width="7.5957681755829904" height="7.5957681755829904" fill="#4B6A88" /><rect x="47.711042524005485" y="111.71104252400549" width="8.577914951989026" height="8.577914951989026" fill="#4B6A88" /><rect x="56.237458847736626" y="112.23745884773662" width="7.525082304526749" height="7.525082304526749" fill="#4B6A88" /><rect x="63.63568587105624" y="111.63568587105624" width="8.728628257887518" height="8.728628257887518" fill="#86AEC8" /><rect x="72.14522976680384" y="112.14522976680384" width="7.709540466392318" height="7.709540466392318" fill="#86AEC8" /><rect x="80.21300411522634" y="112.21300411522634" width="7.573991769547325" height="7.573991769547325" fill="#86AEC8" /><rect x="88.18221879286693" y="112.18221879286693" width="7.6355624142661185" height="7.6355624142661185" fill="#86AEC8" /><rect x="96.2479355281207" y="112.2479355281207" width="7.504128943758573" height="7.504128943758573" fill="#86AEC8" /><rect x="104.27929012345679" y="112.27929012345679" width="7.44141975308642" height="7.44141975308642" fill="#86AEC8" /><rect x="111.90838134430727" y="111.90838134430727" width="8.18323731138546" height="8.18323731138546" fill="#86AEC8" /><rect x="119.68582647462277" y="111.68582647462277" width="8.628347050754458" height="8.628347050754458" fill="#86AEC8" /><rect x="128.10298353909465" y="112.10298353909465" width="7.794032921810699" height="7.794032921810699" fill="#86AEC8" /><rect x="136.0808401920439" y="112.0808401920439" width="7.838319615912209" height="7.838319615912209" fill="#86AEC8" /><rect x="143.72556927297668" y="111.72556927297668" width="8.548861454046639" height="8.548861454046639" fill="#86AEC8" /><rect x="152.15075102880658" y="112.15075102880658" width="7.698497942386831" height="7.698497942386831" fill="#86AEC8" /><rect x="160.3662620027435" y="112.36626200274348" width="7.267475994513032" height="7.267475994513032" fill="#86AEC8" /><rect x="168.03383058984912" y="112.0338305898491" width="7.9323388203017835" height="7.9323388203017835" fill="#86AEC8" /><rect x="176.08925925925925" y="112.08925925925926" width="7.821481481481482" height="7.821481481481482" fill="#86AEC8" /><rect x="183.6313134430727" y="111.6313134430727" width="8.737373113854595" height="8.737373113854595" fill="#86AEC8" /><rect x="192.2772770919067" y="112.27727709190673" width="7.445445816186557" height="7.445445816186557" fill="#4B6A88" /><rect x="200.38517489711933" y="112.38517489711934" width="7.229650205761317" height="7.229650205761317" fill="#4B6A88" /><rect x="207.9426611796982" y="111.94266117969822" width="8.114677640603567" height="8.114677640603567" fill="#4B6A88" /><rect x="216.12257544581618" y="112.12257544581618" width="7.754849108367627" height="7.754849108367627" fill="#4B6A88" /><rect x="223.9051646090535" y="111.9051646090535" width="8.189670781893005" height="8.189670781893005" fill="#4B6A88" /><rect x="32.16697187928669" y="120.16697187928669" width="7.666056241426612" height="7.666056241426612" fill="#4B6A88" /><rect x="40.03639231824417" y="120.03639231824417" width="7.92721536351166" height="7.92721536351166" fill="#4B6A88" /><rect x="47.91589506172839" y="119.91589506172839" width="8.16820987654321" height="8.16820987654321" fill="#4B6A88" /><rect x="55.9709122085048" y="119.9709122085048" width="8.058175582990398" height="8.058175582990398" fill="#86AEC8" /><rect x="63.68539437585734" y="119.68539437585734" width="8.629211248285323" height="8.629211248285323" fill="#86AEC8" /><rect x="72.0840329218107" y="120.0840329218107" width="7.831934156378601" height="7.831934156378601" fill="#86AEC8" /><rect x="79.8211488340192" y="119.8211488340192" width="8.357702331961592" height="8.357702331961592" fill="#86AEC8" /><rect x="88.33624828532236" y="120.33624828532236" width="7.327503429355281" height="7.327503429355281" fill="#86AEC8" /><rect x="96.07624485596708" y="120.07624485596708" width="7.847510288065844" height="7.847510288065844" fill="#86AEC8" /><rect x="104.18434842249657" y="120.18434842249657" width="7.631303155006859" height="7.631303155006859" fill="#86AEC8" /><rect x="112.0556207133059" y="120.0556207133059" width="7.888758573388204" height="7.888758573388204" fill="#86AEC8" /><rect x="120.3591975308642" y="120.3591975308642" width="7.281604938271605" height="7.281604938271605" fill="#86AEC8" /><rect x="127.92717764060356" y="119.92717764060356" width="8.145644718792868" height="8.145644718792868" fill="#86AEC8" /><rect x="136.11017832647462" y="120.11017832647462" width="7.779643347050754" height="7.779643347050754" fill="#86AEC8" /><rect x="143.79955761316873" y="119.79955761316873" width="8.400884773662552" height="8.400884773662552" fill="#86AEC8" /><rect x="152.31630315500686" y="120.31630315500686" width="7.367393689986283" height="7.367393689986283" fill="#86AEC8" /><rect x="160.1665877914952" y="120.1665877914952" width="7.666824417009602" height="7.666824417009602" fill="#86AEC8" /><rect x="167.66399176954732" y="119.66399176954732" width="8.67201646090535" height="8.67201646090535" fill="#86AEC8" /><rect x="176.2183916323731" y="120.21839163237311" width="7.563216735253772" height="7.563216735253772" fill="#86AEC8" /><rect x="183.8915157750343" y="119.89151577503429" width="8.216968449931413" height="8.216968449931413" fill="#86AEC8" /><rect x="191.61916666666667" y="119.61916666666667" width="8.761666666666667" height="8.761666666666667" fill="#86AEC8" /><rect x="200.100109739369" y="120.100109739369" width="7.799780521262003" height="7.799780521262003" fill="#4B6A88" /><rect x="207.75162894375856" y="119.75162894375858" width="8.496742112482853" height="8.496742112482853" fill="#4B6A88" /><rect x="216.13174897119342" y="120.13174897119342" width="7.736502057613169" height="7.736502057613169" fill="#4B6A88" /><rect x="223.6281241426612" y="119.62812414266118" width="8.743751714677641" height="8.743751714677641" fill="#4B6A88" /><rect x="32.213593964334706" y="128.2135939643347" width="7.57281207133059" height="7.57281207133059" fill="#4B6A88" /><rect x="40.06840534979424" y="128.06840534979423" width="7.8631893004115225" height="7.8631893004115225" fill="#4B6A88" /><rect x="48.069101508916326" y="128.06910150891633" width="7.861796982167353" height="7.861796982167353" fill="#86AEC8" /><rect x="56.14407750342936" y="128.14407750342934" width="7.711844993141289" height="7.711844993141289" fill="#86AEC8" /><rect x="63.8958024691358" y="127.8958024691358" width="8.208395061728396" height="8.208395061728396" fill="#86AEC8" /><rect x="72.2897085048011" y="128.2897085048011" width="7.420582990397805" height="7.420582990397805" fill="#86AEC8" /><rect x="80.00974622770919" y="128.0097462277092" width="7.980507544581619" height="7.980507544581619" fill="#86AEC8" /><rect x="88.08060699588478" y="128.08060699588478" width="7.838786008230453" height="7.838786008230453" fill="#86AEC8" /><rect x="95.95661179698217" y="127.95661179698217" width="8.086776406035666" height="8.086776406035666" fill="#86AEC8" /><rect x="104.27726680384087" y="128.2772668038409" width="7.445466392318244" height="7.445466392318244" fill="#86AEC8" /><rect x="112.28948559670782" y="128.2894855967078" width="7.421028806584363" height="7.421028806584363" fill="#86AEC8" /><rect x="120.3364780521262" y="128.3364780521262" width="7.327043895747599" height="7.327043895747599" fill="#86AEC8" /><rect x="127.81330589849108" y="127.81330589849108" width="8.373388203017832" height="8.373388203017832" fill="#86AEC8" /><rect x="136.1891049382716" y="128.1891049382716" width="7.62179012345679" height="7.62179012345679" fill="#86AEC8" /><rect x="144.29597393689986" y="128.29597393689986" width="7.408052126200275" height="7.408052126200275" fill="#86AEC8" /><rect x="151.8845301783265" y="127.88453017832647" width="8.230939643347051" height="8.230939643347051" fill="#86AEC8" /><rect x="160.2461316872428" y="128.2461316872428" width="7.507736625514403" height="7.507736625514403" fill="#86AEC8" /><rect x="168.30176611796983" y="128.30176611796983" width="7.396467764060357" height="7.396467764060357" fill="#86AEC8" /><rect x="176.1576063100137" y="128.1576063100137" width="7.6847873799725654" height="7.6847873799725654" fill="#86AEC8" /><rect x="184.12723251028805" y="128.12723251028805" width="7.745534979423868" height="7.745534979423868" fill="#86AEC8" /><rect x="192.02052126200275" y="128.02052126200275" width="7.958957475994513" height="7.958957475994513" fill="#86AEC8" /><rect x="200.29920096021948" y="128.29920096021948" width="7.401598079561043" height="7.401598079561043" fill="#86AEC8" /><rect x="208.29907407407407" y="128.29907407407407" width="7.401851851851852" height="7.401851851851852" fill="#4B6A88" /><rect x="215.9189060356653" y="127.91890603566529" width="8.162187928669411" height="8.162187928669411" fill="#4B6A88" /><rect x="223.97598079561044" y="127.97598079561043" width="8.04803840877915" height="8.04803840877915" fill="#4B6A88" /><rect x="31.62832304526749" y="135.62832304526748" width="8.743353909465021" height="8.743353909465021" fill="#4B6A88" /><rect x="39.663587105624146" y="135.66358710562415" width="8.672825788751716" height="8.672825788751716" fill="#4B6A88" /><rect x="47.654612482853224" y="135.65461248285322" width="8.690775034293553" height="8.690775034293553" fill="#4B6A88" /><rect x="56.18164609053498" y="136.18164609053497" width="7.6367078189300415" height="7.6367078189300415" fill="#4B6A88" /><rect x="63.72123113854595" y="135.72123113854596" width="8.557537722908094" height="8.557537722908094" fill="#4B6A88" /><rect x="71.80176268861455" y="135.80176268861453" width="8.396474622770919" height="8.396474622770919" fill="#4B6A88" /><rect x="80.0257098765432" y="136.0257098765432" width="7.948580246913581" height="7.948580246913581" fill="#4B6A88" /><rect x="87.75850480109739" y="135.7585048010974" width="8.482990397805214" height="8.482990397805214" fill="#4B6A88" /><rect x="96.08409807956104" y="136.08409807956104" width="7.831803840877916" height="7.831803840877916" fill="#4B6A88" /><rect x="103.62718106995885" y="135.62718106995885" width="8.745637860082304" height="8.745637860082304" fill="#4B6A88" /><rect x="112.24207475994513" y="136.24207475994513" width="7.51585048010974" height="7.51585048010974" fill="#4B6A88" /><rect x="120.1682853223594" y="136.1682853223594" width="7.663429355281207" height="7.663429355281207" fill="#4B6A88" /><rect x="128.25272633744856" y="136.25272633744856" width="7.4945473251028805" height="7.4945473251028805" fill="#4B6A88" /><rect x="136.03860768175582" y="136.03860768175582" width="7.92278463648834" height="7.92278463648834" fill="#4B6A88" /><rect x="143.72099108367627" y="135.72099108367627" width="8.558017832647462" height="8.558017832647462" fill="#4B6A88" /><rect x="151.969012345679" y="135.969012345679" width="8.061975308641976" height="8.061975308641976" fill="#4B6A88" /><rect x="159.61477023319617" y="135.61477023319617" width="8.770459533607681" height="8.770459533607681" fill="#4B6A88" /><rect x="168.0088820301783" y="136.0088820301783" width="7.982235939643347" height="7.982235939643347" fill="#4B6A88" /><rect x="176.04270576131688" y="136.04270576131688" width="7.914588477366255" height="7.914588477366255" fill="#4B6A88" /><rect x="184.2372290809328" y="136.2372290809328" width="7.525541838134431" height="7.525541838134431" fill="#4B6A88" /><rect x="191.89862482853223" y="135.89862482853223" width="8.202750342935529" height="8.202750342935529" fill="#4B6A88" /><rect x="200.1404732510288" y="136.1404732510288" width="7.719053497942387" height="7.719053497942387" fill="#4B6A88" /><rect x="207.97265089163238" y="135.97265089163238" width="8.054698216735254" height="8.054698216735254" fill="#4B6A88" /><rect x="215.85688614540467" y="135.85688614540467" width="8.286227709190673" height="8.286227709190673" fill="#4B6A88" /><rect x="223.9289814814815" y="135.9289814814815" width="8.142037037037037" height="8.142037037037037" fill="#4B6A88" /><rect x="32.087702331961594" y="144.0877023319616" width="7.8245953360768175" height="7.8245953360768175" fill="#4B6A88" /><rect x="40.350332647462274" y="144.35033264746227" width="7.299334705075446" height="7.299334705075446" fill="#4B6A88" /><rect x="47.87489711934156" y="143.87489711934157" width="8.250205761316872" height="8.250205761316872" fill="#4B6A88" /><rect x="56.2490500685871" y="144.2490500685871" width="7.501899862825789" height="7.501899862825789" fill="#4B6A88" /><rect x="64.24563100137175" y="144.24563100137175" width="7.508737997256516" height="7.508737997256516" fill="#4B6A88" /><rect x="71.64488683127573" y="143.64488683127573" width="8.71022633744856" height="8.71022633744856" fill="#4B6A88" /><rect x="80.12336076817559" y="144.1233607681756" width="7.753278463648834" height="7.753278463648834" fill="#4B6A88" /><rect x="88.00944787379973" y="144.00944787379973" width="7.981104252400549" height="7.981104252400549" fill="#4B6A88" /><rect x="95.70561728395062" y="143.70561728395063" width="8.588765432098766" height="8.588765432098766" fill="#4B6A88" /><rect x="104.1773010973937" y="144.1773010973937" width="7.64539780521262" height="7.64539780521262" fill="#4B6A88" /><rect x="112.10844993141289" y="144.1084499314129" width="7.783100137174212" height="7.783100137174212" fill="#4B6A88" /><rect x="119.72375514403292" y="143.7237551440329" width="8.552489711934157" height="8.552489711934157" fill="#4B6A88" /><rect x="128.0775377229081" y="144.0775377229081" width="7.844924554183814" height="7.844924554183814" fill="#4B6A88" /><rect x="136.2093038408779" y="144.2093038408779" width="7.58139231824417" height="7.58139231824417" fill="#4B6A88" /><rect x="144.1659670781893" y="144.1659670781893" width="7.668065843621399" height="7.668065843621399" fill="#4B6A88" /><rect x="152.29073731138547" y="144.29073731138547" width="7.418525377229081" height="7.418525377229081" fill="#4B6A88" /><rect x="159.97867626886145" y="143.97867626886145" width="8.042647462277092" height="8.042647462277092" fill="#4B6A88" /><rect x="167.89891975308643" y="143.89891975308643" width="8.202160493827162" height="8.202160493827162" fill="#4B6A88" /><rect x="175.68356652949245" y="143.68356652949245" width="8.63286694101509" height="8.63286694101509" fill="#4B6A88" /><rect x="183.88323388203017" y="143.88323388203017" width="8.233532235939643" height="8.233532235939643" fill="#4B6A88" /><rect x="192.18927983539095" y="144.18927983539095" width="7.621440329218107" height="7.621440329218107" fill="#4B6A88" /><rect x="200.32269204389576" y="144.32269204389576" width="7.354615912208505" height="7.354615912208505" fill="#4B6A88" /><rect x="208.38964334705076" y="144.38964334705076" width="7.220713305898491" height="7.220713305898491" fill="#4B6A88" /><rect x="215.90371399176954" y="143.90371399176954" width="8.192572016460906" height="8.192572016460906" fill="#4B6A88" /><rect x="224.27478052126202" y="144.27478052126202" width="7.450438957475995" height="7.450438957475995" fill="#4B6A88" /><rect x="32.36457133058985" y="152.36457133058985" width="7.270857338820302" height="7.270857338820302" fill="#4B6A88" /><rect x="40.30888888888889" y="152.3088888888889" width="7.3822222222222225" height="7.3822222222222225" fill="#4B6A88" /><rect x="48.00649862825789" y="152.00649862825787" width="7.987002743484226" height="7.987002743484226" fill="#4B6A88" /><rect x="56.27468449931413" y="152.27468449931413" width="7.450631001371742" height="7.450631001371742" fill="#4B6A88" /><rect x="64.27147119341564" y="152.27147119341564" width="7.4570576131687245" height="7.4570576131687245" fill="#4B6A88" /><rect x="71.98451303155007" y="151.98451303155008" width="8.030973936899862" height="8.030973936899862" fill="#4B6A88" /><rect x="79.78664951989026" y="151.78664951989026" width="8.42670096021948" height="8.42670096021948" fill="#4B6A88" /><rect x="88.25812757201646" y="152.25812757201646" width="7.483744855967078" height="7.483744855967078" fill="#4B6A88" /><rect x="95.87549039780521" y="151.8754903978052" width="8.249019204389574" height="8.249019204389574" fill="#4B6A88" /><rect x="104.16713305898492" y="152.16713305898492" width="7.665733882030178" height="7.665733882030178" fill="#4B6A88" /><rect x="111.93552469135803" y="151.935524691358" width="8.128950617283952" height="8.128950617283952" fill="#4B6A88" /><rect x="120.14609739368998" y="152.14609739368998" width="7.707805212620028" height="7.707805212620028" fill="#4B6A88" /><rect x="128.28280178326474" y="152.28280178326474" width="7.434396433470508" height="7.434396433470508" fill="#4B6A88" /><rect x="135.770329218107" y="151.770329218107" width="8.459341563786008" height="8.459341563786008" fill="#4B6A88" /><rect x="143.66300068587105" y="151.66300068587105" width="8.673998628257888" height="8.673998628257888" fill="#4B6A88" /><rect x="151.80032235939643" y="151.80032235939643" width="8.399355281207134" height="8.399355281207134" fill="#4B6A88" /><rect x="160.22920781893004" y="152.22920781893004" width="7.541584362139918" height="7.541584362139918" fill="#4B6A88" /><rect x="167.6928669410151" y="151.6928669410151" width="8.614266117969823" height="8.614266117969823" fill="#4B6A88" /><rect x="175.98636145404663" y="151.98636145404663" width="8.027277091906722" height="8.027277091906722" fill="#4B6A88" /><rect x="184.17882716049382" y="152.17882716049382" width="7.642345679012346" height="7.642345679012346" fill="#4B6A88" /><rect x="191.90236282578874" y="151.90236282578874" width="8.195274348422497" height="8.195274348422497" fill="#4B6A88" /><rect x="199.70758573388204" y="151.70758573388204" width="8.58482853223594" height="8.58482853223594" fill="#4B6A88" /><rect x="208.08585390946502" y="152.08585390946502" width="7.828292181069959" height="7.828292181069959" fill="#4B6A88" /><rect x="215.9581550068587" y="151.9581550068587" width="8.083689986282579" height="8.083689986282579" fill="#4B6A88" /><rect x="224.23066186556926" y="152.23066186556926" width="7.538676268861455" height="7.538676268861455" fill="#4B6A88" /><rect x="31.616954732510287" y="159.6169547325103" width="8.766090534979424" height="8.766090534979424" fill="#4B6A88" /><rect x="40.326910150891635" y="160.32691015089162" width="7.346179698216735" height="7.346179698216735" fill="#4B6A88" /><rect x="47.622256515775035" y="159.62225651577504" width="8.755486968449931" height="8.755486968449931" fill="#4B6A88" /><rect x="56.0387962962963" y="160.03879629629628" width="7.922407407407407" height="7.922407407407407" fill="#4B6A88" /><rect x="63.87529492455418" y="159.8752949245542" width="8.249410150891633" height="8.249410150891633" fill="#4B6A88" /><rect x="71.94903635116599" y="159.94903635116597" width="8.101927297668038" height="8.101927297668038" fill="#4B6A88" /><rect x="80.21804526748971" y="160.2180452674897" width="7.5639094650205765" height="7.5639094650205765" fill="#4B6A88" /><rect x="87.86997599451303" y="159.86997599451303" width="8.260048010973938" height="8.260048010973938" fill="#4B6A88" /><rect x="96.07766803840877" y="160.07766803840877" width="7.844663923182442" height="7.844663923182442" fill="#4B6A88" /><rect x="103.8213683127572" y="159.82136831275722" width="8.357263374485598" height="8.357263374485598" fill="#4B6A88" /><rect x="111.97762002743484" y="159.97762002743485" width="8.044759945130316" height="8.044759945130316" fill="#4B6A88" /><rect x="119.6748182441701" y="159.6748182441701" width="8.650363511659808" height="8.650363511659808" fill="#4B6A88" /><rect x="128.11543209876544" y="160.11543209876544" width="7.769135802469136" height="7.769135802469136" fill="#4B6A88" /><rect x="135.86489368998627" y="159.86489368998627" width="8.270212620027435" height="8.270212620027435" fill="#4B6A88" /><rect x="144.0071536351166" y="160.0071536351166" width="7.985692729766804" height="7.985692729766804" fill="#4B6A88" /><rect x="151.96690329218106" y="159.96690329218106" width="8.06619341563786" height="8.06619341563786" fill="#4B6A88" /><rect x="159.99846364883402" y="159.99846364883402" width="8.003072702331961" height="8.003072702331961" fill="#4B6A88" /><rect x="167.94134087791494" y="159.94134087791494" width="8.117318244170097" height="8.117318244170097" fill="#4B6A88" /><rect x="175.84244855967077" y="159.84244855967077" width="8.315102880658436" height="8.315102880658436" fill="#4B6A88" /><rect x="184.0449965706447" y="160.0449965706447" width="7.910006858710562" height="7.910006858710562" fill="#4B6A88" /><rect x="191.94404663923183" y="159.94404663923183" width="8.111906721536352" height="8.111906721536352" fill="#4B6A88" /><rect x="200.20873456790125" y="160.20873456790125" width="7.5825308641975315" height="7.5825308641975315" fill="#4B6A88" /><rect x="207.67115912208504" y="159.67115912208504" width="8.657681755829904" height="8.657681755829904" fill="#4B6A88" /><rect x="215.6819375857339" y="159.6819375857339" width="8.636124828532235" height="8.636124828532235" fill="#4B6A88" /><rect x="223.9324279835391" y="159.9324279835391" width="8.135144032921811" height="8.135144032921811" fill="#4B6A88" /><rect x="32.143617969821676" y="168.14361796982166" width="7.712764060356653" height="7.712764060356653" fill="#4B6A88" /><rect x="39.62168038408779" y="167.6216803840878" width="8.756639231824417" height="8.756639231824417" fill="#4B6A88" /><rect x="48.28019547325103" y="168.28019547325104" width="7.439609053497943" height="7.439609053497943" fill="#4B6A88" /><rect x="56.32903978052126" y="168.32903978052127" width="7.341920438957477" height="7.341920438957477" fill="#4B6A88" /><rect x="64.22994170096023" y="168.2299417009602" width="7.540116598079561" height="7.540116598079561" fill="#4B6A88" /><rect x="72.1187037037037" y="168.11870370370372" width="7.7625925925925925" height="7.7625925925925925" fill="#4B6A88" /><rect x="79.89409122085048" y="167.89409122085047" width="8.21181755829904" height="8.21181755829904" fill="#4B6A88" /><rect x="88.37338820301784" y="168.37338820301784" width="7.253223593964335" height="7.253223593964335" fill="#4B6A88" /><rect x="95.91461934156379" y="167.9146193415638" width="8.170761316872428" height="8.170761316872428" fill="#4B6A88" /><rect x="104.105438957476" y="168.105438957476" width="7.789122085048011" height="7.789122085048011" fill="#4B6A88" /><rect x="111.7186865569273" y="167.7186865569273" width="8.562626886145406" height="8.562626886145406" fill="#4B6A88" /><rect x="120.13460905349794" y="168.13460905349794" width="7.7307818930041154" height="7.7307818930041154" fill="#4B6A88" /><rect x="127.82974965706447" y="167.82974965706447" width="8.340500685871056" height="8.340500685871056" fill="#4B6A88" /><rect x="136.33250342935528" y="168.33250342935528" width="7.334993141289438" height="7.334993141289438" fill="#4B6A88" /><rect x="143.64533950617283" y="167.64533950617283" width="8.709320987654321" height="8.709320987654321" fill="#4B6A88" /><rect x="152.3336899862826" y="168.3336899862826" width="7.332620027434842" height="7.332620027434842" fill="#4B6A88" /><rect x="160.28150548696846" y="168.28150548696846" width="7.436989026063101" height="7.436989026063101" fill="#4B6A88" /><rect x="167.71347736625515" y="167.71347736625515" width="8.573045267489713" height="8.573045267489713" fill="#4B6A88" /><rect x="175.68392661179698" y="167.68392661179698" width="8.632146776406035" height="8.632146776406035" fill="#4B6A88" /><rect x="184.03235939643346" y="168.03235939643346" width="7.935281207133059" height="7.935281207133059" fill="#4B6A88" /><rect x="192.00568930041152" y="168.00568930041152" width="7.988621399176955" height="7.988621399176955" fill="#4B6A88" /><rect x="199.94712620027434" y="167.94712620027434" width="8.105747599451304" height="8.105747599451304" fill="#4B6A88" /><rect x="208.051731824417" y="168.051731824417" width="7.896536351165981" height="7.896536351165981" fill="#4B6A88" /><rect x="216.18864197530866" y="168.18864197530866" width="7.622716049382716" height="7.622716049382716" fill="#4B6A88" /><rect x="223.98995541838136" y="167.98995541838136" width="8.020089163237312" height="8.020089163237312" fill="#4B6A88" /><rect x="32.006289437585735" y="176.00628943758574" width="7.987421124828533" height="7.987421124828533" fill="#4B6A88" /><rect x="39.92900205761317" y="175.92900205761316" width="8.141995884773662" height="8.141995884773662" fill="#4B6A88" /><rect x="48.27908093278464" y="176.27908093278464" width="7.441838134430728" height="7.441838134430728" fill="#86AEC8" /><rect x="56.36269890260631" y="176.3626989026063" width="7.27460219478738" height="7.27460219478738" fill="#86AEC8" /><rect x="63.69343621399177" y="175.69343621399176" width="8.613127572016461" height="8.613127572016461" fill="#86AEC8" /><rect x="71.68116941015089" y="175.6811694101509" width="8.637661179698217" height="8.637661179698217" fill="#86AEC8" /><rect x="79.9876268861454" y="175.9876268861454" width="8.02474622770919" height="8.02474622770919" fill="#4B6A88" /><rect x="87.9486111111111" y="175.94861111111112" width="8.102777777777778" height="8.102777777777778" fill="#4B6A88" /><rect x="152.26288751714677" y="176.26288751714677" width="7.474224965706448" height="7.474224965706448" fill="#4B6A88" /><rect x="160.14774005486967" y="176.14774005486967" width="7.704519890260631" height="7.704519890260631" fill="#4B6A88" /><rect x="168.36119341563787" y="176.36119341563787" width="7.27761316872428" height="7.27761316872428" fill="#86AEC8" /><rect x="176.09090192043897" y="176.09090192043897" width="7.818196159122085" height="7.818196159122085" fill="#86AEC8" /><rect x="183.7097050754458" y="175.7097050754458" width="8.580589849108367" height="8.580589849108367" fill="#86AEC8" /><rect x="191.7978497942387" y="175.7978497942387" width="8.404300411522634" height="8.404300411522634" fill="#86AEC8" /><rect x="199.6318792866941" y="175.6318792866941" width="8.736241426611798" height="8.736241426611798" fill="#4B6A88" /><rect x="207.94018861454046" y="175.94018861454046" width="8.119622770919067" height="8.119622770919067" fill="#4B6A88" /><rect x="32.325246913580244" y="184.32524691358026" width="7.349506172839506" height="7.349506172839506" fill="#4B6A88" /><rect x="40.15248628257888" y="184.15248628257888" width="7.69502743484225" height="7.69502743484225" fill="#86AEC8" /><rect x="47.7058573388203" y="183.7058573388203" width="8.588285322359397" height="8.588285322359397" fill="#86AEC8" /><rect x="56.01005144032922" y="184.01005144032922" width="7.9798971193415635" height="7.9798971193415635" fill="#86AEC8" /><rect x="63.719389574759944" y="183.71938957475996" width="8.56122085048011" height="8.56122085048011" fill="#86AEC8" /><rect x="72.273377914952" y="184.273377914952" width="7.453244170096022" height="7.453244170096022" fill="#86AEC8" /><rect x="80.11893004115227" y="184.11893004115225" width="7.762139917695474" height="7.762139917695474" fill="#86AEC8" /><rect x="88.39925582990398" y="184.39925582990398" width="7.201488340192044" height="7.201488340192044" fill="#4B6A88" /><rect x="151.7094170096022" y="183.7094170096022" width="8.58116598079561" height="8.58116598079561" fill="#4B6A88" /><rect x="160.31854938271604" y="184.31854938271604" width="7.362901234567901" height="7.362901234567901" fill="#86AEC8" /><rect x="168.25875171467763" y="184.25875171467763" width="7.482496570644719" height="7.482496570644719" fill="#86AEC8" /><rect x="176.08064128943758" y="184.08064128943758" width="7.838717421124828" height="7.838717421124828" fill="#86AEC8" /><rect x="184.27557613168725" y="184.27557613168725" width="7.448847736625515" height="7.448847736625515" fill="#86AEC8" /><rect x="191.7645438957476" y="183.7645438957476" width="8.470912208504801" height="8.470912208504801" fill="#86AEC8" /><rect x="200.25371742112483" y="184.25371742112483" width="7.492565157750343" height="7.492565157750343" fill="#86AEC8" /><rect x="207.65667695473252" y="183.65667695473252" width="8.68664609053498" height="8.68664609053498" fill="#4B6A88" /><rect x="32.18329903978052" y="192.1832990397805" width="7.633401920438958" height="7.633401920438958" fill="#4B6A88" /><rect x="39.89531207133059" y="191.89531207133058" width="8.20937585733882" height="8.20937585733882" fill="#86AEC8" /><rect x="47.72851851851852" y="191.7285185185185" width="8.542962962962964" height="8.542962962962964" fill="#86AEC8" /><rect x="56.381683813443075" y="192.38168381344306" width="7.236632373113855" height="7.236632373113855" fill="#86AEC8" /><rect x="64.27209190672154" y="192.27209190672153" width="7.455816186556928" height="7.455816186556928" fill="#86AEC8" /><rect x="72.15776748971193" y="192.15776748971194" width="7.684465020576132" height="7.684465020576132" fill="#86AEC8" /><rect x="80.02636488340192" y="192.02636488340192" width="7.947270233196159" height="7.947270233196159" fill="#86AEC8" /><rect x="88.25072359396434" y="192.25072359396432" width="7.498552812071331" height="7.498552812071331" fill="#4B6A88" /><rect x="151.81109053497943" y="191.81109053497943" width="8.377818930041153" height="8.377818930041153" fill="#4B6A88" /><rect x="160.38400891632372" y="192.38400891632372" width="7.2319821673525375" height="7.2319821673525375" fill="#86AEC8" /><rect x="168.29787379972566" y="192.29787379972566" width="7.404252400548697" height="7.404252400548697" fill="#86AEC8" /><rect x="175.95515432098765" y="191.95515432098765" width="8.089691358024691" height="8.089691358024691" fill="#86AEC8" /><rect x="184.32128257887518" y="192.32128257887518" width="7.357434842249657" height="7.357434842249657" fill="#86AEC8" /><rect x="192.08020919067215" y="192.08020919067215" width="7.839581618655693" height="7.839581618655693" fill="#86AEC8" /><rect x="200.25662551440328" y="192.25662551440328" width="7.486748971193416" height="7.486748971193416" fill="#86AEC8" /><rect x="208.3048525377229" y="192.3048525377229" width="7.390294924554184" height="7.390294924554184" fill="#4B6A88" /><rect x="32.064396433470506" y="200.0643964334705" width="7.871207133058985" height="7.871207133058985" fill="#4B6A88" /><rect x="40.382170781893" y="200.382170781893" width="7.235658436213992" height="7.235658436213992" fill="#4B6A88" /><rect x="48.00138545953361" y="200.0013854595336" width="7.997229080932785" height="7.997229080932785" fill="#86AEC8" /><rect x="55.91710219478738" y="199.9171021947874" width="8.16579561042524" height="8.16579561042524" fill="#86AEC8" /><rect x="63.998456790123456" y="199.99845679012347" width="8.003086419753087" height="8.003086419753087" fill="#86AEC8" /><rect x="71.87754801097394" y="199.87754801097392" width="8.244903978052127" height="8.244903978052127" fill="#86AEC8" /><rect x="80.10499314128944" y="200.10499314128944" width="7.790013717421125" height="7.790013717421125" fill="#4B6A88" /><rect x="88.37215020576132" y="200.37215020576133" width="7.255699588477366" height="7.255699588477366" fill="#4B6A88" /><rect x="151.60000685871057" y="199.60000685871057" width="8.799986282578875" height="8.799986282578875" fill="#4B6A88" /><rect x="160.29473593964335" y="200.29473593964335" width="7.410528120713306" height="7.410528120713306" fill="#4B6A88" /><rect x="168.36991769547325" y="200.36991769547325" width="7.260164609053498" height="7.260164609053498" fill="#86AEC8" /><rect x="175.63542866941015" y="199.63542866941015" width="8.729142661179699" height="8.729142661179699" fill="#86AEC8" /><rect x="184.1529972565158" y="200.1529972565158" width="7.69400548696845" height="7.69400548696845" fill="#86AEC8" /><rect x="191.65842592592594" y="199.65842592592594" width="8.683148148148149" height="8.683148148148149" fill="#86AEC8" /><rect x="199.65048010973936" y="199.65048010973936" width="8.699039780521263" height="8.699039780521263" fill="#4B6A88" /><rect x="208.14644375857338" y="200.14644375857338" width="7.707112482853224" height="7.707112482853224" fill="#4B6A88" /><rect x="48" y="80" width="8" height="8" fill="white" opacity="0.5" filter="url(#metal)" /><rect x="136" y="24" width="8" height="8" fill="white" opacity="0.5" filter="url(#metal)" /><rect x="152" y="96" width="8" height="8" fill="white" opacity="0.5" filter="url(#metal)" /><rect x="40" y="48" width="8" height="8" fill="white" opacity="0.5" filter="url(#metal)" /><rect x="120" y="128" width="8" height="8" fill="white" opacity="0.5" filter="url(#metal)" /><rect x="112" y="176" width="8" height="8" fill="white" opacity="0.5" filter="url(#metal)" /><rect x="80" y="152" width="8" height="8" fill="white" opacity="0.5" filter="url(#metal)" /><rect x="104" y="56" width="8" height="8" fill="white" opacity="0.5" filter="url(#metal)" /><rect x="160" y="48" width="8" height="8" fill="white" opacity="0.5" filter="url(#metal)" /><rect x="216" y="104" width="8" height="8" fill="white" opacity="0.5" filter="url(#metal)" />
    </g>
    
    <!-- Добавляем небольшие блестящие эффекты -->
    <rect x="240" y="176" width="16" height="16" fill="#47A6FF" opacity="0.34957347393689986" filter="url(#shimmer)" /><rect x="168" y="136" width="16" height="16" fill="#47A6FF" opacity="0.32442772633744854" filter="url(#shimmer)" /><rect x="192" y="96" width="8" height="8" fill="#47A6FF" opacity="0.488582390260631" filter="url(#shimmer)" /><rect x="104" y="88" width="16" height="16" fill="#47A6FF" opacity="0.6506794410150891" filter="url(#shimmer)" /><rect x="144" y="160" width="16" height="16" fill="#47A6FF" opacity="0.6008423353909464" filter="url(#shimmer)" /><rect x="0" y="248" width="8" height="8" fill="#47A6FF" opacity="0.22178712277091908" filter="url(#shimmer)" /><rect x="184" y="24" width="8" height="8" fill="#47A6FF" opacity="0.43326688957475995" filter="url(#shimmer)" /><rect x="64" y="88" width="16" height="16" fill="#47A6FF" opacity="0.469849537037037" filter="url(#shimmer)" /><rect x="144" y="112" width="16" height="16" fill="#47A6FF" opacity="0.4920288923182442" filter="url(#shimmer)" /><rect x="136" y="144" width="8" height="8" fill="#47A6FF" opacity="0.5306691529492455" filter="url(#shimmer)" /><rect x="80" y="88" width="8" height="8" fill="#47A6FF" opacity="0.26478266460905353" filter="url(#shimmer)" /><rect x="16" y="104" width="8" height="8" fill="#47A6FF" opacity="0.6326410322359397" filter="url(#shimmer)" /><rect x="144" y="112" width="8" height="8" fill="#47A6FF" opacity="0.2762195644718793" filter="url(#shimmer)" /><rect x="120" y="88" width="8" height="8" fill="#47A6FF" opacity="0.3189750514403292" filter="url(#shimmer)" />
  </svg>
  