
    <svg xmlns="http://www.w3.org/2000/svg" width="400" height="400" viewBox="0 0 400 400">
      <defs>
        
    <filter id="glow" x="-20%" y="-20%" width="140%" height="140%">
      <feGaussianBlur stdDeviation="2" result="blur" />
      <feComposite in="SourceGraphic" in2="blur" operator="over" />
    </filter>
  
        
    <filter id="luxury">
      <feSpecularLighting result="specOut" specularExponent="20" lighting-color="#cccccc">
        <fePointLight x="100" y="100" z="200"/>
      </feSpecularLighting>
      <feComposite in="SourceGraphic" in2="specOut" operator="arithmetic" k1="0" k2="1" k3="1" k4="0"/>
    </filter>
  
        
        <linearGradient id="grad1" x1="0%" y1="0%" x2="100%" y2="100%">
          <stop offset="0%" stop-color="#1E2B3A" />
          <stop offset="100%" stop-color="#647687" />
        </linearGradient>
        
        <linearGradient id="metalgrad" x1="0%" y1="0%" x2="100%" y2="100%">
          <stop offset="0%" stop-color="#333" stop-opacity="0.1" />
          <stop offset="50%" stop-color="#FFF" stop-opacity="0.3" />
          <stop offset="100%" stop-color="#333" stop-opacity="0.1" />
        </linearGradient>
        
        <pattern id="pattern1" width="20" height="20" patternUnits="userSpaceOnUse">
          <circle cx="10" cy="10" r="1" fill="#C0A080" opacity="0.3" />
        </pattern>
        
        <filter id="blur">
          <feGaussianBlur stdDeviation="1" />
        </filter>
      </defs>
      
      <!-- Фон -->
      <rect width="400" height="400" fill="url(#grad1)" />
      <rect width="400" height="400" fill="url(#pattern1)" />
      
      <!-- Декоративные элементы роскоши -->
      
        <g transform="translate(200.03843384422686, 206.4061538164729) scale(0.83137708393399)">
          <ellipse cx="0" cy="0" rx="20" ry="5" fill="#E0E0E0" opacity="0.2" filter="url(#glow)" />
          <ellipse cx="0" cy="0" rx="10" ry="2" fill="white" opacity="0.4" />
        </g>
      
        <g filter="url(#luxury)">
          <circle cx="67.72937396390046" cy="226.38627605367373" r="29.133899071585024" fill="#E0E0E0" opacity="0.9" stroke="#A0A0A0" stroke-width="0.5" />
          <circle cx="67.72937396390046" cy="226.38627605367373" r="27.133899071585024" fill="#E0E0E0" opacity="0.8" />
          <text x="67.72937396390046" y="231.38627605367373" font-family="Arial" font-size="14.566949535792512" font-weight="bold" text-anchor="middle" fill="#222">$</text>
        </g>
      
      
      <!-- Основной роскошный элемент в зависимости от темы -->
      
      <g transform="translate(50, 150) scale(1.5)">
        <!-- Частный бизнес-джет класса люкс -->
        
        <!-- Корпус самолета - аэродинамическая форма -->
        <path d="M20,70 L140,70 C150,70 160,75 170,85 C160,95 150,100 140,100 L20,100 C15,95 10,90 10,85 C10,80 15,75 20,70Z" 
              fill="#C0A080" stroke="#A0A0A0" stroke-width="1" filter="url(#luxury)" />
        
        <!-- Кабина и нос самолета -->
        <path d="M10,85 C5,85 0,80 5,75 C10,70 15,70 20,70" 
              fill="#C0A080" stroke="#A0A0A0" stroke-width="1" />
        
        <!-- Хвостовое оперение -->
        <path d="M140,70 L170,40 L160,70" fill="#647687" stroke="#A0A0A0" stroke-width="0.7" />
        <path d="M140,100 L170,130 L160,100" fill="#647687" stroke="#A0A0A0" stroke-width="0.7" />
        <path d="M170,85 L190,85 L170,95" fill="#647687" stroke="#A0A0A0" stroke-width="0.7" />
        
        <!-- Крылья -->
        <path d="M70,70 L40,50 L50,70" fill="#647687" stroke="#A0A0A0" stroke-width="0.7" />
        <path d="M70,100 L40,120 L50,100" fill="#647687" stroke="#A0A0A0" stroke-width="0.7" />
        
        <!-- Двигатели на крыльях -->
        <ellipse cx="45" cy="53" rx="8" ry="3" fill="#333" stroke="#555" stroke-width="0.5" />
        <ellipse cx="45" cy="117" rx="8" ry="3" fill="#333" stroke="#555" stroke-width="0.5" />
        
        <!-- Иллюминаторы - современная овальная форма -->
        <ellipse cx="30" cy="80" rx="3" ry="4" fill="#86C5DA" opacity="0.8" />
        <ellipse cx="45" cy="80" rx="3" ry="4" fill="#86C5DA" opacity="0.8" />
        <ellipse cx="60" cy="80" rx="3" ry="4" fill="#86C5DA" opacity="0.8" />
        <ellipse cx="75" cy="80" rx="3" ry="4" fill="#86C5DA" opacity="0.8" />
        <ellipse cx="90" cy="80" rx="3" ry="4" fill="#86C5DA" opacity="0.8" />
        <ellipse cx="105" cy="80" rx="3" ry="4" fill="#86C5DA" opacity="0.8" />
        <ellipse cx="120" cy="80" rx="3" ry="4" fill="#86C5DA" opacity="0.8" />
        
        <!-- Дверь/трап -->
        <path d="M50,100 L60,120 L65,120 L55,100 Z" fill="#647687" stroke="#A0A0A0" stroke-width="0.5" />
        
        <!-- Облака для атмосферы -->
        <ellipse cx="140" cy="30" rx="25" ry="10" fill="white" opacity="0.4" />
        <ellipse cx="170" cy="20" rx="20" ry="8" fill="white" opacity="0.4" />
        <ellipse cx="120" cy="25" rx="15" ry="6" fill="white" opacity="0.4" />
        
        <!-- Отражения и блики на корпусе -->
        <path d="M30,75 Q80,70 130,75" fill="none" stroke="#FFF" stroke-width="1" opacity="0.3" />
        <path d="M30,95 Q80,100 130,95" fill="none" stroke="#FFF" stroke-width="1" opacity="0.3" />
      </g>
    
      
      <!-- Рамка -->
      <rect width="390" height="390" x="5" y="5" stroke="#A0A0A0" stroke-width="2" fill="none" rx="10" ry="10" />
      <rect width="396" height="396" x="2" y="2" stroke="#A0A0A0" stroke-width="1" fill="none" rx="12" ry="12" opacity="0.5" />
      
      <!-- Премиальная надпись -->
      <text x="200" y="380" font-family="Arial, sans-serif" font-size="16" font-weight="bold" text-anchor="middle" fill="#E0E0E0" filter="url(#blur)" opacity="0.8">Bnalbank Luxury NFT</text>
      <text x="200" y="380" font-family="Arial, sans-serif" font-size="16" font-weight="bold" text-anchor="middle" fill="white">Bnalbank Luxury NFT</text>
    </svg>
  