
  <svg width="256" height="256" viewBox="0 0 256 256" xmlns="http://www.w3.org/2000/svg">
    <defs>
      
    <filter id="shimmer" x="-20%" y="-20%" width="140%" height="140%">
      <feTurbulence type="fractalNoise" baseFrequency="0.01" numOctaves="1" seed="74">
        <animate attributeName="baseFrequency" from="0.01" to="0.02" dur="30s" repeatCount="indefinite" />
      </feTurbulence>
      <feDisplacementMap in="SourceGraphic" scale="5" />
      <feGaussianBlur stdDeviation="1" />
      <feComposite in="SourceGraphic" operator="over" />
    </filter>
  
      
    <filter id="metal">
      <feSpecularLighting result="specOut" specularExponent="20" lighting-color="#ffffff">
        <fePointLight x="50%" y="50%" z="200" />
      </feSpecularLighting>
      <feComposite in="SourceGraphic" in2="specOut" operator="arithmetic" k1="0" k2="1" k3="1" k4="0" />
    </filter>
  
    </defs>
    
    <!-- Темный фон с градиентом -->
    <rect width="256" height="256" fill="#1E2B3A" />
    <rect width="256" height="256" fill="url(#bgGradient)" />
    
    <!-- Градиент фона -->
    <linearGradient id="bgGradient" x1="0%" y1="0%" x2="100%" y2="100%">
      <stop offset="0%" stop-color="#1E2B3A" />
      <stop offset="50%" stop-color="#0a1726" />
      <stop offset="100%" stop-color="#1E2B3A" />
    </linearGradient>
    
    <!-- Рамка с эффектом шиммера -->
    <rect x="8" y="8" width="240" height="240" fill="none" stroke="#E0E0E0" stroke-width="2" filter="url(#shimmer)" />
    
    <!-- Пиксельное искусство по центру -->
    <g transform="translate(0, 0)">
      <rect x="87.7034122085048" y="23.7034122085048" width="8.593175582990398" height="8.593175582990398" fill="#C0A080" /><rect x="95.66789437585734" y="23.667894375857337" width="8.664211248285323" height="8.664211248285323" fill="#C0A080" /><rect x="103.7165329218107" y="23.7165329218107" width="8.5669341563786" height="8.5669341563786" fill="#C0A080" /><rect x="112.10364883401921" y="24.103648834019204" width="7.792702331961592" height="7.792702331961592" fill="#C0A080" /><rect x="119.86874828532235" y="23.86874828532236" width="8.26250342935528" height="8.26250342935528" fill="#C0A080" /><rect x="127.85874485596707" y="23.85874485596708" width="8.282510288065843" height="8.282510288065843" fill="#C0A080" /><rect x="135.61684842249656" y="23.61684842249657" width="8.76630315500686" height="8.76630315500686" fill="#C0A080" /><rect x="144.1381207133059" y="24.1381207133059" width="7.723758573388203" height="7.723758573388203" fill="#C0A080" /><rect x="151.6916975308642" y="23.691697530864197" width="8.616604938271605" height="8.616604938271605" fill="#C0A080" /><rect x="160.30967764060355" y="24.309677640603567" width="7.380644718792867" height="7.380644718792867" fill="#C0A080" /><rect x="168.14267832647462" y="24.142678326474623" width="7.714643347050755" height="7.714643347050755" fill="#C0A080" /><rect x="79.68205761316872" y="31.682057613168723" width="8.635884773662552" height="8.635884773662552" fill="#C0A080" /><rect x="88.24880315500685" y="32.24880315500686" width="7.502393689986283" height="7.502393689986283" fill="#C0A080" /><rect x="96.3490877914952" y="32.3490877914952" width="7.301824417009603" height="7.301824417009603" fill="#C0A080" /><rect x="104.29649176954733" y="32.29649176954732" width="7.40701646090535" height="7.40701646090535" fill="#C0A080" /><rect x="111.90089163237312" y="31.900891632373114" width="8.198216735253773" height="8.198216735253773" fill="#C0A080" /><rect x="119.6240157750343" y="31.624015775034295" width="8.751968449931413" height="8.751968449931413" fill="#C0A080" /><rect x="127.60166666666666" y="31.601666666666667" width="8.796666666666667" height="8.796666666666667" fill="#C0A080" /><rect x="135.732609739369" y="31.732609739368996" width="8.534780521262004" height="8.534780521262004" fill="#C0A080" /><rect x="144.03412894375856" y="32.034128943758574" width="7.931742112482853" height="7.931742112482853" fill="#C0A080" /><rect x="151.66424897119342" y="31.664248971193416" width="8.67150205761317" height="8.67150205761317" fill="#C0A080" /><rect x="160.21062414266117" y="32.21062414266118" width="7.578751714677641" height="7.578751714677641" fill="#C0A080" /><rect x="167.6460939643347" y="31.646093964334703" width="8.70781207133059" height="8.70781207133059" fill="#C0A080" /><rect x="176.15090534979424" y="32.150905349794236" width="7.6981893004115225" height="7.6981893004115225" fill="#C0A080" /><rect x="72.20160150891633" y="40.201601508916326" width="7.596796982167353" height="7.596796982167353" fill="#C0A080" /><rect x="79.72657750342935" y="39.726577503429354" width="8.54684499314129" height="8.54684499314129" fill="#C0A080" /><rect x="87.9283024691358" y="39.9283024691358" width="8.143395061728395" height="8.143395061728395" fill="#C0A080" /><rect x="96.17220850480109" y="40.1722085048011" width="7.655582990397805" height="7.655582990397805" fill="#C0A080" /><rect x="103.94224622770919" y="39.94224622770919" width="8.115507544581618" height="8.115507544581618" fill="#C0A080" /><rect x="112.26310699588477" y="40.263106995884776" width="7.473786008230453" height="7.473786008230453" fill="#C0A080" /><rect x="119.78911179698217" y="39.78911179698217" width="8.421776406035665" height="8.421776406035665" fill="#C0A080" /><rect x="127.95976680384088" y="39.95976680384088" width="8.080466392318245" height="8.080466392318245" fill="#C0A080" /><rect x="136.02198559670782" y="40.02198559670782" width="7.956028806584362" height="7.956028806584362" fill="#C0A080" /><rect x="144.3189780521262" y="40.3189780521262" width="7.3620438957475995" height="7.3620438957475995" fill="#C0A080" /><rect x="152.24580589849108" y="40.245805898491085" width="7.508388203017833" height="7.508388203017833" fill="#C0A080" /><rect x="159.6716049382716" y="39.67160493827161" width="8.65679012345679" height="8.65679012345679" fill="#C0A080" /><rect x="167.82847393689985" y="39.82847393689986" width="8.343052126200275" height="8.343052126200275" fill="#C0A080" /><rect x="175.66703017832648" y="39.66703017832647" width="8.665939643347052" height="8.665939643347052" fill="#C0A080" /><rect x="183.67863168724278" y="39.6786316872428" width="8.642736625514404" height="8.642736625514404" fill="#C0A080" /><rect x="64.38426611796982" y="48.38426611796982" width="7.231467764060357" height="7.231467764060357" fill="#C0A080" /><rect x="72.29010631001371" y="48.29010631001372" width="7.419787379972565" height="7.419787379972565" fill="#C0A080" /><rect x="79.70973251028806" y="47.70973251028806" width="8.580534979423868" height="8.580534979423868" fill="#C0A080" /><rect x="88.05302126200274" y="48.053021262002744" width="7.8939574759945135" height="7.8939574759945135" fill="#C0A080" /><rect x="96.18170096021947" y="48.18170096021948" width="7.636598079561042" height="7.636598079561042" fill="#C0A080" /><rect x="104.23157407407408" y="48.231574074074075" width="7.536851851851852" height="7.536851851851852" fill="#C0A080" /><rect x="112.10140603566529" y="48.10140603566529" width="7.797187928669411" height="7.797187928669411" fill="#C0A080" /><rect x="119.80848079561042" y="47.80848079561042" width="8.38303840877915" height="8.38303840877915" fill="#C0A080" /><rect x="128.1108230452675" y="48.11082304526749" width="7.778353909465021" height="7.778353909465021" fill="#C0A080" /><rect x="136.19608710562414" y="48.196087105624144" width="7.607825788751715" height="7.607825788751715" fill="#C0A080" /><rect x="143.6371124828532" y="47.637112482853226" width="8.725775034293553" height="8.725775034293553" fill="#C0A080" /><rect x="151.814146090535" y="47.814146090534976" width="8.371707818930041" height="8.371707818930041" fill="#C0A080" /><rect x="160.00373113854596" y="48.00373113854595" width="7.992537722908094" height="7.992537722908094" fill="#C0A080" /><rect x="168.13426268861454" y="48.13426268861454" width="7.73147462277092" height="7.73147462277092" fill="#C0A080" /><rect x="175.8082098765432" y="47.80820987654321" width="8.383580246913581" height="8.383580246913581" fill="#C0A080" /><rect x="183.9910048010974" y="47.9910048010974" width="8.017990397805212" height="8.017990397805212" fill="#C0A080" /><rect x="192.16659807956106" y="48.16659807956104" width="7.666803840877915" height="7.666803840877915" fill="#C0A080" /><rect x="55.759681069958845" y="55.759681069958845" width="8.480637860082304" height="8.480637860082304" fill="#C0A080" /><rect x="63.82457475994513" y="55.82457475994513" width="8.35085048010974" height="8.35085048010974" fill="#C0A080" /><rect x="72.2007853223594" y="56.200785322359394" width="7.598429355281207" height="7.598429355281207" fill="#C0A080" /><rect x="80.13522633744856" y="56.13522633744856" width="7.729547325102881" height="7.729547325102881" fill="#C0A080" /><rect x="87.97110768175583" y="55.97110768175583" width="8.057784636488341" height="8.057784636488341" fill="#C0A080" /><rect x="95.90349108367627" y="55.90349108367627" width="8.193017832647463" height="8.193017832647463" fill="#C0A080" /><rect x="103.80151234567901" y="55.801512345679015" width="8.396975308641975" height="8.396975308641975" fill="#C0A080" /><rect x="112.09727023319616" y="56.097270233196156" width="7.8054595336076815" height="7.8054595336076815" fill="#C0A080" /><rect x="119.74138203017833" y="55.74138203017833" width="8.517235939643347" height="8.517235939643347" fill="#C0A080" /><rect x="128.02520576131687" y="56.02520576131687" width="7.949588477366255" height="7.949588477366255" fill="#C0A080" /><rect x="135.86972908093279" y="55.869729080932785" width="8.260541838134431" height="8.260541838134431" fill="#C0A080" /><rect x="144.18112482853223" y="56.18112482853223" width="7.6377503429355285" height="7.6377503429355285" fill="#C0A080" /><rect x="151.6729732510288" y="55.67297325102881" width="8.654053497942387" height="8.654053497942387" fill="#C0A080" /><rect x="159.75515089163238" y="55.755150891632375" width="8.489698216735254" height="8.489698216735254" fill="#C0A080" /><rect x="168.08938614540466" y="56.08938614540466" width="7.821227709190673" height="7.821227709190673" fill="#C0A080" /><rect x="176.01148148148147" y="56.01148148148148" width="7.977037037037038" height="7.977037037037038" fill="#C0A080" /><rect x="184.2202023319616" y="56.22020233196159" width="7.559595336076818" height="7.559595336076818" fill="#C0A080" /><rect x="191.93283264746228" y="55.93283264746228" width="8.134334705075446" height="8.134334705075446" fill="#C0A080" /><rect x="199.90739711934157" y="55.90739711934157" width="8.185205761316872" height="8.185205761316872" fill="#C0A080" /><rect x="48.1315500685871" y="64.1315500685871" width="7.736899862825789" height="7.736899862825789" fill="#C0A080" /><rect x="56.17813100137174" y="64.17813100137174" width="7.643737997256516" height="7.643737997256516" fill="#C0A080" /><rect x="63.82738683127572" y="63.82738683127572" width="8.34522633744856" height="8.34522633744856" fill="#C0A080" /><rect x="71.95586076817558" y="63.95586076817558" width="8.088278463648834" height="8.088278463648834" fill="#C0A080" /><rect x="79.69194787379972" y="63.69194787379973" width="8.616104252400548" height="8.616104252400548" fill="#C0A080" /><rect x="88.23811728395061" y="64.23811728395061" width="7.523765432098766" height="7.523765432098766" fill="#C0A080" /><rect x="96.1598010973937" y="64.1598010973937" width="7.68039780521262" height="7.68039780521262" fill="#C0A080" /><rect x="103.7409499314129" y="63.74094993141289" width="8.518100137174212" height="8.518100137174212" fill="#C0A080" /><rect x="112.00625514403292" y="64.00625514403292" width="7.987489711934156" height="7.987489711934156" fill="#C0A080" /><rect x="119.61003772290809" y="63.61003772290809" width="8.779924554183815" height="8.779924554183815" fill="#C0A080" /><rect x="127.99180384087792" y="63.991803840877914" width="8.01639231824417" height="8.01639231824417" fill="#C0A080" /><rect x="136.3984670781893" y="64.3984670781893" width="7.203065843621399" height="7.203065843621399" fill="#C0A080" /><rect x="144.37323731138545" y="64.37323731138545" width="7.2535253772290815" height="7.2535253772290815" fill="#C0A080" /><rect x="152.11117626886144" y="64.11117626886146" width="7.777647462277092" height="7.777647462277092" fill="#C0A080" /><rect x="160.28141975308642" y="64.28141975308642" width="7.437160493827161" height="7.437160493827161" fill="#C0A080" /><rect x="167.71606652949245" y="63.71606652949245" width="8.56786694101509" height="8.56786694101509" fill="#C0A080" /><rect x="175.7657338820302" y="63.765733882030176" width="8.468532235939644" height="8.468532235939644" fill="#C0A080" /><rect x="184.12177983539095" y="64.12177983539095" width="7.756440329218107" height="7.756440329218107" fill="#C0A080" /><rect x="191.70519204389575" y="63.70519204389575" width="8.589615912208505" height="8.589615912208505" fill="#C0A080" /><rect x="200.22214334705075" y="64.22214334705076" width="7.555713305898491" height="7.555713305898491" fill="#C0A080" /><rect x="208.38621399176955" y="64.38621399176955" width="7.227572016460906" height="7.227572016460906" fill="#C0A080" /><rect x="40.007280521262004" y="72.007280521262" width="7.985438957475995" height="7.985438957475995" fill="#C0A080" /><rect x="48.34707133058985" y="72.34707133058986" width="7.305857338820302" height="7.305857338820302" fill="#C0A080" /><rect x="55.94138888888889" y="71.9413888888889" width="8.117222222222223" height="8.117222222222223" fill="#C0A080" /><rect x="64.28899862825789" y="72.28899862825789" width="7.422002743484225" height="7.422002743484225" fill="#C0A080" /><rect x="71.80718449931413" y="71.80718449931413" width="8.385631001371742" height="8.385631001371742" fill="#C0A080" /><rect x="80.05397119341563" y="72.05397119341563" width="7.892057613168724" height="7.892057613168724" fill="#C0A080" /><rect x="88.21701303155007" y="72.21701303155007" width="7.565973936899863" height="7.565973936899863" fill="#C0A080" /><rect x="95.86914951989026" y="71.86914951989026" width="8.261700960219478" height="8.261700960219478" fill="#C0A080" /><rect x="104.39062757201646" y="72.39062757201646" width="7.218744855967079" height="7.218744855967079" fill="#C0A080" /><rect x="112.25799039780522" y="72.25799039780522" width="7.484019204389575" height="7.484019204389575" fill="#C0A080" /><rect x="120.19963305898492" y="72.19963305898492" width="7.600733882030179" height="7.600733882030179" fill="#C0A080" /><rect x="127.81802469135802" y="71.81802469135802" width="8.363950617283951" height="8.363950617283951" fill="#C0A080" /><rect x="136.07859739369" y="72.07859739368999" width="7.842805212620028" height="7.842805212620028" fill="#C0A080" /><rect x="143.66530178326474" y="71.66530178326475" width="8.669396433470508" height="8.669396433470508" fill="#C0A080" /><rect x="151.602829218107" y="71.60282921810699" width="8.79434156378601" height="8.79434156378601" fill="#C0A080" /><rect x="160.14550068587107" y="72.14550068587106" width="7.708998628257888" height="7.708998628257888" fill="#C0A080" /><rect x="168.33282235939643" y="72.33282235939643" width="7.3343552812071335" height="7.3343552812071335" fill="#C0A080" /><rect x="176.21170781893005" y="72.21170781893004" width="7.576584362139918" height="7.576584362139918" fill="#C0A080" /><rect x="184.1253669410151" y="72.12536694101509" width="7.749266117969822" height="7.749266117969822" fill="#C0A080" /><rect x="192.26886145404663" y="72.26886145404664" width="7.462277091906722" height="7.462277091906722" fill="#C0A080" /><rect x="199.71132716049382" y="71.71132716049382" width="8.577345679012346" height="8.577345679012346" fill="#C0A080" /><rect x="207.68486282578874" y="71.68486282578876" width="8.630274348422496" height="8.630274348422496" fill="#C0A080" /><rect x="215.94008573388203" y="71.94008573388203" width="8.119828532235939" height="8.119828532235939" fill="#C0A080" /><rect x="32.16835390946502" y="80.16835390946503" width="7.663292181069959" height="7.663292181069959" fill="#C0A080" /><rect x="40.09065500685871" y="80.09065500685871" width="7.818689986282579" height="7.818689986282579" fill="#C0A080" /><rect x="47.81316186556927" y="79.81316186556927" width="8.373676268861454" height="8.373676268861454" fill="#C0A080" /><rect x="55.649454732510286" y="79.64945473251029" width="8.701090534979425" height="8.701090534979425" fill="#C0A080" /><rect x="64.20941015089163" y="80.20941015089163" width="7.581179698216736" height="7.581179698216736" fill="#C0A080" /><rect x="72.35475651577504" y="80.35475651577504" width="7.290486968449931" height="7.290486968449931" fill="#C0A080" /><rect x="80.2212962962963" y="80.2212962962963" width="7.557407407407408" height="7.557407407407408" fill="#C0A080" /><rect x="87.70779492455418" y="79.70779492455418" width="8.584410150891632" height="8.584410150891632" fill="#C0A080" /><rect x="95.63153635116598" y="79.63153635116598" width="8.73692729766804" height="8.73692729766804" fill="#C0A080" /><rect x="103.95054526748972" y="79.95054526748972" width="8.098909465020576" height="8.098909465020576" fill="#C0A080" /><rect x="111.85247599451303" y="79.85247599451303" width="8.295048010973938" height="8.295048010973938" fill="#C0A080" /><rect x="119.71016803840878" y="79.71016803840878" width="8.579663923182443" height="8.579663923182443" fill="#C0A080" /><rect x="128.1038683127572" y="80.1038683127572" width="7.7922633744855965" height="7.7922633744855965" fill="#C0A080" /><rect x="136.31012002743483" y="80.31012002743485" width="7.379759945130315" height="7.379759945130315" fill="#C0A080" /><rect x="144.2573182441701" y="80.2573182441701" width="7.485363511659808" height="7.485363511659808" fill="#C0A080" /><rect x="152.34793209876543" y="80.34793209876543" width="7.304135802469136" height="7.304135802469136" fill="#C0A080" /><rect x="159.94739368998628" y="79.94739368998628" width="8.105212620027435" height="8.105212620027435" fill="#C0A080" /><rect x="168.1396536351166" y="80.1396536351166" width="7.720692729766804" height="7.720692729766804" fill="#C0A080" /><rect x="176.34940329218108" y="80.34940329218107" width="7.301193415637861" height="7.301193415637861" fill="#C0A080" /><rect x="184.03096364883402" y="80.03096364883402" width="7.9380727023319615" height="7.9380727023319615" fill="#C0A080" /><rect x="191.82384087791496" y="79.82384087791495" width="8.352318244170096" height="8.352318244170096" fill="#C0A080" /><rect x="199.77494855967078" y="79.77494855967078" width="8.450102880658436" height="8.450102880658436" fill="#C0A080" /><rect x="208.22749657064472" y="80.22749657064472" width="7.545006858710563" height="7.545006858710563" fill="#C0A080" /><rect x="215.7765466392318" y="79.77654663923182" width="8.446906721536351" height="8.446906721536351" fill="#C0A080" /><rect x="223.89123456790122" y="79.89123456790124" width="8.217530864197531" height="8.217530864197531" fill="#C0A080" /><rect x="232.20365912208504" y="80.20365912208504" width="7.592681755829904" height="7.592681755829904" fill="#A0A0A0" /><rect x="31.664437585733882" y="87.66443758573388" width="8.671124828532236" height="8.671124828532236" fill="#C0A080" /><rect x="40.3649279835391" y="88.36492798353909" width="7.270144032921811" height="7.270144032921811" fill="#C0A080" /><rect x="47.62611796982167" y="87.62611796982168" width="8.747764060356653" height="8.747764060356653" fill="#C0A080" /><rect x="55.95418038408779" y="87.95418038408779" width="8.091639231824416" height="8.091639231824416" fill="#C0A080" /><rect x="64.06269547325103" y="88.06269547325103" width="7.8746090534979425" height="7.8746090534979425" fill="#C0A080" /><rect x="71.76153978052126" y="87.76153978052126" width="8.476920438957476" height="8.476920438957476" fill="#C0A080" /><rect x="80.31244170096022" y="88.31244170096022" width="7.375116598079561" height="7.375116598079561" fill="#C0A080" /><rect x="88.25120370370371" y="88.25120370370371" width="7.497592592592593" height="7.497592592592593" fill="#C0A080" /><rect x="96.27659122085048" y="88.27659122085048" width="7.44681755829904" height="7.44681755829904" fill="#C0A080" /><rect x="103.60588820301783" y="87.60588820301783" width="8.788223593964336" height="8.788223593964336" fill="#C0A080" /><rect x="111.79711934156379" y="87.79711934156379" width="8.405761316872429" height="8.405761316872429" fill="#C0A080" /><rect x="120.037938957476" y="88.037938957476" width="7.924122085048011" height="7.924122085048011" fill="#C0A080" /><rect x="127.9011865569273" y="87.9011865569273" width="8.197626886145406" height="8.197626886145406" fill="#C0A080" /><rect x="135.96710905349795" y="87.96710905349795" width="8.065781893004115" height="8.065781893004115" fill="#C0A080" /><rect x="144.31224965706448" y="88.31224965706447" width="7.375500685871057" height="7.375500685871057" fill="#C0A080" /><rect x="152.06500342935527" y="88.06500342935529" width="7.869993141289438" height="7.869993141289438" fill="#C0A080" /><rect x="159.62783950617285" y="87.62783950617283" width="8.744320987654321" height="8.744320987654321" fill="#C0A080" /><rect x="167.9661899862826" y="87.96618998628259" width="8.067620027434842" height="8.067620027434842" fill="#C0A080" /><rect x="175.76400548696844" y="87.76400548696844" width="8.4719890260631" height="8.4719890260631" fill="#C0A080" /><rect x="184.04597736625516" y="88.04597736625514" width="7.908045267489712" height="7.908045267489712" fill="#C0A080" /><rect x="192.266426611797" y="88.26642661179699" width="7.467146776406036" height="7.467146776406036" fill="#C0A080" /><rect x="200.26485939643348" y="88.26485939643347" width="7.470281207133059" height="7.470281207133059" fill="#C0A080" /><rect x="208.08818930041153" y="88.08818930041153" width="7.823621399176955" height="7.823621399176955" fill="#C0A080" /><rect x="216.07962620027436" y="88.07962620027435" width="7.840747599451303" height="7.840747599451303" fill="#C0A080" /><rect x="223.63423182441701" y="87.63423182441701" width="8.731536351165982" height="8.731536351165982" fill="#C0A080" /><rect x="32.22114197530864" y="96.22114197530864" width="7.557716049382716" height="7.557716049382716" fill="#C0A080" /><rect x="39.87245541838134" y="95.87245541838135" width="8.255089163237312" height="8.255089163237312" fill="#C0A080" /><rect x="47.93878943758573" y="95.93878943758574" width="8.122421124828533" height="8.122421124828533" fill="#C0A080" /><rect x="56.111502057613166" y="96.11150205761317" width="7.776995884773663" height="7.776995884773663" fill="#C0A080" /><rect x="64.11158093278463" y="96.11158093278463" width="7.776838134430728" height="7.776838134430728" fill="#C0A080" /><rect x="72.04519890260632" y="96.04519890260632" width="7.9096021947873805" height="7.9096021947873805" fill="#C0A080" /><rect x="80.22593621399177" y="96.22593621399177" width="7.548127572016461" height="7.548127572016461" fill="#C0A080" /><rect x="87.66366941015089" y="95.66366941015089" width="8.672661179698217" height="8.672661179698217" fill="#C0A080" /><rect x="95.6201268861454" y="95.6201268861454" width="8.75974622770919" height="8.75974622770919" fill="#C0A080" /><rect x="104.2311111111111" y="96.2311111111111" width="7.537777777777778" height="7.537777777777778" fill="#C0A080" /><rect x="111.79538751714678" y="95.79538751714678" width="8.409224965706446" height="8.409224965706446" fill="#C0A080" /><rect x="119.93024005486969" y="95.93024005486969" width="8.139519890260631" height="8.139519890260631" fill="#C0A080" /><rect x="127.79369341563786" y="95.79369341563786" width="8.412613168724281" height="8.412613168724281" fill="#C0A080" /><rect x="136.17340192043895" y="96.17340192043896" width="7.653196159122086" height="7.653196159122086" fill="#C0A080" /><rect x="143.8422050754458" y="95.84220507544582" width="8.315589849108367" height="8.315589849108367" fill="#C0A080" /><rect x="152.18034979423868" y="96.18034979423868" width="7.639300411522634" height="7.639300411522634" fill="#C0A080" /><rect x="159.6643792866941" y="95.6643792866941" width="8.671241426611797" height="8.671241426611797" fill="#C0A080" /><rect x="167.82268861454045" y="95.82268861454047" width="8.354622770919068" height="8.354622770919068" fill="#C0A080" /><rect x="176.25774691358023" y="96.25774691358025" width="7.484506172839506" height="7.484506172839506" fill="#C0A080" /><rect x="184.33498628257888" y="96.33498628257888" width="7.33002743484225" height="7.33002743484225" fill="#C0A080" /><rect x="192.3383573388203" y="96.3383573388203" width="7.323285322359396" height="7.323285322359396" fill="#C0A080" /><rect x="199.69255144032923" y="95.69255144032923" width="8.614897119341563" height="8.614897119341563" fill="#C0A080" /><rect x="208.25188957475996" y="96.25188957475994" width="7.4962208504801096" height="7.4962208504801096" fill="#C0A080" /><rect x="216.25587791495198" y="96.255877914952" width="7.4882441700960225" height="7.4882441700960225" fill="#C0A080" /><rect x="223.75143004115228" y="95.75143004115226" width="8.497139917695474" height="8.497139917695474" fill="#C0A080" /><rect x="31.881755829903977" y="103.88175582990398" width="8.236488340192045" height="8.236488340192045" fill="#C0A080" /><rect x="40.041917009602194" y="104.0419170096022" width="7.91616598079561" height="7.91616598079561" fill="#C0A080" /><rect x="48.10104938271605" y="104.10104938271606" width="7.7979012345679015" height="7.7979012345679015" fill="#C0A080" /><rect x="55.69125171467764" y="103.69125171467763" width="8.617496570644718" height="8.617496570644718" fill="#C0A080" /><rect x="64.16314128943759" y="104.16314128943759" width="7.673717421124829" height="7.673717421124829" fill="#C0A080" /><rect x="71.60807613168724" y="103.60807613168724" width="8.783847736625514" height="8.783847736625514" fill="#C0A080" /><rect x="80.1470438957476" y="104.1470438957476" width="7.7059122085048015" height="7.7059122085048015" fill="#C0A080" /><rect x="88.28621742112483" y="104.28621742112483" width="7.427565157750343" height="7.427565157750343" fill="#C0A080" /><rect x="96.33917695473251" y="104.33917695473251" width="7.32164609053498" height="7.32164609053498" fill="#C0A080" /><rect x="104.11579903978053" y="104.11579903978053" width="7.768401920438958" height="7.768401920438958" fill="#C0A080" /><rect x="112.07781207133058" y="104.07781207133058" width="7.844375857338821" height="7.844375857338821" fill="#C0A080" /><rect x="120.36101851851852" y="104.36101851851852" width="7.277962962962963" height="7.277962962962963" fill="#C0A080" /><rect x="128.06418381344307" y="104.06418381344307" width="7.871632373113854" height="7.871632373113854" fill="#C0A080" /><rect x="136.00459190672154" y="104.00459190672153" width="7.990816186556928" height="7.990816186556928" fill="#C0A080" /><rect x="144.14026748971193" y="104.14026748971193" width="7.7194650205761315" height="7.7194650205761315" fill="#C0A080" /><rect x="151.65886488340192" y="103.65886488340192" width="8.68227023319616" height="8.68227023319616" fill="#C0A080" /><rect x="159.73322359396434" y="103.73322359396434" width="8.533552812071331" height="8.533552812071331" fill="#C0A080" /><rect x="168.1435905349794" y="104.14359053497942" width="7.712818930041152" height="7.712818930041152" fill="#C0A080" /><rect x="176.16650891632372" y="104.16650891632374" width="7.666982167352538" height="7.666982167352538" fill="#C0A080" /><rect x="183.73037379972564" y="103.73037379972565" width="8.539252400548698" height="8.539252400548698" fill="#C0A080" /><rect x="192.03765432098766" y="104.03765432098766" width="7.924691358024692" height="7.924691358024692" fill="#C0A080" /><rect x="199.65378257887517" y="103.65378257887517" width="8.692434842249657" height="8.692434842249657" fill="#C0A080" /><rect x="207.66270919067216" y="103.66270919067216" width="8.674581618655694" height="8.674581618655694" fill="#C0A080" /><rect x="216.28912551440328" y="104.2891255144033" width="7.4217489711934155" height="7.4217489711934155" fill="#C0A080" /><rect x="224.18735253772292" y="104.1873525377229" width="7.625294924554184" height="7.625294924554184" fill="#C0A080" /><rect x="31.996896433470507" y="111.99689643347051" width="8.006207133058986" height="8.006207133058986" fill="#C0A080" /><rect x="39.764670781893" y="111.764670781893" width="8.470658436213991" height="8.470658436213991" fill="#C0A080" /><rect x="47.833885459533604" y="111.8338854595336" width="8.332229080932784" height="8.332229080932784" fill="#C0A080" /><rect x="56.39960219478738" y="112.39960219478738" width="7.20079561042524" height="7.20079561042524" fill="#C0A080" /><rect x="63.73095679012346" y="111.73095679012346" width="8.538086419753087" height="8.538086419753087" fill="#647687" /><rect x="71.86004801097394" y="111.86004801097394" width="8.279903978052126" height="8.279903978052126" fill="#647687" /><rect x="79.73749314128943" y="111.73749314128943" width="8.525013717421125" height="8.525013717421125" fill="#647687" /><rect x="87.85465020576132" y="111.85465020576132" width="8.290699588477366" height="8.290699588477366" fill="#647687" /><rect x="95.93250685871057" y="111.93250685871057" width="8.134986282578875" height="8.134986282578875" fill="#647687" /><rect x="104.07723593964334" y="112.07723593964334" width="7.845528120713306" height="7.845528120713306" fill="#647687" /><rect x="111.80241769547325" y="111.80241769547325" width="8.395164609053499" height="8.395164609053499" fill="#647687" /><rect x="119.71792866941016" y="111.71792866941016" width="8.564142661179698" height="8.564142661179698" fill="#647687" /><rect x="128.28549725651578" y="112.28549725651578" width="7.42900548696845" height="7.42900548696845" fill="#647687" /><rect x="136.04092592592593" y="112.04092592592593" width="7.918148148148148" height="7.918148148148148" fill="#647687" /><rect x="143.68298010973936" y="111.68298010973936" width="8.634039780521263" height="8.634039780521263" fill="#647687" /><rect x="152.02894375857338" y="112.02894375857339" width="7.942112482853224" height="7.942112482853224" fill="#647687" /><rect x="160.23684156378602" y="112.23684156378602" width="7.526316872427984" height="7.526316872427984" fill="#647687" /><rect x="168.2943278463649" y="112.29432784636488" width="7.411344307270233" height="7.411344307270233" fill="#647687" /><rect x="175.77424211248285" y="111.77424211248285" width="8.451515775034293" height="8.451515775034293" fill="#647687" /><rect x="184.05683127572016" y="112.05683127572017" width="7.886337448559671" height="7.886337448559671" fill="#647687" /><rect x="191.61863854595336" y="111.61863854595336" width="8.762722908093279" height="8.762722908093279" fill="#C0A080" /><rect x="199.98805898491085" y="111.98805898491084" width="8.023882030178326" height="8.023882030178326" fill="#C0A080" /><rect x="207.96756172839505" y="111.96756172839505" width="8.064876543209877" height="8.064876543209877" fill="#C0A080" /><rect x="215.72257887517148" y="111.72257887517146" width="8.554842249657064" height="8.554842249657064" fill="#C0A080" /><rect x="224.337061042524" y="112.337061042524" width="7.325877914951989" height="7.325877914951989" fill="#C0A080" /><rect x="31.635699588477365" y="119.63569958847737" width="8.728600823045268" height="8.728600823045268" fill="#C0A080" /><rect x="40.27281550068587" y="120.27281550068587" width="7.454368998628258" height="7.454368998628258" fill="#C0A080" /><rect x="47.68791495198903" y="119.68791495198903" width="8.624170096021949" height="8.624170096021949" fill="#C0A080" /><rect x="56.32791152263374" y="120.32791152263374" width="7.344176954732511" height="7.344176954732511" fill="#647687" /><rect x="64.13601508916324" y="120.13601508916324" width="7.7279698216735255" height="7.7279698216735255" fill="#647687" /><rect x="72.10728737997256" y="120.10728737997256" width="7.78542524005487" height="7.78542524005487" fill="#647687" /><rect x="80.11086419753086" y="120.11086419753086" width="7.778271604938272" height="7.778271604938272" fill="#647687" /><rect x="87.77884430727023" y="119.77884430727023" width="8.442311385459533" height="8.442311385459533" fill="#647687" /><rect x="95.66184499314129" y="119.66184499314129" width="8.676310013717421" height="8.676310013717421" fill="#647687" /><rect x="104.25122427983538" y="120.25122427983538" width="7.497551440329218" height="7.497551440329218" fill="#647687" /><rect x="111.66796982167352" y="119.66796982167352" width="8.66406035665295" height="8.66406035665295" fill="#647687" /><rect x="119.61825445816187" y="119.61825445816187" width="8.76349108367627" height="8.76349108367627" fill="#647687" /><rect x="127.61565843621399" y="119.61565843621399" width="8.768683127572016" height="8.768683127572016" fill="#647687" /><rect x="136.2700582990398" y="120.27005829903977" width="7.459883401920439" height="7.459883401920439" fill="#647687" /><rect x="143.64318244170096" y="119.64318244170096" width="8.71363511659808" height="8.71363511659808" fill="#647687" /><rect x="152.27083333333334" y="120.27083333333333" width="7.458333333333334" height="7.458333333333334" fill="#647687" /><rect x="159.65177640603565" y="119.65177640603567" width="8.696447187928669" height="8.696447187928669" fill="#647687" /><rect x="168.20329561042524" y="120.20329561042524" width="7.59340877914952" height="7.59340877914952" fill="#647687" /><rect x="176.2834156378601" y="120.28341563786009" width="7.433168724279835" height="7.433168724279835" fill="#647687" /><rect x="183.87979080932786" y="119.87979080932784" width="8.240418381344307" height="8.240418381344307" fill="#647687" /><rect x="192.16526063100136" y="120.16526063100137" width="7.669478737997257" height="7.669478737997257" fill="#647687" /><rect x="200.1200720164609" y="120.12007201646091" width="7.75985596707819" height="7.75985596707819" fill="#C0A080" /><rect x="207.820768175583" y="119.82076817558298" width="8.35846364883402" height="8.35846364883402" fill="#C0A080" /><rect x="215.99574417009603" y="119.99574417009602" width="8.008511659807956" height="8.008511659807956" fill="#C0A080" /><rect x="224.24746913580248" y="120.24746913580248" width="7.505061728395062" height="7.505061728395062" fill="#C0A080" /><rect x="31.941375171467765" y="127.94137517146777" width="8.117249657064471" height="8.117249657064471" fill="#C0A080" /><rect x="40.16141289437586" y="128.16141289437587" width="7.6771742112482855" height="7.6771742112482855" fill="#C0A080" /><rect x="48.332273662551444" y="128.33227366255144" width="7.33545267489712" height="7.33545267489712" fill="#647687" /><rect x="55.908278463648834" y="127.90827846364883" width="8.183443072702332" height="8.183443072702332" fill="#647687" /><rect x="64.32893347050755" y="128.32893347050754" width="7.342133058984911" height="7.342133058984911" fill="#647687" /><rect x="72.04115226337449" y="128.0411522633745" width="7.917695473251029" height="7.917695473251029" fill="#647687" /><rect x="80.18814471879287" y="128.18814471879287" width="7.623710562414266" height="7.623710562414266" fill="#647687" /><rect x="88.16497256515775" y="128.16497256515774" width="7.670054869684499" height="7.670054869684499" fill="#647687" /><rect x="95.84077160493827" y="127.84077160493827" width="8.318456790123458" height="8.318456790123458" fill="#647687" /><rect x="103.64764060356653" y="127.64764060356653" width="8.704718792866942" height="8.704718792866942" fill="#647687" /><rect x="112.13619684499314" y="128.13619684499315" width="7.727606310013718" height="7.727606310013718" fill="#647687" /><rect x="120.19779835390946" y="128.19779835390946" width="7.60440329218107" height="7.60440329218107" fill="#647687" /><rect x="128.35343278463648" y="128.35343278463648" width="7.293134430727023" height="7.293134430727023" fill="#647687" /><rect x="135.90927297668037" y="127.90927297668038" width="8.181454046639232" height="8.181454046639232" fill="#647687" /><rect x="143.97889917695474" y="127.97889917695473" width="8.042201646090536" height="8.042201646090536" fill="#647687" /><rect x="152.3721879286694" y="128.3721879286694" width="7.25562414266118" height="7.25562414266118" fill="#647687" /><rect x="159.95086762688615" y="127.95086762688615" width="8.09826474622771" height="8.09826474622771" fill="#647687" /><rect x="167.65074074074073" y="127.65074074074074" width="8.698518518518519" height="8.698518518518519" fill="#647687" /><rect x="176.17057270233195" y="128.17057270233195" width="7.658854595336077" height="7.658854595336077" fill="#647687" /><rect x="183.9276474622771" y="127.9276474622771" width="8.144705075445817" height="8.144705075445817" fill="#647687" /><rect x="191.67998971193416" y="127.67998971193416" width="8.640020576131688" height="8.640020576131688" fill="#647687" /><rect x="200.21525377229082" y="128.21525377229082" width="7.569492455418382" height="7.569492455418382" fill="#647687" /><rect x="208.3062791495199" y="128.3062791495199" width="7.38744170096022" height="7.38744170096022" fill="#C0A080" /><rect x="215.73331275720165" y="127.73331275720165" width="8.533374485596708" height="8.533374485596708" fill="#C0A080" /><rect x="224.1728978052126" y="128.1728978052126" width="7.65420438957476" height="7.65420438957476" fill="#C0A080" /><rect x="31.95342935528121" y="135.9534293552812" width="8.093141289437586" height="8.093141289437586" fill="#C0A080" /><rect x="40.277376543209876" y="136.27737654320987" width="7.445246913580247" height="7.445246913580247" fill="#C0A080" /><rect x="47.71017146776406" y="135.71017146776407" width="8.57965706447188" height="8.57965706447188" fill="#C0A080" /><rect x="56.13576474622771" y="136.13576474622772" width="7.728470507544582" height="7.728470507544582" fill="#C0A080" /><rect x="64.17884773662551" y="136.17884773662553" width="7.642304526748972" height="7.642304526748972" fill="#C0A080" /><rect x="72.0937414266118" y="136.09374142661179" width="7.812517146776406" height="7.812517146776406" fill="#C0A080" /><rect x="79.71995198902606" y="135.71995198902607" width="8.560096021947874" height="8.560096021947874" fill="#C0A080" /><rect x="87.90439300411522" y="135.90439300411524" width="8.191213991769548" height="8.191213991769548" fill="#C0A080" /><rect x="96.19027434842249" y="136.1902743484225" width="7.619451303155007" height="7.619451303155007" fill="#C0A080" /><rect x="103.97265775034293" y="135.97265775034293" width="8.05468449931413" height="8.05468449931413" fill="#C0A080" /><rect x="111.92067901234567" y="135.9206790123457" width="8.158641975308642" height="8.158641975308642" fill="#C0A080" /><rect x="119.66643689986283" y="135.66643689986282" width="8.66712620027435" height="8.66712620027435" fill="#C0A080" /><rect x="127.76054869684499" y="135.760548696845" width="8.478902606310013" height="8.478902606310013" fill="#C0A080" /><rect x="135.89437242798354" y="135.89437242798354" width="8.211255144032922" height="8.211255144032922" fill="#C0A080" /><rect x="143.78889574759944" y="135.78889574759944" width="8.422208504801098" height="8.422208504801098" fill="#C0A080" /><rect x="152.35029149519892" y="136.35029149519892" width="7.299417009602195" height="7.299417009602195" fill="#C0A080" /><rect x="160.29213991769547" y="136.29213991769547" width="7.415720164609054" height="7.415720164609054" fill="#C0A080" /><rect x="168.22431755829905" y="136.22431755829905" width="7.551364883401921" height="7.551364883401921" fill="#C0A080" /><rect x="175.80855281207133" y="135.80855281207133" width="8.382894375857338" height="8.382894375857338" fill="#C0A080" /><rect x="183.98064814814813" y="135.98064814814813" width="8.038703703703703" height="8.038703703703703" fill="#C0A080" /><rect x="191.83936899862826" y="135.83936899862826" width="8.321262002743484" height="8.321262002743484" fill="#C0A080" /><rect x="200.20199931412895" y="136.20199931412895" width="7.596001371742113" height="7.596001371742113" fill="#C0A080" /><rect x="208.22656378600823" y="136.22656378600823" width="7.546872427983539" height="7.546872427983539" fill="#C0A080" /><rect x="215.90071673525378" y="135.90071673525378" width="8.198566529492457" height="8.198566529492457" fill="#C0A080" /><rect x="224.39729766803842" y="136.39729766803842" width="7.205404663923183" height="7.205404663923183" fill="#C0A080" /><rect x="31.896553497942385" y="143.8965534979424" width="8.206893004115226" height="8.206893004115226" fill="#C0A080" /><rect x="40.07502743484225" y="144.07502743484224" width="7.849945130315501" height="7.849945130315501" fill="#C0A080" /><rect x="48.06111454046639" y="144.0611145404664" width="7.877770919067215" height="7.877770919067215" fill="#C0A080" /><rect x="56.257283950617285" y="144.25728395061728" width="7.485432098765433" height="7.485432098765433" fill="#C0A080" /><rect x="64.02896776406035" y="144.02896776406035" width="7.942064471879287" height="7.942064471879287" fill="#C0A080" /><rect x="71.66011659807955" y="143.66011659807955" width="8.679766803840877" height="8.679766803840877" fill="#C0A080" /><rect x="80.17542181069959" y="144.1754218106996" width="7.649156378600823" height="7.649156378600823" fill="#C0A080" /><rect x="88.22920438957476" y="144.22920438957476" width="7.5415912208504805" height="7.5415912208504805" fill="#C0A080" /><rect x="95.66097050754458" y="143.6609705075446" width="8.678058984910837" height="8.678058984910837" fill="#C0A080" /><rect x="104.11763374485597" y="144.11763374485597" width="7.764732510288066" height="7.764732510288066" fill="#C0A080" /><rect x="112.34240397805213" y="144.34240397805212" width="7.315192043895748" height="7.315192043895748" fill="#C0A080" /><rect x="119.73034293552811" y="143.7303429355281" width="8.539314128943758" height="8.539314128943758" fill="#C0A080" /><rect x="127.75058641975309" y="143.7505864197531" width="8.498827160493828" height="8.498827160493828" fill="#C0A080" /><rect x="136.0352331961591" y="144.0352331961591" width="7.929533607681756" height="7.929533607681756" fill="#C0A080" /><rect x="144.33490054869685" y="144.33490054869685" width="7.33019890260631" height="7.33019890260631" fill="#C0A080" /><rect x="152.34094650205762" y="144.34094650205762" width="7.318106995884774" height="7.318106995884774" fill="#C0A080" /><rect x="159.7743587105624" y="143.7743587105624" width="8.451282578875173" height="8.451282578875173" fill="#C0A080" /><rect x="168.34131001371742" y="144.34131001371742" width="7.317379972565158" height="7.317379972565158" fill="#C0A080" /><rect x="175.9553806584362" y="143.9553806584362" width="8.089238683127572" height="8.089238683127572" fill="#C0A080" /><rect x="184.02644718792868" y="144.02644718792868" width="7.947105624142662" height="7.947105624142662" fill="#C0A080" /><rect x="192.2162379972565" y="144.2162379972565" width="7.567524005486969" height="7.567524005486969" fill="#C0A080" /><rect x="199.86055555555555" y="143.86055555555555" width="8.27888888888889" height="8.27888888888889" fill="#C0A080" /><rect x="207.65816529492454" y="143.65816529492454" width="8.683669410150891" height="8.683669410150891" fill="#C0A080" /><rect x="215.6263511659808" y="143.6263511659808" width="8.74729766803841" height="8.74729766803841" fill="#C0A080" /><rect x="223.72313786008232" y="143.72313786008232" width="8.553724279835391" height="8.553724279835391" fill="#C0A080" /><rect x="31.936179698216733" y="151.93617969821673" width="8.12764060356653" height="8.12764060356653" fill="#C0A080" /><rect x="39.83831618655692" y="151.83831618655694" width="8.323367626886146" height="8.323367626886146" fill="#C0A080" /><rect x="48.00979423868313" y="152.00979423868313" width="7.980411522633745" height="7.980411522633745" fill="#C0A080" /><rect x="55.72715706447188" y="151.72715706447187" width="8.545685871056241" height="8.545685871056241" fill="#C0A080" /><rect x="63.71879972565158" y="151.71879972565156" width="8.562400548696845" height="8.562400548696845" fill="#C0A080" /><rect x="72.3871913580247" y="152.3871913580247" width="7.225617283950617" height="7.225617283950617" fill="#C0A080" /><rect x="80.29776406035666" y="152.29776406035666" width="7.404471879286694" height="7.404471879286694" fill="#C0A080" /><rect x="87.73446844993141" y="151.7344684499314" width="8.531063100137175" height="8.531063100137175" fill="#C0A080" /><rect x="95.72199588477366" y="151.72199588477366" width="8.556008230452676" height="8.556008230452676" fill="#C0A080" /><rect x="103.71466735253772" y="151.71466735253773" width="8.570665294924554" height="8.570665294924554" fill="#C0A080" /><rect x="112.3519890260631" y="152.3519890260631" width="7.2960219478737995" height="7.2960219478737995" fill="#C0A080" /><rect x="120.08087448559671" y="152.0808744855967" width="7.838251028806584" height="7.838251028806584" fill="#C0A080" /><rect x="128.04453360768176" y="152.04453360768176" width="7.910932784636488" height="7.910932784636488" fill="#C0A080" /><rect x="135.6380281207133" y="151.6380281207133" width="8.723943758573387" height="8.723943758573387" fill="#C0A080" /><rect x="144.3304938271605" y="152.3304938271605" width="7.339012345679013" height="7.339012345679013" fill="#C0A080" /><rect x="152.1540294924554" y="152.1540294924554" width="7.691941015089164" height="7.691941015089164" fill="#C0A080" /><rect x="159.6592524005487" y="151.6592524005487" width="8.681495198902606" height="8.681495198902606" fill="#C0A080" /><rect x="168.1375205761317" y="152.1375205761317" width="7.724958847736626" height="7.724958847736626" fill="#C0A080" /><rect x="175.70982167352537" y="151.70982167352537" width="8.580356652949245" height="8.580356652949245" fill="#C0A080" /><rect x="184.08232853223595" y="152.08232853223595" width="7.8353429355281214" height="7.8353429355281214" fill="#C0A080" /><rect x="191.96862139917695" y="151.96862139917695" width="8.062757201646091" height="8.062757201646091" fill="#C0A080" /><rect x="199.9785768175583" y="151.9785768175583" width="8.042846364883403" height="8.042846364883403" fill="#C0A080" /><rect x="207.7739231824417" y="151.7739231824417" width="8.452153635116598" height="8.452153635116598" fill="#C0A080" /><rect x="216.29046296296298" y="152.29046296296298" width="7.419074074074074" height="7.419074074074074" fill="#C0A080" /><rect x="223.82696159122085" y="151.82696159122085" width="8.346076817558298" height="8.346076817558298" fill="#C0A080" /><rect x="32.00070301783265" y="160.00070301783265" width="7.998593964334705" height="7.998593964334705" fill="#C0A080" /><rect x="39.96971193415638" y="159.96971193415638" width="8.060576131687244" height="8.060576131687244" fill="#C0A080" /><rect x="47.7216426611797" y="159.7216426611797" width="8.556714677640604" height="8.556714677640604" fill="#C0A080" /><rect x="55.62933470507544" y="159.62933470507545" width="8.74133058984911" height="8.74133058984911" fill="#C0A080" /><rect x="64.27303497942387" y="160.27303497942387" width="7.4539300411522635" height="7.4539300411522635" fill="#C0A080" /><rect x="72.12928669410151" y="160.1292866941015" width="7.7414266117969825" height="7.7414266117969825" fill="#C0A080" /><rect x="79.92648491083676" y="159.92648491083676" width="8.147030178326474" height="8.147030178326474" fill="#C0A080" /><rect x="88.06709876543209" y="160.0670987654321" width="7.865802469135803" height="7.865802469135803" fill="#C0A080" /><rect x="95.91656035665295" y="159.91656035665295" width="8.166879286694101" height="8.166879286694101" fill="#C0A080" /><rect x="103.75882030178326" y="159.75882030178326" width="8.48235939643347" height="8.48235939643347" fill="#C0A080" /><rect x="111.81856995884773" y="159.81856995884775" width="8.362860082304527" height="8.362860082304527" fill="#C0A080" /><rect x="120.35013031550069" y="160.35013031550068" width="7.299739368998629" height="7.299739368998629" fill="#C0A080" /><rect x="128.39300754458162" y="160.39300754458162" width="7.213984910836763" height="7.213984910836763" fill="#C0A080" /><rect x="135.99411522633744" y="159.99411522633744" width="8.011769547325104" height="8.011769547325104" fill="#C0A080" /><rect x="144.29666323731138" y="160.29666323731138" width="7.406673525377229" height="7.406673525377229" fill="#C0A080" /><rect x="151.89571330589848" y="159.89571330589848" width="8.208573388203018" height="8.208573388203018" fill="#C0A080" /><rect x="160.2604012345679" y="160.2604012345679" width="7.479197530864198" height="7.479197530864198" fill="#C0A080" /><rect x="168.22282578875172" y="160.22282578875172" width="7.554348422496571" height="7.554348422496571" fill="#C0A080" /><rect x="176.33360425240056" y="160.33360425240056" width="7.332791495198903" height="7.332791495198903" fill="#C0A080" /><rect x="184.28409465020576" y="160.28409465020576" width="7.431810699588477" height="7.431810699588477" fill="#C0A080" /><rect x="191.79528463648833" y="159.79528463648833" width="8.40943072702332" height="8.40943072702332" fill="#C0A080" /><rect x="199.77334705075447" y="159.77334705075447" width="8.453305898491084" height="8.453305898491084" fill="#C0A080" /><rect x="207.7318621399177" y="159.7318621399177" width="8.536275720164609" height="8.536275720164609" fill="#C0A080" /><rect x="216.28070644718792" y="160.28070644718792" width="7.438587105624142" height="7.438587105624142" fill="#C0A080" /><rect x="224.2816083676269" y="160.2816083676269" width="7.436783264746228" height="7.436783264746228" fill="#C0A080" /><rect x="31.87037037037037" y="167.87037037037038" width="8.25925925925926" height="8.25925925925926" fill="#C0A080" /><rect x="39.745757887517144" y="167.74575788751716" width="8.508484224965706" height="8.508484224965706" fill="#C0A080" /><rect x="47.9250548696845" y="167.9250548696845" width="8.149890260631002" height="8.149890260631002" fill="#C0A080" /><rect x="56.36628600823045" y="168.36628600823045" width="7.267427983539095" height="7.267427983539095" fill="#C0A080" /><rect x="64.25710562414267" y="168.25710562414267" width="7.4857887517146775" height="7.4857887517146775" fill="#C0A080" /><rect x="71.97035322359396" y="167.97035322359397" width="8.059293552812072" height="8.059293552812072" fill="#C0A080" /><rect x="80.08627572016461" y="168.08627572016462" width="7.827448559670782" height="7.827448559670782" fill="#C0A080" /><rect x="87.88141632373114" y="167.88141632373114" width="8.237167352537723" height="8.237167352537723" fill="#C0A080" /><rect x="96.08417009602195" y="168.08417009602195" width="7.831659807956104" height="7.831659807956104" fill="#C0A080" /><rect x="104.2970061728395" y="168.2970061728395" width="7.405987654320988" height="7.405987654320988" fill="#C0A080" /><rect x="111.88535665294924" y="167.88535665294924" width="8.229286694101509" height="8.229286694101509" fill="#C0A080" /><rect x="119.93317215363511" y="167.93317215363513" width="8.133655692729768" height="8.133655692729768" fill="#C0A080" /><rect x="127.8651440329218" y="167.86514403292182" width="8.269711934156378" height="8.269711934156378" fill="#C0A080" /><rect x="135.93559327846364" y="167.93559327846364" width="8.128813443072703" height="8.128813443072703" fill="#C0A080" /><rect x="143.98402606310015" y="167.98402606310015" width="8.031947873799727" height="8.031947873799727" fill="#C0A080" /><rect x="152.0573559670782" y="168.0573559670782" width="7.885288065843621" height="7.885288065843621" fill="#C0A080" /><rect x="159.698792866941" y="167.698792866941" width="8.60241426611797" height="8.60241426611797" fill="#C0A080" /><rect x="167.90339849108366" y="167.90339849108366" width="8.193203017832648" height="8.193203017832648" fill="#C0A080" /><rect x="175.7403086419753" y="167.7403086419753" width="8.519382716049384" height="8.519382716049384" fill="#C0A080" /><rect x="183.641622085048" y="167.641622085048" width="8.716755829903978" height="8.716755829903978" fill="#C0A080" /><rect x="192.1579561042524" y="168.1579561042524" width="7.684087791495199" height="7.684087791495199" fill="#C0A080" /><rect x="200.18066872427983" y="168.18066872427983" width="7.638662551440329" height="7.638662551440329" fill="#C0A080" /><rect x="208.2307475994513" y="168.2307475994513" width="7.538504801097394" height="7.538504801097394" fill="#C0A080" /><rect x="215.614365569273" y="167.614365569273" width="8.771268861454047" height="8.771268861454047" fill="#C0A080" /><rect x="224.24510288065844" y="168.24510288065844" width="7.509794238683128" height="7.509794238683128" fill="#C0A080" /><rect x="32.33283607681756" y="176.33283607681756" width="7.334327846364884" height="7.334327846364884" fill="#C0A080" /><rect x="40.33929355281207" y="176.33929355281208" width="7.321412894375857" height="7.321412894375857" fill="#C0A080" /><rect x="47.60027777777778" y="175.6002777777778" width="8.799444444444445" height="8.799444444444445" fill="#647687" /><rect x="55.61455418381344" y="175.61455418381345" width="8.770891632373115" height="8.770891632373115" fill="#647687" /><rect x="64.39940672153635" y="176.39940672153634" width="7.201186556927298" height="7.201186556927298" fill="#647687" /><rect x="72.31286008230452" y="176.31286008230452" width="7.374279835390947" height="7.374279835390947" fill="#647687" /><rect x="80.14256858710563" y="176.14256858710561" width="7.714862825788752" height="7.714862825788752" fill="#C0A080" /><rect x="88.26137174211249" y="176.2613717421125" width="7.477256515775035" height="7.477256515775035" fill="#C0A080" /><rect x="151.64951646090535" y="175.64951646090535" width="8.7009670781893" height="8.7009670781893" fill="#C0A080" /><rect x="159.98354595336076" y="175.98354595336076" width="8.032908093278463" height="8.032908093278463" fill="#C0A080" /><rect x="168.39185528120714" y="176.39185528120714" width="7.2162894375857345" height="7.2162894375857345" fill="#647687" /><rect x="175.67691358024692" y="175.67691358024692" width="8.646172839506173" height="8.646172839506173" fill="#647687" /><rect x="183.60415294924553" y="175.60415294924553" width="8.791694101508917" height="8.791694101508917" fill="#647687" /><rect x="191.65752400548698" y="175.65752400548698" width="8.684951989026063" height="8.684951989026063" fill="#647687" /><rect x="200.0617181069959" y="176.0617181069959" width="7.876563786008231" height="7.876563786008231" fill="#C0A080" /><rect x="208.2710562414266" y="176.2710562414266" width="7.4578875171467764" height="7.4578875171467764" fill="#C0A080" /><rect x="32.12504458161865" y="184.12504458161865" width="7.749910836762689" height="7.749910836762689" fill="#C0A080" /><rect x="39.67059670781893" y="183.67059670781893" width="8.65880658436214" height="8.65880658436214" fill="#647687" /><rect x="48.05092249657064" y="184.05092249657065" width="7.898155006858711" height="7.898155006858711" fill="#647687" /><rect x="55.86108367626886" y="183.86108367626886" width="8.277832647462278" height="8.277832647462278" fill="#647687" /><rect x="63.77021604938272" y="183.77021604938273" width="8.459567901234568" height="8.459567901234568" fill="#647687" /><rect x="72.21041838134431" y="184.2104183813443" width="7.579163237311386" height="7.579163237311386" fill="#647687" /><rect x="80.13230795610426" y="184.13230795610426" width="7.735384087791496" height="7.735384087791496" fill="#647687" /><rect x="88.02724279835391" y="184.0272427983539" width="7.945514403292181" height="7.945514403292181" fill="#C0A080" /><rect x="151.61621056241427" y="183.61621056241427" width="8.767578875171468" height="8.767578875171468" fill="#C0A080" /><rect x="159.80538408779148" y="183.80538408779148" width="8.38923182441701" height="8.38923182441701" fill="#647687" /><rect x="168.10834362139917" y="184.10834362139917" width="7.783312757201646" height="7.783312757201646" fill="#647687" /><rect x="176.33496570644718" y="184.33496570644718" width="7.330068587105624" height="7.330068587105624" fill="#647687" /><rect x="184.14697873799724" y="184.14697873799724" width="7.706042524005487" height="7.706042524005487" fill="#647687" /><rect x="191.6801851851852" y="183.6801851851852" width="8.63962962962963" height="8.63962962962963" fill="#647687" /><rect x="199.63335048010973" y="183.63335048010973" width="8.733299039780523" height="8.733299039780523" fill="#647687" /><rect x="208.0237585733882" y="184.0237585733882" width="7.952482853223595" height="7.952482853223595" fill="#C0A080" /><rect x="32.0094341563786" y="192.0094341563786" width="7.981131687242799" height="7.981131687242799" fill="#C0A080" /><rect x="40.378031550068584" y="192.37803155006858" width="7.243936899862826" height="7.243936899862826" fill="#647687" /><rect x="47.902390260631" y="191.902390260631" width="8.195219478737997" height="8.195219478737997" fill="#647687" /><rect x="55.96275720164609" y="191.9627572016461" width="8.074485596707818" height="8.074485596707818" fill="#647687" /><rect x="63.8356755829904" y="191.8356755829904" width="8.328648834019205" height="8.328648834019205" fill="#647687" /><rect x="72.24954046639232" y="192.24954046639232" width="7.500919067215364" height="7.500919067215364" fill="#647687" /><rect x="80.00682098765432" y="192.00682098765432" width="7.986358024691358" height="7.986358024691358" fill="#647687" /><rect x="88.07294924554184" y="192.07294924554185" width="7.854101508916324" height="7.854101508916324" fill="#C0A080" /><rect x="151.9318758573388" y="191.9318758573388" width="8.13624828532236" height="8.13624828532236" fill="#C0A080" /><rect x="159.80829218106996" y="191.80829218106996" width="8.383415637860082" height="8.383415637860082" fill="#647687" /><rect x="167.95651920438956" y="191.95651920438956" width="8.08696159122085" height="8.08696159122085" fill="#647687" /><rect x="176.21606310013718" y="192.21606310013718" width="7.5678737997256516" height="7.5678737997256516" fill="#647687" /><rect x="183.83383744855968" y="191.83383744855968" width="8.33232510288066" height="8.33232510288066" fill="#647687" /><rect x="191.95305212620028" y="191.95305212620028" width="8.09389574759945" height="8.09389574759945" fill="#647687" /><rect x="199.96876886145404" y="191.96876886145404" width="8.062462277091907" height="8.062462277091907" fill="#647687" /><rect x="207.75012345679013" y="191.75012345679013" width="8.499753086419753" height="8.499753086419753" fill="#C0A080" /><rect x="31.729214677640606" y="199.7292146776406" width="8.541570644718792" height="8.541570644718792" fill="#C0A080" /><rect x="39.6566598079561" y="199.65665980795612" width="8.686680384087792" height="8.686680384087792" fill="#C0A080" /><rect x="48.023816872427986" y="200.02381687242797" width="7.9523662551440335" height="7.9523662551440335" fill="#647687" /><rect x="55.75167352537723" y="199.75167352537724" width="8.496652949245542" height="8.496652949245542" fill="#647687" /><rect x="63.74640260631001" y="199.74640260631003" width="8.507194787379973" height="8.507194787379973" fill="#647687" /><rect x="72.32158436213992" y="200.32158436213993" width="7.356831275720165" height="7.356831275720165" fill="#647687" /><rect x="79.68709533607682" y="199.68709533607682" width="8.625809327846365" height="8.625809327846365" fill="#C0A080" /><rect x="87.90466392318244" y="199.90466392318245" width="8.190672153635116" height="8.190672153635116" fill="#C0A080" /><rect x="152.31009259259258" y="200.31009259259258" width="7.379814814814815" height="7.379814814814815" fill="#C0A080" /><rect x="160.00214677640602" y="200.00214677640602" width="7.995706447187929" height="7.995706447187929" fill="#C0A080" /><rect x="167.79811042524005" y="199.79811042524005" width="8.40377914951989" height="8.40377914951989" fill="#647687" /><rect x="175.65600823045267" y="199.65600823045267" width="8.68798353909465" height="8.68798353909465" fill="#647687" /><rect x="184.36349451303155" y="200.36349451303155" width="7.2730109739369" height="7.2730109739369" fill="#647687" /><rect x="191.89340877914952" y="199.89340877914952" width="8.21318244170096" height="8.21318244170096" fill="#647687" /><rect x="199.62599794238685" y="199.62599794238685" width="8.748004115226337" height="8.748004115226337" fill="#C0A080" /><rect x="207.63780521262004" y="199.63780521262004" width="8.724389574759945" height="8.724389574759945" fill="#C0A080" /><rect x="160" y="120" width="8" height="8" fill="white" opacity="0.5" filter="url(#metal)" /><rect x="152" y="72" width="8" height="8" fill="white" opacity="0.5" filter="url(#metal)" /><rect x="96" y="104" width="8" height="8" fill="white" opacity="0.5" filter="url(#metal)" /><rect x="208" y="112" width="8" height="8" fill="white" opacity="0.5" filter="url(#metal)" /><rect x="216" y="176" width="8" height="8" fill="white" opacity="0.5" filter="url(#metal)" /><rect x="152" y="104" width="8" height="8" fill="white" opacity="0.5" filter="url(#metal)" /><rect x="192" y="24" width="8" height="8" fill="white" opacity="0.5" filter="url(#metal)" /><rect x="112" y="176" width="8" height="8" fill="white" opacity="0.5" filter="url(#metal)" /><rect x="56" y="64" width="8" height="8" fill="white" opacity="0.5" filter="url(#metal)" /><rect x="168" y="80" width="8" height="8" fill="white" opacity="0.5" filter="url(#metal)" />
    </g>
    
    <!-- Добавляем небольшие блестящие эффекты -->
    <rect x="152" y="40" width="16" height="16" fill="#E0E0E0" opacity="0.2631515775034294" filter="url(#shimmer)" /><rect x="240" y="0" width="8" height="8" fill="#E0E0E0" opacity="0.3156807270233196" filter="url(#shimmer)" /><rect x="104" y="208" width="16" height="16" fill="#E0E0E0" opacity="0.23034979423868313" filter="url(#shimmer)" /><rect x="48" y="56" width="16" height="16" fill="#E0E0E0" opacity="0.4454303840877915" filter="url(#shimmer)" /><rect x="8" y="248" width="16" height="16" fill="#E0E0E0" opacity="0.60289780521262" filter="url(#shimmer)" /><rect x="168" y="224" width="16" height="16" fill="#E0E0E0" opacity="0.3262088477366255" filter="url(#shimmer)" /><rect x="104" y="120" width="16" height="16" fill="#E0E0E0" opacity="0.33141289437585736" filter="url(#shimmer)" /><rect x="0" y="0" width="8" height="8" fill="#E0E0E0" opacity="0.3715963648834019" filter="url(#shimmer)" /><rect x="160" y="152" width="16" height="16" fill="#E0E0E0" opacity="0.5146604938271605" filter="url(#shimmer)" /><rect x="232" y="144" width="16" height="16" fill="#E0E0E0" opacity="0.25443244170096024" filter="url(#shimmer)" />
  </svg>
  