
  <svg width="256" height="256" viewBox="0 0 256 256" xmlns="http://www.w3.org/2000/svg">
    <defs>
      
    <filter id="shimmer" x="-20%" y="-20%" width="140%" height="140%">
      <feTurbulence type="fractalNoise" baseFrequency="0.01" numOctaves="1" seed="79">
        <animate attributeName="baseFrequency" from="0.01" to="0.02" dur="30s" repeatCount="indefinite" />
      </feTurbulence>
      <feDisplacementMap in="SourceGraphic" scale="5" />
      <feGaussianBlur stdDeviation="2.5" />
      <feComposite in="SourceGraphic" operator="over" />
    </filter>
  
      
    <filter id="metal">
      <feSpecularLighting result="specOut" specularExponent="20" lighting-color="#ffffff">
        <fePointLight x="50%" y="50%" z="200" />
      </feSpecularLighting>
      <feComposite in="SourceGraphic" in2="specOut" operator="arithmetic" k1="0" k2="1" k3="1" k4="0" />
    </filter>
  
    </defs>
    
    <!-- Темный фон с градиентом -->
    <rect width="256" height="256" fill="#1A0F1C" />
    <rect width="256" height="256" fill="url(#bgGradient)" />
    
    <!-- Градиент фона -->
    <linearGradient id="bgGradient" x1="0%" y1="0%" x2="100%" y2="100%">
      <stop offset="0%" stop-color="#1A0F1C" />
      <stop offset="50%" stop-color="#060008" />
      <stop offset="100%" stop-color="#1A0F1C" />
    </linearGradient>
    
    <!-- Рамка с эффектом шиммера -->
    <rect x="8" y="8" width="240" height="240" fill="none" stroke="#D4AF37" stroke-width="2" filter="url(#shimmer)" />
    
    <!-- Пиксельное искусство по центру -->
    <g transform="translate(0, 0)">
      <rect x="176" y="32" width="8" height="8" fill="#E5C687" /><rect x="168" y="40" width="8" height="8" fill="#E5C687" /><rect x="176" y="40" width="8" height="8" fill="#E5C687" /><rect x="184" y="40" width="8" height="8" fill="#E5C687" /><rect x="160" y="48" width="8" height="8" fill="#E5C687" /><rect x="168" y="48" width="8" height="8" fill="#E5C687" /><rect x="176" y="48" width="8" height="8" fill="#E5C687" /><rect x="184" y="48" width="8" height="8" fill="#E5C687" /><rect x="192" y="48" width="8" height="8" fill="#E5C687" /><rect x="152" y="56" width="8" height="8" fill="#E5C687" /><rect x="160" y="56" width="8" height="8" fill="#E5C687" /><rect x="168" y="56" width="8" height="8" fill="#E5C687" /><rect x="176" y="56" width="8" height="8" fill="#E5C687" /><rect x="184" y="56" width="8" height="8" fill="#E5C687" /><rect x="192" y="56" width="8" height="8" fill="#E5C687" /><rect x="200" y="56" width="8" height="8" fill="#E5C687" /><rect x="144" y="64" width="8" height="8" fill="#E5C687" /><rect x="152" y="64" width="8" height="8" fill="#E5C687" /><rect x="160" y="64" width="8" height="8" fill="#E5C687" /><rect x="168" y="64" width="8" height="8" fill="#E5C687" /><rect x="176" y="64" width="8" height="8" fill="#E5C687" /><rect x="184" y="64" width="8" height="8" fill="#E5C687" /><rect x="192" y="64" width="8" height="8" fill="#E5C687" /><rect x="200" y="64" width="8" height="8" fill="#E5C687" /><rect x="208" y="64" width="8" height="8" fill="#E5C687" /><rect x="136" y="72" width="8" height="8" fill="#E5C687" /><rect x="144" y="72" width="8" height="8" fill="#E5C687" /><rect x="152" y="72" width="8" height="8" fill="#E5C687" /><rect x="160" y="72" width="8" height="8" fill="#E5C687" /><rect x="168" y="72" width="8" height="8" fill="#E5C687" /><rect x="176" y="72" width="8" height="8" fill="#E5C687" /><rect x="184" y="72" width="8" height="8" fill="#E5C687" /><rect x="192" y="72" width="8" height="8" fill="#E5C687" /><rect x="200" y="72" width="8" height="8" fill="#E5C687" /><rect x="208" y="72" width="8" height="8" fill="#E5C687" /><rect x="216" y="72" width="8" height="8" fill="#E5C687" /><rect x="128" y="80" width="8" height="8" fill="#E5C687" /><rect x="136" y="80" width="8" height="8" fill="#E5C687" /><rect x="144" y="80" width="8" height="8" fill="#E5C687" /><rect x="152" y="80" width="8" height="8" fill="#E5C687" /><rect x="160" y="80" width="8" height="8" fill="#E5C687" /><rect x="168" y="80" width="8" height="8" fill="#E5C687" /><rect x="176" y="80" width="8" height="8" fill="#E5C687" /><rect x="184" y="80" width="8" height="8" fill="#E5C687" /><rect x="192" y="80" width="8" height="8" fill="#E5C687" /><rect x="200" y="80" width="8" height="8" fill="#E5C687" /><rect x="208" y="80" width="8" height="8" fill="#E5C687" /><rect x="216" y="80" width="8" height="8" fill="#E5C687" /><rect x="224" y="80" width="8" height="8" fill="#E5C687" /><rect x="120" y="88" width="8" height="8" fill="#E5C687" /><rect x="128" y="88" width="8" height="8" fill="#E5C687" /><rect x="136" y="88" width="8" height="8" fill="#E5C687" /><rect x="144" y="88" width="8" height="8" fill="#E5C687" /><rect x="152" y="88" width="8" height="8" fill="#E5C687" /><rect x="160" y="88" width="8" height="8" fill="#E5C687" /><rect x="168" y="88" width="8" height="8" fill="#E5C687" /><rect x="176" y="88" width="8" height="8" fill="#E5C687" /><rect x="184" y="88" width="8" height="8" fill="#E5C687" /><rect x="192" y="88" width="8" height="8" fill="#E5C687" /><rect x="200" y="88" width="8" height="8" fill="#E5C687" /><rect x="208" y="88" width="8" height="8" fill="#E5C687" /><rect x="216" y="88" width="8" height="8" fill="#E5C687" /><rect x="224" y="88" width="8" height="8" fill="#E5C687" /><rect x="232" y="88" width="8" height="8" fill="#E5C687" /><rect x="112" y="96" width="8" height="8" fill="#E5C687" /><rect x="120" y="96" width="8" height="8" fill="#E5C687" /><rect x="128" y="96" width="8" height="8" fill="#E5C687" /><rect x="136" y="96" width="8" height="8" fill="#E5C687" /><rect x="144" y="96" width="8" height="8" fill="#E5C687" /><rect x="152" y="96" width="8" height="8" fill="#E5C687" /><rect x="160" y="96" width="8" height="8" fill="#E5C687" /><rect x="168" y="96" width="8" height="8" fill="#E5C687" /><rect x="176" y="96" width="8" height="8" fill="#E5C687" /><rect x="184" y="96" width="8" height="8" fill="#E5C687" /><rect x="192" y="96" width="8" height="8" fill="#E5C687" /><rect x="200" y="96" width="8" height="8" fill="#E5C687" /><rect x="208" y="96" width="8" height="8" fill="#E5C687" /><rect x="216" y="96" width="8" height="8" fill="#E5C687" /><rect x="224" y="96" width="8" height="8" fill="#E5C687" /><rect x="80" y="104" width="8" height="8" fill="#E5C687" /><rect x="88" y="104" width="8" height="8" fill="#E5C687" /><rect x="96" y="104" width="8" height="8" fill="#E5C687" /><rect x="104" y="104" width="8" height="8" fill="#E5C687" /><rect x="112" y="104" width="8" height="8" fill="#E5C687" /><rect x="120" y="104" width="8" height="8" fill="#E5C687" /><rect x="128" y="104" width="8" height="8" fill="#6A0DAD" /><rect x="136" y="104" width="8" height="8" fill="#E5C687" /><rect x="144" y="104" width="8" height="8" fill="#E5C687" /><rect x="152" y="104" width="8" height="8" fill="#6A0DAD" /><rect x="160" y="104" width="8" height="8" fill="#E5C687" /><rect x="168" y="104" width="8" height="8" fill="#E5C687" /><rect x="176" y="104" width="8" height="8" fill="#6A0DAD" /><rect x="184" y="104" width="8" height="8" fill="#E5C687" /><rect x="192" y="104" width="8" height="8" fill="#E5C687" /><rect x="200" y="104" width="8" height="8" fill="#6A0DAD" /><rect x="208" y="104" width="8" height="8" fill="#E5C687" /><rect x="216" y="104" width="8" height="8" fill="#E5C687" /><rect x="72" y="112" width="8" height="8" fill="#E5C687" /><rect x="80" y="112" width="8" height="8" fill="#E5C687" /><rect x="88" y="112" width="8" height="8" fill="#E5C687" /><rect x="96" y="112" width="8" height="8" fill="#E5C687" /><rect x="104" y="112" width="8" height="8" fill="#E5C687" /><rect x="112" y="112" width="8" height="8" fill="#E5C687" /><rect x="120" y="112" width="8" height="8" fill="#E5C687" /><rect x="128" y="112" width="8" height="8" fill="#6A0DAD" /><rect x="136" y="112" width="8" height="8" fill="#E5C687" /><rect x="144" y="112" width="8" height="8" fill="#E5C687" /><rect x="152" y="112" width="8" height="8" fill="#6A0DAD" /><rect x="160" y="112" width="8" height="8" fill="#E5C687" /><rect x="168" y="112" width="8" height="8" fill="#E5C687" /><rect x="176" y="112" width="8" height="8" fill="#6A0DAD" /><rect x="184" y="112" width="8" height="8" fill="#E5C687" /><rect x="192" y="112" width="8" height="8" fill="#E5C687" /><rect x="200" y="112" width="8" height="8" fill="#6A0DAD" /><rect x="208" y="112" width="8" height="8" fill="#E5C687" /><rect x="216" y="112" width="8" height="8" fill="#E5C687" /><rect x="64" y="120" width="8" height="8" fill="#E5C687" /><rect x="72" y="120" width="8" height="8" fill="#E5C687" /><rect x="80" y="120" width="8" height="8" fill="#E5C687" /><rect x="88" y="120" width="8" height="8" fill="#E5C687" /><rect x="96" y="120" width="8" height="8" fill="#E5C687" /><rect x="104" y="120" width="8" height="8" fill="#E5C687" /><rect x="112" y="120" width="8" height="8" fill="#E5C687" /><rect x="120" y="120" width="8" height="8" fill="#E5C687" /><rect x="128" y="120" width="8" height="8" fill="#6A0DAD" /><rect x="136" y="120" width="8" height="8" fill="#E5C687" /><rect x="144" y="120" width="8" height="8" fill="#E5C687" /><rect x="152" y="120" width="8" height="8" fill="#6A0DAD" /><rect x="160" y="120" width="8" height="8" fill="#E5C687" /><rect x="168" y="120" width="8" height="8" fill="#E5C687" /><rect x="176" y="120" width="8" height="8" fill="#6A0DAD" /><rect x="184" y="120" width="8" height="8" fill="#E5C687" /><rect x="192" y="120" width="8" height="8" fill="#E5C687" /><rect x="200" y="120" width="8" height="8" fill="#6A0DAD" /><rect x="208" y="120" width="8" height="8" fill="#E5C687" /><rect x="216" y="120" width="8" height="8" fill="#E5C687" /><rect x="32" y="128" width="8" height="8" fill="#E5C687" /><rect x="40" y="128" width="8" height="8" fill="#E5C687" /><rect x="48" y="128" width="8" height="8" fill="#E5C687" /><rect x="56" y="128" width="8" height="8" fill="#E5C687" /><rect x="64" y="128" width="8" height="8" fill="#E5C687" /><rect x="72" y="128" width="8" height="8" fill="#E5C687" /><rect x="80" y="128" width="8" height="8" fill="#E5C687" /><rect x="88" y="128" width="8" height="8" fill="#E5C687" /><rect x="96" y="128" width="8" height="8" fill="#E5C687" /><rect x="104" y="128" width="8" height="8" fill="#E5C687" /><rect x="112" y="128" width="8" height="8" fill="#E5C687" /><rect x="120" y="128" width="8" height="8" fill="#E5C687" /><rect x="128" y="128" width="8" height="8" fill="#6A0DAD" /><rect x="136" y="128" width="8" height="8" fill="#E5C687" /><rect x="144" y="128" width="8" height="8" fill="#E5C687" /><rect x="152" y="128" width="8" height="8" fill="#6A0DAD" /><rect x="160" y="128" width="8" height="8" fill="#E5C687" /><rect x="168" y="128" width="8" height="8" fill="#E5C687" /><rect x="176" y="128" width="8" height="8" fill="#6A0DAD" /><rect x="184" y="128" width="8" height="8" fill="#E5C687" /><rect x="192" y="128" width="8" height="8" fill="#E5C687" /><rect x="200" y="128" width="8" height="8" fill="#6A0DAD" /><rect x="208" y="128" width="8" height="8" fill="#E5C687" /><rect x="216" y="128" width="8" height="8" fill="#E5C687" /><rect x="32" y="136" width="8" height="8" fill="#E5C687" /><rect x="40" y="136" width="8" height="8" fill="#E5C687" /><rect x="48" y="136" width="8" height="8" fill="#E5C687" /><rect x="56" y="136" width="8" height="8" fill="#E5C687" /><rect x="64" y="136" width="8" height="8" fill="#E5C687" /><rect x="72" y="136" width="8" height="8" fill="#E5C687" /><rect x="80" y="136" width="8" height="8" fill="#E5C687" /><rect x="88" y="136" width="8" height="8" fill="#E5C687" /><rect x="96" y="136" width="8" height="8" fill="#E5C687" /><rect x="104" y="136" width="8" height="8" fill="#E5C687" /><rect x="112" y="136" width="8" height="8" fill="#E5C687" /><rect x="120" y="136" width="8" height="8" fill="#E5C687" /><rect x="128" y="136" width="8" height="8" fill="#6A0DAD" /><rect x="136" y="136" width="8" height="8" fill="#E5C687" /><rect x="144" y="136" width="8" height="8" fill="#E5C687" /><rect x="152" y="136" width="8" height="8" fill="#6A0DAD" /><rect x="160" y="136" width="8" height="8" fill="#E5C687" /><rect x="168" y="136" width="8" height="8" fill="#E5C687" /><rect x="176" y="136" width="8" height="8" fill="#6A0DAD" /><rect x="184" y="136" width="8" height="8" fill="#E5C687" /><rect x="192" y="136" width="8" height="8" fill="#E5C687" /><rect x="200" y="136" width="8" height="8" fill="#6A0DAD" /><rect x="208" y="136" width="8" height="8" fill="#E5C687" /><rect x="216" y="136" width="8" height="8" fill="#E5C687" /><rect x="64" y="144" width="8" height="8" fill="#E5C687" /><rect x="72" y="144" width="8" height="8" fill="#E5C687" /><rect x="80" y="144" width="8" height="8" fill="#E5C687" /><rect x="88" y="144" width="8" height="8" fill="#E5C687" /><rect x="96" y="144" width="8" height="8" fill="#E5C687" /><rect x="104" y="144" width="8" height="8" fill="#E5C687" /><rect x="112" y="144" width="8" height="8" fill="#E5C687" /><rect x="120" y="144" width="8" height="8" fill="#E5C687" /><rect x="128" y="144" width="8" height="8" fill="#E5C687" /><rect x="136" y="144" width="8" height="8" fill="#E5C687" /><rect x="144" y="144" width="8" height="8" fill="#E5C687" /><rect x="152" y="144" width="8" height="8" fill="#E5C687" /><rect x="160" y="144" width="8" height="8" fill="#E5C687" /><rect x="168" y="144" width="8" height="8" fill="#E5C687" /><rect x="176" y="144" width="8" height="8" fill="#E5C687" /><rect x="184" y="144" width="8" height="8" fill="#E5C687" /><rect x="192" y="144" width="8" height="8" fill="#E5C687" /><rect x="200" y="144" width="8" height="8" fill="#E5C687" /><rect x="208" y="144" width="8" height="8" fill="#E5C687" /><rect x="216" y="144" width="8" height="8" fill="#E5C687" /><rect x="80" y="152" width="8" height="8" fill="#E5C687" /><rect x="88" y="152" width="8" height="8" fill="#E5C687" /><rect x="96" y="152" width="8" height="8" fill="#E5C687" /><rect x="104" y="152" width="8" height="8" fill="#E5C687" /><rect x="112" y="152" width="8" height="8" fill="#E5C687" /><rect x="120" y="152" width="8" height="8" fill="#E5C687" /><rect x="128" y="152" width="8" height="8" fill="#E5C687" /><rect x="136" y="152" width="8" height="8" fill="#E5C687" /><rect x="144" y="152" width="8" height="8" fill="#E5C687" /><rect x="152" y="152" width="8" height="8" fill="#E5C687" /><rect x="160" y="152" width="8" height="8" fill="#E5C687" /><rect x="168" y="152" width="8" height="8" fill="#E5C687" /><rect x="176" y="152" width="8" height="8" fill="#E5C687" /><rect x="184" y="152" width="8" height="8" fill="#E5C687" /><rect x="192" y="152" width="8" height="8" fill="#E5C687" /><rect x="200" y="152" width="8" height="8" fill="#E5C687" /><rect x="208" y="152" width="8" height="8" fill="#E5C687" /><rect x="96" y="160" width="8" height="8" fill="#E5C687" /><rect x="104" y="160" width="8" height="8" fill="#E5C687" /><rect x="112" y="160" width="8" height="8" fill="#E5C687" /><rect x="120" y="160" width="8" height="8" fill="#E5C687" /><rect x="128" y="160" width="8" height="8" fill="#E5C687" /><rect x="136" y="160" width="8" height="8" fill="#E5C687" /><rect x="144" y="160" width="8" height="8" fill="#E5C687" /><rect x="152" y="160" width="8" height="8" fill="#E5C687" /><rect x="160" y="160" width="8" height="8" fill="#E5C687" /><rect x="168" y="160" width="8" height="8" fill="#E5C687" /><rect x="176" y="160" width="8" height="8" fill="#E5C687" /><rect x="184" y="160" width="8" height="8" fill="#E5C687" /><rect x="192" y="160" width="8" height="8" fill="#E5C687" /><rect x="96" y="160" width="8" height="8" fill="#FFFFFF" opacity="0.352662037037037" /><rect x="136" y="192" width="8" height="8" fill="#FFFFFF" opacity="0.30208076131687245" /><rect x="136" y="160" width="8" height="8" fill="#FFFFFF" opacity="0.4947093621399177" /><rect x="176" y="192" width="8" height="8" fill="#FFFFFF" opacity="0.23795524691358025" /><rect x="176" y="200" width="8" height="8" fill="#FFFFFF" opacity="0.23795524691358025" /><rect x="184" y="192" width="8" height="8" fill="#FFFFFF" opacity="0.23795524691358025" /><rect x="184" y="200" width="8" height="8" fill="#FFFFFF" opacity="0.23795524691358025" /><rect x="168" y="192" width="8" height="8" fill="#FFFFFF" opacity="0.49478137860082305" /><rect x="144" y="168" width="8" height="8" fill="#FFFFFF" opacity="0.2503729423868313" /><rect x="144" y="176" width="8" height="8" fill="#FFFFFF" opacity="0.2503729423868313" /><rect x="152" y="168" width="8" height="8" fill="#FFFFFF" opacity="0.2503729423868313" /><rect x="152" y="176" width="8" height="8" fill="#FFFFFF" opacity="0.2503729423868313" /><rect x="80" y="176" width="8" height="8" fill="#FFFFFF" opacity="0.27880401234567903" /><rect x="136" y="200" width="8" height="8" fill="#FFFFFF" opacity="0.2097042181069959" /><rect x="120" y="184" width="8" height="8" fill="#FFFFFF" opacity="0.29492541152263374" /><rect x="136" y="192" width="8" height="8" fill="#FFFFFF" opacity="0.37520833333333337" /><rect x="168" y="160" width="8" height="8" fill="#FFFFFF" opacity="0.24684927983539096" /><rect x="168" y="168" width="8" height="8" fill="#FFFFFF" opacity="0.24684927983539096" /><rect x="176" y="160" width="8" height="8" fill="#FFFFFF" opacity="0.24684927983539096" /><rect x="176" y="168" width="8" height="8" fill="#FFFFFF" opacity="0.24684927983539096" /><rect x="200" y="192" width="8" height="8" fill="#FFFFFF" opacity="0.2283667695473251" /><rect x="200" y="200" width="8" height="8" fill="#FFFFFF" opacity="0.2283667695473251" /><rect x="208" y="192" width="8" height="8" fill="#FFFFFF" opacity="0.2283667695473251" /><rect x="208" y="200" width="8" height="8" fill="#FFFFFF" opacity="0.2283667695473251" /><rect x="64" y="168" width="8" height="8" fill="#FFFFFF" opacity="0.42716820987654325" /><rect x="184" y="184" width="8" height="8" fill="#FFFFFF" opacity="0.20621656378600825" /><rect x="184" y="192" width="8" height="8" fill="#FFFFFF" opacity="0.20621656378600825" /><rect x="192" y="184" width="8" height="8" fill="#FFFFFF" opacity="0.20621656378600825" /><rect x="192" y="192" width="8" height="8" fill="#FFFFFF" opacity="0.20621656378600825" /><rect x="120" y="160" width="8" height="8" fill="#FFFFFF" opacity="0.25069701646090536" /><rect x="120" y="168" width="8" height="8" fill="#FFFFFF" opacity="0.25069701646090536" /><rect x="128" y="160" width="8" height="8" fill="#FFFFFF" opacity="0.25069701646090536" /><rect x="128" y="168" width="8" height="8" fill="#FFFFFF" opacity="0.25069701646090536" />
    </g>
    
    <!-- Добавляем небольшие блестящие эффекты -->
    <rect x="224" y="112" width="16" height="16" fill="#D4AF37" opacity="0.6265839334705076" filter="url(#shimmer)" /><rect x="72" y="72" width="16" height="16" fill="#D4AF37" opacity="0.4460883916323731" filter="url(#shimmer)" /><rect x="168" y="48" width="8" height="8" fill="#D4AF37" opacity="0.6092142489711934" filter="url(#shimmer)" /><rect x="16" y="80" width="16" height="16" fill="#D4AF37" opacity="0.6653442215363512" filter="url(#shimmer)" /><rect x="224" y="160" width="16" height="16" fill="#D4AF37" opacity="0.20089806241426614" filter="url(#shimmer)" /><rect x="240" y="216" width="8" height="8" fill="#D4AF37" opacity="0.6171103395061728" filter="url(#shimmer)" /><rect x="144" y="8" width="16" height="16" fill="#D4AF37" opacity="0.24114154663923182" filter="url(#shimmer)" /><rect x="248" y="184" width="8" height="8" fill="#D4AF37" opacity="0.270522548010974" filter="url(#shimmer)" /><rect x="160" y="208" width="8" height="8" fill="#D4AF37" opacity="0.5509323559670782" filter="url(#shimmer)" /><rect x="0" y="72" width="8" height="8" fill="#D4AF37" opacity="0.6873092421124829" filter="url(#shimmer)" /><rect x="72" y="56" width="8" height="8" fill="#D4AF37" opacity="0.4882951817558299" filter="url(#shimmer)" /><rect x="104" y="192" width="16" height="16" fill="#D4AF37" opacity="0.2440136316872428" filter="url(#shimmer)" /><rect x="24" y="184" width="8" height="8" fill="#D4AF37" opacity="0.3371806412894376" filter="url(#shimmer)" /><rect x="104" y="200" width="16" height="16" fill="#D4AF37" opacity="0.6875492969821674" filter="url(#shimmer)" /><rect x="232" y="80" width="8" height="8" fill="#D4AF37" opacity="0.5296875000000001" filter="url(#shimmer)" /><rect x="120" y="0" width="16" height="16" fill="#D4AF37" opacity="0.5240890775034294" filter="url(#shimmer)" /><rect x="24" y="24" width="8" height="8" fill="#D4AF37" opacity="0.20161822702331963" filter="url(#shimmer)" /><rect x="208" y="40" width="8" height="8" fill="#D4AF37" opacity="0.24128729423868314" filter="url(#shimmer)" /><rect x="208" y="208" width="8" height="8" fill="#D4AF37" opacity="0.5813678840877915" filter="url(#shimmer)" />
  </svg>
  