
  <svg width="256" height="256" viewBox="0 0 256 256" xmlns="http://www.w3.org/2000/svg">
    <defs>
      
    <filter id="shimmer" x="-20%" y="-20%" width="140%" height="140%">
      <feTurbulence type="fractalNoise" baseFrequency="0.01" numOctaves="1" seed="90">
        <animate attributeName="baseFrequency" from="0.01" to="0.02" dur="30s" repeatCount="indefinite" />
      </feTurbulence>
      <feDisplacementMap in="SourceGraphic" scale="5" />
      <feGaussianBlur stdDeviation="2.5" />
      <feComposite in="SourceGraphic" operator="over" />
    </filter>
  
      
    <filter id="metal">
      <feSpecularLighting result="specOut" specularExponent="20" lighting-color="#ffffff">
        <fePointLight x="50%" y="50%" z="200" />
      </feSpecularLighting>
      <feComposite in="SourceGraphic" in2="specOut" operator="arithmetic" k1="0" k2="1" k3="1" k4="0" />
    </filter>
  
    </defs>
    
    <!-- Темный фон с градиентом -->
    <rect width="256" height="256" fill="#1A0F1C" />
    <rect width="256" height="256" fill="url(#bgGradient)" />
    
    <!-- Градиент фона -->
    <linearGradient id="bgGradient" x1="0%" y1="0%" x2="100%" y2="100%">
      <stop offset="0%" stop-color="#1A0F1C" />
      <stop offset="50%" stop-color="#060008" />
      <stop offset="100%" stop-color="#1A0F1C" />
    </linearGradient>
    
    <!-- Рамка с эффектом шиммера -->
    <rect x="8" y="8" width="240" height="240" fill="none" stroke="#D4AF37" stroke-width="2" filter="url(#shimmer)" />
    
    <!-- Пиксельное искусство по центру -->
    <g transform="translate(0, 0)">
      <rect x="104" y="24" width="8" height="8" fill="#FFD700" /><rect x="112" y="24" width="8" height="8" fill="#FFD700" /><rect x="120" y="24" width="8" height="8" fill="#FFD700" /><rect x="128" y="24" width="8" height="8" fill="#FFD700" /><rect x="136" y="24" width="8" height="8" fill="#FFD700" /><rect x="144" y="24" width="8" height="8" fill="#FFD700" /><rect x="152" y="24" width="8" height="8" fill="#FFD700" /><rect x="160" y="24" width="8" height="8" fill="#FFD700" /><rect x="96" y="32" width="8" height="8" fill="#FFD700" /><rect x="104" y="32" width="8" height="8" fill="#FFD700" /><rect x="112" y="32" width="8" height="8" fill="#FFD700" /><rect x="120" y="32" width="8" height="8" fill="#FFD700" /><rect x="128" y="32" width="8" height="8" fill="#FFD700" /><rect x="136" y="32" width="8" height="8" fill="#FFD700" /><rect x="144" y="32" width="8" height="8" fill="#FFD700" /><rect x="152" y="32" width="8" height="8" fill="#FFD700" /><rect x="160" y="32" width="8" height="8" fill="#FFD700" /><rect x="168" y="32" width="8" height="8" fill="#FFD700" /><rect x="88" y="40" width="8" height="8" fill="#FFD700" /><rect x="96" y="40" width="8" height="8" fill="#FFD700" /><rect x="104" y="40" width="8" height="8" fill="#FFD700" /><rect x="112" y="40" width="8" height="8" fill="#FFD700" /><rect x="120" y="40" width="8" height="8" fill="#FFD700" /><rect x="128" y="40" width="8" height="8" fill="#FFD700" /><rect x="136" y="40" width="8" height="8" fill="#FFD700" /><rect x="144" y="40" width="8" height="8" fill="#FFD700" /><rect x="152" y="40" width="8" height="8" fill="#FFD700" /><rect x="160" y="40" width="8" height="8" fill="#FFD700" /><rect x="168" y="40" width="8" height="8" fill="#FFD700" /><rect x="176" y="40" width="8" height="8" fill="#FFD700" /><rect x="80" y="48" width="8" height="8" fill="#FFD700" /><rect x="88" y="48" width="8" height="8" fill="#FFD700" /><rect x="96" y="48" width="8" height="8" fill="#FFD700" /><rect x="104" y="48" width="8" height="8" fill="#FFD700" /><rect x="112" y="48" width="8" height="8" fill="#FFD700" /><rect x="120" y="48" width="8" height="8" fill="#FFD700" /><rect x="128" y="48" width="8" height="8" fill="#FFD700" /><rect x="136" y="48" width="8" height="8" fill="#FFD700" /><rect x="144" y="48" width="8" height="8" fill="#FFD700" /><rect x="152" y="48" width="8" height="8" fill="#FFD700" /><rect x="160" y="48" width="8" height="8" fill="#FFD700" /><rect x="168" y="48" width="8" height="8" fill="#FFD700" /><rect x="176" y="48" width="8" height="8" fill="#FFD700" /><rect x="184" y="48" width="8" height="8" fill="#FFD700" /><rect x="80" y="56" width="8" height="8" fill="#FFD700" /><rect x="88" y="56" width="8" height="8" fill="#FFD700" /><rect x="96" y="56" width="8" height="8" fill="#FFD700" /><rect x="104" y="56" width="8" height="8" fill="#FFE0B2" /><rect x="112" y="56" width="8" height="8" fill="#FFE0B2" /><rect x="120" y="56" width="8" height="8" fill="#FFE0B2" /><rect x="128" y="56" width="8" height="8" fill="#FFE0B2" /><rect x="136" y="56" width="8" height="8" fill="#FFE0B2" /><rect x="144" y="56" width="8" height="8" fill="#FFE0B2" /><rect x="152" y="56" width="8" height="8" fill="#FFE0B2" /><rect x="160" y="56" width="8" height="8" fill="#FFE0B2" /><rect x="168" y="56" width="8" height="8" fill="#FFD700" /><rect x="176" y="56" width="8" height="8" fill="#FFD700" /><rect x="184" y="56" width="8" height="8" fill="#FFD700" /><rect x="80" y="64" width="8" height="8" fill="#FFD700" /><rect x="88" y="64" width="8" height="8" fill="#FFD700" /><rect x="96" y="64" width="8" height="8" fill="#FFE0B2" /><rect x="104" y="64" width="8" height="8" fill="#FFE0B2" /><rect x="112" y="64" width="8" height="8" fill="#FFE0B2" /><rect x="120" y="64" width="8" height="8" fill="#FFE0B2" /><rect x="128" y="64" width="8" height="8" fill="#FFE0B2" /><rect x="136" y="64" width="8" height="8" fill="#FFE0B2" /><rect x="144" y="64" width="8" height="8" fill="#FFE0B2" /><rect x="152" y="64" width="8" height="8" fill="#FFE0B2" /><rect x="160" y="64" width="8" height="8" fill="#FFE0B2" /><rect x="168" y="64" width="8" height="8" fill="#FFE0B2" /><rect x="176" y="64" width="8" height="8" fill="#FFD700" /><rect x="184" y="64" width="8" height="8" fill="#FFD700" /><rect x="80" y="72" width="8" height="8" fill="#FFD700" /><rect x="88" y="72" width="8" height="8" fill="#FFE0B2" /><rect x="96" y="72" width="8" height="8" fill="#FFE0B2" /><rect x="104" y="72" width="8" height="8" fill="#FFE0B2" /><rect x="112" y="72" width="8" height="8" fill="#FFE0B2" /><rect x="120" y="72" width="8" height="8" fill="#FFE0B2" /><rect x="128" y="72" width="8" height="8" fill="#FFE0B2" /><rect x="136" y="72" width="8" height="8" fill="#FFE0B2" /><rect x="144" y="72" width="8" height="8" fill="#FFE0B2" /><rect x="152" y="72" width="8" height="8" fill="#FFE0B2" /><rect x="160" y="72" width="8" height="8" fill="#FFE0B2" /><rect x="168" y="72" width="8" height="8" fill="#FFE0B2" /><rect x="176" y="72" width="8" height="8" fill="#FFE0B2" /><rect x="184" y="72" width="8" height="8" fill="#FFD700" /><rect x="80" y="80" width="8" height="8" fill="#FFD700" /><rect x="88" y="80" width="8" height="8" fill="#FFE0B2" /><rect x="96" y="80" width="8" height="8" fill="#FFE0B2" /><rect x="104" y="80" width="8" height="8" fill="#FFE0B2" /><rect x="112" y="80" width="8" height="8" fill="#FFE0B2" /><rect x="120" y="80" width="8" height="8" fill="#FFE0B2" /><rect x="128" y="80" width="8" height="8" fill="#FFE0B2" /><rect x="136" y="80" width="8" height="8" fill="#FFE0B2" /><rect x="144" y="80" width="8" height="8" fill="#FFE0B2" /><rect x="152" y="80" width="8" height="8" fill="#FFE0B2" /><rect x="160" y="80" width="8" height="8" fill="#FFE0B2" /><rect x="168" y="80" width="8" height="8" fill="#FFE0B2" /><rect x="176" y="80" width="8" height="8" fill="#FFE0B2" /><rect x="184" y="80" width="8" height="8" fill="#FFD700" /><rect x="80" y="88" width="8" height="8" fill="#FFD700" /><rect x="88" y="88" width="8" height="8" fill="#FFE0B2" /><rect x="96" y="88" width="8" height="8" fill="#FFE0B2" /><rect x="104" y="88" width="8" height="8" fill="#FFE0B2" /><rect x="112" y="88" width="8" height="8" fill="#FFE0B2" /><rect x="120" y="88" width="8" height="8" fill="#FFE0B2" /><rect x="128" y="88" width="8" height="8" fill="#FFE0B2" /><rect x="136" y="88" width="8" height="8" fill="#FFE0B2" /><rect x="144" y="88" width="8" height="8" fill="#FFE0B2" /><rect x="152" y="88" width="8" height="8" fill="#FFE0B2" /><rect x="160" y="88" width="8" height="8" fill="#FFE0B2" /><rect x="168" y="88" width="8" height="8" fill="#FFE0B2" /><rect x="176" y="88" width="8" height="8" fill="#FFE0B2" /><rect x="184" y="88" width="8" height="8" fill="#FFD700" /><rect x="80" y="96" width="8" height="8" fill="#FFD700" /><rect x="88" y="96" width="8" height="8" fill="#FFE0B2" /><rect x="96" y="96" width="8" height="8" fill="#FFE0B2" /><rect x="104" y="96" width="8" height="8" fill="#FFE0B2" /><rect x="112" y="96" width="8" height="8" fill="#FFE0B2" /><rect x="120" y="96" width="8" height="8" fill="#FFE0B2" /><rect x="128" y="96" width="8" height="8" fill="#FFE0B2" /><rect x="136" y="96" width="8" height="8" fill="#FFE0B2" /><rect x="144" y="96" width="8" height="8" fill="#FFE0B2" /><rect x="152" y="96" width="8" height="8" fill="#FFE0B2" /><rect x="160" y="96" width="8" height="8" fill="#FFE0B2" /><rect x="168" y="96" width="8" height="8" fill="#FFE0B2" /><rect x="176" y="96" width="8" height="8" fill="#FFE0B2" /><rect x="184" y="96" width="8" height="8" fill="#FFD700" /><rect x="80" y="104" width="8" height="8" fill="#FFD700" /><rect x="88" y="104" width="8" height="8" fill="#FFD700" /><rect x="96" y="104" width="8" height="8" fill="#FFE0B2" /><rect x="104" y="104" width="8" height="8" fill="#FFE0B2" /><rect x="112" y="104" width="8" height="8" fill="#FFE0B2" /><rect x="120" y="104" width="8" height="8" fill="#FFE0B2" /><rect x="128" y="104" width="8" height="8" fill="#FFE0B2" /><rect x="136" y="104" width="8" height="8" fill="#FFE0B2" /><rect x="144" y="104" width="8" height="8" fill="#FFE0B2" /><rect x="152" y="104" width="8" height="8" fill="#FFE0B2" /><rect x="160" y="104" width="8" height="8" fill="#FFE0B2" /><rect x="168" y="104" width="8" height="8" fill="#FFE0B2" /><rect x="176" y="104" width="8" height="8" fill="#FFD700" /><rect x="184" y="104" width="8" height="8" fill="#FFD700" /><rect x="80" y="112" width="8" height="8" fill="#FFD700" /><rect x="88" y="112" width="8" height="8" fill="#FFD700" /><rect x="96" y="112" width="8" height="8" fill="#FFD700" /><rect x="104" y="112" width="8" height="8" fill="#FFE0B2" /><rect x="112" y="112" width="8" height="8" fill="#FFE0B2" /><rect x="120" y="112" width="8" height="8" fill="#FFE0B2" /><rect x="128" y="112" width="8" height="8" fill="#FFE0B2" /><rect x="136" y="112" width="8" height="8" fill="#FFE0B2" /><rect x="144" y="112" width="8" height="8" fill="#FFE0B2" /><rect x="152" y="112" width="8" height="8" fill="#FFE0B2" /><rect x="160" y="112" width="8" height="8" fill="#FFE0B2" /><rect x="168" y="112" width="8" height="8" fill="#FFD700" /><rect x="176" y="112" width="8" height="8" fill="#FFD700" /><rect x="184" y="112" width="8" height="8" fill="#FFD700" /><rect x="88" y="120" width="8" height="8" fill="#FFD700" /><rect x="96" y="120" width="8" height="8" fill="#FFD700" /><rect x="104" y="120" width="8" height="8" fill="#FFD700" /><rect x="112" y="120" width="8" height="8" fill="#FFD700" /><rect x="120" y="120" width="8" height="8" fill="#FFD700" /><rect x="128" y="120" width="8" height="8" fill="#FFD700" /><rect x="136" y="120" width="8" height="8" fill="#FFD700" /><rect x="144" y="120" width="8" height="8" fill="#FFD700" /><rect x="152" y="120" width="8" height="8" fill="#FFD700" /><rect x="160" y="120" width="8" height="8" fill="#FFD700" /><rect x="168" y="120" width="8" height="8" fill="#FFD700" /><rect x="176" y="120" width="8" height="8" fill="#FFD700" /><rect x="96" y="128" width="8" height="8" fill="#FFD700" /><rect x="104" y="128" width="8" height="8" fill="#FFD700" /><rect x="112" y="128" width="8" height="8" fill="#FFD700" /><rect x="120" y="128" width="8" height="8" fill="#FFD700" /><rect x="128" y="128" width="8" height="8" fill="#FFD700" /><rect x="136" y="128" width="8" height="8" fill="#FFD700" /><rect x="144" y="128" width="8" height="8" fill="#FFD700" /><rect x="152" y="128" width="8" height="8" fill="#FFD700" /><rect x="160" y="128" width="8" height="8" fill="#FFD700" /><rect x="168" y="128" width="8" height="8" fill="#FFD700" /><rect x="176" y="128" width="8" height="8" fill="#FFD700" /><rect x="96" y="136" width="8" height="8" fill="#FFD700" /><rect x="104" y="136" width="8" height="8" fill="#E5C687" /><rect x="112" y="136" width="8" height="8" fill="#E5C687" /><rect x="120" y="136" width="8" height="8" fill="#E5C687" /><rect x="128" y="136" width="8" height="8" fill="#E5C687" /><rect x="136" y="136" width="8" height="8" fill="#E5C687" /><rect x="144" y="136" width="8" height="8" fill="#E5C687" /><rect x="152" y="136" width="8" height="8" fill="#E5C687" /><rect x="160" y="136" width="8" height="8" fill="#E5C687" /><rect x="168" y="136" width="8" height="8" fill="#E5C687" /><rect x="176" y="136" width="8" height="8" fill="#FFD700" /><rect x="88" y="144" width="8" height="8" fill="#FFD700" /><rect x="96" y="144" width="8" height="8" fill="#E5C687" /><rect x="104" y="144" width="8" height="8" fill="#E5C687" /><rect x="112" y="144" width="8" height="8" fill="#E5C687" /><rect x="120" y="144" width="8" height="8" fill="#E5C687" /><rect x="128" y="144" width="8" height="8" fill="#E5C687" /><rect x="136" y="144" width="8" height="8" fill="#E5C687" /><rect x="144" y="144" width="8" height="8" fill="#E5C687" /><rect x="152" y="144" width="8" height="8" fill="#E5C687" /><rect x="160" y="144" width="8" height="8" fill="#E5C687" /><rect x="168" y="144" width="8" height="8" fill="#E5C687" /><rect x="176" y="144" width="8" height="8" fill="#E5C687" /><rect x="184" y="144" width="8" height="8" fill="#FFD700" /><rect x="80" y="152" width="8" height="8" fill="#FFD700" /><rect x="88" y="152" width="8" height="8" fill="#E5C687" /><rect x="96" y="152" width="8" height="8" fill="#E5C687" /><rect x="104" y="152" width="8" height="8" fill="#E5C687" /><rect x="112" y="152" width="8" height="8" fill="#E5C687" /><rect x="120" y="152" width="8" height="8" fill="#E5C687" /><rect x="128" y="152" width="8" height="8" fill="#E5C687" /><rect x="136" y="152" width="8" height="8" fill="#E5C687" /><rect x="144" y="152" width="8" height="8" fill="#E5C687" /><rect x="152" y="152" width="8" height="8" fill="#E5C687" /><rect x="160" y="152" width="8" height="8" fill="#E5C687" /><rect x="168" y="152" width="8" height="8" fill="#E5C687" /><rect x="176" y="152" width="8" height="8" fill="#E5C687" /><rect x="184" y="152" width="8" height="8" fill="#E5C687" /><rect x="192" y="152" width="8" height="8" fill="#FFD700" /><rect x="72" y="160" width="8" height="8" fill="#FFD700" /><rect x="80" y="160" width="8" height="8" fill="#E5C687" /><rect x="88" y="160" width="8" height="8" fill="#E5C687" /><rect x="96" y="160" width="8" height="8" fill="#E5C687" /><rect x="104" y="160" width="8" height="8" fill="#E5C687" /><rect x="112" y="160" width="8" height="8" fill="#E5C687" /><rect x="120" y="160" width="8" height="8" fill="#E5C687" /><rect x="128" y="160" width="8" height="8" fill="#E5C687" /><rect x="136" y="160" width="8" height="8" fill="#E5C687" /><rect x="144" y="160" width="8" height="8" fill="#E5C687" /><rect x="152" y="160" width="8" height="8" fill="#E5C687" /><rect x="160" y="160" width="8" height="8" fill="#E5C687" /><rect x="168" y="160" width="8" height="8" fill="#E5C687" /><rect x="176" y="160" width="8" height="8" fill="#E5C687" /><rect x="184" y="160" width="8" height="8" fill="#E5C687" /><rect x="192" y="160" width="8" height="8" fill="#E5C687" /><rect x="200" y="160" width="8" height="8" fill="#FFD700" /><rect x="72" y="168" width="8" height="8" fill="#FFD700" /><rect x="80" y="168" width="8" height="8" fill="#E5C687" /><rect x="88" y="168" width="8" height="8" fill="#E5C687" /><rect x="96" y="168" width="8" height="8" fill="#E5C687" /><rect x="104" y="168" width="8" height="8" fill="#E5C687" /><rect x="112" y="168" width="8" height="8" fill="#E5C687" /><rect x="120" y="168" width="8" height="8" fill="#E5C687" /><rect x="128" y="168" width="8" height="8" fill="#E5C687" /><rect x="136" y="168" width="8" height="8" fill="#E5C687" /><rect x="144" y="168" width="8" height="8" fill="#E5C687" /><rect x="152" y="168" width="8" height="8" fill="#E5C687" /><rect x="160" y="168" width="8" height="8" fill="#E5C687" /><rect x="168" y="168" width="8" height="8" fill="#E5C687" /><rect x="176" y="168" width="8" height="8" fill="#E5C687" /><rect x="184" y="168" width="8" height="8" fill="#E5C687" /><rect x="192" y="168" width="8" height="8" fill="#E5C687" /><rect x="200" y="168" width="8" height="8" fill="#FFD700" /><rect x="72" y="176" width="8" height="8" fill="#FFD700" /><rect x="80" y="176" width="8" height="8" fill="#E5C687" /><rect x="88" y="176" width="8" height="8" fill="#E5C687" /><rect x="96" y="176" width="8" height="8" fill="#E5C687" /><rect x="104" y="176" width="8" height="8" fill="#E5C687" /><rect x="112" y="176" width="8" height="8" fill="#E5C687" /><rect x="120" y="176" width="8" height="8" fill="#E5C687" /><rect x="128" y="176" width="8" height="8" fill="#E5C687" /><rect x="136" y="176" width="8" height="8" fill="#E5C687" /><rect x="144" y="176" width="8" height="8" fill="#E5C687" /><rect x="152" y="176" width="8" height="8" fill="#E5C687" /><rect x="160" y="176" width="8" height="8" fill="#E5C687" /><rect x="168" y="176" width="8" height="8" fill="#E5C687" /><rect x="176" y="176" width="8" height="8" fill="#E5C687" /><rect x="184" y="176" width="8" height="8" fill="#E5C687" /><rect x="192" y="176" width="8" height="8" fill="#E5C687" /><rect x="200" y="176" width="8" height="8" fill="#FFD700" /><rect x="72" y="184" width="8" height="8" fill="#FFD700" /><rect x="80" y="184" width="8" height="8" fill="#E5C687" /><rect x="88" y="184" width="8" height="8" fill="#E5C687" /><rect x="96" y="184" width="8" height="8" fill="#E5C687" /><rect x="104" y="184" width="8" height="8" fill="#E5C687" /><rect x="112" y="184" width="8" height="8" fill="#E5C687" /><rect x="120" y="184" width="8" height="8" fill="#E5C687" /><rect x="128" y="184" width="8" height="8" fill="#E5C687" /><rect x="136" y="184" width="8" height="8" fill="#E5C687" /><rect x="144" y="184" width="8" height="8" fill="#E5C687" /><rect x="152" y="184" width="8" height="8" fill="#E5C687" /><rect x="160" y="184" width="8" height="8" fill="#E5C687" /><rect x="168" y="184" width="8" height="8" fill="#E5C687" /><rect x="176" y="184" width="8" height="8" fill="#E5C687" /><rect x="184" y="184" width="8" height="8" fill="#E5C687" /><rect x="192" y="184" width="8" height="8" fill="#E5C687" /><rect x="200" y="184" width="8" height="8" fill="#FFD700" /><rect x="72" y="192" width="8" height="8" fill="#FFD700" /><rect x="80" y="192" width="8" height="8" fill="#E5C687" /><rect x="88" y="192" width="8" height="8" fill="#E5C687" /><rect x="96" y="192" width="8" height="8" fill="#E5C687" /><rect x="104" y="192" width="8" height="8" fill="#E5C687" /><rect x="112" y="192" width="8" height="8" fill="#E5C687" /><rect x="120" y="192" width="8" height="8" fill="#E5C687" /><rect x="128" y="192" width="8" height="8" fill="#E5C687" /><rect x="136" y="192" width="8" height="8" fill="#E5C687" /><rect x="144" y="192" width="8" height="8" fill="#E5C687" /><rect x="152" y="192" width="8" height="8" fill="#E5C687" /><rect x="160" y="192" width="8" height="8" fill="#E5C687" /><rect x="168" y="192" width="8" height="8" fill="#E5C687" /><rect x="176" y="192" width="8" height="8" fill="#E5C687" /><rect x="184" y="192" width="8" height="8" fill="#E5C687" /><rect x="192" y="192" width="8" height="8" fill="#E5C687" /><rect x="200" y="192" width="8" height="8" fill="#FFD700" /><rect x="72" y="200" width="8" height="8" fill="#FFD700" /><rect x="80" y="200" width="8" height="8" fill="#E5C687" /><rect x="88" y="200" width="8" height="8" fill="#E5C687" /><rect x="96" y="200" width="8" height="8" fill="#E5C687" /><rect x="104" y="200" width="8" height="8" fill="#E5C687" /><rect x="112" y="200" width="8" height="8" fill="#E5C687" /><rect x="120" y="200" width="8" height="8" fill="#E5C687" /><rect x="128" y="200" width="8" height="8" fill="#E5C687" /><rect x="136" y="200" width="8" height="8" fill="#E5C687" /><rect x="144" y="200" width="8" height="8" fill="#E5C687" /><rect x="152" y="200" width="8" height="8" fill="#E5C687" /><rect x="160" y="200" width="8" height="8" fill="#E5C687" /><rect x="168" y="200" width="8" height="8" fill="#E5C687" /><rect x="176" y="200" width="8" height="8" fill="#E5C687" /><rect x="184" y="200" width="8" height="8" fill="#E5C687" /><rect x="192" y="200" width="8" height="8" fill="#E5C687" /><rect x="200" y="200" width="8" height="8" fill="#FFD700" /><rect x="144" y="72" width="8" height="8" fill="#000000" /><rect x="176" y="72" width="8" height="8" fill="#000000" /><rect x="152" y="96" width="24" height="8" fill="#d95157" opacity="0.8" /><rect x="136" y="48" width="8" height="8" fill="white" opacity="0.5" filter="url(#metal)" /><rect x="112" y="48" width="8" height="8" fill="white" opacity="0.5" filter="url(#metal)" /><rect x="128" y="24" width="8" height="8" fill="white" opacity="0.5" filter="url(#metal)" /><rect x="104" y="24" width="8" height="8" fill="white" opacity="0.5" filter="url(#metal)" /><rect x="104" y="16" width="8" height="8" fill="white" opacity="0.5" filter="url(#metal)" /><rect x="64" y="32" width="8" height="8" fill="white" opacity="0.5" filter="url(#metal)" /><rect x="64" y="24" width="8" height="8" fill="white" opacity="0.5" filter="url(#metal)" /><rect x="64" y="48" width="8" height="8" fill="white" opacity="0.5" filter="url(#metal)" />
    </g>
    
    <!-- Добавляем небольшие блестящие эффекты -->
    <rect x="48" y="216" width="16" height="16" fill="#D4AF37" opacity="0.22367112482853224" filter="url(#shimmer)" /><rect x="120" y="88" width="8" height="8" fill="#D4AF37" opacity="0.4366941015089163" filter="url(#shimmer)" /><rect x="224" y="96" width="8" height="8" fill="#D4AF37" opacity="0.3822273662551441" filter="url(#shimmer)" /><rect x="184" y="104" width="16" height="16" fill="#D4AF37" opacity="0.2763203017832648" filter="url(#shimmer)" /><rect x="192" y="184" width="16" height="16" fill="#D4AF37" opacity="0.37205932784636486" filter="url(#shimmer)" /><rect x="48" y="104" width="16" height="16" fill="#D4AF37" opacity="0.23734567901234568" filter="url(#shimmer)" /><rect x="152" y="208" width="8" height="8" fill="#D4AF37" opacity="0.3660065157750343" filter="url(#shimmer)" /><rect x="144" y="216" width="16" height="16" fill="#D4AF37" opacity="0.6222393689986283" filter="url(#shimmer)" /><rect x="232" y="192" width="16" height="16" fill="#D4AF37" opacity="0.5183899176954733" filter="url(#shimmer)" /><rect x="104" y="200" width="8" height="8" fill="#D4AF37" opacity="0.3260631001371742" filter="url(#shimmer)" /><rect x="144" y="96" width="8" height="8" fill="#D4AF37" opacity="0.5205675582990398" filter="url(#shimmer)" /><rect x="176" y="8" width="16" height="16" fill="#D4AF37" opacity="0.55869341563786" filter="url(#shimmer)" />
  </svg>
  