
    <svg xmlns="http://www.w3.org/2000/svg" width="400" height="400" viewBox="0 0 400 400">
      <defs>
        
    <filter id="glow" x="-20%" y="-20%" width="140%" height="140%">
      <feGaussianBlur stdDeviation="5" result="blur" />
      <feComposite in="SourceGraphic" in2="blur" operator="over" />
    </filter>
  
        
    <filter id="cartoon">
      <feColorMatrix type="matrix" values="1 0 0 0 0
                                          0 1 0 0 0
                                          0 0 1 0 0
                                          0 0 0 20 -10" />
      <feGaussianBlur stdDeviation="0.5" />
    </filter>
  
        
        <linearGradient id="grad1" x1="0%" y1="0%" x2="100%" y2="100%">
          <stop offset="0%" stop-color="#FDEDEC" />
          <stop offset="100%" stop-color="#E74C3C" />
        </linearGradient>
        
        <pattern id="pattern1" width="20" height="20" patternUnits="userSpaceOnUse">
          <circle cx="10" cy="10" r="2" fill="#3498DB" opacity="0.3" />
        </pattern>
      </defs>
      
      <!-- Фон -->
      <rect width="400" height="400" fill="url(#grad1)" />
      <rect width="400" height="400" fill="url(#pattern1)" />
      
      <!-- Декоративные элементы -->
      
        <circle cx="190.4789585448574" cy="116.29854902224169" r="42.32473831039029" fill="#FFD700" filter="url(#glow)" />
        <text x="190.4789585448574" y="121.29854902224169" font-family="Arial" font-size="21.162369155195144" font-weight="bold" text-anchor="middle" fill="#F1C40F">$</text>
      
        <g transform="translate(227.46117682089604, 278.9735397143116) scale(1.4452141651486248)">
          <ellipse cx="0" cy="0" rx="15" ry="10" fill="white" opacity="0.7" />
          <ellipse cx="10" cy="-5" rx="10" ry="8" fill="white" opacity="0.7" />
          <ellipse cx="-10" cy="-3" rx="12" ry="7" fill="white" opacity="0.7" />
        </g>
      
        <polygon points="224.04339172880623,321.0303247593878 238.9672465771648,350.8780344561049 224.04339172880623,380.725744152822 209.11953688044767,350.8780344561049" 
                fill="#5DADE2" opacity="0.8" filter="url(#glow)" />
        <line x1="216.58146430462693" y1="343.4161070319256" x2="231.50531915298552" y2="358.3399618802842" 
              stroke="white" opacity="0.8" stroke-width="2" />
      
        <polygon points="337.96729123069974,51.84722091338776 359.01634834320765,93.9453351384036 337.96729123069974,136.04344936341946 316.91823411819183,93.9453351384036" 
                fill="#5DADE2" opacity="0.8" filter="url(#glow)" />
        <line x1="327.44276267444576" y1="83.42080658214965" x2="348.4918197869537" y2="104.46986369465756" 
              stroke="white" opacity="0.8" stroke-width="2" />
      <polygon points="148.0770287423974,36.28696560275381 121.3819844800029,49.46175756252266 117.10123507850307,78.92148797398349 96.32204099166057,57.60422678836865 66.98134810181841,62.63654952229152 80.83414415971342,36.28696560275381 66.98134810181841,9.93738168321611 96.32204099166057,14.96970441713897 117.10123507850307,-6.347556768475876 121.3819844800029,23.112173642984953" fill="#FFD700" filter="url(#glow)" />
      
      <!-- Основной роскошный элемент в зависимости от темы -->
      
      <g transform="translate(50, 150) scale(1.2)">
        <!-- Корпус яхты -->
        <path d="M50,100 L20,150 L280,150 L250,100 Z" fill="#3498DB" />
        
        <!-- Палуба -->
        <rect x="70" y="80" width="160" height="30" rx="5" fill="#E74C3C" />
        
        <!-- Мачта и парус -->
        <rect x="150" y="30" width="5" height="80" fill="#8B4513" />
        <path d="M155,35 Q200,50 180,90 L155,90 Z" fill="white" />
        
        <!-- Окна -->
        <circle cx="100" cy="95" r="5" fill="#88CCFF" />
        <circle cx="120" cy="95" r="5" fill="#88CCFF" />
        <circle cx="180" cy="95" r="5" fill="#88CCFF" />
        <circle cx="200" cy="95" r="5" fill="#88CCFF" />
        
        <!-- Вода -->
        <path d="M0,150 Q100,170 150,150 Q200,130 300,150 L300,200 L0,200 Z" fill="#3498DB" opacity="0.5" />
      </g>
    
      
      <!-- Рамка -->
      <rect width="390" height="390" x="5" y="5" stroke="#C0392B" stroke-width="3" fill="none" rx="15" ry="15" />
      
      <!-- Надпись Bnalbank -->
      <text x="200" y="380" font-family="Arial, sans-serif" font-size="18" font-weight="bold" text-anchor="middle" fill="white">Bnalbank Luxury NFT</text>
    </svg>
  