
  <svg width="256" height="256" viewBox="0 0 256 256" xmlns="http://www.w3.org/2000/svg">
    <defs>
      
    <linearGradient id="backgroundGradient" x1="0%" y1="0%" x2="100%" y2="100%">
      <stop offset="0%" stop-color="#170D00" />
      <stop offset="50%" stop-color="#F0B429" stop-opacity="0.3" />
      <stop offset="100%" stop-color="#170D00" />
    </linearGradient>
  
      
    <filter id="glow" x="-50%" y="-50%" width="200%" height="200%">
      <feGaussianBlur stdDeviation="8" result="blur" />
      <feComposite in="SourceGraphic" in2="blur" operator="over" />
    </filter>
  
      
    <filter id="metal" x="-10%" y="-10%" width="120%" height="120%">
      <feSpecularLighting result="specOut" specularExponent="20" lighting-color="#ffffff">
        <fePointLight x="50" y="50" z="200" />
      </feSpecularLighting>
      <feComposite in="SourceGraphic" in2="specOut" operator="arithmetic" k1="0" k2="1" k3="1" k4="0" />
    </filter>
  
      
    <filter id="shimmer" x="-20%" y="-20%" width="140%" height="140%">
      <feTurbulence type="fractalNoise" baseFrequency="0.01" numOctaves="2" seed="28">
        <animate attributeName="baseFrequency" from="0.01" to="0.02" dur="30s" repeatCount="indefinite" />
      </feTurbulence>
      <feDisplacementMap in="SourceGraphic" scale="5" />
      <feGaussianBlur stdDeviation="1" />
      <feComposite in="SourceGraphic" operator="over" />
    </filter>
  
      
    <filter id="diamond" x="-30%" y="-30%" width="160%" height="160%">
      <feGaussianBlur in="SourceAlpha" stdDeviation="4" result="blur" />
      <feSpecularLighting in="blur" surfaceScale="5" specularConstant="1" specularExponent="20" result="specOut">
        <fePointLight x="50" y="50" z="90" />
      </feSpecularLighting>
      <feComposite in="specOut" in2="SourceAlpha" operator="in" result="specOut" />
      <feComposite in="SourceGraphic" in2="specOut" operator="arithmetic" k1="0" k2="1" k3="1" k4="0" />
    </filter>
  
    </defs>
    
    <!-- Фон с градиентом -->
    <rect width="256" height="256" fill="url(#backgroundGradient)" />
    
    <!-- Декоративные элементы для создания глубины -->
    <circle cx="96.91229423868313" cy="62.946887860082306" r="10.140432098765432" 
            fill="#D97706" opacity="0.2499905692729767" filter="url(#shimmer)" />
    <circle cx="128.41177983539094" cy="89.66242283950618" r="13.189300411522634" 
            fill="#F0B429" opacity="0.1247059327846365" filter="url(#glow)" />
    
    <!-- Основное содержимое - роскошный предмет -->
    <g transform="translate(0, 0)">
      
    <g>
      
    <!-- Роскошная текстура фона -->
    <rect x="0" y="160" width="256" height="96" fill="#333" opacity="0.7" />
    <path d="M0,160 L256,160" stroke="#F0B429" stroke-width="2" opacity="0.3" />
    <rect x="40" y="180" width="176" height="40" fill="#111" opacity="0.5" rx="5" ry="5" />
  
      
        <!-- Бочкообразные часы (стиль Франк Мюллер, Ришар Милль) -->
        <g transform="translate(80, 80)">
          <!-- Ремешок -->
          <path d="M-30,0 C-30,20 -25,50 -10,70 L10,70 C25,50 30,20 30,0 C30,-20 25,-50 10,-70 L-10,-70 C-25,-50 -30,-20 -30,0 Z" 
                fill="#F0B429" stroke="#000" stroke-width="1" />
          
          <!-- Корпус часов в форме бочки -->
          <path d="M-30,-20 C-30,-25 -25,-35 -15,-40 L15,-40 C25,-35 30,-25 30,-20 
                   L30,20 C30,25 25,35 15,40 L-15,40 C-25,35 -30,25 -30,20 Z" 
                fill="#D97706" stroke="#000" stroke-width="1" filter="url(#metal)" />
          
          <!-- Циферблат -->
          <path d="M-25,-18 C-25,-22 -22,-30 -12,-35 L12,-35 C22,-30 25,-22 25,-18 
                   L25,18 C25,22 22,30 12,35 L-12,35 C-22,30 -25,22 -25,18 Z" 
                fill="#E3A008" stroke="#333" stroke-width="1" />
          
          <!-- Арабские цифры в винтажном стиле -->
          <text x="0" y="-20" font-family="Arial" font-size="8" text-anchor="middle" fill="#000">12</text>
          <text x="15" y="0" font-family="Arial" font-size="8" text-anchor="middle" fill="#000">3</text>
          <text x="0" y="22" font-family="Arial" font-size="8" text-anchor="middle" fill="#000">6</text>
          <text x="-15" y="0" font-family="Arial" font-size="8" text-anchor="middle" fill="#000">9</text>
          
          <!-- Стрелки -->
          <line x1="0" y1="0" x2="0" y2="-15" stroke="#000" stroke-width="2" />
          <line x1="0" y1="0" x2="12" y2="0" stroke="#000" stroke-width="2" />
          <line x1="0" y1="0" x2="-5" y2="10" stroke="#000" stroke-width="1" />
          <circle cx="0" cy="0" r="2" fill="#000" />
          
          <!-- Винты в корпусе -->
          <circle cx="-25" cy="-18" r="2" fill="#444" />
          <circle cx="25" cy="-18" r="2" fill="#444" />
          <circle cx="-25" cy="18" r="2" fill="#444" />
          <circle cx="25" cy="18" r="2" fill="#444" />
          
          <!-- Логотип -->
          <text x="0" y="-7" font-family="Arial" font-size="4" text-anchor="middle" fill="#000">PREMIUM</text>
          <text x="0" y="10" font-family="Arial" font-size="3" text-anchor="middle" fill="#000">AUTOMATIC</text>
        </g>
      
      
    <!-- Блики и отражения для реалистичности -->
    <ellipse cx="91.92918381344307" cy="77.5650720164609" rx="22.72093621399177" ry="5" 
             fill="white" opacity="0.10796724965706447" filter="url(#shimmer)" />
    <circle cx="84.565329218107" cy="98.17674039780522" r="4.987825788751715" 
            fill="white" opacity="0.24472800925925925" />
  
    </g>
  
    </g>
    
    <!-- Добавляем декоративную рамку с эффектом шиммера -->
    <rect x="8" y="8" width="240" height="240" fill="none" stroke="#F0B429" stroke-width="1" 
          opacity="0.5" stroke-dasharray="2,2" filter="url(#shimmer)" />
  </svg>
  