
  <svg width="256" height="256" viewBox="0 0 256 256" xmlns="http://www.w3.org/2000/svg">
    <defs>
      
    <filter id="shimmer" x="-20%" y="-20%" width="140%" height="140%">
      <feTurbulence type="fractalNoise" baseFrequency="0.01" numOctaves="1" seed="76">
        <animate attributeName="baseFrequency" from="0.01" to="0.02" dur="30s" repeatCount="indefinite" />
      </feTurbulence>
      <feDisplacementMap in="SourceGraphic" scale="5" />
      <feGaussianBlur stdDeviation="3.5" />
      <feComposite in="SourceGraphic" operator="over" />
    </filter>
  
      
    <filter id="metal">
      <feSpecularLighting result="specOut" specularExponent="20" lighting-color="#ffffff">
        <fePointLight x="50%" y="50%" z="200" />
      </feSpecularLighting>
      <feComposite in="SourceGraphic" in2="specOut" operator="arithmetic" k1="0" k2="1" k3="1" k4="0" />
    </filter>
  
    </defs>
    
    <!-- Темный фон с градиентом -->
    <rect width="256" height="256" fill="#000000" />
    <rect width="256" height="256" fill="url(#bgGradient)" />
    
    <!-- Градиент фона -->
    <linearGradient id="bgGradient" x1="0%" y1="0%" x2="100%" y2="100%">
      <stop offset="0%" stop-color="#000000" />
      <stop offset="50%" stop-color="#000000" />
      <stop offset="100%" stop-color="#000000" />
    </linearGradient>
    
    <!-- Рамка с эффектом шиммера -->
    <rect x="8" y="8" width="240" height="240" fill="none" stroke="#FFD700" stroke-width="2" filter="url(#shimmer)" />
    
    <!-- Пиксельное искусство по центру -->
    <g transform="translate(0, 0)">
      <rect x="87.61280178326474" y="23.612801783264747" width="8.774396433470507" height="8.774396433470507" fill="#FFD700" /><rect x="96.10032921810699" y="24.100329218106996" width="7.799341563786008" height="7.799341563786008" fill="#FFD700" /><rect x="104.19300068587106" y="24.193000685871056" width="7.613998628257888" height="7.613998628257888" fill="#FFD700" /><rect x="111.73032235939644" y="23.730322359396432" width="8.539355281207133" height="8.539355281207133" fill="#FFD700" /><rect x="120.35920781893005" y="24.35920781893004" width="7.281584362139918" height="7.281584362139918" fill="#FFD700" /><rect x="128.02286694101508" y="24.02286694101509" width="7.954266117969822" height="7.954266117969822" fill="#FFD700" /><rect x="135.71636145404665" y="23.71636145404664" width="8.567277091906721" height="8.567277091906721" fill="#FFD700" /><rect x="144.10882716049383" y="24.108827160493828" width="7.782345679012346" height="7.782345679012346" fill="#FFD700" /><rect x="152.03236282578874" y="24.032362825788752" width="7.935274348422497" height="7.935274348422497" fill="#FFD700" /><rect x="160.03758573388203" y="24.03758573388203" width="7.9248285322359395" height="7.9248285322359395" fill="#FFD700" /><rect x="167.81585390946503" y="23.81585390946502" width="8.36829218106996" height="8.36829218106996" fill="#FFD700" /><rect x="79.88815500685871" y="31.88815500685871" width="8.22368998628258" height="8.22368998628258" fill="#FFD700" /><rect x="88.36066186556927" y="32.36066186556927" width="7.278676268861454" height="7.278676268861454" fill="#FFD700" /><rect x="95.94695473251029" y="31.94695473251029" width="8.106090534979424" height="8.106090534979424" fill="#FFD700" /><rect x="104.05691015089164" y="32.05691015089163" width="7.886179698216735" height="7.886179698216735" fill="#FFD700" /><rect x="112.35225651577504" y="32.35225651577503" width="7.295486968449931" height="7.295486968449931" fill="#FFD700" /><rect x="120.16879629629629" y="32.16879629629629" width="7.662407407407407" height="7.662407407407407" fill="#FFD700" /><rect x="128.20529492455418" y="32.20529492455418" width="7.5894101508916325" height="7.5894101508916325" fill="#FFD700" /><rect x="135.679036351166" y="31.67903635116598" width="8.641927297668039" height="8.641927297668039" fill="#FFD700" /><rect x="144.14804526748972" y="32.148045267489714" width="7.703909465020576" height="7.703909465020576" fill="#FFD700" /><rect x="151.99997599451302" y="31.99997599451303" width="8.000048010973938" height="8.000048010973938" fill="#FFD700" /><rect x="159.60766803840878" y="31.60766803840878" width="8.784663923182443" height="8.784663923182443" fill="#FFD700" /><rect x="168.3513683127572" y="32.3513683127572" width="7.297263374485597" height="7.297263374485597" fill="#FFD700" /><rect x="175.90762002743483" y="31.90762002743484" width="8.184759945130315" height="8.184759945130315" fill="#FFD700" /><rect x="71.8048182441701" y="39.80481824417009" width="8.390363511659809" height="8.390363511659809" fill="#FFD700" /><rect x="79.64543209876543" y="39.64543209876543" width="8.709135802469136" height="8.709135802469136" fill="#FFD700" /><rect x="88.39489368998628" y="40.39489368998628" width="7.210212620027435" height="7.210212620027435" fill="#FFD700" /><rect x="95.9371536351166" y="39.9371536351166" width="8.125692729766804" height="8.125692729766804" fill="#FFD700" /><rect x="104.09690329218107" y="40.09690329218107" width="7.8061934156378605" height="7.8061934156378605" fill="#FFD700" /><rect x="112.32846364883402" y="40.32846364883402" width="7.343072702331962" height="7.343072702331962" fill="#FFD700" /><rect x="119.67134087791496" y="39.67134087791495" width="8.657318244170096" height="8.657318244170096" fill="#FFD700" /><rect x="127.77244855967078" y="39.77244855967078" width="8.455102880658437" height="8.455102880658437" fill="#FFD700" /><rect x="136.1749965706447" y="40.174996570644716" width="7.6500068587105625" height="7.6500068587105625" fill="#FFD700" /><rect x="144.2740466392318" y="40.27404663923183" width="7.451906721536352" height="7.451906721536352" fill="#FFD700" /><rect x="151.93873456790124" y="39.938734567901236" width="8.12253086419753" height="8.12253086419753" fill="#FFD700" /><rect x="159.60115912208505" y="39.60115912208505" width="8.797681755829904" height="8.797681755829904" fill="#FFD700" /><rect x="167.8119375857339" y="39.81193758573388" width="8.376124828532236" height="8.376124828532236" fill="#FFD700" /><rect x="176.26242798353908" y="40.2624279835391" width="7.475144032921811" height="7.475144032921811" fill="#FFD700" /><rect x="183.87361796982168" y="39.87361796982167" width="8.252764060356654" height="8.252764060356654" fill="#FFD700" /><rect x="64.35168038408779" y="48.35168038408779" width="7.296639231824417" height="7.296639231824417" fill="#FFD700" /><rect x="71.61019547325103" y="47.610195473251025" width="8.779609053497943" height="8.779609053497943" fill="#FFD700" /><rect x="79.85903978052126" y="47.859039780521265" width="8.281920438957476" height="8.281920438957476" fill="#FFD700" /><rect x="87.95994170096021" y="47.95994170096022" width="8.080116598079561" height="8.080116598079561" fill="#FFD700" /><rect x="96.04870370370371" y="48.0487037037037" width="7.902592592592593" height="7.902592592592593" fill="#FFD700" /><rect x="104.02409122085048" y="48.02409122085048" width="7.95181755829904" height="7.95181755829904" fill="#FFD700" /><rect x="111.90338820301783" y="47.90338820301783" width="8.193223593964335" height="8.193223593964335" fill="#FFD700" /><rect x="119.64461934156378" y="47.64461934156378" width="8.710761316872428" height="8.710761316872428" fill="#FFD700" /><rect x="128.035438957476" y="48.035438957475996" width="7.929122085048011" height="7.929122085048011" fill="#FFD700" /><rect x="135.8486865569273" y="47.8486865569273" width="8.302626886145404" height="8.302626886145404" fill="#FFD700" /><rect x="143.66460905349794" y="47.66460905349794" width="8.670781893004115" height="8.670781893004115" fill="#FFD700" /><rect x="152.35974965706447" y="48.35974965706447" width="7.280500685871057" height="7.280500685871057" fill="#FFD700" /><rect x="160.2625034293553" y="48.262503429355284" width="7.4749931412894375" height="7.4749931412894375" fill="#FFD700" /><rect x="167.77533950617283" y="47.77533950617284" width="8.449320987654321" height="8.449320987654321" fill="#FFD700" /><rect x="175.86368998628257" y="47.86368998628258" width="8.272620027434842" height="8.272620027434842" fill="#FFD700" /><rect x="184.01150548696845" y="48.01150548696845" width="7.976989026063101" height="7.976989026063101" fill="#FFD700" /><rect x="191.64347736625515" y="47.64347736625514" width="8.713045267489711" height="8.713045267489711" fill="#FFD700" /><rect x="55.81392661179698" y="55.81392661179698" width="8.372146776406035" height="8.372146776406035" fill="#FFD700" /><rect x="64.36235939643348" y="56.36235939643347" width="7.275281207133059" height="7.275281207133059" fill="#FFD700" /><rect x="71.73568930041152" y="55.73568930041152" width="8.528621399176956" height="8.528621399176956" fill="#FFD700" /><rect x="79.87712620027435" y="55.87712620027435" width="8.245747599451303" height="8.245747599451303" fill="#FFD700" /><rect x="88.18173182441701" y="56.18173182441701" width="7.636536351165981" height="7.636536351165981" fill="#FFD700" /><rect x="95.71864197530864" y="55.71864197530864" width="8.562716049382717" height="8.562716049382717" fill="#FFD700" /><rect x="103.71995541838135" y="55.719955418381346" width="8.560089163237311" height="8.560089163237311" fill="#FFD700" /><rect x="111.93628943758573" y="55.936289437585735" width="8.127421124828533" height="8.127421124828533" fill="#FFD700" /><rect x="120.05900205761317" y="56.05900205761317" width="7.881995884773663" height="7.881995884773663" fill="#FFD700" /><rect x="127.80908093278464" y="55.80908093278464" width="8.381838134430726" height="8.381838134430726" fill="#FFD700" /><rect x="136.09269890260632" y="56.09269890260631" width="7.81460219478738" height="7.81460219478738" fill="#FFD700" /><rect x="143.62343621399177" y="55.623436213991766" width="8.753127572016462" height="8.753127572016462" fill="#FFD700" /><rect x="151.81116941015088" y="55.81116941015089" width="8.377661179698217" height="8.377661179698217" fill="#FFD700" /><rect x="160.3176268861454" y="56.317626886145405" width="7.36474622770919" height="7.36474622770919" fill="#FFD700" /><rect x="167.6786111111111" y="55.67861111111111" width="8.642777777777777" height="8.642777777777777" fill="#FFD700" /><rect x="176.19288751714677" y="56.19288751714678" width="7.614224965706447" height="7.614224965706447" fill="#FFD700" /><rect x="184.2777400548697" y="56.27774005486968" width="7.444519890260631" height="7.444519890260631" fill="#FFD700" /><rect x="191.89119341563787" y="55.89119341563786" width="8.21761316872428" height="8.21761316872428" fill="#FFD700" /><rect x="199.82090192043896" y="55.820901920438956" width="8.358196159122086" height="8.358196159122086" fill="#FFD700" /><rect x="47.63970507544582" y="63.63970507544582" width="8.720589849108368" height="8.720589849108368" fill="#FFD700" /><rect x="55.92784979423868" y="63.92784979423868" width="8.144300411522634" height="8.144300411522634" fill="#FFD700" /><rect x="63.9618792866941" y="63.9618792866941" width="8.076241426611798" height="8.076241426611798" fill="#FFD700" /><rect x="71.67018861454046" y="63.670188614540464" width="8.659622770919068" height="8.659622770919068" fill="#FFD700" /><rect x="80.25524691358025" y="64.25524691358025" width="7.489506172839507" height="7.489506172839507" fill="#FFD700" /><rect x="88.28248628257887" y="64.28248628257887" width="7.43502743484225" height="7.43502743484225" fill="#FFD700" /><rect x="96.0358573388203" y="64.0358573388203" width="7.928285322359397" height="7.928285322359397" fill="#FFD700" /><rect x="103.74005144032921" y="63.74005144032922" width="8.519897119341564" height="8.519897119341564" fill="#FFD700" /><rect x="111.64938957475995" y="63.649389574759944" width="8.70122085048011" height="8.70122085048011" fill="#FFD700" /><rect x="119.60337791495199" y="63.60337791495199" width="8.793244170096022" height="8.793244170096022" fill="#FFD700" /><rect x="127.64893004115227" y="63.64893004115226" width="8.702139917695474" height="8.702139917695474" fill="#FFD700" /><rect x="136.12925582990397" y="64.12925582990398" width="7.741488340192044" height="7.741488340192044" fill="#FFD700" /><rect x="143.6394170096022" y="63.6394170096022" width="8.721165980795611" height="8.721165980795611" fill="#FFD700" /><rect x="151.64854938271606" y="63.64854938271605" width="8.702901234567902" height="8.702901234567902" fill="#FFD700" /><rect x="159.78875171467763" y="63.78875171467764" width="8.42249657064472" height="8.42249657064472" fill="#FFD700" /><rect x="167.8106412894376" y="63.810641289437584" width="8.37871742112483" height="8.37871742112483" fill="#FFD700" /><rect x="176.20557613168725" y="64.20557613168724" width="7.588847736625515" height="7.588847736625515" fill="#FFD700" /><rect x="183.8945438957476" y="63.8945438957476" width="8.210912208504801" height="8.210912208504801" fill="#FFD700" /><rect x="191.78371742112483" y="63.78371742112483" width="8.432565157750343" height="8.432565157750343" fill="#FFD700" /><rect x="200.18667695473252" y="64.1866769547325" width="7.6266460905349795" height="7.6266460905349795" fill="#FFD700" /><rect x="208.11329903978051" y="64.11329903978051" width="7.773401920438958" height="7.773401920438958" fill="#FFD700" /><rect x="40.02531207133059" y="72.02531207133059" width="7.94937585733882" height="7.94937585733882" fill="#FFD700" /><rect x="48.05851851851852" y="72.05851851851853" width="7.882962962962964" height="7.882962962962964" fill="#FFD700" /><rect x="56.11168381344307" y="72.11168381344308" width="7.776632373113855" height="7.776632373113855" fill="#FFD700" /><rect x="64.20209190672153" y="72.20209190672153" width="7.595816186556927" height="7.595816186556927" fill="#FFD700" /><rect x="72.28776748971194" y="72.28776748971194" width="7.424465020576132" height="7.424465020576132" fill="#FFD700" /><rect x="80.35636488340192" y="72.35636488340192" width="7.28727023319616" height="7.28727023319616" fill="#FFD700" /><rect x="87.98072359396434" y="71.98072359396434" width="8.03855281207133" height="8.03855281207133" fill="#FFD700" /><rect x="95.74109053497942" y="71.74109053497942" width="8.517818930041152" height="8.517818930041152" fill="#FFD700" /><rect x="103.71400891632373" y="71.71400891632373" width="8.571982167352537" height="8.571982167352537" fill="#FFD700" /><rect x="111.82787379972565" y="71.82787379972565" width="8.344252400548697" height="8.344252400548697" fill="#FFD700" /><rect x="119.68515432098765" y="71.68515432098765" width="8.629691358024692" height="8.629691358024692" fill="#FFD700" /><rect x="128.25128257887516" y="72.25128257887518" width="7.497434842249657" height="7.497434842249657" fill="#FFD700" /><rect x="136.21020919067215" y="72.21020919067216" width="7.579581618655693" height="7.579581618655693" fill="#FFD700" /><rect x="143.78662551440328" y="71.7866255144033" width="8.426748971193415" height="8.426748971193415" fill="#FFD700" /><rect x="152.0348525377229" y="72.03485253772291" width="7.930294924554184" height="7.930294924554184" fill="#FFD700" /><rect x="159.9943964334705" y="71.99439643347051" width="8.011207133058985" height="8.011207133058985" fill="#FFD700" /><rect x="167.712170781893" y="71.71217078189301" width="8.575658436213992" height="8.575658436213992" fill="#FFD700" /><rect x="176.3313854595336" y="72.3313854595336" width="7.337229080932785" height="7.337229080932785" fill="#FFD700" /><rect x="183.64710219478738" y="71.64710219478738" width="8.705795610425241" height="8.705795610425241" fill="#FFD700" /><rect x="191.92845679012345" y="71.92845679012346" width="8.143086419753086" height="8.143086419753086" fill="#FFD700" /><rect x="200.00754801097395" y="72.00754801097393" width="7.9849039780521265" height="7.9849039780521265" fill="#FFD700" /><rect x="207.63499314128944" y="71.63499314128944" width="8.730013717421125" height="8.730013717421125" fill="#FFD700" /><rect x="216.10215020576132" y="72.10215020576132" width="7.795699588477366" height="7.795699588477366" fill="#FFD700" /><rect x="32.33000685871056" y="80.33000685871056" width="7.3399862825788755" height="7.3399862825788755" fill="#FFD700" /><rect x="39.624735939643344" y="79.62473593964334" width="8.750528120713305" height="8.750528120713305" fill="#FFD700" /><rect x="47.89991769547325" y="79.89991769547325" width="8.200164609053498" height="8.200164609053498" fill="#FFD700" /><rect x="56.16542866941015" y="80.16542866941015" width="7.6691426611796985" height="7.6691426611796985" fill="#FFD700" /><rect x="64.08299725651578" y="80.08299725651578" width="7.83400548696845" height="7.83400548696845" fill="#FFD700" /><rect x="71.78842592592592" y="79.78842592592592" width="8.423148148148147" height="8.423148148148147" fill="#FFD700" /><rect x="79.98048010973937" y="79.98048010973937" width="8.039039780521263" height="8.039039780521263" fill="#FFD700" /><rect x="87.87644375857339" y="79.87644375857339" width="8.247112482853224" height="8.247112482853224" fill="#FFD700" /><rect x="96.234341563786" y="80.234341563786" width="7.5313168724279835" height="7.5313168724279835" fill="#FFD700" /><rect x="104.24182784636488" y="80.24182784636488" width="7.516344307270233" height="7.516344307270233" fill="#FFD700" /><rect x="112.27174211248285" y="80.27174211248285" width="7.456515775034294" height="7.456515775034294" fill="#FFD700" /><rect x="120.10433127572017" y="80.10433127572017" width="7.791337448559671" height="7.791337448559671" fill="#FFD700" /><rect x="127.81613854595336" y="79.81613854595336" width="8.36772290809328" height="8.36772290809328" fill="#FFD700" /><rect x="136.13555898491083" y="80.13555898491083" width="7.728882030178327" height="7.728882030178327" fill="#FFD700" /><rect x="143.86506172839506" y="79.86506172839506" width="8.269876543209877" height="8.269876543209877" fill="#FFD700" /><rect x="151.97007887517148" y="79.97007887517147" width="8.059842249657065" height="8.059842249657065" fill="#FFD700" /><rect x="159.934561042524" y="79.93456104252401" width="8.13087791495199" height="8.13087791495199" fill="#FFD700" /><rect x="167.98319958847736" y="79.98319958847736" width="8.033600823045267" height="8.033600823045267" fill="#FFD700" /><rect x="176.37031550068588" y="80.37031550068588" width="7.259368998628258" height="7.259368998628258" fill="#FFD700" /><rect x="184.13541495198902" y="80.13541495198902" width="7.729170096021948" height="7.729170096021948" fill="#FFD700" /><rect x="192.12541152263375" y="80.12541152263374" width="7.74917695473251" height="7.74917695473251" fill="#FFD700" /><rect x="199.88351508916324" y="79.88351508916324" width="8.232969821673526" height="8.232969821673526" fill="#FFD700" /><rect x="207.60478737997258" y="79.60478737997256" width="8.79042524005487" height="8.79042524005487" fill="#FFD700" /><rect x="215.95836419753087" y="79.95836419753087" width="8.083271604938272" height="8.083271604938272" fill="#FFD700" /><rect x="223.77634430727022" y="79.77634430727024" width="8.447311385459534" height="8.447311385459534" fill="#FFD700" /><rect x="231.6093449931413" y="79.60934499314129" width="8.781310013717421" height="8.781310013717421" fill="#E0E0E0" /><rect x="31.94872427983539" y="87.94872427983539" width="8.102551440329218" height="8.102551440329218" fill="#FFD700" /><rect x="39.71546982167352" y="87.71546982167352" width="8.56906035665295" height="8.56906035665295" fill="#FFD700" /><rect x="47.81575445816186" y="87.81575445816186" width="8.368491083676268" height="8.368491083676268" fill="#FFD700" /><rect x="55.76315843621399" y="87.76315843621398" width="8.473683127572016" height="8.473683127572016" fill="#FFD700" /><rect x="64.16755829903978" y="88.16755829903978" width="7.664883401920439" height="7.664883401920439" fill="#FFD700" /><rect x="71.89068244170096" y="87.89068244170096" width="8.21863511659808" height="8.21863511659808" fill="#FFD700" /><rect x="79.86833333333334" y="87.86833333333334" width="8.263333333333334" height="8.263333333333334" fill="#FFD700" /><rect x="87.99927640603566" y="87.99927640603566" width="8.001447187928669" height="8.001447187928669" fill="#FFD700" /><rect x="96.30079561042524" y="88.30079561042524" width="7.39840877914952" height="7.39840877914952" fill="#FFD700" /><rect x="103.93091563786008" y="87.93091563786008" width="8.138168724279836" height="8.138168724279836" fill="#FFD700" /><rect x="111.67729080932784" y="87.67729080932784" width="8.645418381344307" height="8.645418381344307" fill="#FFD700" /><rect x="119.91276063100138" y="87.91276063100138" width="8.174478737997257" height="8.174478737997257" fill="#FFD700" /><rect x="127.61757201646091" y="87.61757201646091" width="8.764855967078189" height="8.764855967078189" fill="#FFD700" /><rect x="135.668268175583" y="87.668268175583" width="8.66346364883402" height="8.66346364883402" fill="#FFD700" /><rect x="143.99324417009603" y="87.99324417009602" width="8.013511659807957" height="8.013511659807957" fill="#FFD700" /><rect x="152.19496913580247" y="88.19496913580247" width="7.610061728395062" height="7.610061728395062" fill="#FFD700" /><rect x="159.63887517146776" y="87.63887517146776" width="8.722249657064472" height="8.722249657064472" fill="#FFD700" /><rect x="168.20891289437586" y="88.20891289437586" width="7.582174211248286" height="7.582174211248286" fill="#FFD700" /><rect x="175.72977366255145" y="87.72977366255144" width="8.54045267489712" height="8.54045267489712" fill="#FFD700" /><rect x="184.05577846364883" y="88.05577846364883" width="7.888443072702332" height="7.888443072702332" fill="#FFD700" /><rect x="192.22643347050754" y="88.22643347050754" width="7.547133058984911" height="7.547133058984911" fill="#FFD700" /><rect x="200.28865226337447" y="88.28865226337449" width="7.422695473251029" height="7.422695473251029" fill="#FFD700" /><rect x="207.78564471879287" y="87.78564471879287" width="8.428710562414267" height="8.428710562414267" fill="#FFD700" /><rect x="215.71247256515775" y="87.71247256515775" width="8.5750548696845" height="8.5750548696845" fill="#FFD700" /><rect x="223.93827160493828" y="87.93827160493827" width="8.123456790123457" height="8.123456790123457" fill="#FFD700" /><rect x="32.09514060356653" y="96.09514060356653" width="7.809718792866941" height="7.809718792866941" fill="#FFD700" /><rect x="39.93369684499314" y="95.93369684499314" width="8.132606310013717" height="8.132606310013717" fill="#FFD700" /><rect x="47.945298353909465" y="95.94529835390946" width="8.10940329218107" height="8.10940329218107" fill="#FFD700" /><rect x="55.85093278463649" y="95.85093278463648" width="8.298134430727023" height="8.298134430727023" fill="#FFD700" /><rect x="63.75677297668038" y="95.75677297668038" width="8.486454046639231" height="8.486454046639231" fill="#FFD700" /><rect x="71.97639917695473" y="95.97639917695473" width="8.047201646090535" height="8.047201646090535" fill="#FFD700" /><rect x="80.31968792866941" y="96.31968792866941" width="7.36062414266118" height="7.36062414266118" fill="#FFD700" /><rect x="87.64836762688614" y="95.64836762688614" width="8.70326474622771" height="8.70326474622771" fill="#FFD700" /><rect x="95.69824074074074" y="95.69824074074074" width="8.603518518518518" height="8.603518518518518" fill="#FFD700" /><rect x="104.36807270233196" y="96.36807270233196" width="7.263854595336077" height="7.263854595336077" fill="#FFD700" /><rect x="112.07514746227709" y="96.07514746227709" width="7.849705075445817" height="7.849705075445817" fill="#FFD700" /><rect x="120.37748971193416" y="96.37748971193416" width="7.2450205761316875" height="7.2450205761316875" fill="#FFD700" /><rect x="127.66275377229081" y="95.66275377229081" width="8.674492455418381" height="8.674492455418381" fill="#FFD700" /><rect x="135.9037791495199" y="95.90377914951989" width="8.19244170096022" height="8.19244170096022" fill="#FFD700" /><rect x="144.08081275720164" y="96.08081275720164" width="7.838374485596708" height="7.838374485596708" fill="#FFD700" /><rect x="152.2703978052126" y="96.27039780521262" width="7.45920438957476" height="7.45920438957476" fill="#FFD700" /><rect x="159.6009293552812" y="95.60092935528121" width="8.798141289437586" height="8.798141289437586" fill="#FFD700" /><rect x="168.07487654320988" y="96.07487654320988" width="7.850246913580247" height="7.850246913580247" fill="#FFD700" /><rect x="176.25767146776406" y="96.25767146776406" width="7.48465706447188" height="7.48465706447188" fill="#FFD700" /><rect x="183.63326474622772" y="95.63326474622771" width="8.733470507544581" height="8.733470507544581" fill="#FFD700" /><rect x="192.02634773662552" y="96.02634773662551" width="7.9473045267489715" height="7.9473045267489715" fill="#FFD700" /><rect x="200.0912414266118" y="96.0912414266118" width="7.817517146776407" height="7.817517146776407" fill="#FFD700" /><rect x="207.66745198902606" y="95.66745198902606" width="8.665096021947875" height="8.665096021947875" fill="#FFD700" /><rect x="215.60189300411523" y="95.60189300411523" width="8.796213991769548" height="8.796213991769548" fill="#FFD700" /><rect x="224.2377743484225" y="96.23777434842249" width="7.524451303155007" height="7.524451303155007" fill="#FFD700" /><rect x="32.17015775034294" y="104.17015775034294" width="7.659684499314129" height="7.659684499314129" fill="#FFD700" /><rect x="40.06817901234568" y="104.06817901234568" width="7.863641975308642" height="7.863641975308642" fill="#FFD700" /><rect x="48.36393689986283" y="104.36393689986282" width="7.272126200274348" height="7.272126200274348" fill="#FFD700" /><rect x="56.008048696844995" y="104.008048696845" width="7.983902606310014" height="7.983902606310014" fill="#FFD700" /><rect x="64.29187242798353" y="104.29187242798353" width="7.416255144032922" height="7.416255144032922" fill="#FFD700" /><rect x="72.13639574759945" y="104.13639574759945" width="7.727208504801098" height="7.727208504801098" fill="#FFD700" /><rect x="79.6477914951989" y="103.6477914951989" width="8.704417009602196" height="8.704417009602196" fill="#FFD700" /><rect x="87.93963991769547" y="103.93963991769547" width="8.120720164609054" height="8.120720164609054" fill="#FFD700" /><rect x="96.02181755829903" y="104.02181755829903" width="7.956364883401921" height="7.956364883401921" fill="#FFD700" /><rect x="104.35605281207133" y="104.35605281207133" width="7.287894375857339" height="7.287894375857339" fill="#FFD700" /><rect x="112.27814814814815" y="104.27814814814815" width="7.4437037037037035" height="7.4437037037037035" fill="#FFD700" /><rect x="119.68686899862826" y="103.68686899862826" width="8.626262002743484" height="8.626262002743484" fill="#FFD700" /><rect x="128.19949931412896" y="104.19949931412894" width="7.601001371742113" height="7.601001371742113" fill="#FFD700" /><rect x="136.17406378600822" y="104.17406378600823" width="7.651872427983539" height="7.651872427983539" fill="#FFD700" /><rect x="144.39821673525378" y="104.39821673525377" width="7.203566529492456" height="7.203566529492456" fill="#FFD700" /><rect x="151.64479766803842" y="103.64479766803841" width="8.710404663923182" height="8.710404663923182" fill="#FFD700" /><rect x="160.09405349794238" y="104.09405349794238" width="7.811893004115227" height="7.811893004115227" fill="#FFD700" /><rect x="168.22252743484225" y="104.22252743484225" width="7.554945130315501" height="7.554945130315501" fill="#FFD700" /><rect x="175.95861454046639" y="103.95861454046639" width="8.082770919067215" height="8.082770919067215" fill="#FFD700" /><rect x="183.7047839506173" y="103.70478395061728" width="8.590432098765433" height="8.590432098765433" fill="#FFD700" /><rect x="191.62646776406035" y="103.62646776406035" width="8.747064471879288" height="8.747064471879288" fill="#FFD700" /><rect x="200.00761659807955" y="104.00761659807957" width="7.984766803840878" height="7.984766803840878" fill="#FFD700" /><rect x="208.2729218106996" y="104.27292181069959" width="7.454156378600823" height="7.454156378600823" fill="#FFD700" /><rect x="215.87670438957477" y="103.87670438957475" width="8.24659122085048" height="8.24659122085048" fill="#FFD700" /><rect x="224.2584705075446" y="104.25847050754459" width="7.483058984910837" height="7.483058984910837" fill="#FFD700" /><rect x="31.865133744855967" y="111.86513374485597" width="8.269732510288065" height="8.269732510288065" fill="#FFD700" /><rect x="39.83990397805213" y="111.83990397805212" width="8.320192043895748" height="8.320192043895748" fill="#FFD700" /><rect x="48.37784293552812" y="112.37784293552812" width="7.244314128943759" height="7.244314128943759" fill="#FFD700" /><rect x="55.748086419753086" y="111.7480864197531" width="8.503827160493827" height="8.503827160493827" fill="#FFD700" /><rect x="63.982733196159124" y="111.98273319615912" width="8.034533607681755" height="8.034533607681755" fill="#B9F2FF" /><rect x="72.03240054869684" y="112.03240054869684" width="7.93519890260631" height="7.93519890260631" fill="#B9F2FF" /><rect x="80.38844650205762" y="112.38844650205762" width="7.223106995884774" height="7.223106995884774" fill="#B9F2FF" /><rect x="87.97185871056242" y="111.97185871056242" width="8.056282578875171" height="8.056282578875171" fill="#B9F2FF" /><rect x="95.68881001371741" y="111.68881001371741" width="8.622379972565158" height="8.622379972565158" fill="#B9F2FF" /><rect x="103.85288065843622" y="111.85288065843622" width="8.294238683127572" height="8.294238683127572" fill="#B9F2FF" /><rect x="112.27394718792867" y="112.27394718792867" width="7.4521056241426615" height="7.4521056241426615" fill="#B9F2FF" /><rect x="119.81373799725651" y="111.81373799725651" width="8.37252400548697" height="8.37252400548697" fill="#B9F2FF" /><rect x="128.20805555555555" y="112.20805555555556" width="7.58388888888889" height="7.58388888888889" fill="#B9F2FF" /><rect x="135.75566529492454" y="111.75566529492455" width="8.488669410150893" height="8.488669410150893" fill="#B9F2FF" /><rect x="144.07385116598078" y="112.0738511659808" width="7.852297668038409" height="7.852297668038409" fill="#B9F2FF" /><rect x="152.32063786008231" y="112.3206378600823" width="7.358724279835391" height="7.358724279835391" fill="#B9F2FF" /><rect x="159.68367969821674" y="111.68367969821674" width="8.63264060356653" height="8.63264060356653" fill="#B9F2FF" /><rect x="168.13581618655692" y="112.13581618655692" width="7.728367626886145" height="7.728367626886145" fill="#B9F2FF" /><rect x="175.85729423868312" y="111.85729423868312" width="8.285411522633744" height="8.285411522633744" fill="#B9F2FF" /><rect x="183.72465706447187" y="111.72465706447188" width="8.550685871056242" height="8.550685871056242" fill="#B9F2FF" /><rect x="191.66629972565158" y="111.66629972565158" width="8.667400548696845" height="8.667400548696845" fill="#FFD700" /><rect x="200.08469135802468" y="112.08469135802468" width="7.830617283950618" height="7.830617283950618" fill="#FFD700" /><rect x="208.34526406035664" y="112.34526406035666" width="7.309471879286694" height="7.309471879286694" fill="#FFD700" /><rect x="215.93196844993142" y="111.93196844993142" width="8.136063100137175" height="8.136063100137175" fill="#FFD700" /><rect x="223.86949588477367" y="111.86949588477367" width="8.261008230452674" height="8.261008230452674" fill="#FFD700" /><rect x="31.612167352537725" y="119.61216735253772" width="8.775665294924554" height="8.775665294924554" fill="#FFD700" /><rect x="39.7994890260631" y="119.7994890260631" width="8.4010219478738" height="8.4010219478738" fill="#FFD700" /><rect x="47.678374485596706" y="119.6783744855967" width="8.643251028806585" height="8.643251028806585" fill="#FFD700" /><rect x="56.39203360768175" y="120.39203360768175" width="7.215932784636489" height="7.215932784636489" fill="#B9F2FF" /><rect x="63.735528120713305" y="119.73552812071331" width="8.528943758573389" height="8.528943758573389" fill="#B9F2FF" /><rect x="71.97799382716049" y="119.97799382716049" width="8.044012345679013" height="8.044012345679013" fill="#B9F2FF" /><rect x="79.95152949245542" y="119.95152949245542" width="8.096941015089163" height="8.096941015089163" fill="#B9F2FF" /><rect x="88.2067524005487" y="120.2067524005487" width="7.586495198902607" height="7.586495198902607" fill="#B9F2FF" /><rect x="95.6350205761317" y="119.6350205761317" width="8.729958847736626" height="8.729958847736626" fill="#B9F2FF" /><rect x="104.35732167352538" y="120.35732167352538" width="7.285356652949246" height="7.285356652949246" fill="#B9F2FF" /><rect x="112.07982853223594" y="120.07982853223594" width="7.8403429355281204" height="7.8403429355281204" fill="#B9F2FF" /><rect x="119.91612139917696" y="119.91612139917696" width="8.16775720164609" height="8.16775720164609" fill="#B9F2FF" /><rect x="127.6760768175583" y="119.6760768175583" width="8.647846364883403" height="8.647846364883403" fill="#B9F2FF" /><rect x="135.8214231824417" y="119.8214231824417" width="8.357153635116598" height="8.357153635116598" fill="#B9F2FF" /><rect x="143.68796296296296" y="119.68796296296296" width="8.624074074074073" height="8.624074074074073" fill="#B9F2FF" /><rect x="151.97446159122086" y="119.97446159122084" width="8.051076817558299" height="8.051076817558299" fill="#B9F2FF" /><rect x="159.89820301783266" y="119.89820301783264" width="8.203593964334706" height="8.203593964334706" fill="#B9F2FF" /><rect x="168.21721193415638" y="120.21721193415638" width="7.5655761316872425" height="7.5655761316872425" fill="#B9F2FF" /><rect x="176.1191426611797" y="120.1191426611797" width="7.761714677640604" height="7.761714677640604" fill="#B9F2FF" /><rect x="183.97683470507545" y="119.97683470507545" width="8.04633058984911" height="8.04633058984911" fill="#B9F2FF" /><rect x="192.37053497942387" y="120.37053497942387" width="7.258930041152263" height="7.258930041152263" fill="#B9F2FF" /><rect x="199.7767866941015" y="119.7767866941015" width="8.446426611796982" height="8.446426611796982" fill="#FFD700" /><rect x="207.72398491083675" y="119.72398491083676" width="8.552030178326476" height="8.552030178326476" fill="#FFD700" /><rect x="215.8145987654321" y="119.8145987654321" width="8.370802469135803" height="8.370802469135803" fill="#FFD700" /><rect x="224.21406035665294" y="120.21406035665295" width="7.571879286694101" height="7.571879286694101" fill="#FFD700" /><rect x="31.606320301783263" y="127.60632030178327" width="8.787359396433471" height="8.787359396433471" fill="#FFD700" /><rect x="39.816069958847734" y="127.81606995884773" width="8.367860082304526" height="8.367860082304526" fill="#FFD700" /><rect x="48.29763031550068" y="128.2976303155007" width="7.404739368998628" height="7.404739368998628" fill="#B9F2FF" /><rect x="56.09050754458162" y="128.0905075445816" width="7.818984910836763" height="7.818984910836763" fill="#B9F2FF" /><rect x="64.04161522633746" y="128.04161522633746" width="7.916769547325103" height="7.916769547325103" fill="#B9F2FF" /><rect x="71.69416323731139" y="127.69416323731139" width="8.61167352537723" height="8.61167352537723" fill="#B9F2FF" /><rect x="80.04321330589849" y="128.0432133058985" width="7.913573388203018" height="7.913573388203018" fill="#B9F2FF" /><rect x="88.1579012345679" y="128.1579012345679" width="7.684197530864198" height="7.684197530864198" fill="#B9F2FF" /><rect x="95.67032578875171" y="127.67032578875171" width="8.65934842249657" height="8.65934842249657" fill="#B9F2FF" /><rect x="103.93110425240054" y="127.93110425240054" width="8.137791495198902" height="8.137791495198902" fill="#B9F2FF" /><rect x="111.83159465020576" y="127.83159465020576" width="8.336810699588478" height="8.336810699588478" fill="#B9F2FF" /><rect x="119.89278463648834" y="127.89278463648834" width="8.21443072702332" height="8.21443072702332" fill="#B9F2FF" /><rect x="128.22084705075446" y="128.22084705075446" width="7.558305898491084" height="7.558305898491084" fill="#B9F2FF" /><rect x="136.3293621399177" y="128.3293621399177" width="7.341275720164609" height="7.341275720164609" fill="#B9F2FF" /><rect x="144.02820644718793" y="128.02820644718793" width="7.943587105624143" height="7.943587105624143" fill="#B9F2FF" /><rect x="151.7791083676269" y="127.77910836762689" width="8.441783264746228" height="8.441783264746228" fill="#B9F2FF" /><rect x="159.71787037037038" y="127.71787037037038" width="8.56425925925926" height="8.56425925925926" fill="#B9F2FF" /><rect x="167.74325788751716" y="127.74325788751715" width="8.513484224965707" height="8.513484224965707" fill="#B9F2FF" /><rect x="175.8725548696845" y="127.8725548696845" width="8.254890260631" height="8.254890260631" fill="#B9F2FF" /><rect x="184.06378600823047" y="128.06378600823047" width="7.872427983539095" height="7.872427983539095" fill="#B9F2FF" /><rect x="192.30460562414265" y="128.30460562414265" width="7.390788751714678" height="7.390788751714678" fill="#B9F2FF" /><rect x="200.16785322359397" y="128.16785322359397" width="7.6642935528120715" height="7.6642935528120715" fill="#B9F2FF" /><rect x="208.2337757201646" y="128.2337757201646" width="7.532448559670782" height="7.532448559670782" fill="#FFD700" /><rect x="215.77891632373115" y="127.77891632373114" width="8.442167352537723" height="8.442167352537723" fill="#FFD700" /><rect x="224.33167009602195" y="128.33167009602195" width="7.336659807956105" height="7.336659807956105" fill="#FFD700" /><rect x="31.894506172839506" y="135.8945061728395" width="8.210987654320988" height="8.210987654320988" fill="#FFD700" /><rect x="40.232856652949245" y="136.23285665294924" width="7.534286694101509" height="7.534286694101509" fill="#FFD700" /><rect x="48.030672153635116" y="136.03067215363512" width="7.938655692729767" height="7.938655692729767" fill="#FFD700" /><rect x="56.31264403292181" y="136.3126440329218" width="7.3747119341563785" height="7.3747119341563785" fill="#FFD700" /><rect x="63.73309327846365" y="135.73309327846366" width="8.533813443072702" height="8.533813443072702" fill="#FFD700" /><rect x="71.73152606310013" y="135.73152606310015" width="8.536947873799726" height="8.536947873799726" fill="#FFD700" /><rect x="80.3548559670782" y="136.35485596707818" width="7.2902880658436215" height="7.2902880658436215" fill="#FFD700" /><rect x="88.34629286694101" y="136.346292866941" width="7.30741426611797" height="7.30741426611797" fill="#FFD700" /><rect x="95.90089849108368" y="135.90089849108367" width="8.198203017832647" height="8.198203017832647" fill="#FFD700" /><rect x="103.68780864197531" y="135.68780864197532" width="8.624382716049382" height="8.624382716049382" fill="#FFD700" /><rect x="112.13912208504802" y="136.139122085048" width="7.721755829903978" height="7.721755829903978" fill="#FFD700" /><rect x="120.2054561042524" y="136.2054561042524" width="7.589087791495199" height="7.589087791495199" fill="#FFD700" /><rect x="128.37816872427985" y="136.37816872427985" width="7.2436625514403294" height="7.2436625514403294" fill="#FFD700" /><rect x="136.3782475994513" y="136.3782475994513" width="7.2435048010973935" height="7.2435048010973935" fill="#FFD700" /><rect x="144.31186556927298" y="136.31186556927298" width="7.376268861454047" height="7.376268861454047" fill="#FFD700" /><rect x="151.69260288065843" y="135.69260288065843" width="8.614794238683128" height="8.614794238683128" fill="#FFD700" /><rect x="159.93033607681755" y="135.93033607681755" width="8.139327846364884" height="8.139327846364884" fill="#FFD700" /><rect x="167.88679355281207" y="135.88679355281207" width="8.226412894375857" height="8.226412894375857" fill="#FFD700" /><rect x="175.6977777777778" y="135.6977777777778" width="8.604444444444445" height="8.604444444444445" fill="#FFD700" /><rect x="184.06205418381344" y="136.06205418381344" width="7.875891632373114" height="7.875891632373114" fill="#FFD700" /><rect x="192.19690672153635" y="136.19690672153635" width="7.606186556927298" height="7.606186556927298" fill="#FFD700" /><rect x="200.06036008230453" y="136.06036008230453" width="7.879279835390947" height="7.879279835390947" fill="#FFD700" /><rect x="207.64006858710562" y="135.64006858710562" width="8.719862825788752" height="8.719862825788752" fill="#FFD700" /><rect x="216.10887174211248" y="136.10887174211248" width="7.7822565157750345" height="7.7822565157750345" fill="#FFD700" /><rect x="223.64701646090535" y="135.64701646090535" width="8.7059670781893" height="8.7059670781893" fill="#FFD700" /><rect x="31.93104595336077" y="143.93104595336078" width="8.137908093278464" height="8.137908093278464" fill="#FFD700" /><rect x="40.08935528120713" y="144.08935528120713" width="7.821289437585734" height="7.821289437585734" fill="#FFD700" /><rect x="47.72441358024692" y="143.7244135802469" width="8.551172839506172" height="8.551172839506172" fill="#FFD700" /><rect x="55.80165294924554" y="143.80165294924555" width="8.396694101508917" height="8.396694101508917" fill="#FFD700" /><rect x="63.80502400548697" y="143.80502400548696" width="8.389951989026063" height="8.389951989026063" fill="#FFD700" /><rect x="71.95921810699589" y="143.95921810699588" width="8.08156378600823" height="8.08156378600823" fill="#FFD700" /><rect x="79.71855624142661" y="143.7185562414266" width="8.562887517146777" height="8.562887517146777" fill="#FFD700" /><rect x="87.72254458161865" y="143.72254458161865" width="8.554910836762689" height="8.554910836762689" fill="#FFD700" /><rect x="96.01809670781893" y="144.01809670781893" width="7.96380658436214" height="7.96380658436214" fill="#FFD700" /><rect x="104.14842249657065" y="144.14842249657065" width="7.703155006858711" height="7.703155006858711" fill="#FFD700" /><rect x="112.30858367626887" y="144.30858367626885" width="7.382832647462277" height="7.382832647462277" fill="#FFD700" /><rect x="120.36771604938272" y="144.36771604938272" width="7.264567901234568" height="7.264567901234568" fill="#FFD700" /><rect x="127.95791838134431" y="143.9579183813443" width="8.084163237311385" height="8.084163237311385" fill="#FFD700" /><rect x="135.62980795610426" y="143.62980795610426" width="8.740384087791496" height="8.740384087791496" fill="#FFD700" /><rect x="143.8747427983539" y="143.8747427983539" width="8.25051440329218" height="8.25051440329218" fill="#FFD700" /><rect x="151.61371056241427" y="143.61371056241427" width="8.772578875171469" height="8.772578875171469" fill="#FFD700" /><rect x="159.7528840877915" y="143.7528840877915" width="8.49423182441701" height="8.49423182441701" fill="#FFD700" /><rect x="167.80584362139916" y="143.80584362139916" width="8.388312757201646" height="8.388312757201646" fill="#FFD700" /><rect x="176.3824657064472" y="144.3824657064472" width="7.235068587105625" height="7.235068587105625" fill="#FFD700" /><rect x="184.34447873799726" y="144.34447873799726" width="7.3110425240054875" height="7.3110425240054875" fill="#FFD700" /><rect x="191.82768518518517" y="143.82768518518517" width="8.34462962962963" height="8.34462962962963" fill="#FFD700" /><rect x="200.33085048010975" y="144.33085048010975" width="7.338299039780521" height="7.338299039780521" fill="#FFD700" /><rect x="208.2712585733882" y="144.2712585733882" width="7.457482853223594" height="7.457482853223594" fill="#FFD700" /><rect x="215.6069341563786" y="143.6069341563786" width="8.786131687242799" height="8.786131687242799" fill="#FFD700" /><rect x="223.9255315500686" y="143.9255315500686" width="8.148936899862825" height="8.148936899862825" fill="#FFD700" /><rect x="31.999890260631002" y="151.999890260631" width="8.000219478737998" height="8.000219478737998" fill="#FFD700" /><rect x="39.61025720164609" y="151.61025720164608" width="8.779485596707818" height="8.779485596707818" fill="#FFD700" /><rect x="47.6331755829904" y="151.6331755829904" width="8.733648834019204" height="8.733648834019204" fill="#FFD700" /><rect x="55.99704046639232" y="151.99704046639232" width="8.005919067215364" height="8.005919067215364" fill="#FFD700" /><rect x="64.30432098765432" y="152.3043209876543" width="7.391358024691359" height="7.391358024691359" fill="#FFD700" /><rect x="71.92044924554183" y="151.92044924554185" width="8.159101508916324" height="8.159101508916324" fill="#FFD700" /><rect x="79.92937585733883" y="151.9293758573388" width="8.141248285322359" height="8.141248285322359" fill="#FFD700" /><rect x="87.75579218106996" y="151.75579218106995" width="8.488415637860083" height="8.488415637860083" fill="#FFD700" /><rect x="95.65401920438957" y="151.65401920438958" width="8.691961591220851" height="8.691961591220851" fill="#FFD700" /><rect x="104.26356310013718" y="152.26356310013716" width="7.472873799725652" height="7.472873799725652" fill="#FFD700" /><rect x="112.03133744855967" y="152.03133744855967" width="7.937325102880658" height="7.937325102880658" fill="#FFD700" /><rect x="120.10055212620027" y="152.10055212620028" width="7.798895747599452" height="7.798895747599452" fill="#FFD700" /><rect x="127.86626886145405" y="151.86626886145405" width="8.267462277091907" height="8.267462277091907" fill="#FFD700" /><rect x="135.9976234567901" y="151.9976234567901" width="8.004753086419754" height="8.004753086419754" fill="#FFD700" /><rect x="144.1267146776406" y="152.1267146776406" width="7.746570644718793" height="7.746570644718793" fill="#FFD700" /><rect x="152.0041598079561" y="152.0041598079561" width="7.9916803840877915" height="7.9916803840877915" fill="#FFD700" /><rect x="160.121316872428" y="152.121316872428" width="7.757366255144033" height="7.757366255144033" fill="#FFD700" /><rect x="168.19917352537723" y="152.19917352537723" width="7.601652949245542" height="7.601652949245542" fill="#FFD700" /><rect x="176.34390260631002" y="152.34390260631002" width="7.312194787379973" height="7.312194787379973" fill="#FFD700" /><rect x="184.0690843621399" y="152.0690843621399" width="7.8618312757201645" height="7.8618312757201645" fill="#FFD700" /><rect x="191.9845953360768" y="151.9845953360768" width="8.030809327846365" height="8.030809327846365" fill="#FFD700" /><rect x="199.75216392318245" y="151.75216392318245" width="8.495672153635116" height="8.495672153635116" fill="#FFD700" /><rect x="208.30759259259258" y="152.30759259259258" width="7.384814814814815" height="7.384814814814815" fill="#FFD700" /><rect x="215.94964677640604" y="151.94964677640604" width="8.100706447187928" height="8.100706447187928" fill="#FFD700" /><rect x="224.29561042524006" y="152.29561042524006" width="7.408779149519891" height="7.408779149519891" fill="#FFD700" /><rect x="31.703508230452677" y="159.70350823045268" width="8.59298353909465" height="8.59298353909465" fill="#FFD700" /><rect x="39.76099451303155" y="159.76099451303156" width="8.4780109739369" height="8.4780109739369" fill="#FFD700" /><rect x="48.04090877914952" y="160.04090877914953" width="7.91818244170096" height="7.91818244170096" fill="#FFD700" /><rect x="56.32349794238683" y="160.32349794238684" width="7.353004115226337" height="7.353004115226337" fill="#FFD700" /><rect x="63.885305212620025" y="159.88530521262004" width="8.229389574759946" height="8.229389574759946" fill="#FFD700" /><rect x="72.2547256515775" y="160.2547256515775" width="7.490548696844994" height="7.490548696844994" fill="#FFD700" /><rect x="80.23422839506173" y="160.23422839506173" width="7.531543209876544" height="7.531543209876544" fill="#FFD700" /><rect x="87.98924554183813" y="159.98924554183813" width="8.02150891632373" height="8.02150891632373" fill="#FFD700" /><rect x="95.80372770919067" y="159.80372770919067" width="8.392544581618656" height="8.392544581618656" fill="#FFD700" /><rect x="103.90236625514403" y="159.90236625514405" width="8.195267489711934" height="8.195267489711934" fill="#FFD700" /><rect x="111.73948216735253" y="159.73948216735255" width="8.521035665294924" height="8.521035665294924" fill="#FFD700" /><rect x="119.9545816186557" y="159.95458161865568" width="8.090836762688614" height="8.090836762688614" fill="#FFD700" /><rect x="127.79457818930041" y="159.7945781893004" width="8.410843621399177" height="8.410843621399177" fill="#FFD700" /><rect x="135.6026817558299" y="159.6026817558299" width="8.794636488340192" height="8.794636488340192" fill="#FFD700" /><rect x="144.37395404663923" y="160.37395404663923" width="7.252091906721536" height="7.252091906721536" fill="#FFD700" /><rect x="152.37753086419752" y="160.37753086419752" width="7.244938271604939" height="7.244938271604939" fill="#FFD700" /><rect x="160.0455109739369" y="160.0455109739369" width="7.9089780521262005" height="7.9089780521262005" fill="#FFD700" /><rect x="167.92851165980795" y="159.92851165980795" width="8.142976680384088" height="8.142976680384088" fill="#FFD700" /><rect x="175.71789094650205" y="159.71789094650205" width="8.564218106995884" height="8.564218106995884" fill="#FFD700" /><rect x="183.9346364883402" y="159.9346364883402" width="8.130727023319617" height="8.130727023319617" fill="#FFD700" /><rect x="191.88492112482854" y="159.88492112482854" width="8.230157750342936" height="8.230157750342936" fill="#FFD700" /><rect x="199.88232510288066" y="159.88232510288066" width="8.235349794238683" height="8.235349794238683" fill="#FFD700" /><rect x="207.73672496570646" y="159.73672496570646" width="8.526550068587106" height="8.526550068587106" fill="#FFD700" /><rect x="215.90984910836764" y="159.90984910836764" width="8.180301783264746" height="8.180301783264746" fill="#FFD700" /><rect x="223.7375" y="159.7375" width="8.525" height="8.525" fill="#FFD700" /><rect x="31.91844307270233" y="167.91844307270233" width="8.163113854595336" height="8.163113854595336" fill="#FFD700" /><rect x="39.669962277091905" y="167.6699622770919" width="8.660075445816187" height="8.660075445816187" fill="#FFD700" /><rect x="47.75008230452675" y="167.75008230452676" width="8.499835390946503" height="8.499835390946503" fill="#FFD700" /><rect x="56.14645747599451" y="168.1464574759945" width="7.707085048010974" height="7.707085048010974" fill="#FFD700" /><rect x="63.63192729766804" y="167.63192729766803" width="8.736145404663922" height="8.736145404663922" fill="#FFD700" /><rect x="72.38673868312758" y="168.38673868312756" width="7.226522633744856" height="7.226522633744856" fill="#FFD700" /><rect x="80.08743484224965" y="168.08743484224965" width="7.825130315500687" height="7.825130315500687" fill="#FFD700" /><rect x="88.26241083676268" y="168.26241083676268" width="7.475178326474623" height="7.475178326474623" fill="#FFD700" /><rect x="95.71413580246913" y="167.71413580246914" width="8.57172839506173" height="8.57172839506173" fill="#FFD700" /><rect x="104.20804183813443" y="168.20804183813442" width="7.583916323731139" height="7.583916323731139" fill="#FFD700" /><rect x="111.62807956104253" y="167.6280795610425" width="8.743840877914952" height="8.743840877914952" fill="#FFD700" /><rect x="119.79894032921811" y="167.7989403292181" width="8.402119341563786" height="8.402119341563786" fill="#FFD700" /><rect x="128.1749451303155" y="168.1749451303155" width="7.6501097393689985" height="7.6501097393689985" fill="#FFD700" /><rect x="135.7956001371742" y="167.7956001371742" width="8.408799725651578" height="8.408799725651578" fill="#FFD700" /><rect x="144.30781893004115" y="168.30781893004115" width="7.3843621399176955" height="7.3843621399176955" fill="#FFD700" /><rect x="151.65481138545954" y="167.65481138545954" width="8.690377229080934" height="8.690377229080934" fill="#FFD700" /><rect x="159.6316392318244" y="167.6316392318244" width="8.736721536351165" height="8.736721536351165" fill="#FFD700" /><rect x="168.10743827160493" y="168.10743827160493" width="7.7851234567901235" height="7.7851234567901235" fill="#FFD700" /><rect x="175.9143072702332" y="167.9143072702332" width="8.171385459533608" height="8.171385459533608" fill="#FFD700" /><rect x="183.60286351165982" y="167.60286351165982" width="8.794272976680384" height="8.794272976680384" fill="#FFD700" /><rect x="191.66446502057613" y="167.66446502057613" width="8.671069958847736" height="8.671069958847736" fill="#FFD700" /><rect x="199.82009945130315" y="167.82009945130315" width="8.35980109739369" height="8.35980109739369" fill="#FFD700" /><rect x="208.17593964334705" y="168.17593964334705" width="7.648120713305898" height="7.648120713305898" fill="#FFD700" /><rect x="216.2455658436214" y="168.2455658436214" width="7.508868312757202" height="7.508868312757202" fill="#FFD700" /><rect x="223.83885459533607" y="167.83885459533607" width="8.322290809327846" height="8.322290809327846" fill="#FFD700" /><rect x="32.21753429355281" y="176.2175342935528" width="7.564931412894376" height="7.564931412894376" fill="#FFD700" /><rect x="39.91740740740741" y="175.9174074074074" width="8.165185185185186" height="8.165185185185186" fill="#FFD700" /><rect x="47.63723936899863" y="175.63723936899862" width="8.725521262002744" height="8.725521262002744" fill="#B9F2FF" /><rect x="56.19431412894376" y="176.19431412894374" width="7.611371742112483" height="7.611371742112483" fill="#B9F2FF" /><rect x="63.94665637860082" y="175.94665637860084" width="8.106687242798355" height="8.106687242798355" fill="#B9F2FF" /><rect x="71.68192043895748" y="175.68192043895746" width="8.636159122085049" height="8.636159122085049" fill="#B9F2FF" /><rect x="79.77294581618656" y="175.77294581618656" width="8.454108367626887" height="8.454108367626887" fill="#FFD700" /><rect x="87.99997942386831" y="175.99997942386833" width="8.000041152263375" height="8.000041152263375" fill="#FFD700" /><rect x="151.63956447187928" y="175.63956447187928" width="8.720871056241426" height="8.720871056241426" fill="#FFD700" /><rect x="160.22009602194788" y="176.22009602194788" width="7.559807956104253" height="7.559807956104253" fill="#FFD700" /><rect x="167.74404320987654" y="175.74404320987654" width="8.511913580246913" height="8.511913580246913" fill="#B9F2FF" /><rect x="175.97683813443072" y="175.97683813443072" width="8.046323731138546" height="8.046323731138546" fill="#B9F2FF" /><rect x="183.60243141289436" y="175.60243141289436" width="8.795137174211249" height="8.795137174211249" fill="#B9F2FF" /><rect x="191.64551440329217" y="175.64551440329217" width="8.708971193415639" height="8.708971193415639" fill="#B9F2FF" /><rect x="200.36040809327847" y="176.36040809327847" width="7.279183813443073" height="7.279183813443073" fill="#FFD700" /><rect x="207.98661865569272" y="175.98661865569272" width="8.026762688614541" height="8.026762688614541" fill="#FFD700" /><rect x="32.171059670781894" y="184.1710596707819" width="7.6578806584362145" height="7.6578806584362145" fill="#FFD700" /><rect x="39.65694101508916" y="183.65694101508916" width="8.686117969821673" height="8.686117969821673" fill="#B9F2FF" /><rect x="48.239324417009605" y="184.2393244170096" width="7.5213511659807955" height="7.5213511659807955" fill="#B9F2FF" /><rect x="56.187345679012346" y="184.18734567901234" width="7.625308641975309" height="7.625308641975309" fill="#B9F2FF" /><rect x="63.933103566529496" y="183.9331035665295" width="8.133792866941015" height="8.133792866941015" fill="#B9F2FF" /><rect x="72.02721536351166" y="184.02721536351166" width="7.94556927297668" height="7.94556927297668" fill="#B9F2FF" /><rect x="80.1610390946502" y="184.1610390946502" width="7.677921810699589" height="7.677921810699589" fill="#B9F2FF" /><rect x="88.05556241426612" y="184.05556241426612" width="7.888875171467764" height="7.888875171467764" fill="#FFD700" /><rect x="151.81695816186556" y="183.81695816186556" width="8.366083676268861" height="8.366083676268861" fill="#FFD700" /><rect x="159.75880658436213" y="183.75880658436213" width="8.48238683127572" height="8.48238683127572" fill="#B9F2FF" /><rect x="167.69098422496572" y="183.69098422496572" width="8.618031550068586" height="8.618031550068586" fill="#B9F2FF" /><rect x="176.075219478738" y="184.075219478738" width="7.849561042524005" height="7.849561042524005" fill="#B9F2FF" /><rect x="184.2473148148148" y="184.2473148148148" width="7.505370370370371" height="7.505370370370371" fill="#B9F2FF" /><rect x="192.1060356652949" y="184.1060356652949" width="7.787928669410151" height="7.787928669410151" fill="#B9F2FF" /><rect x="199.66866598079562" y="183.66866598079562" width="8.662668038408778" height="8.662668038408778" fill="#B9F2FF" /><rect x="207.6932304526749" y="183.6932304526749" width="8.613539094650207" height="8.613539094650207" fill="#FFD700" /><rect x="32.16738340192044" y="192.16738340192043" width="7.6652331961591225" height="7.6652331961591225" fill="#FFD700" /><rect x="39.863964334705074" y="191.8639643347051" width="8.27207133058985" height="8.27207133058985" fill="#B9F2FF" /><rect x="48.16322016460905" y="192.16322016460904" width="7.673559670781893" height="7.673559670781893" fill="#B9F2FF" /><rect x="56.341694101508914" y="192.34169410150892" width="7.316611796982167" height="7.316611796982167" fill="#B9F2FF" /><rect x="64.32778120713306" y="192.32778120713306" width="7.344437585733882" height="7.344437585733882" fill="#B9F2FF" /><rect x="71.72395061728395" y="191.72395061728395" width="8.552098765432099" height="8.552098765432099" fill="#B9F2FF" /><rect x="80.29563443072702" y="192.29563443072703" width="7.408731138545954" height="7.408731138545954" fill="#B9F2FF" /><rect x="87.92678326474623" y="191.92678326474623" width="8.146433470507544" height="8.146433470507544" fill="#FFD700" /><rect x="151.64208847736626" y="191.64208847736626" width="8.71582304526749" height="8.71582304526749" fill="#FFD700" /><rect x="159.69587105624143" y="191.69587105624143" width="8.608257887517148" height="8.608257887517148" fill="#B9F2FF" /><rect x="167.92763717421124" y="191.92763717421124" width="8.144725651577504" height="8.144725651577504" fill="#B9F2FF" /><rect x="176.38430041152264" y="192.38430041152264" width="7.231399176954732" height="7.231399176954732" fill="#B9F2FF" /><rect x="183.8090706447188" y="191.8090706447188" width="8.381858710562415" height="8.381858710562415" fill="#B9F2FF" /><rect x="191.9970096021948" y="191.9970096021948" width="8.005980795610425" height="8.005980795610425" fill="#B9F2FF" /><rect x="200.01725308641974" y="192.01725308641974" width="7.965493827160494" height="7.965493827160494" fill="#B9F2FF" /><rect x="208.3018998628258" y="192.3018998628258" width="7.3962002743484225" height="7.3962002743484225" fill="#FFD700" /><rect x="31.801567215363512" y="199.80156721536352" width="8.396865569272977" height="8.396865569272977" fill="#FFD700" /><rect x="39.80761316872428" y="199.8076131687243" width="8.38477366255144" height="8.38477366255144" fill="#FFD700" /><rect x="48.04102537722908" y="200.0410253772291" width="7.9179492455418385" height="7.9179492455418385" fill="#B9F2FF" /><rect x="55.80797668038409" y="199.8079766803841" width="8.384046639231824" height="8.384046639231824" fill="#B9F2FF" /><rect x="64.22204732510288" y="200.2220473251029" width="7.555905349794239" height="7.555905349794239" fill="#B9F2FF" /><rect x="72.29311385459533" y="200.29311385459533" width="7.413772290809328" height="7.413772290809328" fill="#B9F2FF" /><rect x="79.68290466392318" y="199.68290466392318" width="8.634190672153636" height="8.634190672153636" fill="#FFD700" /><rect x="88.12722222222222" y="200.12722222222223" width="7.745555555555556" height="7.745555555555556" fill="#FFD700" /><rect x="151.92483196159122" y="199.92483196159122" width="8.150336076817558" height="8.150336076817558" fill="#FFD700" /><rect x="159.89301783264747" y="199.89301783264747" width="8.213964334705075" height="8.213964334705075" fill="#FFD700" /><rect x="167.98980452674897" y="199.98980452674897" width="8.020390946502058" height="8.020390946502058" fill="#B9F2FF" /><rect x="176.2028463648834" y="200.2028463648834" width="7.594307270233196" height="7.594307270233196" fill="#B9F2FF" /><rect x="184.1049828532236" y="200.1049828532236" width="7.790034293552813" height="7.790034293552813" fill="#B9F2FF" /><rect x="192.2764609053498" y="200.2764609053498" width="7.447078189300412" height="7.447078189300412" fill="#B9F2FF" /><rect x="199.99382373113855" y="199.99382373113855" width="8.012352537722908" height="8.012352537722908" fill="#FFD700" /><rect x="207.98546639231824" y="199.98546639231824" width="8.029067215363511" height="8.029067215363511" fill="#FFD700" /><rect x="160" y="144" width="8" height="8" fill="white" opacity="0.5" filter="url(#metal)" /><rect x="120" y="104" width="8" height="8" fill="white" opacity="0.5" filter="url(#metal)" /><rect x="128" y="136" width="8" height="8" fill="white" opacity="0.5" filter="url(#metal)" /><rect x="40" y="40" width="8" height="8" fill="white" opacity="0.5" filter="url(#metal)" /><rect x="144" y="144" width="8" height="8" fill="white" opacity="0.5" filter="url(#metal)" /><rect x="216" y="112" width="8" height="8" fill="white" opacity="0.5" filter="url(#metal)" /><rect x="216" y="104" width="8" height="8" fill="white" opacity="0.5" filter="url(#metal)" /><rect x="40" y="56" width="8" height="8" fill="white" opacity="0.5" filter="url(#metal)" /><rect x="64" y="88" width="8" height="8" fill="white" opacity="0.5" filter="url(#metal)" /><rect x="184" y="80" width="8" height="8" fill="white" opacity="0.5" filter="url(#metal)" />
    </g>
    
    <!-- Добавляем небольшие блестящие эффекты -->
    <rect x="48" y="128" width="16" height="16" fill="#FFD700" opacity="0.5149991426611797" filter="url(#shimmer)" /><rect x="0" y="64" width="8" height="8" fill="#FFD700" opacity="0.24139660493827161" filter="url(#shimmer)" /><rect x="112" y="96" width="16" height="16" fill="#FFD700" opacity="0.5645018861454048" filter="url(#shimmer)" /><rect x="40" y="200" width="16" height="16" fill="#FFD700" opacity="0.34851251714677645" filter="url(#shimmer)" /><rect x="224" y="184" width="8" height="8" fill="#FFD700" opacity="0.6057741769547325" filter="url(#shimmer)" /><rect x="112" y="128" width="16" height="16" fill="#FFD700" opacity="0.6078918038408779" filter="url(#shimmer)" /><rect x="80" y="120" width="16" height="16" fill="#FFD700" opacity="0.3301740397805213" filter="url(#shimmer)" />
  </svg>
  