
  <svg width="256" height="256" viewBox="0 0 256 256" xmlns="http://www.w3.org/2000/svg">
    <defs>
      
    <linearGradient id="backgroundGradient" x1="0%" y1="0%" x2="100%" y2="100%">
      <stop offset="0%" stop-color="#0D1117" />
      <stop offset="50%" stop-color="#D2A8FF" stop-opacity="0.3" />
      <stop offset="100%" stop-color="#0D1117" />
    </linearGradient>
  
      
    <filter id="glow" x="-50%" y="-50%" width="200%" height="200%">
      <feGaussianBlur stdDeviation="4" result="blur" />
      <feComposite in="SourceGraphic" in2="blur" operator="over" />
    </filter>
  
      
    <filter id="metal" x="-10%" y="-10%" width="120%" height="120%">
      <feSpecularLighting result="specOut" specularExponent="20" lighting-color="#ffffff">
        <fePointLight x="50" y="50" z="200" />
      </feSpecularLighting>
      <feComposite in="SourceGraphic" in2="specOut" operator="arithmetic" k1="0" k2="1" k3="1" k4="0" />
    </filter>
  
      
    <filter id="shimmer" x="-20%" y="-20%" width="140%" height="140%">
      <feTurbulence type="fractalNoise" baseFrequency="0.01" numOctaves="2" seed="11">
        <animate attributeName="baseFrequency" from="0.01" to="0.02" dur="30s" repeatCount="indefinite" />
      </feTurbulence>
      <feDisplacementMap in="SourceGraphic" scale="5" />
      <feGaussianBlur stdDeviation="1" />
      <feComposite in="SourceGraphic" operator="over" />
    </filter>
  
      
    <filter id="diamond" x="-30%" y="-30%" width="160%" height="160%">
      <feGaussianBlur in="SourceAlpha" stdDeviation="4" result="blur" />
      <feSpecularLighting in="blur" surfaceScale="5" specularConstant="1" specularExponent="20" result="specOut">
        <fePointLight x="50" y="50" z="90" />
      </feSpecularLighting>
      <feComposite in="specOut" in2="SourceAlpha" operator="in" result="specOut" />
      <feComposite in="SourceGraphic" in2="specOut" operator="arithmetic" k1="0" k2="1" k3="1" k4="0" />
    </filter>
  
    </defs>
    
    <!-- Фон с градиентом -->
    <rect width="256" height="256" fill="url(#backgroundGradient)" />
    
    <!-- Декоративные элементы для создания глубины -->
    <circle cx="77.90959362139918" cy="168.8284465020576" r="21.01581790123457" 
            fill="#6E40C9" opacity="0.19641289437585735" filter="url(#shimmer)" />
    <circle cx="183.94611625514403" cy="164.52546296296296" r="13.302919238683128" 
            fill="#D2A8FF" opacity="0.21495541838134433" filter="url(#glow)" />
    
    <!-- Основное содержимое - роскошный предмет -->
    <g transform="translate(0, 0)">
      
    <g>
      
    <!-- Эффекты освещения и атмосферы -->
    <defs>
      <radialGradient id="sunlight" cx="0.5" cy="0.3" r="0.8">
        <stop offset="0%" stop-color="#FFFFFF" stop-opacity="0.3" />
        <stop offset="100%" stop-color="#FFFFFF" stop-opacity="0" />
      </radialGradient>
    </defs>
    
    <!-- Солнечное освещение -->
    <circle cx="180" cy="80" r="150" fill="url(#sunlight)" opacity="0.3" />
    
    <!-- Эффект легкого тумана для создания атмосферы -->
    <rect x="0" y="200" width="256" height="56" fill="white" opacity="0.1" />
  
      
        <!-- Средиземноморская вилла -->
        <g transform="translate(28, 50)">
          <!-- Основное здание -->
          <rect x="40" y="70" width="140" height="90" fill="#F8F0E3" stroke="#E8D0C0" stroke-width="1" />
          
          <!-- Крыша в средиземноморском стиле -->
          <path d="M30,70 L190,70 L190,80 L30,80 Z" fill="#E57373" stroke="#C62828" stroke-width="1" />
          <rect x="35" y="60" width="150" height="10" fill="#E57373" stroke="#C62828" stroke-width="1" />
          
          <!-- Арочные окна -->
          <path d="M60,90 L60,130 L90,130 L90,90 Z" fill="#A371F7" opacity="0.7" />
          <path d="M60,90 C60,90 75,80 90,90" fill="#A371F7" opacity="0.7" stroke="#FFFFFF" stroke-width="0.5" />
          <line x1="75" y1="90" x2="75" y2="130" stroke="#FFFFFF" stroke-width="0.5" />
          
          <path d="M130,90 L130,130 L160,130 L160,90 Z" fill="#A371F7" opacity="0.7" />
          <path d="M130,90 C130,90 145,80 160,90" fill="#A371F7" opacity="0.7" stroke="#FFFFFF" stroke-width="0.5" />
          <line x1="145" y1="90" x2="145" y2="130" stroke="#FFFFFF" stroke-width="0.5" />
          
          <!-- Дверь -->
          <path d="M95,110 L95,160 L125,160 L125,110 Z" fill="#A1887F" stroke="#8D6E63" stroke-width="1" />
          <path d="M95,110 C95,110 110,100 125,110" fill="#A1887F" stroke="#8D6E63" stroke-width="1" />
          <line x1="110" y1="110" x2="110" y2="160" stroke="#8D6E63" stroke-width="0.5" />
          <circle cx="105" cy="135" r="2" fill="#FFEB3B" /> <!-- Дверная ручка -->
          
          <!-- Терраса -->
          <rect x="20" y="160" width="180" height="5" fill="#F8F0E3" stroke="#E8D0C0" stroke-width="1" />
          <rect x="30" y="165" width="160" height="5" fill="#F8F0E3" stroke="#E8D0C0" stroke-width="1" />
          
          <!-- Бассейн -->
          <rect x="50" y="180" width="70" height="30" rx="5" ry="5" fill="#6E40C9" opacity="0.7" />
          <rect x="55" y="185" width="60" height="20" rx="3" ry="3" fill="#6E40C9" opacity="0.9" />
          
          <!-- Пальмы -->
          <rect x="20" y="170" width="5" height="20" fill="#8D6E63" />
          <ellipse cx="22" cy="170" rx="10" ry="15" fill="#4CAF50" />
          
          <rect x="195" y="170" width="5" height="20" fill="#8D6E63" />
          <ellipse cx="197" cy="170" rx="10" ry="15" fill="#4CAF50" />
          
          <!-- Ландшафт -->
          <rect x="0" y="190" width="220" height="30" fill="#81C784" opacity="0.7" /> <!-- Газон -->
          <path d="M125,180 C145,175 165,178 185,180" stroke="#FFE0B2" stroke-width="2" fill="none" opacity="0.7" /> <!-- Песчаная дорожка -->
        </g>
      
    </g>
  
    </g>
    
    <!-- Добавляем декоративную рамку с эффектом шиммера -->
    <rect x="8" y="8" width="240" height="240" fill="none" stroke="#D2A8FF" stroke-width="1" 
          opacity="0.5" stroke-dasharray="2,2" filter="url(#shimmer)" />
  </svg>
  