
    <svg xmlns="http://www.w3.org/2000/svg" viewBox="0 0 400 400" width="400" height="400">
      <defs>
        
    <linearGradient id="gradient-20159" x1="0%" y1="0%" x2="100%" y2="100%">
      <stop offset="0%" stop-color="#34d399" stop-opacity="0.8" />
      <stop offset="50%" stop-color="#6ee7b7" stop-opacity="0.5" />
      <stop offset="100%" stop-color="#a7f3d0" stop-opacity="0.8" />
    </linearGradient>
  
      </defs>
      <rect width="100%" height="100%" fill="url(#gradient-20159)" />
      
      <rect 
        x="49%" 
        y="98%" 
        width="17%" 
        height="17%" 
        fill="#a7f3d0"
        opacity="0.45"
        transform="rotate(316, 57.5%, 106.5%)"
      />
    
      <rect 
        x="98%" 
        y="47%" 
        width="46%" 
        height="46%" 
        fill="#34d399"
        opacity="0.34"
        transform="rotate(305, 121%, 70%)"
      />
    
      <rect 
        x="47%" 
        y="96%" 
        width="35%" 
        height="35%" 
        fill="#6ee7b7"
        opacity="0.93"
        transform="rotate(294, 64.5%, 113.5%)"
      />
    
      <rect 
        x="96%" 
        y="45%" 
        width="24%" 
        height="24%" 
        fill="#a7f3d0"
        opacity="0.82"
        transform="rotate(283, 108%, 57%)"
      />
    
      <rect 
        x="45%" 
        y="94%" 
        width="13%" 
        height="13%" 
        fill="#34d399"
        opacity="0.71"
        transform="rotate(272, 51.5%, 100.5%)"
      />
    
      <rect 
        x="94%" 
        y="43%" 
        width="42%" 
        height="42%" 
        fill="#6ee7b7"
        opacity="0.6"
        transform="rotate(261, 115%, 64%)"
      />
    
      
    <g transform="translate(150, 100) scale(0.8)">
      <!-- Голова -->
      <ellipse cx="50" cy="50" rx="45" ry="45" fill="#a7f3d0" />
      
      <!-- Глаза -->
      <circle cx="30" cy="40" r="10" fill="white" />
      <circle cx="70" cy="40" r="10" fill="white" />
      <circle cx="30" cy="40" r="5" fill="black" />
      <circle cx="70" cy="40" r="5" fill="black" />
      
      <!-- Нос -->
      <ellipse cx="50" cy="55" rx="10" ry="5" fill="#333" />
      
      <!-- Рот -->
      <path d="M 30 70 Q 50 80 70 70" stroke="black" stroke-width="3" fill="none" />
    </g>
  
      
    <text 
      x="50%" 
      y="85%" 
      font-family="Arial, sans-serif" 
      font-size="14" 
      font-weight="bold"
      text-anchor="middle"
      fill="white"
    >
      BAYC #20159 - UNCOMMON
    </text>
  
    </svg>
  