
    <svg xmlns="http://www.w3.org/2000/svg" viewBox="0 0 400 400" width="400" height="400">
      <defs>
        
    <linearGradient id="gradient-20254" x1="0%" y1="0%" x2="100%" y2="100%">
      <stop offset="0%" stop-color="#8a8c90" stop-opacity="0.8" />
      <stop offset="50%" stop-color="#d2d5db" stop-opacity="0.5" />
      <stop offset="100%" stop-color="#e5e7eb" stop-opacity="0.8" />
    </linearGradient>
  
      </defs>
      <rect width="100%" height="100%" fill="url(#gradient-20254)" />
      
      <rect 
        x="94%" 
        y="88%" 
        width="32%" 
        height="32%" 
        fill="#d2d5db"
        opacity="0.9"
        transform="rotate(176, 110%, 104%)"
      />
    
      <rect 
        x="88%" 
        y="82%" 
        width="26%" 
        height="26%" 
        fill="#e5e7eb"
        opacity="0.74"
        transform="rotate(130, 101%, 95%)"
      />
    
      <rect 
        x="82%" 
        y="76%" 
        width="20%" 
        height="20%" 
        fill="#8a8c90"
        opacity="0.58"
        transform="rotate(84, 92%, 86%)"
      />
    
      <rect 
        x="76%" 
        y="70%" 
        width="14%" 
        height="14%" 
        fill="#d2d5db"
        opacity="0.42"
        transform="rotate(38, 83%, 77%)"
      />
    
      <rect 
        x="70%" 
        y="64%" 
        width="48%" 
        height="48%" 
        fill="#e5e7eb"
        opacity="0.96"
        transform="rotate(352, 94%, 88%)"
      />
    
      <rect 
        x="64%" 
        y="58%" 
        width="42%" 
        height="42%" 
        fill="#8a8c90"
        opacity="0.8"
        transform="rotate(306, 85%, 79%)"
      />
    
      
    <g transform="translate(150, 100) scale(0.8)">
      <!-- Голова -->
      <ellipse cx="50" cy="50" rx="45" ry="45" fill="#d2d5db" />
      
      <!-- Глаза -->
      <circle cx="30" cy="40" r="10" fill="white" />
      <circle cx="70" cy="40" r="10" fill="white" />
      <circle cx="30" cy="40" r="5" fill="black" />
      <circle cx="70" cy="40" r="5" fill="black" />
      
      <!-- Нос -->
      <ellipse cx="50" cy="55" rx="10" ry="5" fill="#333" />
      
      <!-- Рот -->
      <path d="M 30 70 Q 50 80 70 70" stroke="black" stroke-width="3" fill="none" />
    </g>
  
      
    <text 
      x="50%" 
      y="85%" 
      font-family="Arial, sans-serif" 
      font-size="14" 
      font-weight="bold"
      text-anchor="middle"
      fill="white"
    >
      BAYC #20254 - COMMON
    </text>
  
    </svg>
  