
    <svg xmlns="http://www.w3.org/2000/svg" viewBox="0 0 400 400" width="400" height="400">
      <defs>
        
    <linearGradient id="gradient-20111" x1="0%" y1="0%" x2="100%" y2="100%">
      <stop offset="0%" stop-color="#60a5fa" stop-opacity="0.8" />
      <stop offset="50%" stop-color="#93c5fd" stop-opacity="0.5" />
      <stop offset="100%" stop-color="#bfdbfe" stop-opacity="0.8" />
    </linearGradient>
  
      </defs>
      <rect width="100%" height="100%" fill="url(#gradient-20111)" />
      
      <rect 
        x="21%" 
        y="42%" 
        width="33%" 
        height="33%" 
        fill="#bfdbfe"
        opacity="0.65"
        transform="rotate(4, 37.5%, 58.5%)"
      />
    
      <rect 
        x="42%" 
        y="63%" 
        width="14%" 
        height="14%" 
        fill="#60a5fa"
        opacity="0.86"
        transform="rotate(185, 49%, 70%)"
      />
    
      <rect 
        x="63%" 
        y="84%" 
        width="35%" 
        height="35%" 
        fill="#93c5fd"
        opacity="0.37"
        transform="rotate(6, 80.5%, 101.5%)"
      />
    
      <rect 
        x="84%" 
        y="5%" 
        width="16%" 
        height="16%" 
        fill="#bfdbfe"
        opacity="0.58"
        transform="rotate(187, 92%, 13%)"
      />
    
      <rect 
        x="5%" 
        y="26%" 
        width="37%" 
        height="37%" 
        fill="#60a5fa"
        opacity="0.79"
        transform="rotate(8, 23.5%, 44.5%)"
      />
    
      <rect 
        x="26%" 
        y="47%" 
        width="18%" 
        height="18%" 
        fill="#93c5fd"
        opacity="0.3"
        transform="rotate(189, 35%, 56%)"
      />
    
      
    <g transform="translate(150, 100) scale(0.8)">
      <!-- Голова -->
      <ellipse cx="50" cy="50" rx="45" ry="45" fill="#bfdbfe" />
      
      <!-- Глаза -->
      <circle cx="30" cy="40" r="10" fill="white" />
      <circle cx="70" cy="40" r="10" fill="white" />
      <circle cx="30" cy="40" r="5" fill="black" />
      <circle cx="70" cy="40" r="5" fill="black" />
      
      <!-- Нос -->
      <ellipse cx="50" cy="55" rx="10" ry="5" fill="#333" />
      
      <!-- Рот -->
      <path d="M 30 70 Q 50 80 70 70" stroke="black" stroke-width="3" fill="none" />
    </g>
  
      
    <text 
      x="50%" 
      y="85%" 
      font-family="Arial, sans-serif" 
      font-size="14" 
      font-weight="bold"
      text-anchor="middle"
      fill="white"
    >
      BAYC #20111 - RARE
    </text>
  
    </svg>
  