
    <svg xmlns="http://www.w3.org/2000/svg" viewBox="0 0 400 400" width="400" height="400">
      <defs>
        
    <linearGradient id="gradient-20046" x1="0%" y1="0%" x2="100%" y2="100%">
      <stop offset="0%" stop-color="#34d399" stop-opacity="0.8" />
      <stop offset="50%" stop-color="#6ee7b7" stop-opacity="0.5" />
      <stop offset="100%" stop-color="#a7f3d0" stop-opacity="0.8" />
    </linearGradient>
  
      </defs>
      <rect width="100%" height="100%" fill="url(#gradient-20046)" />
      
      <rect 
        x="6%" 
        y="12%" 
        width="48%" 
        height="48%" 
        fill="#34d399"
        opacity="0.6"
        transform="rotate(24, 30%, 36%)"
      />
    
      <rect 
        x="12%" 
        y="18%" 
        width="34%" 
        height="34%" 
        fill="#6ee7b7"
        opacity="0.66"
        transform="rotate(210, 29%, 35%)"
      />
    
      <rect 
        x="18%" 
        y="24%" 
        width="20%" 
        height="20%" 
        fill="#a7f3d0"
        opacity="0.72"
        transform="rotate(36, 28%, 34%)"
      />
    
      <rect 
        x="24%" 
        y="30%" 
        width="46%" 
        height="46%" 
        fill="#34d399"
        opacity="0.78"
        transform="rotate(222, 47%, 53%)"
      />
    
      <rect 
        x="30%" 
        y="36%" 
        width="32%" 
        height="32%" 
        fill="#6ee7b7"
        opacity="0.84"
        transform="rotate(48, 46%, 52%)"
      />
    
      <rect 
        x="36%" 
        y="42%" 
        width="18%" 
        height="18%" 
        fill="#a7f3d0"
        opacity="0.9"
        transform="rotate(234, 45%, 51%)"
      />
    
      
    <g transform="translate(150, 100) scale(0.8)">
      <!-- Голова -->
      <ellipse cx="50" cy="50" rx="45" ry="45" fill="#34d399" />
      
      <!-- Глаза -->
      <circle cx="30" cy="40" r="10" fill="white" />
      <circle cx="70" cy="40" r="10" fill="white" />
      <circle cx="30" cy="40" r="5" fill="black" />
      <circle cx="70" cy="40" r="5" fill="black" />
      
      <!-- Нос -->
      <ellipse cx="50" cy="55" rx="10" ry="5" fill="#333" />
      
      <!-- Рот -->
      <path d="M 30 70 Q 50 80 70 70" stroke="black" stroke-width="3" fill="none" />
    </g>
  
      
    <text 
      x="50%" 
      y="85%" 
      font-family="Arial, sans-serif" 
      font-size="14" 
      font-weight="bold"
      text-anchor="middle"
      fill="white"
    >
      BAYC #20046 - UNCOMMON
    </text>
  
    </svg>
  