
    <svg xmlns="http://www.w3.org/2000/svg" viewBox="0 0 400 400" width="400" height="400">
      <defs>
        
    <linearGradient id="gradient-20172" x1="0%" y1="0%" x2="100%" y2="100%">
      <stop offset="0%" stop-color="#60a5fa" stop-opacity="0.8" />
      <stop offset="50%" stop-color="#93c5fd" stop-opacity="0.5" />
      <stop offset="100%" stop-color="#bfdbfe" stop-opacity="0.8" />
    </linearGradient>
  
      </defs>
      <rect width="100%" height="100%" fill="url(#gradient-20172)" />
      
      <rect 
        x="92%" 
        y="84%" 
        width="46%" 
        height="46%" 
        fill="#60a5fa"
        opacity="0.6"
        transform="rotate(168, 115%, 107%)"
      />
    
      <rect 
        x="84%" 
        y="76%" 
        width="18%" 
        height="18%" 
        fill="#93c5fd"
        opacity="0.52"
        transform="rotate(300, 93%, 85%)"
      />
    
      <rect 
        x="76%" 
        y="68%" 
        width="30%" 
        height="30%" 
        fill="#bfdbfe"
        opacity="0.44"
        transform="rotate(72, 91%, 83%)"
      />
    
      <rect 
        x="68%" 
        y="60%" 
        width="42%" 
        height="42%" 
        fill="#60a5fa"
        opacity="0.36"
        transform="rotate(204, 89%, 81%)"
      />
    
      <rect 
        x="60%" 
        y="52%" 
        width="14%" 
        height="14%" 
        fill="#93c5fd"
        opacity="0.98"
        transform="rotate(336, 67%, 59%)"
      />
    
      <rect 
        x="52%" 
        y="44%" 
        width="26%" 
        height="26%" 
        fill="#bfdbfe"
        opacity="0.9"
        transform="rotate(108, 65%, 57%)"
      />
    
      
    <g transform="translate(150, 100) scale(0.8)">
      <!-- Голова -->
      <ellipse cx="50" cy="50" rx="45" ry="45" fill="#60a5fa" />
      
      <!-- Глаза -->
      <circle cx="30" cy="40" r="10" fill="white" />
      <circle cx="70" cy="40" r="10" fill="white" />
      <circle cx="30" cy="40" r="5" fill="black" />
      <circle cx="70" cy="40" r="5" fill="black" />
      
      <!-- Нос -->
      <ellipse cx="50" cy="55" rx="10" ry="5" fill="#333" />
      
      <!-- Рот -->
      <path d="M 30 70 Q 50 80 70 70" stroke="black" stroke-width="3" fill="none" />
    </g>
  
      
    <text 
      x="50%" 
      y="85%" 
      font-family="Arial, sans-serif" 
      font-size="14" 
      font-weight="bold"
      text-anchor="middle"
      fill="white"
    >
      BAYC #20172 - RARE
    </text>
  
    </svg>
  