
    <svg xmlns="http://www.w3.org/2000/svg" viewBox="0 0 400 400" width="400" height="400">
      <defs>
        
    <linearGradient id="gradient-20139" x1="0%" y1="0%" x2="100%" y2="100%">
      <stop offset="0%" stop-color="#8a8c90" stop-opacity="0.8" />
      <stop offset="50%" stop-color="#d2d5db" stop-opacity="0.5" />
      <stop offset="100%" stop-color="#e5e7eb" stop-opacity="0.8" />
    </linearGradient>
  
      </defs>
      <rect width="100%" height="100%" fill="url(#gradient-20139)" />
      
      <rect 
        x="29%" 
        y="58%" 
        width="37%" 
        height="37%" 
        fill="#8a8c90"
        opacity="0.65"
        transform="rotate(156, 47.5%, 76.5%)"
      />
    
      <rect 
        x="58%" 
        y="87%" 
        width="46%" 
        height="46%" 
        fill="#d2d5db"
        opacity="0.44"
        transform="rotate(285, 81%, 110%)"
      />
    
      <rect 
        x="87%" 
        y="16%" 
        width="15%" 
        height="15%" 
        fill="#e5e7eb"
        opacity="0.93"
        transform="rotate(54, 94.5%, 23.5%)"
      />
    
      <rect 
        x="16%" 
        y="45%" 
        width="24%" 
        height="24%" 
        fill="#8a8c90"
        opacity="0.72"
        transform="rotate(183, 28%, 57%)"
      />
    
      <rect 
        x="45%" 
        y="74%" 
        width="33%" 
        height="33%" 
        fill="#d2d5db"
        opacity="0.51"
        transform="rotate(312, 61.5%, 90.5%)"
      />
    
      <rect 
        x="74%" 
        y="3%" 
        width="42%" 
        height="42%" 
        fill="#e5e7eb"
        opacity="0.3"
        transform="rotate(81, 95%, 24%)"
      />
    
      
    <g transform="translate(150, 100) scale(0.8)">
      <!-- Голова -->
      <ellipse cx="50" cy="50" rx="45" ry="45" fill="#8a8c90" />
      
      <!-- Глаза -->
      <circle cx="30" cy="40" r="10" fill="white" />
      <circle cx="70" cy="40" r="10" fill="white" />
      <circle cx="30" cy="40" r="5" fill="black" />
      <circle cx="70" cy="40" r="5" fill="black" />
      
      <!-- Нос -->
      <ellipse cx="50" cy="55" rx="10" ry="5" fill="#333" />
      
      <!-- Рот -->
      <path d="M 30 70 Q 50 80 70 70" stroke="black" stroke-width="3" fill="none" />
    </g>
  
      
    <text 
      x="50%" 
      y="85%" 
      font-family="Arial, sans-serif" 
      font-size="14" 
      font-weight="bold"
      text-anchor="middle"
      fill="white"
    >
      BAYC #20139 - COMMON
    </text>
  
    </svg>
  