
    <svg xmlns="http://www.w3.org/2000/svg" viewBox="0 0 400 400" width="400" height="400">
      <defs>
        
    <linearGradient id="gradient-20188" x1="0%" y1="0%" x2="100%" y2="100%">
      <stop offset="0%" stop-color="#8a8c90" stop-opacity="0.8" />
      <stop offset="50%" stop-color="#d2d5db" stop-opacity="0.5" />
      <stop offset="100%" stop-color="#e5e7eb" stop-opacity="0.8" />
    </linearGradient>
  
      </defs>
      <rect width="100%" height="100%" fill="url(#gradient-20188)" />
      
      <rect 
        x="68%" 
        y="36%" 
        width="14%" 
        height="14%" 
        fill="#d2d5db"
        opacity="0.3"
        transform="rotate(152, 75%, 43%)"
      />
    
      <rect 
        x="36%" 
        y="4%" 
        width="42%" 
        height="42%" 
        fill="#e5e7eb"
        opacity="0.58"
        transform="rotate(100, 57%, 25%)"
      />
    
      <rect 
        x="4%" 
        y="72%" 
        width="30%" 
        height="30%" 
        fill="#8a8c90"
        opacity="0.86"
        transform="rotate(48, 19%, 87%)"
      />
    
      <rect 
        x="72%" 
        y="40%" 
        width="18%" 
        height="18%" 
        fill="#d2d5db"
        opacity="0.44"
        transform="rotate(356, 81%, 49%)"
      />
    
      <rect 
        x="40%" 
        y="8%" 
        width="46%" 
        height="46%" 
        fill="#e5e7eb"
        opacity="0.72"
        transform="rotate(304, 63%, 31%)"
      />
    
      <rect 
        x="8%" 
        y="76%" 
        width="34%" 
        height="34%" 
        fill="#8a8c90"
        opacity="0.3"
        transform="rotate(252, 25%, 93%)"
      />
    
      
    <g transform="translate(150, 100) scale(0.8)">
      <!-- Голова -->
      <ellipse cx="50" cy="50" rx="45" ry="45" fill="#d2d5db" />
      
      <!-- Глаза -->
      <circle cx="30" cy="40" r="10" fill="white" />
      <circle cx="70" cy="40" r="10" fill="white" />
      <circle cx="30" cy="40" r="5" fill="black" />
      <circle cx="70" cy="40" r="5" fill="black" />
      
      <!-- Нос -->
      <ellipse cx="50" cy="55" rx="10" ry="5" fill="#333" />
      
      <!-- Рот -->
      <path d="M 30 70 Q 50 80 70 70" stroke="black" stroke-width="3" fill="none" />
    </g>
  
      
    <text 
      x="50%" 
      y="85%" 
      font-family="Arial, sans-serif" 
      font-size="14" 
      font-weight="bold"
      text-anchor="middle"
      fill="white"
    >
      BAYC #20188 - COMMON
    </text>
  
    </svg>
  