
    <svg xmlns="http://www.w3.org/2000/svg" viewBox="0 0 400 400" width="400" height="400">
      <defs>
        
    <linearGradient id="gradient-20126" x1="0%" y1="0%" x2="100%" y2="100%">
      <stop offset="0%" stop-color="#8a8c90" stop-opacity="0.8" />
      <stop offset="50%" stop-color="#d2d5db" stop-opacity="0.5" />
      <stop offset="100%" stop-color="#e5e7eb" stop-opacity="0.8" />
    </linearGradient>
  
      </defs>
      <rect width="100%" height="100%" fill="url(#gradient-20126)" />
      
      <rect 
        x="86%" 
        y="72%" 
        width="48%" 
        height="48%" 
        fill="#e5e7eb"
        opacity="0.5"
        transform="rotate(304, 110%, 96%)"
      />
    
      <rect 
        x="72%" 
        y="58%" 
        width="34%" 
        height="34%" 
        fill="#8a8c90"
        opacity="0.96"
        transform="rotate(290, 89%, 75%)"
      />
    
      <rect 
        x="58%" 
        y="44%" 
        width="20%" 
        height="20%" 
        fill="#d2d5db"
        opacity="0.72"
        transform="rotate(276, 68%, 54%)"
      />
    
      <rect 
        x="44%" 
        y="30%" 
        width="46%" 
        height="46%" 
        fill="#e5e7eb"
        opacity="0.48"
        transform="rotate(262, 67%, 53%)"
      />
    
      <rect 
        x="30%" 
        y="16%" 
        width="32%" 
        height="32%" 
        fill="#8a8c90"
        opacity="0.94"
        transform="rotate(248, 46%, 32%)"
      />
    
      <rect 
        x="16%" 
        y="2%" 
        width="18%" 
        height="18%" 
        fill="#d2d5db"
        opacity="0.7"
        transform="rotate(234, 25%, 11%)"
      />
    
      
    <g transform="translate(150, 100) scale(0.8)">
      <!-- Голова -->
      <ellipse cx="50" cy="50" rx="45" ry="45" fill="#e5e7eb" />
      
      <!-- Глаза -->
      <circle cx="30" cy="40" r="10" fill="white" />
      <circle cx="70" cy="40" r="10" fill="white" />
      <circle cx="30" cy="40" r="5" fill="black" />
      <circle cx="70" cy="40" r="5" fill="black" />
      
      <!-- Нос -->
      <ellipse cx="50" cy="55" rx="10" ry="5" fill="#333" />
      
      <!-- Рот -->
      <path d="M 30 70 Q 50 80 70 70" stroke="black" stroke-width="3" fill="none" />
    </g>
  
      
    <text 
      x="50%" 
      y="85%" 
      font-family="Arial, sans-serif" 
      font-size="14" 
      font-weight="bold"
      text-anchor="middle"
      fill="white"
    >
      BAYC #20126 - COMMON
    </text>
  
    </svg>
  