
    <svg xmlns="http://www.w3.org/2000/svg" viewBox="0 0 400 400" width="400" height="400">
      <defs>
        
    <linearGradient id="gradient-20171" x1="0%" y1="0%" x2="100%" y2="100%">
      <stop offset="0%" stop-color="#60a5fa" stop-opacity="0.8" />
      <stop offset="50%" stop-color="#93c5fd" stop-opacity="0.5" />
      <stop offset="100%" stop-color="#bfdbfe" stop-opacity="0.8" />
    </linearGradient>
  
      </defs>
      <rect width="100%" height="100%" fill="url(#gradient-20171)" />
      
      <rect 
        x="81%" 
        y="62%" 
        width="13%" 
        height="13%" 
        fill="#bfdbfe"
        opacity="0.75"
        transform="rotate(124, 87.5%, 68.5%)"
      />
    
      <rect 
        x="62%" 
        y="43%" 
        width="14%" 
        height="14%" 
        fill="#60a5fa"
        opacity="0.56"
        transform="rotate(245, 69%, 50%)"
      />
    
      <rect 
        x="43%" 
        y="24%" 
        width="15%" 
        height="15%" 
        fill="#93c5fd"
        opacity="0.37"
        transform="rotate(6, 50.5%, 31.5%)"
      />
    
      <rect 
        x="24%" 
        y="5%" 
        width="16%" 
        height="16%" 
        fill="#bfdbfe"
        opacity="0.88"
        transform="rotate(127, 32%, 13%)"
      />
    
      <rect 
        x="5%" 
        y="86%" 
        width="17%" 
        height="17%" 
        fill="#60a5fa"
        opacity="0.69"
        transform="rotate(248, 13.5%, 94.5%)"
      />
    
      <rect 
        x="86%" 
        y="67%" 
        width="18%" 
        height="18%" 
        fill="#93c5fd"
        opacity="0.5"
        transform="rotate(9, 95%, 76%)"
      />
    
      
    <g transform="translate(150, 100) scale(0.8)">
      <!-- Голова -->
      <ellipse cx="50" cy="50" rx="45" ry="45" fill="#bfdbfe" />
      
      <!-- Глаза -->
      <circle cx="30" cy="40" r="10" fill="white" />
      <circle cx="70" cy="40" r="10" fill="white" />
      <circle cx="30" cy="40" r="5" fill="black" />
      <circle cx="70" cy="40" r="5" fill="black" />
      
      <!-- Нос -->
      <ellipse cx="50" cy="55" rx="10" ry="5" fill="#333" />
      
      <!-- Рот -->
      <path d="M 30 70 Q 50 80 70 70" stroke="black" stroke-width="3" fill="none" />
    </g>
  
      
    <text 
      x="50%" 
      y="85%" 
      font-family="Arial, sans-serif" 
      font-size="14" 
      font-weight="bold"
      text-anchor="middle"
      fill="white"
    >
      BAYC #20171 - RARE
    </text>
  
    </svg>
  