
    <svg xmlns="http://www.w3.org/2000/svg" viewBox="0 0 400 400" width="400" height="400">
      <defs>
        
    <linearGradient id="gradient-20105" x1="0%" y1="0%" x2="100%" y2="100%">
      <stop offset="0%" stop-color="#34d399" stop-opacity="0.8" />
      <stop offset="50%" stop-color="#6ee7b7" stop-opacity="0.5" />
      <stop offset="100%" stop-color="#a7f3d0" stop-opacity="0.8" />
    </linearGradient>
  
      </defs>
      <rect width="100%" height="100%" fill="url(#gradient-20105)" />
      
      <rect 
        x="55%" 
        y="10%" 
        width="35%" 
        height="35%" 
        fill="#a7f3d0"
        opacity="0.85"
        transform="rotate(100, 72.5%, 27.5%)"
      />
    
      <rect 
        x="10%" 
        y="65%" 
        width="30%" 
        height="30%" 
        fill="#34d399"
        opacity="0.4"
        transform="rotate(215, 25%, 80%)"
      />
    
      <rect 
        x="65%" 
        y="20%" 
        width="25%" 
        height="25%" 
        fill="#6ee7b7"
        opacity="0.65"
        transform="rotate(330, 77.5%, 32.5%)"
      />
    
      <rect 
        x="20%" 
        y="75%" 
        width="20%" 
        height="20%" 
        fill="#a7f3d0"
        opacity="0.9"
        transform="rotate(85, 30%, 85%)"
      />
    
      <rect 
        x="75%" 
        y="30%" 
        width="15%" 
        height="15%" 
        fill="#34d399"
        opacity="0.45"
        transform="rotate(200, 82.5%, 37.5%)"
      />
    
      <rect 
        x="30%" 
        y="85%" 
        width="10%" 
        height="10%" 
        fill="#6ee7b7"
        opacity="0.7"
        transform="rotate(315, 35%, 90%)"
      />
    
      
    <g transform="translate(150, 100) scale(0.8)">
      <!-- Голова -->
      <ellipse cx="50" cy="50" rx="45" ry="45" fill="#a7f3d0" />
      
      <!-- Глаза -->
      <circle cx="30" cy="40" r="10" fill="white" />
      <circle cx="70" cy="40" r="10" fill="white" />
      <circle cx="30" cy="40" r="5" fill="black" />
      <circle cx="70" cy="40" r="5" fill="black" />
      
      <!-- Нос -->
      <ellipse cx="50" cy="55" rx="10" ry="5" fill="#333" />
      
      <!-- Рот -->
      <path d="M 30 70 Q 50 80 70 70" stroke="black" stroke-width="3" fill="none" />
    </g>
  
      
    <text 
      x="50%" 
      y="85%" 
      font-family="Arial, sans-serif" 
      font-size="14" 
      font-weight="bold"
      text-anchor="middle"
      fill="white"
    >
      BAYC #20105 - UNCOMMON
    </text>
  
    </svg>
  