
    <svg xmlns="http://www.w3.org/2000/svg" viewBox="0 0 400 400" width="400" height="400">
      <defs>
        
    <linearGradient id="gradient-20223" x1="0%" y1="0%" x2="100%" y2="100%">
      <stop offset="0%" stop-color="#34d399" stop-opacity="0.8" />
      <stop offset="50%" stop-color="#6ee7b7" stop-opacity="0.5" />
      <stop offset="100%" stop-color="#a7f3d0" stop-opacity="0.8" />
    </linearGradient>
  
      </defs>
      <rect width="100%" height="100%" fill="url(#gradient-20223)" />
      
      <rect 
        x="53%" 
        y="6%" 
        width="49%" 
        height="49%" 
        fill="#34d399"
        opacity="0.65"
        transform="rotate(252, 77.5%, 30.5%)"
      />
    
      <rect 
        x="6%" 
        y="59%" 
        width="22%" 
        height="22%" 
        fill="#6ee7b7"
        opacity="0.58"
        transform="rotate(225, 17%, 70%)"
      />
    
      <rect 
        x="59%" 
        y="12%" 
        width="35%" 
        height="35%" 
        fill="#a7f3d0"
        opacity="0.51"
        transform="rotate(198, 76.5%, 29.5%)"
      />
    
      <rect 
        x="12%" 
        y="65%" 
        width="48%" 
        height="48%" 
        fill="#34d399"
        opacity="0.44"
        transform="rotate(171, 36%, 89%)"
      />
    
      <rect 
        x="65%" 
        y="18%" 
        width="21%" 
        height="21%" 
        fill="#6ee7b7"
        opacity="0.37"
        transform="rotate(144, 75.5%, 28.5%)"
      />
    
      <rect 
        x="18%" 
        y="71%" 
        width="34%" 
        height="34%" 
        fill="#a7f3d0"
        opacity="0.3"
        transform="rotate(117, 35%, 88%)"
      />
    
      
    <g transform="translate(150, 100) scale(0.8)">
      <!-- Голова -->
      <ellipse cx="50" cy="50" rx="45" ry="45" fill="#34d399" />
      
      <!-- Глаза -->
      <circle cx="30" cy="40" r="10" fill="white" />
      <circle cx="70" cy="40" r="10" fill="white" />
      <circle cx="30" cy="40" r="5" fill="black" />
      <circle cx="70" cy="40" r="5" fill="black" />
      
      <!-- Нос -->
      <ellipse cx="50" cy="55" rx="10" ry="5" fill="#333" />
      
      <!-- Рот -->
      <path d="M 30 70 Q 50 80 70 70" stroke="black" stroke-width="3" fill="none" />
    </g>
  
      
    <text 
      x="50%" 
      y="85%" 
      font-family="Arial, sans-serif" 
      font-size="14" 
      font-weight="bold"
      text-anchor="middle"
      fill="white"
    >
      BAYC #20223 - UNCOMMON
    </text>
  
    </svg>
  