
    <svg xmlns="http://www.w3.org/2000/svg" viewBox="0 0 400 400" width="400" height="400">
      <defs>
        
    <linearGradient id="gradient-20383" x1="0%" y1="0%" x2="100%" y2="100%">
      <stop offset="0%" stop-color="#8a8c90" stop-opacity="0.8" />
      <stop offset="50%" stop-color="#d2d5db" stop-opacity="0.5" />
      <stop offset="100%" stop-color="#e5e7eb" stop-opacity="0.8" />
    </linearGradient>
  
      </defs>
      <rect width="100%" height="100%" fill="url(#gradient-20383)" />
      
      <rect 
        x="13%" 
        y="26%" 
        width="49%" 
        height="49%" 
        fill="#d2d5db"
        opacity="0.45"
        transform="rotate(92, 37.5%, 50.5%)"
      />
    
      <rect 
        x="26%" 
        y="39%" 
        width="22%" 
        height="22%" 
        fill="#e5e7eb"
        opacity="0.48"
        transform="rotate(25, 37%, 50%)"
      />
    
      <rect 
        x="39%" 
        y="52%" 
        width="35%" 
        height="35%" 
        fill="#8a8c90"
        opacity="0.51"
        transform="rotate(318, 56.5%, 69.5%)"
      />
    
      <rect 
        x="52%" 
        y="65%" 
        width="48%" 
        height="48%" 
        fill="#d2d5db"
        opacity="0.54"
        transform="rotate(251, 76%, 89%)"
      />
    
      <rect 
        x="65%" 
        y="78%" 
        width="21%" 
        height="21%" 
        fill="#e5e7eb"
        opacity="0.57"
        transform="rotate(184, 75.5%, 88.5%)"
      />
    
      <rect 
        x="78%" 
        y="91%" 
        width="34%" 
        height="34%" 
        fill="#8a8c90"
        opacity="0.6"
        transform="rotate(117, 95%, 108%)"
      />
    
      
    <g transform="translate(150, 100) scale(0.8)">
      <!-- Голова -->
      <ellipse cx="50" cy="50" rx="45" ry="45" fill="#d2d5db" />
      
      <!-- Глаза -->
      <circle cx="30" cy="40" r="10" fill="white" />
      <circle cx="70" cy="40" r="10" fill="white" />
      <circle cx="30" cy="40" r="5" fill="black" />
      <circle cx="70" cy="40" r="5" fill="black" />
      
      <!-- Нос -->
      <ellipse cx="50" cy="55" rx="10" ry="5" fill="#333" />
      
      <!-- Рот -->
      <path d="M 30 70 Q 50 80 70 70" stroke="black" stroke-width="3" fill="none" />
    </g>
  
      
    <text 
      x="50%" 
      y="85%" 
      font-family="Arial, sans-serif" 
      font-size="14" 
      font-weight="bold"
      text-anchor="middle"
      fill="white"
    >
      BAYC #20383 - COMMON
    </text>
  
    </svg>
  