
    <svg xmlns="http://www.w3.org/2000/svg" viewBox="0 0 400 400" width="400" height="400">
      <defs>
        
    <linearGradient id="gradient-20323" x1="0%" y1="0%" x2="100%" y2="100%">
      <stop offset="0%" stop-color="#8a8c90" stop-opacity="0.8" />
      <stop offset="50%" stop-color="#d2d5db" stop-opacity="0.5" />
      <stop offset="100%" stop-color="#e5e7eb" stop-opacity="0.8" />
    </linearGradient>
  
      </defs>
      <rect width="100%" height="100%" fill="url(#gradient-20323)" />
      
      <rect 
        x="53%" 
        y="6%" 
        width="29%" 
        height="29%" 
        fill="#d2d5db"
        opacity="0.35"
        transform="rotate(332, 67.5%, 20.5%)"
      />
    
      <rect 
        x="6%" 
        y="59%" 
        width="22%" 
        height="22%" 
        fill="#e5e7eb"
        opacity="0.78"
        transform="rotate(325, 17%, 70%)"
      />
    
      <rect 
        x="59%" 
        y="12%" 
        width="15%" 
        height="15%" 
        fill="#8a8c90"
        opacity="0.51"
        transform="rotate(318, 66.5%, 19.5%)"
      />
    
      <rect 
        x="12%" 
        y="65%" 
        width="48%" 
        height="48%" 
        fill="#d2d5db"
        opacity="0.94"
        transform="rotate(311, 36%, 89%)"
      />
    
      <rect 
        x="65%" 
        y="18%" 
        width="41%" 
        height="41%" 
        fill="#e5e7eb"
        opacity="0.67"
        transform="rotate(304, 85.5%, 38.5%)"
      />
    
      <rect 
        x="18%" 
        y="71%" 
        width="34%" 
        height="34%" 
        fill="#8a8c90"
        opacity="0.4"
        transform="rotate(297, 35%, 88%)"
      />
    
      
    <g transform="translate(150, 100) scale(0.8)">
      <!-- Голова -->
      <ellipse cx="50" cy="50" rx="45" ry="45" fill="#d2d5db" />
      
      <!-- Глаза -->
      <circle cx="30" cy="40" r="10" fill="white" />
      <circle cx="70" cy="40" r="10" fill="white" />
      <circle cx="30" cy="40" r="5" fill="black" />
      <circle cx="70" cy="40" r="5" fill="black" />
      
      <!-- Нос -->
      <ellipse cx="50" cy="55" rx="10" ry="5" fill="#333" />
      
      <!-- Рот -->
      <path d="M 30 70 Q 50 80 70 70" stroke="black" stroke-width="3" fill="none" />
    </g>
  
      
    <text 
      x="50%" 
      y="85%" 
      font-family="Arial, sans-serif" 
      font-size="14" 
      font-weight="bold"
      text-anchor="middle"
      fill="white"
    >
      BAYC #20323 - COMMON
    </text>
  
    </svg>
  