
    <svg xmlns="http://www.w3.org/2000/svg" viewBox="0 0 400 400" width="400" height="400">
      <defs>
        
    <linearGradient id="gradient-20396" x1="0%" y1="0%" x2="100%" y2="100%">
      <stop offset="0%" stop-color="#34d399" stop-opacity="0.8" />
      <stop offset="50%" stop-color="#6ee7b7" stop-opacity="0.5" />
      <stop offset="100%" stop-color="#a7f3d0" stop-opacity="0.8" />
    </linearGradient>
  
      </defs>
      <rect width="100%" height="100%" fill="url(#gradient-20396)" />
      
      <rect 
        x="56%" 
        y="12%" 
        width="38%" 
        height="38%" 
        fill="#a7f3d0"
        opacity="0.6"
        transform="rotate(304, 75%, 31%)"
      />
    
      <rect 
        x="12%" 
        y="68%" 
        width="34%" 
        height="34%" 
        fill="#34d399"
        opacity="0.66"
        transform="rotate(20, 29%, 85%)"
      />
    
      <rect 
        x="68%" 
        y="24%" 
        width="30%" 
        height="30%" 
        fill="#6ee7b7"
        opacity="0.72"
        transform="rotate(96, 83%, 39%)"
      />
    
      <rect 
        x="24%" 
        y="80%" 
        width="26%" 
        height="26%" 
        fill="#a7f3d0"
        opacity="0.78"
        transform="rotate(172, 37%, 93%)"
      />
    
      <rect 
        x="80%" 
        y="36%" 
        width="22%" 
        height="22%" 
        fill="#34d399"
        opacity="0.84"
        transform="rotate(248, 91%, 47%)"
      />
    
      <rect 
        x="36%" 
        y="92%" 
        width="18%" 
        height="18%" 
        fill="#6ee7b7"
        opacity="0.9"
        transform="rotate(324, 45%, 101%)"
      />
    
      
    <g transform="translate(150, 100) scale(0.8)">
      <!-- Голова -->
      <ellipse cx="50" cy="50" rx="45" ry="45" fill="#a7f3d0" />
      
      <!-- Глаза -->
      <circle cx="30" cy="40" r="10" fill="white" />
      <circle cx="70" cy="40" r="10" fill="white" />
      <circle cx="30" cy="40" r="5" fill="black" />
      <circle cx="70" cy="40" r="5" fill="black" />
      
      <!-- Нос -->
      <ellipse cx="50" cy="55" rx="10" ry="5" fill="#333" />
      
      <!-- Рот -->
      <path d="M 30 70 Q 50 80 70 70" stroke="black" stroke-width="3" fill="none" />
    </g>
  
      
    <text 
      x="50%" 
      y="85%" 
      font-family="Arial, sans-serif" 
      font-size="14" 
      font-weight="bold"
      text-anchor="middle"
      fill="white"
    >
      BAYC #20396 - UNCOMMON
    </text>
  
    </svg>
  