
    <svg xmlns="http://www.w3.org/2000/svg" viewBox="0 0 400 400" width="400" height="400">
      <defs>
        
    <linearGradient id="gradient-20376" x1="0%" y1="0%" x2="100%" y2="100%">
      <stop offset="0%" stop-color="#8a8c90" stop-opacity="0.8" />
      <stop offset="50%" stop-color="#d2d5db" stop-opacity="0.5" />
      <stop offset="100%" stop-color="#e5e7eb" stop-opacity="0.8" />
    </linearGradient>
  
      </defs>
      <rect width="100%" height="100%" fill="url(#gradient-20376)" />
      
      <rect 
        x="36%" 
        y="72%" 
        width="18%" 
        height="18%" 
        fill="#8a8c90"
        opacity="0.8"
        transform="rotate(144, 45%, 81%)"
      />
    
      <rect 
        x="72%" 
        y="8%" 
        width="34%" 
        height="34%" 
        fill="#d2d5db"
        opacity="0.76"
        transform="rotate(0, 89%, 25%)"
      />
    
      <rect 
        x="8%" 
        y="44%" 
        width="10%" 
        height="10%" 
        fill="#e5e7eb"
        opacity="0.72"
        transform="rotate(216, 13%, 49%)"
      />
    
      <rect 
        x="44%" 
        y="80%" 
        width="26%" 
        height="26%" 
        fill="#8a8c90"
        opacity="0.68"
        transform="rotate(72, 57%, 93%)"
      />
    
      <rect 
        x="80%" 
        y="16%" 
        width="42%" 
        height="42%" 
        fill="#d2d5db"
        opacity="0.64"
        transform="rotate(288, 101%, 37%)"
      />
    
      <rect 
        x="16%" 
        y="52%" 
        width="18%" 
        height="18%" 
        fill="#e5e7eb"
        opacity="0.6"
        transform="rotate(144, 25%, 61%)"
      />
    
      
    <g transform="translate(150, 100) scale(0.8)">
      <!-- Голова -->
      <ellipse cx="50" cy="50" rx="45" ry="45" fill="#8a8c90" />
      
      <!-- Глаза -->
      <circle cx="30" cy="40" r="10" fill="white" />
      <circle cx="70" cy="40" r="10" fill="white" />
      <circle cx="30" cy="40" r="5" fill="black" />
      <circle cx="70" cy="40" r="5" fill="black" />
      
      <!-- Нос -->
      <ellipse cx="50" cy="55" rx="10" ry="5" fill="#333" />
      
      <!-- Рот -->
      <path d="M 30 70 Q 50 80 70 70" stroke="black" stroke-width="3" fill="none" />
    </g>
  
      
    <text 
      x="50%" 
      y="85%" 
      font-family="Arial, sans-serif" 
      font-size="14" 
      font-weight="bold"
      text-anchor="middle"
      fill="white"
    >
      BAYC #20376 - COMMON
    </text>
  
    </svg>
  