
    <svg xmlns="http://www.w3.org/2000/svg" viewBox="0 0 400 400" width="400" height="400">
      <defs>
        
    <linearGradient id="gradient-20258" x1="0%" y1="0%" x2="100%" y2="100%">
      <stop offset="0%" stop-color="#8a8c90" stop-opacity="0.8" />
      <stop offset="50%" stop-color="#d2d5db" stop-opacity="0.5" />
      <stop offset="100%" stop-color="#e5e7eb" stop-opacity="0.8" />
    </linearGradient>
  
      </defs>
      <rect width="100%" height="100%" fill="url(#gradient-20258)" />
      
      <rect 
        x="38%" 
        y="76%" 
        width="44%" 
        height="44%" 
        fill="#e5e7eb"
        opacity="0.3"
        transform="rotate(352, 60%, 98%)"
      />
    
      <rect 
        x="76%" 
        y="14%" 
        width="42%" 
        height="42%" 
        fill="#8a8c90"
        opacity="0.58"
        transform="rotate(350, 97%, 35%)"
      />
    
      <rect 
        x="14%" 
        y="52%" 
        width="40%" 
        height="40%" 
        fill="#d2d5db"
        opacity="0.86"
        transform="rotate(348, 34%, 72%)"
      />
    
      <rect 
        x="52%" 
        y="90%" 
        width="38%" 
        height="38%" 
        fill="#e5e7eb"
        opacity="0.44"
        transform="rotate(346, 71%, 109%)"
      />
    
      <rect 
        x="90%" 
        y="28%" 
        width="36%" 
        height="36%" 
        fill="#8a8c90"
        opacity="0.72"
        transform="rotate(344, 108%, 46%)"
      />
    
      <rect 
        x="28%" 
        y="66%" 
        width="34%" 
        height="34%" 
        fill="#d2d5db"
        opacity="0.3"
        transform="rotate(342, 45%, 83%)"
      />
    
      
    <g transform="translate(150, 100) scale(0.8)">
      <!-- Голова -->
      <ellipse cx="50" cy="50" rx="45" ry="45" fill="#e5e7eb" />
      
      <!-- Глаза -->
      <circle cx="30" cy="40" r="10" fill="white" />
      <circle cx="70" cy="40" r="10" fill="white" />
      <circle cx="30" cy="40" r="5" fill="black" />
      <circle cx="70" cy="40" r="5" fill="black" />
      
      <!-- Нос -->
      <ellipse cx="50" cy="55" rx="10" ry="5" fill="#333" />
      
      <!-- Рот -->
      <path d="M 30 70 Q 50 80 70 70" stroke="black" stroke-width="3" fill="none" />
    </g>
  
      
    <text 
      x="50%" 
      y="85%" 
      font-family="Arial, sans-serif" 
      font-size="14" 
      font-weight="bold"
      text-anchor="middle"
      fill="white"
    >
      BAYC #20258 - COMMON
    </text>
  
    </svg>
  