
    <svg xmlns="http://www.w3.org/2000/svg" viewBox="0 0 400 400" width="400" height="400">
      <defs>
        
    <linearGradient id="gradient-20241" x1="0%" y1="0%" x2="100%" y2="100%">
      <stop offset="0%" stop-color="#8a8c90" stop-opacity="0.8" />
      <stop offset="50%" stop-color="#d2d5db" stop-opacity="0.5" />
      <stop offset="100%" stop-color="#e5e7eb" stop-opacity="0.8" />
    </linearGradient>
  
      </defs>
      <rect width="100%" height="100%" fill="url(#gradient-20241)" />
      
      <rect 
        x="51%" 
        y="2%" 
        width="43%" 
        height="43%" 
        fill="#8a8c90"
        opacity="0.75"
        transform="rotate(324, 72.5%, 23.5%)"
      />
    
      <rect 
        x="2%" 
        y="53%" 
        width="14%" 
        height="14%" 
        fill="#d2d5db"
        opacity="0.56"
        transform="rotate(135, 9%, 60%)"
      />
    
      <rect 
        x="53%" 
        y="4%" 
        width="25%" 
        height="25%" 
        fill="#e5e7eb"
        opacity="0.37"
        transform="rotate(306, 65.5%, 16.5%)"
      />
    
      <rect 
        x="4%" 
        y="55%" 
        width="36%" 
        height="36%" 
        fill="#8a8c90"
        opacity="0.88"
        transform="rotate(117, 22%, 73%)"
      />
    
      <rect 
        x="55%" 
        y="6%" 
        width="47%" 
        height="47%" 
        fill="#d2d5db"
        opacity="0.69"
        transform="rotate(288, 78.5%, 29.5%)"
      />
    
      <rect 
        x="6%" 
        y="57%" 
        width="18%" 
        height="18%" 
        fill="#e5e7eb"
        opacity="0.5"
        transform="rotate(99, 15%, 66%)"
      />
    
      
    <g transform="translate(150, 100) scale(0.8)">
      <!-- Голова -->
      <ellipse cx="50" cy="50" rx="45" ry="45" fill="#8a8c90" />
      
      <!-- Глаза -->
      <circle cx="30" cy="40" r="10" fill="white" />
      <circle cx="70" cy="40" r="10" fill="white" />
      <circle cx="30" cy="40" r="5" fill="black" />
      <circle cx="70" cy="40" r="5" fill="black" />
      
      <!-- Нос -->
      <ellipse cx="50" cy="55" rx="10" ry="5" fill="#333" />
      
      <!-- Рот -->
      <path d="M 30 70 Q 50 80 70 70" stroke="black" stroke-width="3" fill="none" />
    </g>
  
      
    <text 
      x="50%" 
      y="85%" 
      font-family="Arial, sans-serif" 
      font-size="14" 
      font-weight="bold"
      text-anchor="middle"
      fill="white"
    >
      BAYC #20241 - COMMON
    </text>
  
    </svg>
  