
    <svg xmlns="http://www.w3.org/2000/svg" viewBox="0 0 400 400" width="400" height="400">
      <defs>
        
    <linearGradient id="gradient-20286" x1="0%" y1="0%" x2="100%" y2="100%">
      <stop offset="0%" stop-color="#60a5fa" stop-opacity="0.8" />
      <stop offset="50%" stop-color="#93c5fd" stop-opacity="0.5" />
      <stop offset="100%" stop-color="#bfdbfe" stop-opacity="0.8" />
    </linearGradient>
  
      </defs>
      <rect width="100%" height="100%" fill="url(#gradient-20286)" />
      
      <rect 
        x="46%" 
        y="92%" 
        width="48%" 
        height="48%" 
        fill="#60a5fa"
        opacity="0.3"
        transform="rotate(144, 70%, 116%)"
      />
    
      <rect 
        x="92%" 
        y="38%" 
        width="34%" 
        height="34%" 
        fill="#93c5fd"
        opacity="0.86"
        transform="rotate(90, 109%, 55%)"
      />
    
      <rect 
        x="38%" 
        y="84%" 
        width="20%" 
        height="20%" 
        fill="#bfdbfe"
        opacity="0.72"
        transform="rotate(36, 48%, 94%)"
      />
    
      <rect 
        x="84%" 
        y="30%" 
        width="46%" 
        height="46%" 
        fill="#60a5fa"
        opacity="0.58"
        transform="rotate(342, 107%, 53%)"
      />
    
      <rect 
        x="30%" 
        y="76%" 
        width="32%" 
        height="32%" 
        fill="#93c5fd"
        opacity="0.44"
        transform="rotate(288, 46%, 92%)"
      />
    
      <rect 
        x="76%" 
        y="22%" 
        width="18%" 
        height="18%" 
        fill="#bfdbfe"
        opacity="0.3"
        transform="rotate(234, 85%, 31%)"
      />
    
      
    <g transform="translate(150, 100) scale(0.8)">
      <!-- Голова -->
      <ellipse cx="50" cy="50" rx="45" ry="45" fill="#60a5fa" />
      
      <!-- Глаза -->
      <circle cx="30" cy="40" r="10" fill="white" />
      <circle cx="70" cy="40" r="10" fill="white" />
      <circle cx="30" cy="40" r="5" fill="black" />
      <circle cx="70" cy="40" r="5" fill="black" />
      
      <!-- Нос -->
      <ellipse cx="50" cy="55" rx="10" ry="5" fill="#333" />
      
      <!-- Рот -->
      <path d="M 30 70 Q 50 80 70 70" stroke="black" stroke-width="3" fill="none" />
    </g>
  
      
    <text 
      x="50%" 
      y="85%" 
      font-family="Arial, sans-serif" 
      font-size="14" 
      font-weight="bold"
      text-anchor="middle"
      fill="white"
    >
      BAYC #20286 - RARE
    </text>
  
    </svg>
  