
    <svg xmlns="http://www.w3.org/2000/svg" viewBox="0 0 400 400" width="400" height="400">
      <defs>
        
    <linearGradient id="gradient-20208" x1="0%" y1="0%" x2="100%" y2="100%">
      <stop offset="0%" stop-color="#8a8c90" stop-opacity="0.8" />
      <stop offset="50%" stop-color="#d2d5db" stop-opacity="0.5" />
      <stop offset="100%" stop-color="#e5e7eb" stop-opacity="0.8" />
    </linearGradient>
  
      </defs>
      <rect width="100%" height="100%" fill="url(#gradient-20208)" />
      
      <rect 
        x="88%" 
        y="76%" 
        width="34%" 
        height="34%" 
        fill="#8a8c90"
        opacity="0.8"
        transform="rotate(312, 105%, 93%)"
      />
    
      <rect 
        x="76%" 
        y="64%" 
        width="42%" 
        height="42%" 
        fill="#d2d5db"
        opacity="0.48"
        transform="rotate(120, 97%, 85%)"
      />
    
      <rect 
        x="64%" 
        y="52%" 
        width="10%" 
        height="10%" 
        fill="#e5e7eb"
        opacity="0.86"
        transform="rotate(288, 69%, 57%)"
      />
    
      <rect 
        x="52%" 
        y="40%" 
        width="18%" 
        height="18%" 
        fill="#8a8c90"
        opacity="0.54"
        transform="rotate(96, 61%, 49%)"
      />
    
      <rect 
        x="40%" 
        y="28%" 
        width="26%" 
        height="26%" 
        fill="#d2d5db"
        opacity="0.92"
        transform="rotate(264, 53%, 41%)"
      />
    
      <rect 
        x="28%" 
        y="16%" 
        width="34%" 
        height="34%" 
        fill="#e5e7eb"
        opacity="0.6"
        transform="rotate(72, 45%, 33%)"
      />
    
      
    <g transform="translate(150, 100) scale(0.8)">
      <!-- Голова -->
      <ellipse cx="50" cy="50" rx="45" ry="45" fill="#8a8c90" />
      
      <!-- Глаза -->
      <circle cx="30" cy="40" r="10" fill="white" />
      <circle cx="70" cy="40" r="10" fill="white" />
      <circle cx="30" cy="40" r="5" fill="black" />
      <circle cx="70" cy="40" r="5" fill="black" />
      
      <!-- Нос -->
      <ellipse cx="50" cy="55" rx="10" ry="5" fill="#333" />
      
      <!-- Рот -->
      <path d="M 30 70 Q 50 80 70 70" stroke="black" stroke-width="3" fill="none" />
    </g>
  
      
    <text 
      x="50%" 
      y="85%" 
      font-family="Arial, sans-serif" 
      font-size="14" 
      font-weight="bold"
      text-anchor="middle"
      fill="white"
    >
      BAYC #20208 - COMMON
    </text>
  
    </svg>
  