
    <svg xmlns="http://www.w3.org/2000/svg" viewBox="0 0 400 400" width="400" height="400">
      <defs>
        
    <linearGradient id="gradient-20084" x1="0%" y1="0%" x2="100%" y2="100%">
      <stop offset="0%" stop-color="#8a8c90" stop-opacity="0.8" />
      <stop offset="50%" stop-color="#d2d5db" stop-opacity="0.5" />
      <stop offset="100%" stop-color="#e5e7eb" stop-opacity="0.8" />
    </linearGradient>
  
      </defs>
      <rect width="100%" height="100%" fill="url(#gradient-20084)" />
      
      <rect 
        x="24%" 
        y="48%" 
        width="22%" 
        height="22%" 
        fill="#e5e7eb"
        opacity="0.5"
        transform="rotate(256, 35%, 59%)"
      />
    
      <rect 
        x="48%" 
        y="72%" 
        width="26%" 
        height="26%" 
        fill="#8a8c90"
        opacity="0.54"
        transform="rotate(140, 61%, 85%)"
      />
    
      <rect 
        x="72%" 
        y="96%" 
        width="30%" 
        height="30%" 
        fill="#d2d5db"
        opacity="0.58"
        transform="rotate(24, 87%, 111%)"
      />
    
      <rect 
        x="96%" 
        y="20%" 
        width="34%" 
        height="34%" 
        fill="#e5e7eb"
        opacity="0.62"
        transform="rotate(268, 113%, 37%)"
      />
    
      <rect 
        x="20%" 
        y="44%" 
        width="38%" 
        height="38%" 
        fill="#8a8c90"
        opacity="0.66"
        transform="rotate(152, 39%, 63%)"
      />
    
      <rect 
        x="44%" 
        y="68%" 
        width="42%" 
        height="42%" 
        fill="#d2d5db"
        opacity="0.7"
        transform="rotate(36, 65%, 89%)"
      />
    
      
    <g transform="translate(150, 100) scale(0.8)">
      <!-- Голова -->
      <ellipse cx="50" cy="50" rx="45" ry="45" fill="#e5e7eb" />
      
      <!-- Глаза -->
      <circle cx="30" cy="40" r="10" fill="white" />
      <circle cx="70" cy="40" r="10" fill="white" />
      <circle cx="30" cy="40" r="5" fill="black" />
      <circle cx="70" cy="40" r="5" fill="black" />
      
      <!-- Нос -->
      <ellipse cx="50" cy="55" rx="10" ry="5" fill="#333" />
      
      <!-- Рот -->
      <path d="M 30 70 Q 50 80 70 70" stroke="black" stroke-width="3" fill="none" />
    </g>
  
      
    <text 
      x="50%" 
      y="85%" 
      font-family="Arial, sans-serif" 
      font-size="14" 
      font-weight="bold"
      text-anchor="middle"
      fill="white"
    >
      BAYC #20084 - COMMON
    </text>
  
    </svg>
  