
    <svg xmlns="http://www.w3.org/2000/svg" viewBox="0 0 400 400" width="400" height="400">
      <defs>
        
    <linearGradient id="gradient-20169" x1="0%" y1="0%" x2="100%" y2="100%">
      <stop offset="0%" stop-color="#60a5fa" stop-opacity="0.8" />
      <stop offset="50%" stop-color="#93c5fd" stop-opacity="0.5" />
      <stop offset="100%" stop-color="#bfdbfe" stop-opacity="0.8" />
    </linearGradient>
  
      </defs>
      <rect width="100%" height="100%" fill="url(#gradient-20169)" />
      
      <rect 
        x="59%" 
        y="18%" 
        width="27%" 
        height="27%" 
        fill="#60a5fa"
        opacity="0.35"
        transform="rotate(36, 72.5%, 31.5%)"
      />
    
      <rect 
        x="18%" 
        y="77%" 
        width="46%" 
        height="46%" 
        fill="#93c5fd"
        opacity="0.64"
        transform="rotate(135, 41%, 100%)"
      />
    
      <rect 
        x="77%" 
        y="36%" 
        width="25%" 
        height="25%" 
        fill="#bfdbfe"
        opacity="0.93"
        transform="rotate(234, 89.5%, 48.5%)"
      />
    
      <rect 
        x="36%" 
        y="95%" 
        width="44%" 
        height="44%" 
        fill="#60a5fa"
        opacity="0.52"
        transform="rotate(333, 58%, 117%)"
      />
    
      <rect 
        x="95%" 
        y="54%" 
        width="23%" 
        height="23%" 
        fill="#93c5fd"
        opacity="0.81"
        transform="rotate(72, 106.5%, 65.5%)"
      />
    
      <rect 
        x="54%" 
        y="13%" 
        width="42%" 
        height="42%" 
        fill="#bfdbfe"
        opacity="0.4"
        transform="rotate(171, 75%, 34%)"
      />
    
      
    <g transform="translate(150, 100) scale(0.8)">
      <!-- Голова -->
      <ellipse cx="50" cy="50" rx="45" ry="45" fill="#60a5fa" />
      
      <!-- Глаза -->
      <circle cx="30" cy="40" r="10" fill="white" />
      <circle cx="70" cy="40" r="10" fill="white" />
      <circle cx="30" cy="40" r="5" fill="black" />
      <circle cx="70" cy="40" r="5" fill="black" />
      
      <!-- Нос -->
      <ellipse cx="50" cy="55" rx="10" ry="5" fill="#333" />
      
      <!-- Рот -->
      <path d="M 30 70 Q 50 80 70 70" stroke="black" stroke-width="3" fill="none" />
    </g>
  
      
    <text 
      x="50%" 
      y="85%" 
      font-family="Arial, sans-serif" 
      font-size="14" 
      font-weight="bold"
      text-anchor="middle"
      fill="white"
    >
      BAYC #20169 - RARE
    </text>
  
    </svg>
  