
    <svg xmlns="http://www.w3.org/2000/svg" viewBox="0 0 400 400" width="400" height="400">
      <defs>
        
    <linearGradient id="gradient-20233" x1="0%" y1="0%" x2="100%" y2="100%">
      <stop offset="0%" stop-color="#f87171" stop-opacity="0.8" />
      <stop offset="50%" stop-color="#fca5a5" stop-opacity="0.5" />
      <stop offset="100%" stop-color="#fecaca" stop-opacity="0.8" />
    </linearGradient>
  
      </defs>
      <rect width="100%" height="100%" fill="url(#gradient-20233)" />
      
      <rect 
        x="63%" 
        y="26%" 
        width="19%" 
        height="19%" 
        fill="#fca5a5"
        opacity="0.55"
        transform="rotate(332, 72.5%, 35.5%)"
      />
    
      <rect 
        x="26%" 
        y="89%" 
        width="22%" 
        height="22%" 
        fill="#fecaca"
        opacity="0.88"
        transform="rotate(55, 37%, 100%)"
      />
    
      <rect 
        x="89%" 
        y="52%" 
        width="25%" 
        height="25%" 
        fill="#f87171"
        opacity="0.51"
        transform="rotate(138, 101.5%, 64.5%)"
      />
    
      <rect 
        x="52%" 
        y="15%" 
        width="28%" 
        height="28%" 
        fill="#fca5a5"
        opacity="0.84"
        transform="rotate(221, 66%, 29%)"
      />
    
      <rect 
        x="15%" 
        y="78%" 
        width="31%" 
        height="31%" 
        fill="#fecaca"
        opacity="0.47"
        transform="rotate(304, 30.5%, 93.5%)"
      />
    
      <rect 
        x="78%" 
        y="41%" 
        width="34%" 
        height="34%" 
        fill="#f87171"
        opacity="0.8"
        transform="rotate(27, 95%, 58%)"
      />
    
      
    <g transform="translate(150, 100) scale(0.8)">
      <!-- Голова -->
      <ellipse cx="50" cy="50" rx="45" ry="45" fill="#fca5a5" />
      
      <!-- Глаза -->
      <circle cx="30" cy="40" r="10" fill="white" />
      <circle cx="70" cy="40" r="10" fill="white" />
      <circle cx="30" cy="40" r="5" fill="black" />
      <circle cx="70" cy="40" r="5" fill="black" />
      
      <!-- Нос -->
      <ellipse cx="50" cy="55" rx="10" ry="5" fill="#333" />
      
      <!-- Рот -->
      <path d="M 30 70 Q 50 80 70 70" stroke="black" stroke-width="3" fill="none" />
    </g>
  
      
    <text 
      x="50%" 
      y="85%" 
      font-family="Arial, sans-serif" 
      font-size="14" 
      font-weight="bold"
      text-anchor="middle"
      fill="white"
    >
      BAYC #20233 - EPIC
    </text>
  
    </svg>
  