
    <svg xmlns="http://www.w3.org/2000/svg" viewBox="0 0 400 400" width="400" height="400">
      <defs>
        
    <linearGradient id="gradient-20227" x1="0%" y1="0%" x2="100%" y2="100%">
      <stop offset="0%" stop-color="#60a5fa" stop-opacity="0.8" />
      <stop offset="50%" stop-color="#93c5fd" stop-opacity="0.5" />
      <stop offset="100%" stop-color="#bfdbfe" stop-opacity="0.8" />
    </linearGradient>
  
      </defs>
      <rect width="100%" height="100%" fill="url(#gradient-20227)" />
      
      <rect 
        x="97%" 
        y="94%" 
        width="21%" 
        height="21%" 
        fill="#93c5fd"
        opacity="0.75"
        transform="rotate(68, 107.5%, 104.5%)"
      />
    
      <rect 
        x="94%" 
        y="91%" 
        width="38%" 
        height="38%" 
        fill="#bfdbfe"
        opacity="0.42"
        transform="rotate(85, 113%, 110%)"
      />
    
      <rect 
        x="91%" 
        y="88%" 
        width="15%" 
        height="15%" 
        fill="#60a5fa"
        opacity="0.79"
        transform="rotate(102, 98.5%, 95.5%)"
      />
    
      <rect 
        x="88%" 
        y="85%" 
        width="32%" 
        height="32%" 
        fill="#93c5fd"
        opacity="0.46"
        transform="rotate(119, 104%, 101%)"
      />
    
      <rect 
        x="85%" 
        y="82%" 
        width="49%" 
        height="49%" 
        fill="#bfdbfe"
        opacity="0.83"
        transform="rotate(136, 109.5%, 106.5%)"
      />
    
      <rect 
        x="82%" 
        y="79%" 
        width="26%" 
        height="26%" 
        fill="#60a5fa"
        opacity="0.5"
        transform="rotate(153, 95%, 92%)"
      />
    
      
    <g transform="translate(150, 100) scale(0.8)">
      <!-- Голова -->
      <ellipse cx="50" cy="50" rx="45" ry="45" fill="#93c5fd" />
      
      <!-- Глаза -->
      <circle cx="30" cy="40" r="10" fill="white" />
      <circle cx="70" cy="40" r="10" fill="white" />
      <circle cx="30" cy="40" r="5" fill="black" />
      <circle cx="70" cy="40" r="5" fill="black" />
      
      <!-- Нос -->
      <ellipse cx="50" cy="55" rx="10" ry="5" fill="#333" />
      
      <!-- Рот -->
      <path d="M 30 70 Q 50 80 70 70" stroke="black" stroke-width="3" fill="none" />
    </g>
  
      
    <text 
      x="50%" 
      y="85%" 
      font-family="Arial, sans-serif" 
      font-size="14" 
      font-weight="bold"
      text-anchor="middle"
      fill="white"
    >
      BAYC #20227 - RARE
    </text>
  
    </svg>
  