
    <svg xmlns="http://www.w3.org/2000/svg" viewBox="0 0 400 400" width="400" height="400">
      <defs>
        
    <linearGradient id="gradient-20115" x1="0%" y1="0%" x2="100%" y2="100%">
      <stop offset="0%" stop-color="#f87171" stop-opacity="0.8" />
      <stop offset="50%" stop-color="#fca5a5" stop-opacity="0.5" />
      <stop offset="100%" stop-color="#fecaca" stop-opacity="0.8" />
    </linearGradient>
  
      </defs>
      <rect width="100%" height="100%" fill="url(#gradient-20115)" />
      
      <rect 
        x="65%" 
        y="30%" 
        width="45%" 
        height="45%" 
        fill="#f87171"
        opacity="0.75"
        transform="rotate(180, 87.5%, 52.5%)"
      />
    
      <rect 
        x="30%" 
        y="95%" 
        width="30%" 
        height="30%" 
        fill="#fca5a5"
        opacity="0.7"
        transform="rotate(45, 45%, 110%)"
      />
    
      <rect 
        x="95%" 
        y="60%" 
        width="15%" 
        height="15%" 
        fill="#fecaca"
        opacity="0.65"
        transform="rotate(270, 102.5%, 67.5%)"
      />
    
      <rect 
        x="60%" 
        y="25%" 
        width="40%" 
        height="40%" 
        fill="#f87171"
        opacity="0.6"
        transform="rotate(135, 80%, 45%)"
      />
    
      <rect 
        x="25%" 
        y="90%" 
        width="25%" 
        height="25%" 
        fill="#fca5a5"
        opacity="0.55"
        transform="rotate(0, 37.5%, 102.5%)"
      />
    
      <rect 
        x="90%" 
        y="55%" 
        width="10%" 
        height="10%" 
        fill="#fecaca"
        opacity="0.5"
        transform="rotate(225, 95%, 60%)"
      />
    
      
    <g transform="translate(150, 100) scale(0.8)">
      <!-- Голова -->
      <ellipse cx="50" cy="50" rx="45" ry="45" fill="#f87171" />
      
      <!-- Глаза -->
      <circle cx="30" cy="40" r="10" fill="white" />
      <circle cx="70" cy="40" r="10" fill="white" />
      <circle cx="30" cy="40" r="5" fill="black" />
      <circle cx="70" cy="40" r="5" fill="black" />
      
      <!-- Нос -->
      <ellipse cx="50" cy="55" rx="10" ry="5" fill="#333" />
      
      <!-- Рот -->
      <path d="M 30 70 Q 50 80 70 70" stroke="black" stroke-width="3" fill="none" />
    </g>
  
      
    <text 
      x="50%" 
      y="85%" 
      font-family="Arial, sans-serif" 
      font-size="14" 
      font-weight="bold"
      text-anchor="middle"
      fill="white"
    >
      BAYC #20115 - EPIC
    </text>
  
    </svg>
  