
    <svg xmlns="http://www.w3.org/2000/svg" viewBox="0 0 400 400" width="400" height="400">
      <defs>
        
    <linearGradient id="gradient-20226" x1="0%" y1="0%" x2="100%" y2="100%">
      <stop offset="0%" stop-color="#34d399" stop-opacity="0.8" />
      <stop offset="50%" stop-color="#6ee7b7" stop-opacity="0.5" />
      <stop offset="100%" stop-color="#a7f3d0" stop-opacity="0.8" />
    </linearGradient>
  
      </defs>
      <rect width="100%" height="100%" fill="url(#gradient-20226)" />
      
      <rect 
        x="86%" 
        y="72%" 
        width="28%" 
        height="28%" 
        fill="#34d399"
        opacity="0.9"
        transform="rotate(24, 100%, 86%)"
      />
    
      <rect 
        x="72%" 
        y="58%" 
        width="34%" 
        height="34%" 
        fill="#6ee7b7"
        opacity="0.46"
        transform="rotate(30, 89%, 75%)"
      />
    
      <rect 
        x="58%" 
        y="44%" 
        width="40%" 
        height="40%" 
        fill="#a7f3d0"
        opacity="0.72"
        transform="rotate(36, 78%, 64%)"
      />
    
      <rect 
        x="44%" 
        y="30%" 
        width="46%" 
        height="46%" 
        fill="#34d399"
        opacity="0.98"
        transform="rotate(42, 67%, 53%)"
      />
    
      <rect 
        x="30%" 
        y="16%" 
        width="12%" 
        height="12%" 
        fill="#6ee7b7"
        opacity="0.54"
        transform="rotate(48, 36%, 22%)"
      />
    
      <rect 
        x="16%" 
        y="2%" 
        width="18%" 
        height="18%" 
        fill="#a7f3d0"
        opacity="0.8"
        transform="rotate(54, 25%, 11%)"
      />
    
      
    <g transform="translate(150, 100) scale(0.8)">
      <!-- Голова -->
      <ellipse cx="50" cy="50" rx="45" ry="45" fill="#34d399" />
      
      <!-- Глаза -->
      <circle cx="30" cy="40" r="10" fill="white" />
      <circle cx="70" cy="40" r="10" fill="white" />
      <circle cx="30" cy="40" r="5" fill="black" />
      <circle cx="70" cy="40" r="5" fill="black" />
      
      <!-- Нос -->
      <ellipse cx="50" cy="55" rx="10" ry="5" fill="#333" />
      
      <!-- Рот -->
      <path d="M 30 70 Q 50 80 70 70" stroke="black" stroke-width="3" fill="none" />
    </g>
  
      
    <text 
      x="50%" 
      y="85%" 
      font-family="Arial, sans-serif" 
      font-size="14" 
      font-weight="bold"
      text-anchor="middle"
      fill="white"
    >
      BAYC #20226 - UNCOMMON
    </text>
  
    </svg>
  