
    <svg xmlns="http://www.w3.org/2000/svg" viewBox="0 0 400 400" width="400" height="400">
      <defs>
        
    <linearGradient id="gradient-20395" x1="0%" y1="0%" x2="100%" y2="100%">
      <stop offset="0%" stop-color="#34d399" stop-opacity="0.8" />
      <stop offset="50%" stop-color="#6ee7b7" stop-opacity="0.5" />
      <stop offset="100%" stop-color="#a7f3d0" stop-opacity="0.8" />
    </linearGradient>
  
      </defs>
      <rect width="100%" height="100%" fill="url(#gradient-20395)" />
      
      <rect 
        x="45%" 
        y="90%" 
        width="45%" 
        height="45%" 
        fill="#6ee7b7"
        opacity="0.75"
        transform="rotate(260, 67.5%, 112.5%)"
      />
    
      <rect 
        x="90%" 
        y="35%" 
        width="30%" 
        height="30%" 
        fill="#a7f3d0"
        opacity="0.7"
        transform="rotate(325, 105%, 50%)"
      />
    
      <rect 
        x="35%" 
        y="80%" 
        width="15%" 
        height="15%" 
        fill="#34d399"
        opacity="0.65"
        transform="rotate(30, 42.5%, 87.5%)"
      />
    
      <rect 
        x="80%" 
        y="25%" 
        width="40%" 
        height="40%" 
        fill="#6ee7b7"
        opacity="0.6"
        transform="rotate(95, 100%, 45%)"
      />
    
      <rect 
        x="25%" 
        y="70%" 
        width="25%" 
        height="25%" 
        fill="#a7f3d0"
        opacity="0.55"
        transform="rotate(160, 37.5%, 82.5%)"
      />
    
      <rect 
        x="70%" 
        y="15%" 
        width="10%" 
        height="10%" 
        fill="#34d399"
        opacity="0.5"
        transform="rotate(225, 75%, 20%)"
      />
    
      
    <g transform="translate(150, 100) scale(0.8)">
      <!-- Голова -->
      <ellipse cx="50" cy="50" rx="45" ry="45" fill="#6ee7b7" />
      
      <!-- Глаза -->
      <circle cx="30" cy="40" r="10" fill="white" />
      <circle cx="70" cy="40" r="10" fill="white" />
      <circle cx="30" cy="40" r="5" fill="black" />
      <circle cx="70" cy="40" r="5" fill="black" />
      
      <!-- Нос -->
      <ellipse cx="50" cy="55" rx="10" ry="5" fill="#333" />
      
      <!-- Рот -->
      <path d="M 30 70 Q 50 80 70 70" stroke="black" stroke-width="3" fill="none" />
    </g>
  
      
    <text 
      x="50%" 
      y="85%" 
      font-family="Arial, sans-serif" 
      font-size="14" 
      font-weight="bold"
      text-anchor="middle"
      fill="white"
    >
      BAYC #20395 - UNCOMMON
    </text>
  
    </svg>
  