
    <svg xmlns="http://www.w3.org/2000/svg" viewBox="0 0 400 400" width="400" height="400">
      <defs>
        
    <linearGradient id="gradient-20113" x1="0%" y1="0%" x2="100%" y2="100%">
      <stop offset="0%" stop-color="#60a5fa" stop-opacity="0.8" />
      <stop offset="50%" stop-color="#93c5fd" stop-opacity="0.5" />
      <stop offset="100%" stop-color="#bfdbfe" stop-opacity="0.8" />
    </linearGradient>
  
      </defs>
      <rect width="100%" height="100%" fill="url(#gradient-20113)" />
      
      <rect 
        x="43%" 
        y="86%" 
        width="19%" 
        height="19%" 
        fill="#93c5fd"
        opacity="0.35"
        transform="rotate(92, 52.5%, 95.5%)"
      />
    
      <rect 
        x="86%" 
        y="29%" 
        width="22%" 
        height="22%" 
        fill="#bfdbfe"
        opacity="0.78"
        transform="rotate(295, 97%, 40%)"
      />
    
      <rect 
        x="29%" 
        y="72%" 
        width="25%" 
        height="25%" 
        fill="#60a5fa"
        opacity="0.51"
        transform="rotate(138, 41.5%, 84.5%)"
      />
    
      <rect 
        x="72%" 
        y="15%" 
        width="28%" 
        height="28%" 
        fill="#93c5fd"
        opacity="0.94"
        transform="rotate(341, 86%, 29%)"
      />
    
      <rect 
        x="15%" 
        y="58%" 
        width="31%" 
        height="31%" 
        fill="#bfdbfe"
        opacity="0.67"
        transform="rotate(184, 30.5%, 73.5%)"
      />
    
      <rect 
        x="58%" 
        y="1%" 
        width="34%" 
        height="34%" 
        fill="#60a5fa"
        opacity="0.4"
        transform="rotate(27, 75%, 18%)"
      />
    
      
    <g transform="translate(150, 100) scale(0.8)">
      <!-- Голова -->
      <ellipse cx="50" cy="50" rx="45" ry="45" fill="#93c5fd" />
      
      <!-- Глаза -->
      <circle cx="30" cy="40" r="10" fill="white" />
      <circle cx="70" cy="40" r="10" fill="white" />
      <circle cx="30" cy="40" r="5" fill="black" />
      <circle cx="70" cy="40" r="5" fill="black" />
      
      <!-- Нос -->
      <ellipse cx="50" cy="55" rx="10" ry="5" fill="#333" />
      
      <!-- Рот -->
      <path d="M 30 70 Q 50 80 70 70" stroke="black" stroke-width="3" fill="none" />
    </g>
  
      
    <text 
      x="50%" 
      y="85%" 
      font-family="Arial, sans-serif" 
      font-size="14" 
      font-weight="bold"
      text-anchor="middle"
      fill="white"
    >
      BAYC #20113 - RARE
    </text>
  
    </svg>
  