
    <svg xmlns="http://www.w3.org/2000/svg" viewBox="0 0 400 400" width="400" height="400">
      <defs>
        
    <linearGradient id="gradient-20019" x1="0%" y1="0%" x2="100%" y2="100%">
      <stop offset="0%" stop-color="#8a8c90" stop-opacity="0.8" />
      <stop offset="50%" stop-color="#d2d5db" stop-opacity="0.5" />
      <stop offset="100%" stop-color="#e5e7eb" stop-opacity="0.8" />
    </linearGradient>
  
      </defs>
      <rect width="100%" height="100%" fill="url(#gradient-20019)" />
      
      <rect 
        x="9%" 
        y="18%" 
        width="37%" 
        height="37%" 
        fill="#8a8c90"
        opacity="0.45"
        transform="rotate(276, 27.5%, 36.5%)"
      />
    
      <rect 
        x="18%" 
        y="27%" 
        width="46%" 
        height="46%" 
        fill="#d2d5db"
        opacity="0.34"
        transform="rotate(165, 41%, 50%)"
      />
    
      <rect 
        x="27%" 
        y="36%" 
        width="15%" 
        height="15%" 
        fill="#e5e7eb"
        opacity="0.93"
        transform="rotate(54, 34.5%, 43.5%)"
      />
    
      <rect 
        x="36%" 
        y="45%" 
        width="24%" 
        height="24%" 
        fill="#8a8c90"
        opacity="0.82"
        transform="rotate(303, 48%, 57%)"
      />
    
      <rect 
        x="45%" 
        y="54%" 
        width="33%" 
        height="33%" 
        fill="#d2d5db"
        opacity="0.71"
        transform="rotate(192, 61.5%, 70.5%)"
      />
    
      <rect 
        x="54%" 
        y="63%" 
        width="42%" 
        height="42%" 
        fill="#e5e7eb"
        opacity="0.6"
        transform="rotate(81, 75%, 84%)"
      />
    
      
    <g transform="translate(150, 100) scale(0.8)">
      <!-- Голова -->
      <ellipse cx="50" cy="50" rx="45" ry="45" fill="#8a8c90" />
      
      <!-- Глаза -->
      <circle cx="30" cy="40" r="10" fill="white" />
      <circle cx="70" cy="40" r="10" fill="white" />
      <circle cx="30" cy="40" r="5" fill="black" />
      <circle cx="70" cy="40" r="5" fill="black" />
      
      <!-- Нос -->
      <ellipse cx="50" cy="55" rx="10" ry="5" fill="#333" />
      
      <!-- Рот -->
      <path d="M 30 70 Q 50 80 70 70" stroke="black" stroke-width="3" fill="none" />
    </g>
  
      
    <text 
      x="50%" 
      y="85%" 
      font-family="Arial, sans-serif" 
      font-size="14" 
      font-weight="bold"
      text-anchor="middle"
      fill="white"
    >
      BAYC #20019 - COMMON
    </text>
  
    </svg>
  