
    <svg xmlns="http://www.w3.org/2000/svg" viewBox="0 0 400 400" width="400" height="400">
      <defs>
        
    <linearGradient id="gradient-20348" x1="0%" y1="0%" x2="100%" y2="100%">
      <stop offset="0%" stop-color="#60a5fa" stop-opacity="0.8" />
      <stop offset="50%" stop-color="#93c5fd" stop-opacity="0.5" />
      <stop offset="100%" stop-color="#bfdbfe" stop-opacity="0.8" />
    </linearGradient>
  
      </defs>
      <rect width="100%" height="100%" fill="url(#gradient-20348)" />
      
      <rect 
        x="28%" 
        y="56%" 
        width="14%" 
        height="14%" 
        fill="#bfdbfe"
        opacity="0.8"
        transform="rotate(352, 35%, 63%)"
      />
    
      <rect 
        x="56%" 
        y="84%" 
        width="42%" 
        height="42%" 
        fill="#60a5fa"
        opacity="0.48"
        transform="rotate(260, 77%, 105%)"
      />
    
      <rect 
        x="84%" 
        y="12%" 
        width="30%" 
        height="30%" 
        fill="#93c5fd"
        opacity="0.86"
        transform="rotate(168, 99%, 27%)"
      />
    
      <rect 
        x="12%" 
        y="40%" 
        width="18%" 
        height="18%" 
        fill="#bfdbfe"
        opacity="0.54"
        transform="rotate(76, 21%, 49%)"
      />
    
      <rect 
        x="40%" 
        y="68%" 
        width="46%" 
        height="46%" 
        fill="#60a5fa"
        opacity="0.92"
        transform="rotate(344, 63%, 91%)"
      />
    
      <rect 
        x="68%" 
        y="96%" 
        width="34%" 
        height="34%" 
        fill="#93c5fd"
        opacity="0.6"
        transform="rotate(252, 85%, 113%)"
      />
    
      
    <g transform="translate(150, 100) scale(0.8)">
      <!-- Голова -->
      <ellipse cx="50" cy="50" rx="45" ry="45" fill="#bfdbfe" />
      
      <!-- Глаза -->
      <circle cx="30" cy="40" r="10" fill="white" />
      <circle cx="70" cy="40" r="10" fill="white" />
      <circle cx="30" cy="40" r="5" fill="black" />
      <circle cx="70" cy="40" r="5" fill="black" />
      
      <!-- Нос -->
      <ellipse cx="50" cy="55" rx="10" ry="5" fill="#333" />
      
      <!-- Рот -->
      <path d="M 30 70 Q 50 80 70 70" stroke="black" stroke-width="3" fill="none" />
    </g>
  
      
    <text 
      x="50%" 
      y="85%" 
      font-family="Arial, sans-serif" 
      font-size="14" 
      font-weight="bold"
      text-anchor="middle"
      fill="white"
    >
      BAYC #20348 - RARE
    </text>
  
    </svg>
  