
    <svg xmlns="http://www.w3.org/2000/svg" viewBox="0 0 400 400" width="400" height="400">
      <defs>
        
    <linearGradient id="gradient-20295" x1="0%" y1="0%" x2="100%" y2="100%">
      <stop offset="0%" stop-color="#8a8c90" stop-opacity="0.8" />
      <stop offset="50%" stop-color="#d2d5db" stop-opacity="0.5" />
      <stop offset="100%" stop-color="#e5e7eb" stop-opacity="0.8" />
    </linearGradient>
  
      </defs>
      <rect width="100%" height="100%" fill="url(#gradient-20295)" />
      
      <rect 
        x="45%" 
        y="90%" 
        width="25%" 
        height="25%" 
        fill="#8a8c90"
        opacity="0.35"
        transform="rotate(180, 57.5%, 102.5%)"
      />
    
      <rect 
        x="90%" 
        y="35%" 
        width="30%" 
        height="30%" 
        fill="#d2d5db"
        opacity="0.5"
        transform="rotate(225, 105%, 50%)"
      />
    
      <rect 
        x="35%" 
        y="80%" 
        width="35%" 
        height="35%" 
        fill="#e5e7eb"
        opacity="0.65"
        transform="rotate(270, 52.5%, 97.5%)"
      />
    
      <rect 
        x="80%" 
        y="25%" 
        width="40%" 
        height="40%" 
        fill="#8a8c90"
        opacity="0.8"
        transform="rotate(315, 100%, 45%)"
      />
    
      <rect 
        x="25%" 
        y="70%" 
        width="45%" 
        height="45%" 
        fill="#d2d5db"
        opacity="0.95"
        transform="rotate(0, 47.5%, 92.5%)"
      />
    
      <rect 
        x="70%" 
        y="15%" 
        width="10%" 
        height="10%" 
        fill="#e5e7eb"
        opacity="0.4"
        transform="rotate(45, 75%, 20%)"
      />
    
      
    <g transform="translate(150, 100) scale(0.8)">
      <!-- Голова -->
      <ellipse cx="50" cy="50" rx="45" ry="45" fill="#8a8c90" />
      
      <!-- Глаза -->
      <circle cx="30" cy="40" r="10" fill="white" />
      <circle cx="70" cy="40" r="10" fill="white" />
      <circle cx="30" cy="40" r="5" fill="black" />
      <circle cx="70" cy="40" r="5" fill="black" />
      
      <!-- Нос -->
      <ellipse cx="50" cy="55" rx="10" ry="5" fill="#333" />
      
      <!-- Рот -->
      <path d="M 30 70 Q 50 80 70 70" stroke="black" stroke-width="3" fill="none" />
    </g>
  
      
    <text 
      x="50%" 
      y="85%" 
      font-family="Arial, sans-serif" 
      font-size="14" 
      font-weight="bold"
      text-anchor="middle"
      fill="white"
    >
      BAYC #20295 - COMMON
    </text>
  
    </svg>
  