
    <svg xmlns="http://www.w3.org/2000/svg" viewBox="0 0 400 400" width="400" height="400">
      <defs>
        
    <linearGradient id="gradient-20117" x1="0%" y1="0%" x2="100%" y2="100%">
      <stop offset="0%" stop-color="#f87171" stop-opacity="0.8" />
      <stop offset="50%" stop-color="#fca5a5" stop-opacity="0.5" />
      <stop offset="100%" stop-color="#fecaca" stop-opacity="0.8" />
    </linearGradient>
  
      </defs>
      <rect width="100%" height="100%" fill="url(#gradient-20117)" />
      
      <rect 
        x="87%" 
        y="74%" 
        width="31%" 
        height="31%" 
        fill="#fecaca"
        opacity="0.45"
        transform="rotate(268, 102.5%, 89.5%)"
      />
    
      <rect 
        x="74%" 
        y="61%" 
        width="38%" 
        height="38%" 
        fill="#f87171"
        opacity="0.62"
        transform="rotate(155, 93%, 80%)"
      />
    
      <rect 
        x="61%" 
        y="48%" 
        width="45%" 
        height="45%" 
        fill="#fca5a5"
        opacity="0.79"
        transform="rotate(42, 83.5%, 70.5%)"
      />
    
      <rect 
        x="48%" 
        y="35%" 
        width="12%" 
        height="12%" 
        fill="#fecaca"
        opacity="0.96"
        transform="rotate(289, 54%, 41%)"
      />
    
      <rect 
        x="35%" 
        y="22%" 
        width="19%" 
        height="19%" 
        fill="#f87171"
        opacity="0.43"
        transform="rotate(176, 44.5%, 31.5%)"
      />
    
      <rect 
        x="22%" 
        y="9%" 
        width="26%" 
        height="26%" 
        fill="#fca5a5"
        opacity="0.6"
        transform="rotate(63, 35%, 22%)"
      />
    
      
    <g transform="translate(150, 100) scale(0.8)">
      <!-- Голова -->
      <ellipse cx="50" cy="50" rx="45" ry="45" fill="#fecaca" />
      
      <!-- Глаза -->
      <circle cx="30" cy="40" r="10" fill="white" />
      <circle cx="70" cy="40" r="10" fill="white" />
      <circle cx="30" cy="40" r="5" fill="black" />
      <circle cx="70" cy="40" r="5" fill="black" />
      
      <!-- Нос -->
      <ellipse cx="50" cy="55" rx="10" ry="5" fill="#333" />
      
      <!-- Рот -->
      <path d="M 30 70 Q 50 80 70 70" stroke="black" stroke-width="3" fill="none" />
    </g>
  
      
    <text 
      x="50%" 
      y="85%" 
      font-family="Arial, sans-serif" 
      font-size="14" 
      font-weight="bold"
      text-anchor="middle"
      fill="white"
    >
      BAYC #20117 - EPIC
    </text>
  
    </svg>
  