
    <svg xmlns="http://www.w3.org/2000/svg" viewBox="0 0 400 400" width="400" height="400">
      <defs>
        
    <linearGradient id="gradient-20083" x1="0%" y1="0%" x2="100%" y2="100%">
      <stop offset="0%" stop-color="#8a8c90" stop-opacity="0.8" />
      <stop offset="50%" stop-color="#d2d5db" stop-opacity="0.5" />
      <stop offset="100%" stop-color="#e5e7eb" stop-opacity="0.8" />
    </linearGradient>
  
      </defs>
      <rect width="100%" height="100%" fill="url(#gradient-20083)" />
      
      <rect 
        x="13%" 
        y="26%" 
        width="29%" 
        height="29%" 
        fill="#d2d5db"
        opacity="0.65"
        transform="rotate(212, 27.5%, 40.5%)"
      />
    
      <rect 
        x="26%" 
        y="39%" 
        width="22%" 
        height="22%" 
        fill="#e5e7eb"
        opacity="0.58"
        transform="rotate(85, 37%, 50%)"
      />
    
      <rect 
        x="39%" 
        y="52%" 
        width="15%" 
        height="15%" 
        fill="#8a8c90"
        opacity="0.51"
        transform="rotate(318, 46.5%, 59.5%)"
      />
    
      <rect 
        x="52%" 
        y="65%" 
        width="48%" 
        height="48%" 
        fill="#d2d5db"
        opacity="0.44"
        transform="rotate(191, 76%, 89%)"
      />
    
      <rect 
        x="65%" 
        y="78%" 
        width="41%" 
        height="41%" 
        fill="#e5e7eb"
        opacity="0.37"
        transform="rotate(64, 85.5%, 98.5%)"
      />
    
      <rect 
        x="78%" 
        y="91%" 
        width="34%" 
        height="34%" 
        fill="#8a8c90"
        opacity="0.3"
        transform="rotate(297, 95%, 108%)"
      />
    
      
    <g transform="translate(150, 100) scale(0.8)">
      <!-- Голова -->
      <ellipse cx="50" cy="50" rx="45" ry="45" fill="#d2d5db" />
      
      <!-- Глаза -->
      <circle cx="30" cy="40" r="10" fill="white" />
      <circle cx="70" cy="40" r="10" fill="white" />
      <circle cx="30" cy="40" r="5" fill="black" />
      <circle cx="70" cy="40" r="5" fill="black" />
      
      <!-- Нос -->
      <ellipse cx="50" cy="55" rx="10" ry="5" fill="#333" />
      
      <!-- Рот -->
      <path d="M 30 70 Q 50 80 70 70" stroke="black" stroke-width="3" fill="none" />
    </g>
  
      
    <text 
      x="50%" 
      y="85%" 
      font-family="Arial, sans-serif" 
      font-size="14" 
      font-weight="bold"
      text-anchor="middle"
      fill="white"
    >
      BAYC #20083 - COMMON
    </text>
  
    </svg>
  