
    <svg xmlns="http://www.w3.org/2000/svg" viewBox="0 0 400 400" width="400" height="400">
      <defs>
        
    <linearGradient id="gradient-20147" x1="0%" y1="0%" x2="100%" y2="100%">
      <stop offset="0%" stop-color="#8a8c90" stop-opacity="0.8" />
      <stop offset="50%" stop-color="#d2d5db" stop-opacity="0.5" />
      <stop offset="100%" stop-color="#e5e7eb" stop-opacity="0.8" />
    </linearGradient>
  
      </defs>
      <rect width="100%" height="100%" fill="url(#gradient-20147)" />
      
      <rect 
        x="17%" 
        y="34%" 
        width="21%" 
        height="21%" 
        fill="#e5e7eb"
        opacity="0.85"
        transform="rotate(148, 27.5%, 44.5%)"
      />
    
      <rect 
        x="34%" 
        y="51%" 
        width="38%" 
        height="38%" 
        fill="#8a8c90"
        opacity="0.82"
        transform="rotate(5, 53%, 70%)"
      />
    
      <rect 
        x="51%" 
        y="68%" 
        width="15%" 
        height="15%" 
        fill="#d2d5db"
        opacity="0.79"
        transform="rotate(222, 58.5%, 75.5%)"
      />
    
      <rect 
        x="68%" 
        y="85%" 
        width="32%" 
        height="32%" 
        fill="#e5e7eb"
        opacity="0.76"
        transform="rotate(79, 84%, 101%)"
      />
    
      <rect 
        x="85%" 
        y="2%" 
        width="49%" 
        height="49%" 
        fill="#8a8c90"
        opacity="0.73"
        transform="rotate(296, 109.5%, 26.5%)"
      />
    
      <rect 
        x="2%" 
        y="19%" 
        width="26%" 
        height="26%" 
        fill="#d2d5db"
        opacity="0.7"
        transform="rotate(153, 15%, 32%)"
      />
    
      
    <g transform="translate(150, 100) scale(0.8)">
      <!-- Голова -->
      <ellipse cx="50" cy="50" rx="45" ry="45" fill="#e5e7eb" />
      
      <!-- Глаза -->
      <circle cx="30" cy="40" r="10" fill="white" />
      <circle cx="70" cy="40" r="10" fill="white" />
      <circle cx="30" cy="40" r="5" fill="black" />
      <circle cx="70" cy="40" r="5" fill="black" />
      
      <!-- Нос -->
      <ellipse cx="50" cy="55" rx="10" ry="5" fill="#333" />
      
      <!-- Рот -->
      <path d="M 30 70 Q 50 80 70 70" stroke="black" stroke-width="3" fill="none" />
    </g>
  
      
    <text 
      x="50%" 
      y="85%" 
      font-family="Arial, sans-serif" 
      font-size="14" 
      font-weight="bold"
      text-anchor="middle"
      fill="white"
    >
      BAYC #20147 - COMMON
    </text>
  
    </svg>
  