
    <svg xmlns="http://www.w3.org/2000/svg" viewBox="0 0 400 400" width="400" height="400">
      <defs>
        
    <linearGradient id="gradient-20262" x1="0%" y1="0%" x2="100%" y2="100%">
      <stop offset="0%" stop-color="#8a8c90" stop-opacity="0.8" />
      <stop offset="50%" stop-color="#d2d5db" stop-opacity="0.5" />
      <stop offset="100%" stop-color="#e5e7eb" stop-opacity="0.8" />
    </linearGradient>
  
      </defs>
      <rect width="100%" height="100%" fill="url(#gradient-20262)" />
      
      <rect 
        x="82%" 
        y="64%" 
        width="16%" 
        height="16%" 
        fill="#8a8c90"
        opacity="0.4"
        transform="rotate(168, 90%, 72%)"
      />
    
      <rect 
        x="64%" 
        y="46%" 
        width="18%" 
        height="18%" 
        fill="#d2d5db"
        opacity="0.42"
        transform="rotate(210, 73%, 55%)"
      />
    
      <rect 
        x="46%" 
        y="28%" 
        width="20%" 
        height="20%" 
        fill="#e5e7eb"
        opacity="0.44"
        transform="rotate(252, 56%, 38%)"
      />
    
      <rect 
        x="28%" 
        y="10%" 
        width="22%" 
        height="22%" 
        fill="#8a8c90"
        opacity="0.46"
        transform="rotate(294, 39%, 21%)"
      />
    
      <rect 
        x="10%" 
        y="92%" 
        width="24%" 
        height="24%" 
        fill="#d2d5db"
        opacity="0.48"
        transform="rotate(336, 22%, 104%)"
      />
    
      <rect 
        x="92%" 
        y="74%" 
        width="26%" 
        height="26%" 
        fill="#e5e7eb"
        opacity="0.5"
        transform="rotate(18, 105%, 87%)"
      />
    
      
    <g transform="translate(150, 100) scale(0.8)">
      <!-- Голова -->
      <ellipse cx="50" cy="50" rx="45" ry="45" fill="#8a8c90" />
      
      <!-- Глаза -->
      <circle cx="30" cy="40" r="10" fill="white" />
      <circle cx="70" cy="40" r="10" fill="white" />
      <circle cx="30" cy="40" r="5" fill="black" />
      <circle cx="70" cy="40" r="5" fill="black" />
      
      <!-- Нос -->
      <ellipse cx="50" cy="55" rx="10" ry="5" fill="#333" />
      
      <!-- Рот -->
      <path d="M 30 70 Q 50 80 70 70" stroke="black" stroke-width="3" fill="none" />
    </g>
  
      
    <text 
      x="50%" 
      y="85%" 
      font-family="Arial, sans-serif" 
      font-size="14" 
      font-weight="bold"
      text-anchor="middle"
      fill="white"
    >
      BAYC #20262 - COMMON
    </text>
  
    </svg>
  