
    <svg xmlns="http://www.w3.org/2000/svg" viewBox="0 0 400 400" width="400" height="400">
      <defs>
        
    <linearGradient id="gradient-20166" x1="0%" y1="0%" x2="100%" y2="100%">
      <stop offset="0%" stop-color="#34d399" stop-opacity="0.8" />
      <stop offset="50%" stop-color="#6ee7b7" stop-opacity="0.5" />
      <stop offset="100%" stop-color="#a7f3d0" stop-opacity="0.8" />
    </linearGradient>
  
      </defs>
      <rect width="100%" height="100%" fill="url(#gradient-20166)" />
      
      <rect 
        x="26%" 
        y="52%" 
        width="48%" 
        height="48%" 
        fill="#34d399"
        opacity="0.8"
        transform="rotate(264, 50%, 76%)"
      />
    
      <rect 
        x="52%" 
        y="78%" 
        width="34%" 
        height="34%" 
        fill="#6ee7b7"
        opacity="0.76"
        transform="rotate(330, 69%, 95%)"
      />
    
      <rect 
        x="78%" 
        y="4%" 
        width="20%" 
        height="20%" 
        fill="#a7f3d0"
        opacity="0.72"
        transform="rotate(36, 88%, 14%)"
      />
    
      <rect 
        x="4%" 
        y="30%" 
        width="46%" 
        height="46%" 
        fill="#34d399"
        opacity="0.68"
        transform="rotate(102, 27%, 53%)"
      />
    
      <rect 
        x="30%" 
        y="56%" 
        width="32%" 
        height="32%" 
        fill="#6ee7b7"
        opacity="0.64"
        transform="rotate(168, 46%, 72%)"
      />
    
      <rect 
        x="56%" 
        y="82%" 
        width="18%" 
        height="18%" 
        fill="#a7f3d0"
        opacity="0.6"
        transform="rotate(234, 65%, 91%)"
      />
    
      
    <g transform="translate(150, 100) scale(0.8)">
      <!-- Голова -->
      <ellipse cx="50" cy="50" rx="45" ry="45" fill="#34d399" />
      
      <!-- Глаза -->
      <circle cx="30" cy="40" r="10" fill="white" />
      <circle cx="70" cy="40" r="10" fill="white" />
      <circle cx="30" cy="40" r="5" fill="black" />
      <circle cx="70" cy="40" r="5" fill="black" />
      
      <!-- Нос -->
      <ellipse cx="50" cy="55" rx="10" ry="5" fill="#333" />
      
      <!-- Рот -->
      <path d="M 30 70 Q 50 80 70 70" stroke="black" stroke-width="3" fill="none" />
    </g>
  
      
    <text 
      x="50%" 
      y="85%" 
      font-family="Arial, sans-serif" 
      font-size="14" 
      font-weight="bold"
      text-anchor="middle"
      fill="white"
    >
      BAYC #20166 - UNCOMMON
    </text>
  
    </svg>
  