
    <svg xmlns="http://www.w3.org/2000/svg" viewBox="0 0 400 400" width="400" height="400">
      <defs>
        
    <linearGradient id="gradient-20277" x1="0%" y1="0%" x2="100%" y2="100%">
      <stop offset="0%" stop-color="#34d399" stop-opacity="0.8" />
      <stop offset="50%" stop-color="#6ee7b7" stop-opacity="0.5" />
      <stop offset="100%" stop-color="#a7f3d0" stop-opacity="0.8" />
    </linearGradient>
  
      </defs>
      <rect width="100%" height="100%" fill="url(#gradient-20277)" />
      
      <rect 
        x="47%" 
        y="94%" 
        width="31%" 
        height="31%" 
        fill="#34d399"
        opacity="0.95"
        transform="rotate(108, 62.5%, 109.5%)"
      />
    
      <rect 
        x="94%" 
        y="41%" 
        width="38%" 
        height="38%" 
        fill="#6ee7b7"
        opacity="0.52"
        transform="rotate(315, 113%, 60%)"
      />
    
      <rect 
        x="41%" 
        y="88%" 
        width="45%" 
        height="45%" 
        fill="#a7f3d0"
        opacity="0.79"
        transform="rotate(162, 63.5%, 110.5%)"
      />
    
      <rect 
        x="88%" 
        y="35%" 
        width="12%" 
        height="12%" 
        fill="#34d399"
        opacity="0.36"
        transform="rotate(9, 94%, 41%)"
      />
    
      <rect 
        x="35%" 
        y="82%" 
        width="19%" 
        height="19%" 
        fill="#6ee7b7"
        opacity="0.63"
        transform="rotate(216, 44.5%, 91.5%)"
      />
    
      <rect 
        x="82%" 
        y="29%" 
        width="26%" 
        height="26%" 
        fill="#a7f3d0"
        opacity="0.9"
        transform="rotate(63, 95%, 42%)"
      />
    
      
    <g transform="translate(150, 100) scale(0.8)">
      <!-- Голова -->
      <ellipse cx="50" cy="50" rx="45" ry="45" fill="#34d399" />
      
      <!-- Глаза -->
      <circle cx="30" cy="40" r="10" fill="white" />
      <circle cx="70" cy="40" r="10" fill="white" />
      <circle cx="30" cy="40" r="5" fill="black" />
      <circle cx="70" cy="40" r="5" fill="black" />
      
      <!-- Нос -->
      <ellipse cx="50" cy="55" rx="10" ry="5" fill="#333" />
      
      <!-- Рот -->
      <path d="M 30 70 Q 50 80 70 70" stroke="black" stroke-width="3" fill="none" />
    </g>
  
      
    <text 
      x="50%" 
      y="85%" 
      font-family="Arial, sans-serif" 
      font-size="14" 
      font-weight="bold"
      text-anchor="middle"
      fill="white"
    >
      BAYC #20277 - UNCOMMON
    </text>
  
    </svg>
  