
    <svg xmlns="http://www.w3.org/2000/svg" viewBox="0 0 400 400" width="400" height="400">
      <defs>
        
    <linearGradient id="gradient-20235" x1="0%" y1="0%" x2="100%" y2="100%">
      <stop offset="0%" stop-color="#fbbf24" stop-opacity="0.8" />
      <stop offset="50%" stop-color="#fcd34d" stop-opacity="0.5" />
      <stop offset="100%" stop-color="#fde68a" stop-opacity="0.8" />
    </linearGradient>
  
      </defs>
      <rect width="100%" height="100%" fill="url(#gradient-20235)" />
      
      <rect 
        x="85%" 
        y="70%" 
        width="45%" 
        height="45%" 
        fill="#fbbf24"
        opacity="0.95"
        transform="rotate(60, 107.5%, 92.5%)"
      />
    
      <rect 
        x="70%" 
        y="55%" 
        width="30%" 
        height="30%" 
        fill="#fcd34d"
        opacity="0.8"
        transform="rotate(165, 85%, 70%)"
      />
    
      <rect 
        x="55%" 
        y="40%" 
        width="15%" 
        height="15%" 
        fill="#fde68a"
        opacity="0.65"
        transform="rotate(270, 62.5%, 47.5%)"
      />
    
      <rect 
        x="40%" 
        y="25%" 
        width="40%" 
        height="40%" 
        fill="#fbbf24"
        opacity="0.5"
        transform="rotate(15, 60%, 45%)"
      />
    
      <rect 
        x="25%" 
        y="10%" 
        width="25%" 
        height="25%" 
        fill="#fcd34d"
        opacity="0.35"
        transform="rotate(120, 37.5%, 22.5%)"
      />
    
      <rect 
        x="10%" 
        y="95%" 
        width="10%" 
        height="10%" 
        fill="#fde68a"
        opacity="0.9"
        transform="rotate(225, 15%, 100%)"
      />
    
      
    <g transform="translate(150, 100) scale(0.8)">
      <!-- Голова -->
      <ellipse cx="50" cy="50" rx="45" ry="45" fill="#fbbf24" />
      
      <!-- Глаза -->
      <circle cx="30" cy="40" r="10" fill="white" />
      <circle cx="70" cy="40" r="10" fill="white" />
      <circle cx="30" cy="40" r="5" fill="black" />
      <circle cx="70" cy="40" r="5" fill="black" />
      
      <!-- Нос -->
      <ellipse cx="50" cy="55" rx="10" ry="5" fill="#333" />
      
      <!-- Рот -->
      <path d="M 30 70 Q 50 80 70 70" stroke="black" stroke-width="3" fill="none" />
    </g>
  
      
    <text 
      x="50%" 
      y="85%" 
      font-family="Arial, sans-serif" 
      font-size="14" 
      font-weight="bold"
      text-anchor="middle"
      fill="white"
    >
      BAYC #20235 - LEGENDARY
    </text>
  
    </svg>
  