
    <svg xmlns="http://www.w3.org/2000/svg" viewBox="0 0 400 400" width="400" height="400">
      <defs>
        
    <linearGradient id="gradient-20377" x1="0%" y1="0%" x2="100%" y2="100%">
      <stop offset="0%" stop-color="#8a8c90" stop-opacity="0.8" />
      <stop offset="50%" stop-color="#d2d5db" stop-opacity="0.5" />
      <stop offset="100%" stop-color="#e5e7eb" stop-opacity="0.8" />
    </linearGradient>
  
      </defs>
      <rect width="100%" height="100%" fill="url(#gradient-20377)" />
      
      <rect 
        x="47%" 
        y="94%" 
        width="11%" 
        height="11%" 
        fill="#d2d5db"
        opacity="0.65"
        transform="rotate(188, 52.5%, 99.5%)"
      />
    
      <rect 
        x="94%" 
        y="41%" 
        width="38%" 
        height="38%" 
        fill="#e5e7eb"
        opacity="0.72"
        transform="rotate(55, 113%, 60%)"
      />
    
      <rect 
        x="41%" 
        y="88%" 
        width="25%" 
        height="25%" 
        fill="#8a8c90"
        opacity="0.79"
        transform="rotate(282, 53.5%, 100.5%)"
      />
    
      <rect 
        x="88%" 
        y="35%" 
        width="12%" 
        height="12%" 
        fill="#d2d5db"
        opacity="0.86"
        transform="rotate(149, 94%, 41%)"
      />
    
      <rect 
        x="35%" 
        y="82%" 
        width="39%" 
        height="39%" 
        fill="#e5e7eb"
        opacity="0.93"
        transform="rotate(16, 54.5%, 101.5%)"
      />
    
      <rect 
        x="82%" 
        y="29%" 
        width="26%" 
        height="26%" 
        fill="#8a8c90"
        opacity="0.3"
        transform="rotate(243, 95%, 42%)"
      />
    
      
    <g transform="translate(150, 100) scale(0.8)">
      <!-- Голова -->
      <ellipse cx="50" cy="50" rx="45" ry="45" fill="#d2d5db" />
      
      <!-- Глаза -->
      <circle cx="30" cy="40" r="10" fill="white" />
      <circle cx="70" cy="40" r="10" fill="white" />
      <circle cx="30" cy="40" r="5" fill="black" />
      <circle cx="70" cy="40" r="5" fill="black" />
      
      <!-- Нос -->
      <ellipse cx="50" cy="55" rx="10" ry="5" fill="#333" />
      
      <!-- Рот -->
      <path d="M 30 70 Q 50 80 70 70" stroke="black" stroke-width="3" fill="none" />
    </g>
  
      
    <text 
      x="50%" 
      y="85%" 
      font-family="Arial, sans-serif" 
      font-size="14" 
      font-weight="bold"
      text-anchor="middle"
      fill="white"
    >
      BAYC #20377 - COMMON
    </text>
  
    </svg>
  