
    <svg xmlns="http://www.w3.org/2000/svg" viewBox="0 0 400 400" width="400" height="400">
      <defs>
        
    <linearGradient id="gradient-20057" x1="0%" y1="0%" x2="100%" y2="100%">
      <stop offset="0%" stop-color="#f87171" stop-opacity="0.8" />
      <stop offset="50%" stop-color="#fca5a5" stop-opacity="0.5" />
      <stop offset="100%" stop-color="#fecaca" stop-opacity="0.8" />
    </linearGradient>
  
      </defs>
      <rect width="100%" height="100%" fill="url(#gradient-20057)" />
      
      <rect 
        x="27%" 
        y="54%" 
        width="11%" 
        height="11%" 
        fill="#fecaca"
        opacity="0.35"
        transform="rotate(148, 32.5%, 59.5%)"
      />
    
      <rect 
        x="54%" 
        y="81%" 
        width="38%" 
        height="38%" 
        fill="#f87171"
        opacity="0.92"
        transform="rotate(95, 73%, 100%)"
      />
    
      <rect 
        x="81%" 
        y="8%" 
        width="25%" 
        height="25%" 
        fill="#fca5a5"
        opacity="0.79"
        transform="rotate(42, 93.5%, 20.5%)"
      />
    
      <rect 
        x="8%" 
        y="35%" 
        width="12%" 
        height="12%" 
        fill="#fecaca"
        opacity="0.66"
        transform="rotate(349, 14%, 41%)"
      />
    
      <rect 
        x="35%" 
        y="62%" 
        width="39%" 
        height="39%" 
        fill="#f87171"
        opacity="0.53"
        transform="rotate(296, 54.5%, 81.5%)"
      />
    
      <rect 
        x="62%" 
        y="89%" 
        width="26%" 
        height="26%" 
        fill="#fca5a5"
        opacity="0.4"
        transform="rotate(243, 75%, 102%)"
      />
    
      
    <g transform="translate(150, 100) scale(0.8)">
      <!-- Голова -->
      <ellipse cx="50" cy="50" rx="45" ry="45" fill="#fecaca" />
      
      <!-- Глаза -->
      <circle cx="30" cy="40" r="10" fill="white" />
      <circle cx="70" cy="40" r="10" fill="white" />
      <circle cx="30" cy="40" r="5" fill="black" />
      <circle cx="70" cy="40" r="5" fill="black" />
      
      <!-- Нос -->
      <ellipse cx="50" cy="55" rx="10" ry="5" fill="#333" />
      
      <!-- Рот -->
      <path d="M 30 70 Q 50 80 70 70" stroke="black" stroke-width="3" fill="none" />
    </g>
  
      
    <text 
      x="50%" 
      y="85%" 
      font-family="Arial, sans-serif" 
      font-size="14" 
      font-weight="bold"
      text-anchor="middle"
      fill="white"
    >
      BAYC #20057 - EPIC
    </text>
  
    </svg>
  