
    <svg xmlns="http://www.w3.org/2000/svg" viewBox="0 0 400 400" width="400" height="400">
      <defs>
        
    <linearGradient id="gradient-20206" x1="0%" y1="0%" x2="100%" y2="100%">
      <stop offset="0%" stop-color="#8a8c90" stop-opacity="0.8" />
      <stop offset="50%" stop-color="#d2d5db" stop-opacity="0.5" />
      <stop offset="100%" stop-color="#e5e7eb" stop-opacity="0.8" />
    </linearGradient>
  
      </defs>
      <rect width="100%" height="100%" fill="url(#gradient-20206)" />
      
      <rect 
        x="66%" 
        y="32%" 
        width="48%" 
        height="48%" 
        fill="#d2d5db"
        opacity="0.4"
        transform="rotate(224, 90%, 56%)"
      />
    
      <rect 
        x="32%" 
        y="98%" 
        width="34%" 
        height="34%" 
        fill="#e5e7eb"
        opacity="0.56"
        transform="rotate(10, 49%, 115%)"
      />
    
      <rect 
        x="98%" 
        y="64%" 
        width="20%" 
        height="20%" 
        fill="#8a8c90"
        opacity="0.72"
        transform="rotate(156, 108%, 74%)"
      />
    
      <rect 
        x="64%" 
        y="30%" 
        width="46%" 
        height="46%" 
        fill="#d2d5db"
        opacity="0.88"
        transform="rotate(302, 87%, 53%)"
      />
    
      <rect 
        x="30%" 
        y="96%" 
        width="32%" 
        height="32%" 
        fill="#e5e7eb"
        opacity="0.34"
        transform="rotate(88, 46%, 112%)"
      />
    
      <rect 
        x="96%" 
        y="62%" 
        width="18%" 
        height="18%" 
        fill="#8a8c90"
        opacity="0.5"
        transform="rotate(234, 105%, 71%)"
      />
    
      
    <g transform="translate(150, 100) scale(0.8)">
      <!-- Голова -->
      <ellipse cx="50" cy="50" rx="45" ry="45" fill="#d2d5db" />
      
      <!-- Глаза -->
      <circle cx="30" cy="40" r="10" fill="white" />
      <circle cx="70" cy="40" r="10" fill="white" />
      <circle cx="30" cy="40" r="5" fill="black" />
      <circle cx="70" cy="40" r="5" fill="black" />
      
      <!-- Нос -->
      <ellipse cx="50" cy="55" rx="10" ry="5" fill="#333" />
      
      <!-- Рот -->
      <path d="M 30 70 Q 50 80 70 70" stroke="black" stroke-width="3" fill="none" />
    </g>
  
      
    <text 
      x="50%" 
      y="85%" 
      font-family="Arial, sans-serif" 
      font-size="14" 
      font-weight="bold"
      text-anchor="middle"
      fill="white"
    >
      BAYC #20206 - COMMON
    </text>
  
    </svg>
  