
    <svg xmlns="http://www.w3.org/2000/svg" viewBox="0 0 400 400" width="400" height="400">
      <defs>
        
    <linearGradient id="gradient-20294" x1="0%" y1="0%" x2="100%" y2="100%">
      <stop offset="0%" stop-color="#fbbf24" stop-opacity="0.8" />
      <stop offset="50%" stop-color="#fcd34d" stop-opacity="0.5" />
      <stop offset="100%" stop-color="#fde68a" stop-opacity="0.8" />
    </linearGradient>
  
      </defs>
      <rect width="100%" height="100%" fill="url(#gradient-20294)" />
      
      <rect 
        x="34%" 
        y="68%" 
        width="32%" 
        height="32%" 
        fill="#fde68a"
        opacity="0.5"
        transform="rotate(136, 50%, 84%)"
      />
    
      <rect 
        x="68%" 
        y="2%" 
        width="26%" 
        height="26%" 
        fill="#fbbf24"
        opacity="0.54"
        transform="rotate(170, 81%, 15%)"
      />
    
      <rect 
        x="2%" 
        y="36%" 
        width="20%" 
        height="20%" 
        fill="#fcd34d"
        opacity="0.58"
        transform="rotate(204, 12%, 46%)"
      />
    
      <rect 
        x="36%" 
        y="70%" 
        width="14%" 
        height="14%" 
        fill="#fde68a"
        opacity="0.62"
        transform="rotate(238, 43%, 77%)"
      />
    
      <rect 
        x="70%" 
        y="4%" 
        width="48%" 
        height="48%" 
        fill="#fbbf24"
        opacity="0.66"
        transform="rotate(272, 94%, 28%)"
      />
    
      <rect 
        x="4%" 
        y="38%" 
        width="42%" 
        height="42%" 
        fill="#fcd34d"
        opacity="0.7"
        transform="rotate(306, 25%, 59%)"
      />
    
      
    <g transform="translate(150, 100) scale(0.8)">
      <!-- Голова -->
      <ellipse cx="50" cy="50" rx="45" ry="45" fill="#fde68a" />
      
      <!-- Глаза -->
      <circle cx="30" cy="40" r="10" fill="white" />
      <circle cx="70" cy="40" r="10" fill="white" />
      <circle cx="30" cy="40" r="5" fill="black" />
      <circle cx="70" cy="40" r="5" fill="black" />
      
      <!-- Нос -->
      <ellipse cx="50" cy="55" rx="10" ry="5" fill="#333" />
      
      <!-- Рот -->
      <path d="M 30 70 Q 50 80 70 70" stroke="black" stroke-width="3" fill="none" />
    </g>
  
      
    <text 
      x="50%" 
      y="85%" 
      font-family="Arial, sans-serif" 
      font-size="14" 
      font-weight="bold"
      text-anchor="middle"
      fill="white"
    >
      BAYC #20294 - LEGENDARY
    </text>
  
    </svg>
  