
    <svg xmlns="http://www.w3.org/2000/svg" viewBox="0 0 400 400" width="400" height="400">
      <defs>
        
    <linearGradient id="gradient-20338" x1="0%" y1="0%" x2="100%" y2="100%">
      <stop offset="0%" stop-color="#34d399" stop-opacity="0.8" />
      <stop offset="50%" stop-color="#6ee7b7" stop-opacity="0.5" />
      <stop offset="100%" stop-color="#a7f3d0" stop-opacity="0.8" />
    </linearGradient>
  
      </defs>
      <rect width="100%" height="100%" fill="url(#gradient-20338)" />
      
      <rect 
        x="18%" 
        y="36%" 
        width="44%" 
        height="44%" 
        fill="#6ee7b7"
        opacity="0.9"
        transform="rotate(272, 40%, 58%)"
      />
    
      <rect 
        x="36%" 
        y="54%" 
        width="42%" 
        height="42%" 
        fill="#a7f3d0"
        opacity="0.88"
        transform="rotate(70, 57%, 75%)"
      />
    
      <rect 
        x="54%" 
        y="72%" 
        width="40%" 
        height="40%" 
        fill="#34d399"
        opacity="0.86"
        transform="rotate(228, 74%, 92%)"
      />
    
      <rect 
        x="72%" 
        y="90%" 
        width="38%" 
        height="38%" 
        fill="#6ee7b7"
        opacity="0.84"
        transform="rotate(26, 91%, 109%)"
      />
    
      <rect 
        x="90%" 
        y="8%" 
        width="36%" 
        height="36%" 
        fill="#a7f3d0"
        opacity="0.82"
        transform="rotate(184, 108%, 26%)"
      />
    
      <rect 
        x="8%" 
        y="26%" 
        width="34%" 
        height="34%" 
        fill="#34d399"
        opacity="0.8"
        transform="rotate(342, 25%, 43%)"
      />
    
      
    <g transform="translate(150, 100) scale(0.8)">
      <!-- Голова -->
      <ellipse cx="50" cy="50" rx="45" ry="45" fill="#6ee7b7" />
      
      <!-- Глаза -->
      <circle cx="30" cy="40" r="10" fill="white" />
      <circle cx="70" cy="40" r="10" fill="white" />
      <circle cx="30" cy="40" r="5" fill="black" />
      <circle cx="70" cy="40" r="5" fill="black" />
      
      <!-- Нос -->
      <ellipse cx="50" cy="55" rx="10" ry="5" fill="#333" />
      
      <!-- Рот -->
      <path d="M 30 70 Q 50 80 70 70" stroke="black" stroke-width="3" fill="none" />
    </g>
  
      
    <text 
      x="50%" 
      y="85%" 
      font-family="Arial, sans-serif" 
      font-size="14" 
      font-weight="bold"
      text-anchor="middle"
      fill="white"
    >
      BAYC #20338 - UNCOMMON
    </text>
  
    </svg>
  