
    <svg xmlns="http://www.w3.org/2000/svg" viewBox="0 0 400 400" width="400" height="400">
      <defs>
        
    <linearGradient id="gradient-20116" x1="0%" y1="0%" x2="100%" y2="100%">
      <stop offset="0%" stop-color="#f87171" stop-opacity="0.8" />
      <stop offset="50%" stop-color="#fca5a5" stop-opacity="0.5" />
      <stop offset="100%" stop-color="#fecaca" stop-opacity="0.8" />
    </linearGradient>
  
      </defs>
      <rect width="100%" height="100%" fill="url(#gradient-20116)" />
      
      <rect 
        x="76%" 
        y="52%" 
        width="38%" 
        height="38%" 
        fill="#fca5a5"
        opacity="0.6"
        transform="rotate(224, 95%, 71%)"
      />
    
      <rect 
        x="52%" 
        y="28%" 
        width="34%" 
        height="34%" 
        fill="#fecaca"
        opacity="0.66"
        transform="rotate(100, 69%, 45%)"
      />
    
      <rect 
        x="28%" 
        y="4%" 
        width="30%" 
        height="30%" 
        fill="#f87171"
        opacity="0.72"
        transform="rotate(336, 43%, 19%)"
      />
    
      <rect 
        x="4%" 
        y="80%" 
        width="26%" 
        height="26%" 
        fill="#fca5a5"
        opacity="0.78"
        transform="rotate(212, 17%, 93%)"
      />
    
      <rect 
        x="80%" 
        y="56%" 
        width="22%" 
        height="22%" 
        fill="#fecaca"
        opacity="0.84"
        transform="rotate(88, 91%, 67%)"
      />
    
      <rect 
        x="56%" 
        y="32%" 
        width="18%" 
        height="18%" 
        fill="#f87171"
        opacity="0.9"
        transform="rotate(324, 65%, 41%)"
      />
    
      
    <g transform="translate(150, 100) scale(0.8)">
      <!-- Голова -->
      <ellipse cx="50" cy="50" rx="45" ry="45" fill="#fca5a5" />
      
      <!-- Глаза -->
      <circle cx="30" cy="40" r="10" fill="white" />
      <circle cx="70" cy="40" r="10" fill="white" />
      <circle cx="30" cy="40" r="5" fill="black" />
      <circle cx="70" cy="40" r="5" fill="black" />
      
      <!-- Нос -->
      <ellipse cx="50" cy="55" rx="10" ry="5" fill="#333" />
      
      <!-- Рот -->
      <path d="M 30 70 Q 50 80 70 70" stroke="black" stroke-width="3" fill="none" />
    </g>
  
      
    <text 
      x="50%" 
      y="85%" 
      font-family="Arial, sans-serif" 
      font-size="14" 
      font-weight="bold"
      text-anchor="middle"
      fill="white"
    >
      BAYC #20116 - EPIC
    </text>
  
    </svg>
  