
    <svg xmlns="http://www.w3.org/2000/svg" viewBox="0 0 400 400" width="400" height="400">
      <defs>
        
    <linearGradient id="gradient-20352" x1="0%" y1="0%" x2="100%" y2="100%">
      <stop offset="0%" stop-color="#f87171" stop-opacity="0.8" />
      <stop offset="50%" stop-color="#fca5a5" stop-opacity="0.5" />
      <stop offset="100%" stop-color="#fecaca" stop-opacity="0.8" />
    </linearGradient>
  
      </defs>
      <rect width="100%" height="100%" fill="url(#gradient-20352)" />
      
      <rect 
        x="72%" 
        y="44%" 
        width="26%" 
        height="26%" 
        fill="#f87171"
        opacity="0.9"
        transform="rotate(168, 85%, 57%)"
      />
    
      <rect 
        x="44%" 
        y="16%" 
        width="18%" 
        height="18%" 
        fill="#fca5a5"
        opacity="0.32"
        transform="rotate(120, 53%, 25%)"
      />
    
      <rect 
        x="16%" 
        y="88%" 
        width="10%" 
        height="10%" 
        fill="#fecaca"
        opacity="0.44"
        transform="rotate(72, 21%, 93%)"
      />
    
      <rect 
        x="88%" 
        y="60%" 
        width="42%" 
        height="42%" 
        fill="#f87171"
        opacity="0.56"
        transform="rotate(24, 109%, 81%)"
      />
    
      <rect 
        x="60%" 
        y="32%" 
        width="34%" 
        height="34%" 
        fill="#fca5a5"
        opacity="0.68"
        transform="rotate(336, 77%, 49%)"
      />
    
      <rect 
        x="32%" 
        y="4%" 
        width="26%" 
        height="26%" 
        fill="#fecaca"
        opacity="0.8"
        transform="rotate(288, 45%, 17%)"
      />
    
      
    <g transform="translate(150, 100) scale(0.8)">
      <!-- Голова -->
      <ellipse cx="50" cy="50" rx="45" ry="45" fill="#f87171" />
      
      <!-- Глаза -->
      <circle cx="30" cy="40" r="10" fill="white" />
      <circle cx="70" cy="40" r="10" fill="white" />
      <circle cx="30" cy="40" r="5" fill="black" />
      <circle cx="70" cy="40" r="5" fill="black" />
      
      <!-- Нос -->
      <ellipse cx="50" cy="55" rx="10" ry="5" fill="#333" />
      
      <!-- Рот -->
      <path d="M 30 70 Q 50 80 70 70" stroke="black" stroke-width="3" fill="none" />
    </g>
  
      
    <text 
      x="50%" 
      y="85%" 
      font-family="Arial, sans-serif" 
      font-size="14" 
      font-weight="bold"
      text-anchor="middle"
      fill="white"
    >
      BAYC #20352 - EPIC
    </text>
  
    </svg>
  