
    <svg xmlns="http://www.w3.org/2000/svg" viewBox="0 0 400 400" width="400" height="400">
      <defs>
        
    <linearGradient id="gradient-20049" x1="0%" y1="0%" x2="100%" y2="100%">
      <stop offset="0%" stop-color="#34d399" stop-opacity="0.8" />
      <stop offset="50%" stop-color="#6ee7b7" stop-opacity="0.5" />
      <stop offset="100%" stop-color="#a7f3d0" stop-opacity="0.8" />
    </linearGradient>
  
      </defs>
      <rect width="100%" height="100%" fill="url(#gradient-20049)" />
      
      <rect 
        x="39%" 
        y="78%" 
        width="27%" 
        height="27%" 
        fill="#34d399"
        opacity="0.85"
        transform="rotate(156, 52.5%, 91.5%)"
      />
    
      <rect 
        x="78%" 
        y="17%" 
        width="46%" 
        height="46%" 
        fill="#6ee7b7"
        opacity="0.54"
        transform="rotate(15, 101%, 40%)"
      />
    
      <rect 
        x="17%" 
        y="56%" 
        width="25%" 
        height="25%" 
        fill="#a7f3d0"
        opacity="0.93"
        transform="rotate(234, 29.5%, 68.5%)"
      />
    
      <rect 
        x="56%" 
        y="95%" 
        width="44%" 
        height="44%" 
        fill="#34d399"
        opacity="0.62"
        transform="rotate(93, 78%, 117%)"
      />
    
      <rect 
        x="95%" 
        y="34%" 
        width="23%" 
        height="23%" 
        fill="#6ee7b7"
        opacity="0.31"
        transform="rotate(312, 106.5%, 45.5%)"
      />
    
      <rect 
        x="34%" 
        y="73%" 
        width="42%" 
        height="42%" 
        fill="#a7f3d0"
        opacity="0.7"
        transform="rotate(171, 55%, 94%)"
      />
    
      
    <g transform="translate(150, 100) scale(0.8)">
      <!-- Голова -->
      <ellipse cx="50" cy="50" rx="45" ry="45" fill="#34d399" />
      
      <!-- Глаза -->
      <circle cx="30" cy="40" r="10" fill="white" />
      <circle cx="70" cy="40" r="10" fill="white" />
      <circle cx="30" cy="40" r="5" fill="black" />
      <circle cx="70" cy="40" r="5" fill="black" />
      
      <!-- Нос -->
      <ellipse cx="50" cy="55" rx="10" ry="5" fill="#333" />
      
      <!-- Рот -->
      <path d="M 30 70 Q 50 80 70 70" stroke="black" stroke-width="3" fill="none" />
    </g>
  
      
    <text 
      x="50%" 
      y="85%" 
      font-family="Arial, sans-serif" 
      font-size="14" 
      font-weight="bold"
      text-anchor="middle"
      fill="white"
    >
      BAYC #20049 - UNCOMMON
    </text>
  
    </svg>
  