
    <svg xmlns="http://www.w3.org/2000/svg" viewBox="0 0 400 400" width="400" height="400">
      <defs>
        
    <linearGradient id="gradient-20168" x1="0%" y1="0%" x2="100%" y2="100%">
      <stop offset="0%" stop-color="#60a5fa" stop-opacity="0.8" />
      <stop offset="50%" stop-color="#93c5fd" stop-opacity="0.5" />
      <stop offset="100%" stop-color="#bfdbfe" stop-opacity="0.8" />
    </linearGradient>
  
      </defs>
      <rect width="100%" height="100%" fill="url(#gradient-20168)" />
      
      <rect 
        x="48%" 
        y="96%" 
        width="34%" 
        height="34%" 
        fill="#bfdbfe"
        opacity="0.5"
        transform="rotate(352, 65%, 113%)"
      />
    
      <rect 
        x="96%" 
        y="44%" 
        width="42%" 
        height="42%" 
        fill="#60a5fa"
        opacity="0.68"
        transform="rotate(80, 117%, 65%)"
      />
    
      <rect 
        x="44%" 
        y="92%" 
        width="10%" 
        height="10%" 
        fill="#93c5fd"
        opacity="0.86"
        transform="rotate(168, 49%, 97%)"
      />
    
      <rect 
        x="92%" 
        y="40%" 
        width="18%" 
        height="18%" 
        fill="#bfdbfe"
        opacity="0.34"
        transform="rotate(256, 101%, 49%)"
      />
    
      <rect 
        x="40%" 
        y="88%" 
        width="26%" 
        height="26%" 
        fill="#60a5fa"
        opacity="0.52"
        transform="rotate(344, 53%, 101%)"
      />
    
      <rect 
        x="88%" 
        y="36%" 
        width="34%" 
        height="34%" 
        fill="#93c5fd"
        opacity="0.7"
        transform="rotate(72, 105%, 53%)"
      />
    
      
    <g transform="translate(150, 100) scale(0.8)">
      <!-- Голова -->
      <ellipse cx="50" cy="50" rx="45" ry="45" fill="#bfdbfe" />
      
      <!-- Глаза -->
      <circle cx="30" cy="40" r="10" fill="white" />
      <circle cx="70" cy="40" r="10" fill="white" />
      <circle cx="30" cy="40" r="5" fill="black" />
      <circle cx="70" cy="40" r="5" fill="black" />
      
      <!-- Нос -->
      <ellipse cx="50" cy="55" rx="10" ry="5" fill="#333" />
      
      <!-- Рот -->
      <path d="M 30 70 Q 50 80 70 70" stroke="black" stroke-width="3" fill="none" />
    </g>
  
      
    <text 
      x="50%" 
      y="85%" 
      font-family="Arial, sans-serif" 
      font-size="14" 
      font-weight="bold"
      text-anchor="middle"
      fill="white"
    >
      BAYC #20168 - RARE
    </text>
  
    </svg>
  