
    <svg xmlns="http://www.w3.org/2000/svg" viewBox="0 0 400 400" width="400" height="400">
      <defs>
        
    <linearGradient id="gradient-20024" x1="0%" y1="0%" x2="100%" y2="100%">
      <stop offset="0%" stop-color="#8a8c90" stop-opacity="0.8" />
      <stop offset="50%" stop-color="#d2d5db" stop-opacity="0.5" />
      <stop offset="100%" stop-color="#e5e7eb" stop-opacity="0.8" />
    </linearGradient>
  
      </defs>
      <rect width="100%" height="100%" fill="url(#gradient-20024)" />
      
      <rect 
        x="64%" 
        y="28%" 
        width="42%" 
        height="42%" 
        fill="#e5e7eb"
        opacity="0.4"
        transform="rotate(136, 85%, 49%)"
      />
    
      <rect 
        x="28%" 
        y="92%" 
        width="26%" 
        height="26%" 
        fill="#8a8c90"
        opacity="0.84"
        transform="rotate(80, 41%, 105%)"
      />
    
      <rect 
        x="92%" 
        y="56%" 
        width="10%" 
        height="10%" 
        fill="#d2d5db"
        opacity="0.58"
        transform="rotate(24, 97%, 61%)"
      />
    
      <rect 
        x="56%" 
        y="20%" 
        width="34%" 
        height="34%" 
        fill="#e5e7eb"
        opacity="0.32"
        transform="rotate(328, 73%, 37%)"
      />
    
      <rect 
        x="20%" 
        y="84%" 
        width="18%" 
        height="18%" 
        fill="#8a8c90"
        opacity="0.76"
        transform="rotate(272, 29%, 93%)"
      />
    
      <rect 
        x="84%" 
        y="48%" 
        width="42%" 
        height="42%" 
        fill="#d2d5db"
        opacity="0.5"
        transform="rotate(216, 105%, 69%)"
      />
    
      
    <g transform="translate(150, 100) scale(0.8)">
      <!-- Голова -->
      <ellipse cx="50" cy="50" rx="45" ry="45" fill="#e5e7eb" />
      
      <!-- Глаза -->
      <circle cx="30" cy="40" r="10" fill="white" />
      <circle cx="70" cy="40" r="10" fill="white" />
      <circle cx="30" cy="40" r="5" fill="black" />
      <circle cx="70" cy="40" r="5" fill="black" />
      
      <!-- Нос -->
      <ellipse cx="50" cy="55" rx="10" ry="5" fill="#333" />
      
      <!-- Рот -->
      <path d="M 30 70 Q 50 80 70 70" stroke="black" stroke-width="3" fill="none" />
    </g>
  
      
    <text 
      x="50%" 
      y="85%" 
      font-family="Arial, sans-serif" 
      font-size="14" 
      font-weight="bold"
      text-anchor="middle"
      fill="white"
    >
      BAYC #20024 - COMMON
    </text>
  
    </svg>
  