
    <svg xmlns="http://www.w3.org/2000/svg" viewBox="0 0 400 400" width="400" height="400">
      <defs>
        
    <linearGradient id="gradient-20087" x1="0%" y1="0%" x2="100%" y2="100%">
      <stop offset="0%" stop-color="#8a8c90" stop-opacity="0.8" />
      <stop offset="50%" stop-color="#d2d5db" stop-opacity="0.5" />
      <stop offset="100%" stop-color="#e5e7eb" stop-opacity="0.8" />
    </linearGradient>
  
      </defs>
      <rect width="100%" height="100%" fill="url(#gradient-20087)" />
      
      <rect 
        x="57%" 
        y="14%" 
        width="41%" 
        height="41%" 
        fill="#e5e7eb"
        opacity="0.75"
        transform="rotate(28, 77.5%, 34.5%)"
      />
    
      <rect 
        x="14%" 
        y="71%" 
        width="38%" 
        height="38%" 
        fill="#8a8c90"
        opacity="0.42"
        transform="rotate(305, 33%, 90%)"
      />
    
      <rect 
        x="71%" 
        y="28%" 
        width="35%" 
        height="35%" 
        fill="#d2d5db"
        opacity="0.79"
        transform="rotate(222, 88.5%, 45.5%)"
      />
    
      <rect 
        x="28%" 
        y="85%" 
        width="32%" 
        height="32%" 
        fill="#e5e7eb"
        opacity="0.46"
        transform="rotate(139, 44%, 101%)"
      />
    
      <rect 
        x="85%" 
        y="42%" 
        width="29%" 
        height="29%" 
        fill="#8a8c90"
        opacity="0.83"
        transform="rotate(56, 99.5%, 56.5%)"
      />
    
      <rect 
        x="42%" 
        y="99%" 
        width="26%" 
        height="26%" 
        fill="#d2d5db"
        opacity="0.5"
        transform="rotate(333, 55%, 112%)"
      />
    
      
    <g transform="translate(150, 100) scale(0.8)">
      <!-- Голова -->
      <ellipse cx="50" cy="50" rx="45" ry="45" fill="#e5e7eb" />
      
      <!-- Глаза -->
      <circle cx="30" cy="40" r="10" fill="white" />
      <circle cx="70" cy="40" r="10" fill="white" />
      <circle cx="30" cy="40" r="5" fill="black" />
      <circle cx="70" cy="40" r="5" fill="black" />
      
      <!-- Нос -->
      <ellipse cx="50" cy="55" rx="10" ry="5" fill="#333" />
      
      <!-- Рот -->
      <path d="M 30 70 Q 50 80 70 70" stroke="black" stroke-width="3" fill="none" />
    </g>
  
      
    <text 
      x="50%" 
      y="85%" 
      font-family="Arial, sans-serif" 
      font-size="14" 
      font-weight="bold"
      text-anchor="middle"
      fill="white"
    >
      BAYC #20087 - COMMON
    </text>
  
    </svg>
  