
    <svg xmlns="http://www.w3.org/2000/svg" viewBox="0 0 400 400" width="400" height="400">
      <defs>
        
    <linearGradient id="gradient-20131" x1="0%" y1="0%" x2="100%" y2="100%">
      <stop offset="0%" stop-color="#8a8c90" stop-opacity="0.8" />
      <stop offset="50%" stop-color="#d2d5db" stop-opacity="0.5" />
      <stop offset="100%" stop-color="#e5e7eb" stop-opacity="0.8" />
    </linearGradient>
  
      </defs>
      <rect width="100%" height="100%" fill="url(#gradient-20131)" />
      
      <rect 
        x="41%" 
        y="82%" 
        width="13%" 
        height="13%" 
        fill="#d2d5db"
        opacity="0.45"
        transform="rotate(164, 47.5%, 88.5%)"
      />
    
      <rect 
        x="82%" 
        y="23%" 
        width="14%" 
        height="14%" 
        fill="#e5e7eb"
        opacity="0.76"
        transform="rotate(205, 89%, 30%)"
      />
    
      <rect 
        x="23%" 
        y="64%" 
        width="15%" 
        height="15%" 
        fill="#8a8c90"
        opacity="0.37"
        transform="rotate(246, 30.5%, 71.5%)"
      />
    
      <rect 
        x="64%" 
        y="5%" 
        width="16%" 
        height="16%" 
        fill="#d2d5db"
        opacity="0.68"
        transform="rotate(287, 72%, 13%)"
      />
    
      <rect 
        x="5%" 
        y="46%" 
        width="17%" 
        height="17%" 
        fill="#e5e7eb"
        opacity="0.99"
        transform="rotate(328, 13.5%, 54.5%)"
      />
    
      <rect 
        x="46%" 
        y="87%" 
        width="18%" 
        height="18%" 
        fill="#8a8c90"
        opacity="0.6"
        transform="rotate(9, 55%, 96%)"
      />
    
      
    <g transform="translate(150, 100) scale(0.8)">
      <!-- Голова -->
      <ellipse cx="50" cy="50" rx="45" ry="45" fill="#d2d5db" />
      
      <!-- Глаза -->
      <circle cx="30" cy="40" r="10" fill="white" />
      <circle cx="70" cy="40" r="10" fill="white" />
      <circle cx="30" cy="40" r="5" fill="black" />
      <circle cx="70" cy="40" r="5" fill="black" />
      
      <!-- Нос -->
      <ellipse cx="50" cy="55" rx="10" ry="5" fill="#333" />
      
      <!-- Рот -->
      <path d="M 30 70 Q 50 80 70 70" stroke="black" stroke-width="3" fill="none" />
    </g>
  
      
    <text 
      x="50%" 
      y="85%" 
      font-family="Arial, sans-serif" 
      font-size="14" 
      font-weight="bold"
      text-anchor="middle"
      fill="white"
    >
      BAYC #20131 - COMMON
    </text>
  
    </svg>
  