
    <svg xmlns="http://www.w3.org/2000/svg" viewBox="0 0 400 400" width="400" height="400">
      <defs>
        
    <linearGradient id="gradient-20118" x1="0%" y1="0%" x2="100%" y2="100%">
      <stop offset="0%" stop-color="#8a8c90" stop-opacity="0.8" />
      <stop offset="50%" stop-color="#d2d5db" stop-opacity="0.5" />
      <stop offset="100%" stop-color="#e5e7eb" stop-opacity="0.8" />
    </linearGradient>
  
      </defs>
      <rect width="100%" height="100%" fill="url(#gradient-20118)" />
      
      <rect 
        x="98%" 
        y="96%" 
        width="24%" 
        height="24%" 
        fill="#8a8c90"
        opacity="0.3"
        transform="rotate(312, 110%, 108%)"
      />
    
      <rect 
        x="96%" 
        y="94%" 
        width="42%" 
        height="42%" 
        fill="#d2d5db"
        opacity="0.58"
        transform="rotate(210, 117%, 115%)"
      />
    
      <rect 
        x="94%" 
        y="92%" 
        width="20%" 
        height="20%" 
        fill="#e5e7eb"
        opacity="0.86"
        transform="rotate(108, 104%, 102%)"
      />
    
      <rect 
        x="92%" 
        y="90%" 
        width="38%" 
        height="38%" 
        fill="#8a8c90"
        opacity="0.44"
        transform="rotate(6, 111%, 109%)"
      />
    
      <rect 
        x="90%" 
        y="88%" 
        width="16%" 
        height="16%" 
        fill="#d2d5db"
        opacity="0.72"
        transform="rotate(264, 98%, 96%)"
      />
    
      <rect 
        x="88%" 
        y="86%" 
        width="34%" 
        height="34%" 
        fill="#e5e7eb"
        opacity="0.3"
        transform="rotate(162, 105%, 103%)"
      />
    
      
    <g transform="translate(150, 100) scale(0.8)">
      <!-- Голова -->
      <ellipse cx="50" cy="50" rx="45" ry="45" fill="#8a8c90" />
      
      <!-- Глаза -->
      <circle cx="30" cy="40" r="10" fill="white" />
      <circle cx="70" cy="40" r="10" fill="white" />
      <circle cx="30" cy="40" r="5" fill="black" />
      <circle cx="70" cy="40" r="5" fill="black" />
      
      <!-- Нос -->
      <ellipse cx="50" cy="55" rx="10" ry="5" fill="#333" />
      
      <!-- Рот -->
      <path d="M 30 70 Q 50 80 70 70" stroke="black" stroke-width="3" fill="none" />
    </g>
  
      
    <text 
      x="50%" 
      y="85%" 
      font-family="Arial, sans-serif" 
      font-size="14" 
      font-weight="bold"
      text-anchor="middle"
      fill="white"
    >
      BAYC #20118 - COMMON
    </text>
  
    </svg>
  