
    <svg xmlns="http://www.w3.org/2000/svg" viewBox="0 0 400 400" width="400" height="400">
      <defs>
        
    <linearGradient id="gradient-20343" x1="0%" y1="0%" x2="100%" y2="100%">
      <stop offset="0%" stop-color="#34d399" stop-opacity="0.8" />
      <stop offset="50%" stop-color="#6ee7b7" stop-opacity="0.5" />
      <stop offset="100%" stop-color="#a7f3d0" stop-opacity="0.8" />
    </linearGradient>
  
      </defs>
      <rect width="100%" height="100%" fill="url(#gradient-20343)" />
      
      <rect 
        x="73%" 
        y="46%" 
        width="49%" 
        height="49%" 
        fill="#34d399"
        opacity="0.85"
        transform="rotate(132, 97.5%, 70.5%)"
      />
    
      <rect 
        x="46%" 
        y="19%" 
        width="22%" 
        height="22%" 
        fill="#6ee7b7"
        opacity="0.68"
        transform="rotate(345, 57%, 30%)"
      />
    
      <rect 
        x="19%" 
        y="92%" 
        width="35%" 
        height="35%" 
        fill="#a7f3d0"
        opacity="0.51"
        transform="rotate(198, 36.5%, 109.5%)"
      />
    
      <rect 
        x="92%" 
        y="65%" 
        width="48%" 
        height="48%" 
        fill="#34d399"
        opacity="0.34"
        transform="rotate(51, 116%, 89%)"
      />
    
      <rect 
        x="65%" 
        y="38%" 
        width="21%" 
        height="21%" 
        fill="#6ee7b7"
        opacity="0.87"
        transform="rotate(264, 75.5%, 48.5%)"
      />
    
      <rect 
        x="38%" 
        y="11%" 
        width="34%" 
        height="34%" 
        fill="#a7f3d0"
        opacity="0.7"
        transform="rotate(117, 55%, 28%)"
      />
    
      
    <g transform="translate(150, 100) scale(0.8)">
      <!-- Голова -->
      <ellipse cx="50" cy="50" rx="45" ry="45" fill="#34d399" />
      
      <!-- Глаза -->
      <circle cx="30" cy="40" r="10" fill="white" />
      <circle cx="70" cy="40" r="10" fill="white" />
      <circle cx="30" cy="40" r="5" fill="black" />
      <circle cx="70" cy="40" r="5" fill="black" />
      
      <!-- Нос -->
      <ellipse cx="50" cy="55" rx="10" ry="5" fill="#333" />
      
      <!-- Рот -->
      <path d="M 30 70 Q 50 80 70 70" stroke="black" stroke-width="3" fill="none" />
    </g>
  
      
    <text 
      x="50%" 
      y="85%" 
      font-family="Arial, sans-serif" 
      font-size="14" 
      font-weight="bold"
      text-anchor="middle"
      fill="white"
    >
      BAYC #20343 - UNCOMMON
    </text>
  
    </svg>
  