
    <svg xmlns="http://www.w3.org/2000/svg" viewBox="0 0 400 400" width="400" height="400">
      <defs>
        
    <linearGradient id="gradient-20103" x1="0%" y1="0%" x2="100%" y2="100%">
      <stop offset="0%" stop-color="#34d399" stop-opacity="0.8" />
      <stop offset="50%" stop-color="#6ee7b7" stop-opacity="0.5" />
      <stop offset="100%" stop-color="#a7f3d0" stop-opacity="0.8" />
    </linearGradient>
  
      </defs>
      <rect width="100%" height="100%" fill="url(#gradient-20103)" />
      
      <rect 
        x="33%" 
        y="66%" 
        width="49%" 
        height="49%" 
        fill="#34d399"
        opacity="0.45"
        transform="rotate(12, 57.5%, 90.5%)"
      />
    
      <rect 
        x="66%" 
        y="99%" 
        width="22%" 
        height="22%" 
        fill="#6ee7b7"
        opacity="0.48"
        transform="rotate(105, 77%, 110%)"
      />
    
      <rect 
        x="99%" 
        y="32%" 
        width="35%" 
        height="35%" 
        fill="#a7f3d0"
        opacity="0.51"
        transform="rotate(198, 116.5%, 49.5%)"
      />
    
      <rect 
        x="32%" 
        y="65%" 
        width="48%" 
        height="48%" 
        fill="#34d399"
        opacity="0.54"
        transform="rotate(291, 56%, 89%)"
      />
    
      <rect 
        x="65%" 
        y="98%" 
        width="21%" 
        height="21%" 
        fill="#6ee7b7"
        opacity="0.57"
        transform="rotate(24, 75.5%, 108.5%)"
      />
    
      <rect 
        x="98%" 
        y="31%" 
        width="34%" 
        height="34%" 
        fill="#a7f3d0"
        opacity="0.6"
        transform="rotate(117, 115%, 48%)"
      />
    
      
    <g transform="translate(150, 100) scale(0.8)">
      <!-- Голова -->
      <ellipse cx="50" cy="50" rx="45" ry="45" fill="#34d399" />
      
      <!-- Глаза -->
      <circle cx="30" cy="40" r="10" fill="white" />
      <circle cx="70" cy="40" r="10" fill="white" />
      <circle cx="30" cy="40" r="5" fill="black" />
      <circle cx="70" cy="40" r="5" fill="black" />
      
      <!-- Нос -->
      <ellipse cx="50" cy="55" rx="10" ry="5" fill="#333" />
      
      <!-- Рот -->
      <path d="M 30 70 Q 50 80 70 70" stroke="black" stroke-width="3" fill="none" />
    </g>
  
      
    <text 
      x="50%" 
      y="85%" 
      font-family="Arial, sans-serif" 
      font-size="14" 
      font-weight="bold"
      text-anchor="middle"
      fill="white"
    >
      BAYC #20103 - UNCOMMON
    </text>
  
    </svg>
  