
    <svg xmlns="http://www.w3.org/2000/svg" viewBox="0 0 400 400" width="400" height="400">
      <defs>
        
    <linearGradient id="gradient-20293" x1="0%" y1="0%" x2="100%" y2="100%">
      <stop offset="0%" stop-color="#f87171" stop-opacity="0.8" />
      <stop offset="50%" stop-color="#fca5a5" stop-opacity="0.5" />
      <stop offset="100%" stop-color="#fecaca" stop-opacity="0.8" />
    </linearGradient>
  
      </defs>
      <rect width="100%" height="100%" fill="url(#gradient-20293)" />
      
      <rect 
        x="23%" 
        y="46%" 
        width="39%" 
        height="39%" 
        fill="#fca5a5"
        opacity="0.65"
        transform="rotate(92, 42.5%, 65.5%)"
      />
    
      <rect 
        x="46%" 
        y="69%" 
        width="22%" 
        height="22%" 
        fill="#fecaca"
        opacity="0.58"
        transform="rotate(115, 57%, 80%)"
      />
    
      <rect 
        x="69%" 
        y="92%" 
        width="45%" 
        height="45%" 
        fill="#f87171"
        opacity="0.51"
        transform="rotate(138, 91.5%, 114.5%)"
      />
    
      <rect 
        x="92%" 
        y="15%" 
        width="28%" 
        height="28%" 
        fill="#fca5a5"
        opacity="0.44"
        transform="rotate(161, 106%, 29%)"
      />
    
      <rect 
        x="15%" 
        y="38%" 
        width="11%" 
        height="11%" 
        fill="#fecaca"
        opacity="0.37"
        transform="rotate(184, 20.5%, 43.5%)"
      />
    
      <rect 
        x="38%" 
        y="61%" 
        width="34%" 
        height="34%" 
        fill="#f87171"
        opacity="0.3"
        transform="rotate(207, 55%, 78%)"
      />
    
      
    <g transform="translate(150, 100) scale(0.8)">
      <!-- Голова -->
      <ellipse cx="50" cy="50" rx="45" ry="45" fill="#fca5a5" />
      
      <!-- Глаза -->
      <circle cx="30" cy="40" r="10" fill="white" />
      <circle cx="70" cy="40" r="10" fill="white" />
      <circle cx="30" cy="40" r="5" fill="black" />
      <circle cx="70" cy="40" r="5" fill="black" />
      
      <!-- Нос -->
      <ellipse cx="50" cy="55" rx="10" ry="5" fill="#333" />
      
      <!-- Рот -->
      <path d="M 30 70 Q 50 80 70 70" stroke="black" stroke-width="3" fill="none" />
    </g>
  
      
    <text 
      x="50%" 
      y="85%" 
      font-family="Arial, sans-serif" 
      font-size="14" 
      font-weight="bold"
      text-anchor="middle"
      fill="white"
    >
      BAYC #20293 - EPIC
    </text>
  
    </svg>
  