
    <svg xmlns="http://www.w3.org/2000/svg" viewBox="0 0 400 400" width="400" height="400">
      <defs>
        
    <linearGradient id="gradient-20282" x1="0%" y1="0%" x2="100%" y2="100%">
      <stop offset="0%" stop-color="#34d399" stop-opacity="0.8" />
      <stop offset="50%" stop-color="#6ee7b7" stop-opacity="0.5" />
      <stop offset="100%" stop-color="#a7f3d0" stop-opacity="0.8" />
    </linearGradient>
  
      </defs>
      <rect width="100%" height="100%" fill="url(#gradient-20282)" />
      
      <rect 
        x="2%" 
        y="4%" 
        width="36%" 
        height="36%" 
        fill="#a7f3d0"
        opacity="0.9"
        transform="rotate(328, 20%, 22%)"
      />
    
      <rect 
        x="4%" 
        y="6%" 
        width="18%" 
        height="18%" 
        fill="#34d399"
        opacity="0.32"
        transform="rotate(230, 13%, 15%)"
      />
    
      <rect 
        x="6%" 
        y="8%" 
        width="40%" 
        height="40%" 
        fill="#6ee7b7"
        opacity="0.44"
        transform="rotate(132, 26%, 28%)"
      />
    
      <rect 
        x="8%" 
        y="10%" 
        width="22%" 
        height="22%" 
        fill="#a7f3d0"
        opacity="0.56"
        transform="rotate(34, 19%, 21%)"
      />
    
      <rect 
        x="10%" 
        y="12%" 
        width="44%" 
        height="44%" 
        fill="#34d399"
        opacity="0.68"
        transform="rotate(296, 32%, 34%)"
      />
    
      <rect 
        x="12%" 
        y="14%" 
        width="26%" 
        height="26%" 
        fill="#6ee7b7"
        opacity="0.8"
        transform="rotate(198, 25%, 27%)"
      />
    
      
    <g transform="translate(150, 100) scale(0.8)">
      <!-- Голова -->
      <ellipse cx="50" cy="50" rx="45" ry="45" fill="#a7f3d0" />
      
      <!-- Глаза -->
      <circle cx="30" cy="40" r="10" fill="white" />
      <circle cx="70" cy="40" r="10" fill="white" />
      <circle cx="30" cy="40" r="5" fill="black" />
      <circle cx="70" cy="40" r="5" fill="black" />
      
      <!-- Нос -->
      <ellipse cx="50" cy="55" rx="10" ry="5" fill="#333" />
      
      <!-- Рот -->
      <path d="M 30 70 Q 50 80 70 70" stroke="black" stroke-width="3" fill="none" />
    </g>
  
      
    <text 
      x="50%" 
      y="85%" 
      font-family="Arial, sans-serif" 
      font-size="14" 
      font-weight="bold"
      text-anchor="middle"
      fill="white"
    >
      BAYC #20282 - UNCOMMON
    </text>
  
    </svg>
  