
    <svg xmlns="http://www.w3.org/2000/svg" viewBox="0 0 400 400" width="400" height="400">
      <defs>
        
    <linearGradient id="gradient-20363" x1="0%" y1="0%" x2="100%" y2="100%">
      <stop offset="0%" stop-color="#8a8c90" stop-opacity="0.8" />
      <stop offset="50%" stop-color="#d2d5db" stop-opacity="0.5" />
      <stop offset="100%" stop-color="#e5e7eb" stop-opacity="0.8" />
    </linearGradient>
  
      </defs>
      <rect width="100%" height="100%" fill="url(#gradient-20363)" />
      
      <rect 
        x="93%" 
        y="86%" 
        width="29%" 
        height="29%" 
        fill="#e5e7eb"
        opacity="0.65"
        transform="rotate(292, 107.5%, 100.5%)"
      />
    
      <rect 
        x="86%" 
        y="79%" 
        width="22%" 
        height="22%" 
        fill="#8a8c90"
        opacity="0.58"
        transform="rotate(5, 97%, 90%)"
      />
    
      <rect 
        x="79%" 
        y="72%" 
        width="15%" 
        height="15%" 
        fill="#d2d5db"
        opacity="0.51"
        transform="rotate(78, 86.5%, 79.5%)"
      />
    
      <rect 
        x="72%" 
        y="65%" 
        width="48%" 
        height="48%" 
        fill="#e5e7eb"
        opacity="0.44"
        transform="rotate(151, 96%, 89%)"
      />
    
      <rect 
        x="65%" 
        y="58%" 
        width="41%" 
        height="41%" 
        fill="#8a8c90"
        opacity="0.37"
        transform="rotate(224, 85.5%, 78.5%)"
      />
    
      <rect 
        x="58%" 
        y="51%" 
        width="34%" 
        height="34%" 
        fill="#d2d5db"
        opacity="0.3"
        transform="rotate(297, 75%, 68%)"
      />
    
      
    <g transform="translate(150, 100) scale(0.8)">
      <!-- Голова -->
      <ellipse cx="50" cy="50" rx="45" ry="45" fill="#e5e7eb" />
      
      <!-- Глаза -->
      <circle cx="30" cy="40" r="10" fill="white" />
      <circle cx="70" cy="40" r="10" fill="white" />
      <circle cx="30" cy="40" r="5" fill="black" />
      <circle cx="70" cy="40" r="5" fill="black" />
      
      <!-- Нос -->
      <ellipse cx="50" cy="55" rx="10" ry="5" fill="#333" />
      
      <!-- Рот -->
      <path d="M 30 70 Q 50 80 70 70" stroke="black" stroke-width="3" fill="none" />
    </g>
  
      
    <text 
      x="50%" 
      y="85%" 
      font-family="Arial, sans-serif" 
      font-size="14" 
      font-weight="bold"
      text-anchor="middle"
      fill="white"
    >
      BAYC #20363 - COMMON
    </text>
  
    </svg>
  