
    <svg xmlns="http://www.w3.org/2000/svg" viewBox="0 0 400 400" width="400" height="400">
      <defs>
        
    <linearGradient id="gradient-20186" x1="0%" y1="0%" x2="100%" y2="100%">
      <stop offset="0%" stop-color="#8a8c90" stop-opacity="0.8" />
      <stop offset="50%" stop-color="#d2d5db" stop-opacity="0.5" />
      <stop offset="100%" stop-color="#e5e7eb" stop-opacity="0.8" />
    </linearGradient>
  
      </defs>
      <rect width="100%" height="100%" fill="url(#gradient-20186)" />
      
      <rect 
        x="46%" 
        y="92%" 
        width="28%" 
        height="28%" 
        fill="#e5e7eb"
        opacity="0.6"
        transform="rotate(64, 60%, 106%)"
      />
    
      <rect 
        x="92%" 
        y="38%" 
        width="34%" 
        height="34%" 
        fill="#8a8c90"
        opacity="0.66"
        transform="rotate(350, 109%, 55%)"
      />
    
      <rect 
        x="38%" 
        y="84%" 
        width="40%" 
        height="40%" 
        fill="#d2d5db"
        opacity="0.72"
        transform="rotate(276, 58%, 104%)"
      />
    
      <rect 
        x="84%" 
        y="30%" 
        width="46%" 
        height="46%" 
        fill="#e5e7eb"
        opacity="0.78"
        transform="rotate(202, 107%, 53%)"
      />
    
      <rect 
        x="30%" 
        y="76%" 
        width="12%" 
        height="12%" 
        fill="#8a8c90"
        opacity="0.84"
        transform="rotate(128, 36%, 82%)"
      />
    
      <rect 
        x="76%" 
        y="22%" 
        width="18%" 
        height="18%" 
        fill="#d2d5db"
        opacity="0.9"
        transform="rotate(54, 85%, 31%)"
      />
    
      
    <g transform="translate(150, 100) scale(0.8)">
      <!-- Голова -->
      <ellipse cx="50" cy="50" rx="45" ry="45" fill="#e5e7eb" />
      
      <!-- Глаза -->
      <circle cx="30" cy="40" r="10" fill="white" />
      <circle cx="70" cy="40" r="10" fill="white" />
      <circle cx="30" cy="40" r="5" fill="black" />
      <circle cx="70" cy="40" r="5" fill="black" />
      
      <!-- Нос -->
      <ellipse cx="50" cy="55" rx="10" ry="5" fill="#333" />
      
      <!-- Рот -->
      <path d="M 30 70 Q 50 80 70 70" stroke="black" stroke-width="3" fill="none" />
    </g>
  
      
    <text 
      x="50%" 
      y="85%" 
      font-family="Arial, sans-serif" 
      font-size="14" 
      font-weight="bold"
      text-anchor="middle"
      fill="white"
    >
      BAYC #20186 - COMMON
    </text>
  
    </svg>
  