
    <svg xmlns="http://www.w3.org/2000/svg" viewBox="0 0 400 400" width="400" height="400">
      <defs>
        
    <linearGradient id="gradient-20397" x1="0%" y1="0%" x2="100%" y2="100%">
      <stop offset="0%" stop-color="#34d399" stop-opacity="0.8" />
      <stop offset="50%" stop-color="#6ee7b7" stop-opacity="0.5" />
      <stop offset="100%" stop-color="#a7f3d0" stop-opacity="0.8" />
    </linearGradient>
  
      </defs>
      <rect width="100%" height="100%" fill="url(#gradient-20397)" />
      
      <rect 
        x="67%" 
        y="34%" 
        width="31%" 
        height="31%" 
        fill="#34d399"
        opacity="0.45"
        transform="rotate(348, 82.5%, 49.5%)"
      />
    
      <rect 
        x="34%" 
        y="1%" 
        width="38%" 
        height="38%" 
        fill="#6ee7b7"
        opacity="0.62"
        transform="rotate(75, 53%, 20%)"
      />
    
      <rect 
        x="1%" 
        y="68%" 
        width="45%" 
        height="45%" 
        fill="#a7f3d0"
        opacity="0.79"
        transform="rotate(162, 23.5%, 90.5%)"
      />
    
      <rect 
        x="68%" 
        y="35%" 
        width="12%" 
        height="12%" 
        fill="#34d399"
        opacity="0.96"
        transform="rotate(249, 74%, 41%)"
      />
    
      <rect 
        x="35%" 
        y="2%" 
        width="19%" 
        height="19%" 
        fill="#6ee7b7"
        opacity="0.43"
        transform="rotate(336, 44.5%, 11.5%)"
      />
    
      <rect 
        x="2%" 
        y="69%" 
        width="26%" 
        height="26%" 
        fill="#a7f3d0"
        opacity="0.6"
        transform="rotate(63, 15%, 82%)"
      />
    
      
    <g transform="translate(150, 100) scale(0.8)">
      <!-- Голова -->
      <ellipse cx="50" cy="50" rx="45" ry="45" fill="#34d399" />
      
      <!-- Глаза -->
      <circle cx="30" cy="40" r="10" fill="white" />
      <circle cx="70" cy="40" r="10" fill="white" />
      <circle cx="30" cy="40" r="5" fill="black" />
      <circle cx="70" cy="40" r="5" fill="black" />
      
      <!-- Нос -->
      <ellipse cx="50" cy="55" rx="10" ry="5" fill="#333" />
      
      <!-- Рот -->
      <path d="M 30 70 Q 50 80 70 70" stroke="black" stroke-width="3" fill="none" />
    </g>
  
      
    <text 
      x="50%" 
      y="85%" 
      font-family="Arial, sans-serif" 
      font-size="14" 
      font-weight="bold"
      text-anchor="middle"
      fill="white"
    >
      BAYC #20397 - UNCOMMON
    </text>
  
    </svg>
  