
    <svg xmlns="http://www.w3.org/2000/svg" viewBox="0 0 400 400" width="400" height="400">
      <defs>
        
    <linearGradient id="gradient-20174" x1="0%" y1="0%" x2="100%" y2="100%">
      <stop offset="0%" stop-color="#f87171" stop-opacity="0.8" />
      <stop offset="50%" stop-color="#fca5a5" stop-opacity="0.5" />
      <stop offset="100%" stop-color="#fecaca" stop-opacity="0.8" />
    </linearGradient>
  
      </defs>
      <rect width="100%" height="100%" fill="url(#gradient-20174)" />
      
      <rect 
        x="14%" 
        y="28%" 
        width="32%" 
        height="32%" 
        fill="#fecaca"
        opacity="0.3"
        transform="rotate(256, 30%, 44%)"
      />
    
      <rect 
        x="28%" 
        y="42%" 
        width="26%" 
        height="26%" 
        fill="#f87171"
        opacity="0.44"
        transform="rotate(50, 41%, 55%)"
      />
    
      <rect 
        x="42%" 
        y="56%" 
        width="20%" 
        height="20%" 
        fill="#fca5a5"
        opacity="0.58"
        transform="rotate(204, 52%, 66%)"
      />
    
      <rect 
        x="56%" 
        y="70%" 
        width="14%" 
        height="14%" 
        fill="#fecaca"
        opacity="0.72"
        transform="rotate(358, 63%, 77%)"
      />
    
      <rect 
        x="70%" 
        y="84%" 
        width="48%" 
        height="48%" 
        fill="#f87171"
        opacity="0.86"
        transform="rotate(152, 94%, 108%)"
      />
    
      <rect 
        x="84%" 
        y="98%" 
        width="42%" 
        height="42%" 
        fill="#fca5a5"
        opacity="0.3"
        transform="rotate(306, 105%, 119%)"
      />
    
      
    <g transform="translate(150, 100) scale(0.8)">
      <!-- Голова -->
      <ellipse cx="50" cy="50" rx="45" ry="45" fill="#fecaca" />
      
      <!-- Глаза -->
      <circle cx="30" cy="40" r="10" fill="white" />
      <circle cx="70" cy="40" r="10" fill="white" />
      <circle cx="30" cy="40" r="5" fill="black" />
      <circle cx="70" cy="40" r="5" fill="black" />
      
      <!-- Нос -->
      <ellipse cx="50" cy="55" rx="10" ry="5" fill="#333" />
      
      <!-- Рот -->
      <path d="M 30 70 Q 50 80 70 70" stroke="black" stroke-width="3" fill="none" />
    </g>
  
      
    <text 
      x="50%" 
      y="85%" 
      font-family="Arial, sans-serif" 
      font-size="14" 
      font-weight="bold"
      text-anchor="middle"
      fill="white"
    >
      BAYC #20174 - EPIC
    </text>
  
    </svg>
  