
    <svg xmlns="http://www.w3.org/2000/svg" viewBox="0 0 400 400" width="400" height="400">
      <defs>
        
    <linearGradient id="gradient-20237" x1="0%" y1="0%" x2="100%" y2="100%">
      <stop offset="0%" stop-color="#8a8c90" stop-opacity="0.8" />
      <stop offset="50%" stop-color="#d2d5db" stop-opacity="0.5" />
      <stop offset="100%" stop-color="#e5e7eb" stop-opacity="0.8" />
    </linearGradient>
  
      </defs>
      <rect width="100%" height="100%" fill="url(#gradient-20237)" />
      
      <rect 
        x="7%" 
        y="14%" 
        width="31%" 
        height="31%" 
        fill="#e5e7eb"
        opacity="0.65"
        transform="rotate(148, 22.5%, 29.5%)"
      />
    
      <rect 
        x="14%" 
        y="21%" 
        width="38%" 
        height="38%" 
        fill="#8a8c90"
        opacity="0.72"
        transform="rotate(275, 33%, 40%)"
      />
    
      <rect 
        x="21%" 
        y="28%" 
        width="45%" 
        height="45%" 
        fill="#d2d5db"
        opacity="0.79"
        transform="rotate(42, 43.5%, 50.5%)"
      />
    
      <rect 
        x="28%" 
        y="35%" 
        width="12%" 
        height="12%" 
        fill="#e5e7eb"
        opacity="0.86"
        transform="rotate(169, 34%, 41%)"
      />
    
      <rect 
        x="35%" 
        y="42%" 
        width="19%" 
        height="19%" 
        fill="#8a8c90"
        opacity="0.93"
        transform="rotate(296, 44.5%, 51.5%)"
      />
    
      <rect 
        x="42%" 
        y="49%" 
        width="26%" 
        height="26%" 
        fill="#d2d5db"
        opacity="0.3"
        transform="rotate(63, 55%, 62%)"
      />
    
      
    <g transform="translate(150, 100) scale(0.8)">
      <!-- Голова -->
      <ellipse cx="50" cy="50" rx="45" ry="45" fill="#e5e7eb" />
      
      <!-- Глаза -->
      <circle cx="30" cy="40" r="10" fill="white" />
      <circle cx="70" cy="40" r="10" fill="white" />
      <circle cx="30" cy="40" r="5" fill="black" />
      <circle cx="70" cy="40" r="5" fill="black" />
      
      <!-- Нос -->
      <ellipse cx="50" cy="55" rx="10" ry="5" fill="#333" />
      
      <!-- Рот -->
      <path d="M 30 70 Q 50 80 70 70" stroke="black" stroke-width="3" fill="none" />
    </g>
  
      
    <text 
      x="50%" 
      y="85%" 
      font-family="Arial, sans-serif" 
      font-size="14" 
      font-weight="bold"
      text-anchor="middle"
      fill="white"
    >
      BAYC #20237 - COMMON
    </text>
  
    </svg>
  