
    <svg xmlns="http://www.w3.org/2000/svg" viewBox="0 0 400 400" width="400" height="400">
      <defs>
        
    <linearGradient id="gradient-20229" x1="0%" y1="0%" x2="100%" y2="100%">
      <stop offset="0%" stop-color="#60a5fa" stop-opacity="0.8" />
      <stop offset="50%" stop-color="#93c5fd" stop-opacity="0.5" />
      <stop offset="100%" stop-color="#bfdbfe" stop-opacity="0.8" />
    </linearGradient>
  
      </defs>
      <rect width="100%" height="100%" fill="url(#gradient-20229)" />
      
      <rect 
        x="19%" 
        y="38%" 
        width="47%" 
        height="47%" 
        fill="#60a5fa"
        opacity="0.45"
        transform="rotate(156, 42.5%, 61.5%)"
      />
    
      <rect 
        x="38%" 
        y="57%" 
        width="46%" 
        height="46%" 
        fill="#93c5fd"
        opacity="0.34"
        transform="rotate(195, 61%, 80%)"
      />
    
      <rect 
        x="57%" 
        y="76%" 
        width="45%" 
        height="45%" 
        fill="#bfdbfe"
        opacity="0.93"
        transform="rotate(234, 79.5%, 98.5%)"
      />
    
      <rect 
        x="76%" 
        y="95%" 
        width="44%" 
        height="44%" 
        fill="#60a5fa"
        opacity="0.82"
        transform="rotate(273, 98%, 117%)"
      />
    
      <rect 
        x="95%" 
        y="14%" 
        width="43%" 
        height="43%" 
        fill="#93c5fd"
        opacity="0.71"
        transform="rotate(312, 116.5%, 35.5%)"
      />
    
      <rect 
        x="14%" 
        y="33%" 
        width="42%" 
        height="42%" 
        fill="#bfdbfe"
        opacity="0.6"
        transform="rotate(351, 35%, 54%)"
      />
    
      
    <g transform="translate(150, 100) scale(0.8)">
      <!-- Голова -->
      <ellipse cx="50" cy="50" rx="45" ry="45" fill="#60a5fa" />
      
      <!-- Глаза -->
      <circle cx="30" cy="40" r="10" fill="white" />
      <circle cx="70" cy="40" r="10" fill="white" />
      <circle cx="30" cy="40" r="5" fill="black" />
      <circle cx="70" cy="40" r="5" fill="black" />
      
      <!-- Нос -->
      <ellipse cx="50" cy="55" rx="10" ry="5" fill="#333" />
      
      <!-- Рот -->
      <path d="M 30 70 Q 50 80 70 70" stroke="black" stroke-width="3" fill="none" />
    </g>
  
      
    <text 
      x="50%" 
      y="85%" 
      font-family="Arial, sans-serif" 
      font-size="14" 
      font-weight="bold"
      text-anchor="middle"
      fill="white"
    >
      BAYC #20229 - RARE
    </text>
  
    </svg>
  