
    <svg xmlns="http://www.w3.org/2000/svg" viewBox="0 0 400 400" width="400" height="400">
      <defs>
        
    <linearGradient id="gradient-20107" x1="0%" y1="0%" x2="100%" y2="100%">
      <stop offset="0%" stop-color="#34d399" stop-opacity="0.8" />
      <stop offset="50%" stop-color="#6ee7b7" stop-opacity="0.5" />
      <stop offset="100%" stop-color="#a7f3d0" stop-opacity="0.8" />
    </linearGradient>
  
      </defs>
      <rect width="100%" height="100%" fill="url(#gradient-20107)" />
      
      <rect 
        x="77%" 
        y="54%" 
        width="21%" 
        height="21%" 
        fill="#6ee7b7"
        opacity="0.55"
        transform="rotate(188, 87.5%, 64.5%)"
      />
    
      <rect 
        x="54%" 
        y="31%" 
        width="38%" 
        height="38%" 
        fill="#a7f3d0"
        opacity="0.32"
        transform="rotate(325, 73%, 50%)"
      />
    
      <rect 
        x="31%" 
        y="8%" 
        width="15%" 
        height="15%" 
        fill="#34d399"
        opacity="0.79"
        transform="rotate(102, 38.5%, 15.5%)"
      />
    
      <rect 
        x="8%" 
        y="85%" 
        width="32%" 
        height="32%" 
        fill="#6ee7b7"
        opacity="0.56"
        transform="rotate(239, 24%, 101%)"
      />
    
      <rect 
        x="85%" 
        y="62%" 
        width="49%" 
        height="49%" 
        fill="#a7f3d0"
        opacity="0.33"
        transform="rotate(16, 109.5%, 86.5%)"
      />
    
      <rect 
        x="62%" 
        y="39%" 
        width="26%" 
        height="26%" 
        fill="#34d399"
        opacity="0.8"
        transform="rotate(153, 75%, 52%)"
      />
    
      
    <g transform="translate(150, 100) scale(0.8)">
      <!-- Голова -->
      <ellipse cx="50" cy="50" rx="45" ry="45" fill="#6ee7b7" />
      
      <!-- Глаза -->
      <circle cx="30" cy="40" r="10" fill="white" />
      <circle cx="70" cy="40" r="10" fill="white" />
      <circle cx="30" cy="40" r="5" fill="black" />
      <circle cx="70" cy="40" r="5" fill="black" />
      
      <!-- Нос -->
      <ellipse cx="50" cy="55" rx="10" ry="5" fill="#333" />
      
      <!-- Рот -->
      <path d="M 30 70 Q 50 80 70 70" stroke="black" stroke-width="3" fill="none" />
    </g>
  
      
    <text 
      x="50%" 
      y="85%" 
      font-family="Arial, sans-serif" 
      font-size="14" 
      font-weight="bold"
      text-anchor="middle"
      fill="white"
    >
      BAYC #20107 - UNCOMMON
    </text>
  
    </svg>
  