
    <svg xmlns="http://www.w3.org/2000/svg" viewBox="0 0 400 400" width="400" height="400">
      <defs>
        
    <linearGradient id="gradient-20345" x1="0%" y1="0%" x2="100%" y2="100%">
      <stop offset="0%" stop-color="#60a5fa" stop-opacity="0.8" />
      <stop offset="50%" stop-color="#93c5fd" stop-opacity="0.5" />
      <stop offset="100%" stop-color="#bfdbfe" stop-opacity="0.8" />
    </linearGradient>
  
      </defs>
      <rect width="100%" height="100%" fill="url(#gradient-20345)" />
      
      <rect 
        x="95%" 
        y="90%" 
        width="35%" 
        height="35%" 
        fill="#bfdbfe"
        opacity="0.55"
        transform="rotate(220, 112.5%, 107.5%)"
      />
    
      <rect 
        x="90%" 
        y="85%" 
        width="30%" 
        height="30%" 
        fill="#60a5fa"
        opacity="0.6"
        transform="rotate(95, 105%, 100%)"
      />
    
      <rect 
        x="85%" 
        y="80%" 
        width="25%" 
        height="25%" 
        fill="#93c5fd"
        opacity="0.65"
        transform="rotate(330, 97.5%, 92.5%)"
      />
    
      <rect 
        x="80%" 
        y="75%" 
        width="20%" 
        height="20%" 
        fill="#bfdbfe"
        opacity="0.7"
        transform="rotate(205, 90%, 85%)"
      />
    
      <rect 
        x="75%" 
        y="70%" 
        width="15%" 
        height="15%" 
        fill="#60a5fa"
        opacity="0.75"
        transform="rotate(80, 82.5%, 77.5%)"
      />
    
      <rect 
        x="70%" 
        y="65%" 
        width="10%" 
        height="10%" 
        fill="#93c5fd"
        opacity="0.8"
        transform="rotate(315, 75%, 70%)"
      />
    
      
    <g transform="translate(150, 100) scale(0.8)">
      <!-- Голова -->
      <ellipse cx="50" cy="50" rx="45" ry="45" fill="#bfdbfe" />
      
      <!-- Глаза -->
      <circle cx="30" cy="40" r="10" fill="white" />
      <circle cx="70" cy="40" r="10" fill="white" />
      <circle cx="30" cy="40" r="5" fill="black" />
      <circle cx="70" cy="40" r="5" fill="black" />
      
      <!-- Нос -->
      <ellipse cx="50" cy="55" rx="10" ry="5" fill="#333" />
      
      <!-- Рот -->
      <path d="M 30 70 Q 50 80 70 70" stroke="black" stroke-width="3" fill="none" />
    </g>
  
      
    <text 
      x="50%" 
      y="85%" 
      font-family="Arial, sans-serif" 
      font-size="14" 
      font-weight="bold"
      text-anchor="middle"
      fill="white"
    >
      BAYC #20345 - RARE
    </text>
  
    </svg>
  