
    <svg xmlns="http://www.w3.org/2000/svg" viewBox="0 0 400 400" width="400" height="400">
      <defs>
        
    <linearGradient id="gradient-20341" x1="0%" y1="0%" x2="100%" y2="100%">
      <stop offset="0%" stop-color="#34d399" stop-opacity="0.8" />
      <stop offset="50%" stop-color="#6ee7b7" stop-opacity="0.5" />
      <stop offset="100%" stop-color="#a7f3d0" stop-opacity="0.8" />
    </linearGradient>
  
      </defs>
      <rect width="100%" height="100%" fill="url(#gradient-20341)" />
      
      <rect 
        x="51%" 
        y="2%" 
        width="23%" 
        height="23%" 
        fill="#6ee7b7"
        opacity="0.45"
        transform="rotate(44, 62.5%, 13.5%)"
      />
    
      <rect 
        x="2%" 
        y="53%" 
        width="14%" 
        height="14%" 
        fill="#a7f3d0"
        opacity="0.76"
        transform="rotate(235, 9%, 60%)"
      />
    
      <rect 
        x="53%" 
        y="4%" 
        width="45%" 
        height="45%" 
        fill="#34d399"
        opacity="0.37"
        transform="rotate(66, 75.5%, 26.5%)"
      />
    
      <rect 
        x="4%" 
        y="55%" 
        width="36%" 
        height="36%" 
        fill="#6ee7b7"
        opacity="0.68"
        transform="rotate(257, 22%, 73%)"
      />
    
      <rect 
        x="55%" 
        y="6%" 
        width="27%" 
        height="27%" 
        fill="#a7f3d0"
        opacity="0.99"
        transform="rotate(88, 68.5%, 19.5%)"
      />
    
      <rect 
        x="6%" 
        y="57%" 
        width="18%" 
        height="18%" 
        fill="#34d399"
        opacity="0.6"
        transform="rotate(279, 15%, 66%)"
      />
    
      
    <g transform="translate(150, 100) scale(0.8)">
      <!-- Голова -->
      <ellipse cx="50" cy="50" rx="45" ry="45" fill="#6ee7b7" />
      
      <!-- Глаза -->
      <circle cx="30" cy="40" r="10" fill="white" />
      <circle cx="70" cy="40" r="10" fill="white" />
      <circle cx="30" cy="40" r="5" fill="black" />
      <circle cx="70" cy="40" r="5" fill="black" />
      
      <!-- Нос -->
      <ellipse cx="50" cy="55" rx="10" ry="5" fill="#333" />
      
      <!-- Рот -->
      <path d="M 30 70 Q 50 80 70 70" stroke="black" stroke-width="3" fill="none" />
    </g>
  
      
    <text 
      x="50%" 
      y="85%" 
      font-family="Arial, sans-serif" 
      font-size="14" 
      font-weight="bold"
      text-anchor="middle"
      fill="white"
    >
      BAYC #20341 - UNCOMMON
    </text>
  
    </svg>
  