
    <svg xmlns="http://www.w3.org/2000/svg" viewBox="0 0 400 400" width="400" height="400">
      <defs>
        
    <linearGradient id="gradient-20074" x1="0%" y1="0%" x2="100%" y2="100%">
      <stop offset="0%" stop-color="#8a8c90" stop-opacity="0.8" />
      <stop offset="50%" stop-color="#d2d5db" stop-opacity="0.5" />
      <stop offset="100%" stop-color="#e5e7eb" stop-opacity="0.8" />
    </linearGradient>
  
      </defs>
      <rect width="100%" height="100%" fill="url(#gradient-20074)" />
      
      <rect 
        x="14%" 
        y="28%" 
        width="12%" 
        height="12%" 
        fill="#d2d5db"
        opacity="0.6"
        transform="rotate(176, 20%, 34%)"
      />
    
      <rect 
        x="28%" 
        y="42%" 
        width="26%" 
        height="26%" 
        fill="#e5e7eb"
        opacity="0.94"
        transform="rotate(310, 41%, 55%)"
      />
    
      <rect 
        x="42%" 
        y="56%" 
        width="40%" 
        height="40%" 
        fill="#8a8c90"
        opacity="0.58"
        transform="rotate(84, 62%, 76%)"
      />
    
      <rect 
        x="56%" 
        y="70%" 
        width="14%" 
        height="14%" 
        fill="#d2d5db"
        opacity="0.92"
        transform="rotate(218, 63%, 77%)"
      />
    
      <rect 
        x="70%" 
        y="84%" 
        width="28%" 
        height="28%" 
        fill="#e5e7eb"
        opacity="0.56"
        transform="rotate(352, 84%, 98%)"
      />
    
      <rect 
        x="84%" 
        y="98%" 
        width="42%" 
        height="42%" 
        fill="#8a8c90"
        opacity="0.9"
        transform="rotate(126, 105%, 119%)"
      />
    
      
    <g transform="translate(150, 100) scale(0.8)">
      <!-- Голова -->
      <ellipse cx="50" cy="50" rx="45" ry="45" fill="#d2d5db" />
      
      <!-- Глаза -->
      <circle cx="30" cy="40" r="10" fill="white" />
      <circle cx="70" cy="40" r="10" fill="white" />
      <circle cx="30" cy="40" r="5" fill="black" />
      <circle cx="70" cy="40" r="5" fill="black" />
      
      <!-- Нос -->
      <ellipse cx="50" cy="55" rx="10" ry="5" fill="#333" />
      
      <!-- Рот -->
      <path d="M 30 70 Q 50 80 70 70" stroke="black" stroke-width="3" fill="none" />
    </g>
  
      
    <text 
      x="50%" 
      y="85%" 
      font-family="Arial, sans-serif" 
      font-size="14" 
      font-weight="bold"
      text-anchor="middle"
      fill="white"
    >
      BAYC #20074 - COMMON
    </text>
  
    </svg>
  