
    <svg xmlns="http://www.w3.org/2000/svg" viewBox="0 0 400 400" width="400" height="400">
      <defs>
        
    <linearGradient id="gradient-20009" x1="0%" y1="0%" x2="100%" y2="100%">
      <stop offset="0%" stop-color="#8a8c90" stop-opacity="0.8" />
      <stop offset="50%" stop-color="#d2d5db" stop-opacity="0.5" />
      <stop offset="100%" stop-color="#e5e7eb" stop-opacity="0.8" />
    </linearGradient>
  
      </defs>
      <rect width="100%" height="100%" fill="url(#gradient-20009)" />
      
      <rect 
        x="99%" 
        y="98%" 
        width="27%" 
        height="27%" 
        fill="#e5e7eb"
        opacity="0.55"
        transform="rotate(196, 112.5%, 111.5%)"
      />
    
      <rect 
        x="98%" 
        y="97%" 
        width="46%" 
        height="46%" 
        fill="#8a8c90"
        opacity="0.74"
        transform="rotate(335, 121%, 120%)"
      />
    
      <rect 
        x="97%" 
        y="96%" 
        width="25%" 
        height="25%" 
        fill="#d2d5db"
        opacity="0.93"
        transform="rotate(114, 109.5%, 108.5%)"
      />
    
      <rect 
        x="96%" 
        y="95%" 
        width="44%" 
        height="44%" 
        fill="#e5e7eb"
        opacity="0.42"
        transform="rotate(253, 118%, 117%)"
      />
    
      <rect 
        x="95%" 
        y="94%" 
        width="23%" 
        height="23%" 
        fill="#8a8c90"
        opacity="0.61"
        transform="rotate(32, 106.5%, 105.5%)"
      />
    
      <rect 
        x="94%" 
        y="93%" 
        width="42%" 
        height="42%" 
        fill="#d2d5db"
        opacity="0.8"
        transform="rotate(171, 115%, 114%)"
      />
    
      
    <g transform="translate(150, 100) scale(0.8)">
      <!-- Голова -->
      <ellipse cx="50" cy="50" rx="45" ry="45" fill="#e5e7eb" />
      
      <!-- Глаза -->
      <circle cx="30" cy="40" r="10" fill="white" />
      <circle cx="70" cy="40" r="10" fill="white" />
      <circle cx="30" cy="40" r="5" fill="black" />
      <circle cx="70" cy="40" r="5" fill="black" />
      
      <!-- Нос -->
      <ellipse cx="50" cy="55" rx="10" ry="5" fill="#333" />
      
      <!-- Рот -->
      <path d="M 30 70 Q 50 80 70 70" stroke="black" stroke-width="3" fill="none" />
    </g>
  
      
    <text 
      x="50%" 
      y="85%" 
      font-family="Arial, sans-serif" 
      font-size="14" 
      font-weight="bold"
      text-anchor="middle"
      fill="white"
    >
      BAYC #20009 - COMMON
    </text>
  
    </svg>
  