
    <svg xmlns="http://www.w3.org/2000/svg" viewBox="0 0 400 400" width="400" height="400">
      <defs>
        
    <linearGradient id="gradient-20191" x1="0%" y1="0%" x2="100%" y2="100%">
      <stop offset="0%" stop-color="#8a8c90" stop-opacity="0.8" />
      <stop offset="50%" stop-color="#d2d5db" stop-opacity="0.5" />
      <stop offset="100%" stop-color="#e5e7eb" stop-opacity="0.8" />
    </linearGradient>
  
      </defs>
      <rect width="100%" height="100%" fill="url(#gradient-20191)" />
      
      <rect 
        x="1%" 
        y="2%" 
        width="33%" 
        height="33%" 
        fill="#d2d5db"
        opacity="0.55"
        transform="rotate(284, 17.5%, 18.5%)"
      />
    
      <rect 
        x="2%" 
        y="3%" 
        width="14%" 
        height="14%" 
        fill="#e5e7eb"
        opacity="0.46"
        transform="rotate(265, 9%, 10%)"
      />
    
      <rect 
        x="3%" 
        y="4%" 
        width="35%" 
        height="35%" 
        fill="#8a8c90"
        opacity="0.37"
        transform="rotate(246, 20.5%, 21.5%)"
      />
    
      <rect 
        x="4%" 
        y="5%" 
        width="16%" 
        height="16%" 
        fill="#d2d5db"
        opacity="0.98"
        transform="rotate(227, 12%, 13%)"
      />
    
      <rect 
        x="5%" 
        y="6%" 
        width="37%" 
        height="37%" 
        fill="#e5e7eb"
        opacity="0.89"
        transform="rotate(208, 23.5%, 24.5%)"
      />
    
      <rect 
        x="6%" 
        y="7%" 
        width="18%" 
        height="18%" 
        fill="#8a8c90"
        opacity="0.8"
        transform="rotate(189, 15%, 16%)"
      />
    
      
    <g transform="translate(150, 100) scale(0.8)">
      <!-- Голова -->
      <ellipse cx="50" cy="50" rx="45" ry="45" fill="#d2d5db" />
      
      <!-- Глаза -->
      <circle cx="30" cy="40" r="10" fill="white" />
      <circle cx="70" cy="40" r="10" fill="white" />
      <circle cx="30" cy="40" r="5" fill="black" />
      <circle cx="70" cy="40" r="5" fill="black" />
      
      <!-- Нос -->
      <ellipse cx="50" cy="55" rx="10" ry="5" fill="#333" />
      
      <!-- Рот -->
      <path d="M 30 70 Q 50 80 70 70" stroke="black" stroke-width="3" fill="none" />
    </g>
  
      
    <text 
      x="50%" 
      y="85%" 
      font-family="Arial, sans-serif" 
      font-size="14" 
      font-weight="bold"
      text-anchor="middle"
      fill="white"
    >
      BAYC #20191 - COMMON
    </text>
  
    </svg>
  