
    <svg xmlns="http://www.w3.org/2000/svg" viewBox="0 0 400 400" width="400" height="400">
      <defs>
        
    <linearGradient id="gradient-20163" x1="0%" y1="0%" x2="100%" y2="100%">
      <stop offset="0%" stop-color="#34d399" stop-opacity="0.8" />
      <stop offset="50%" stop-color="#6ee7b7" stop-opacity="0.5" />
      <stop offset="100%" stop-color="#a7f3d0" stop-opacity="0.8" />
    </linearGradient>
  
      </defs>
      <rect width="100%" height="100%" fill="url(#gradient-20163)" />
      
      <rect 
        x="93%" 
        y="86%" 
        width="29%" 
        height="29%" 
        fill="#34d399"
        opacity="0.55"
        transform="rotate(132, 107.5%, 100.5%)"
      />
    
      <rect 
        x="86%" 
        y="79%" 
        width="22%" 
        height="22%" 
        fill="#6ee7b7"
        opacity="0.88"
        transform="rotate(165, 97%, 90%)"
      />
    
      <rect 
        x="79%" 
        y="72%" 
        width="15%" 
        height="15%" 
        fill="#a7f3d0"
        opacity="0.51"
        transform="rotate(198, 86.5%, 79.5%)"
      />
    
      <rect 
        x="72%" 
        y="65%" 
        width="48%" 
        height="48%" 
        fill="#34d399"
        opacity="0.84"
        transform="rotate(231, 96%, 89%)"
      />
    
      <rect 
        x="65%" 
        y="58%" 
        width="41%" 
        height="41%" 
        fill="#6ee7b7"
        opacity="0.47"
        transform="rotate(264, 85.5%, 78.5%)"
      />
    
      <rect 
        x="58%" 
        y="51%" 
        width="34%" 
        height="34%" 
        fill="#a7f3d0"
        opacity="0.8"
        transform="rotate(297, 75%, 68%)"
      />
    
      
    <g transform="translate(150, 100) scale(0.8)">
      <!-- Голова -->
      <ellipse cx="50" cy="50" rx="45" ry="45" fill="#34d399" />
      
      <!-- Глаза -->
      <circle cx="30" cy="40" r="10" fill="white" />
      <circle cx="70" cy="40" r="10" fill="white" />
      <circle cx="30" cy="40" r="5" fill="black" />
      <circle cx="70" cy="40" r="5" fill="black" />
      
      <!-- Нос -->
      <ellipse cx="50" cy="55" rx="10" ry="5" fill="#333" />
      
      <!-- Рот -->
      <path d="M 30 70 Q 50 80 70 70" stroke="black" stroke-width="3" fill="none" />
    </g>
  
      
    <text 
      x="50%" 
      y="85%" 
      font-family="Arial, sans-serif" 
      font-size="14" 
      font-weight="bold"
      text-anchor="middle"
      fill="white"
    >
      BAYC #20163 - UNCOMMON
    </text>
  
    </svg>
  