
    <svg xmlns="http://www.w3.org/2000/svg" viewBox="0 0 400 400" width="400" height="400">
      <defs>
        
    <linearGradient id="gradient-12034" x1="0%" y1="0%" x2="100%" y2="100%">
      <stop offset="0%" stop-color="#6c757d" stop-opacity="0.8" />
      <stop offset="50%" stop-color="#adb5bd" stop-opacity="0.5" />
      <stop offset="100%" stop-color="#ced4da" stop-opacity="0.8" />
    </linearGradient>
  
      </defs>
      <rect width="100%" height="100%" fill="url(#gradient-12034)" />
      
      <rect 
        x="42%" 
        y="84%" 
        width="36%" 
        height="36%" 
        fill="#adb5bd"
        opacity="0.6"
        transform="rotate(88, 60%, 102%)"
      />
    
      <rect 
        x="84%" 
        y="26%" 
        width="28%" 
        height="28%" 
        fill="#ced4da"
        opacity="0.52"
        transform="rotate(290, 98%, 40%)"
      />
    
      <rect 
        x="26%" 
        y="68%" 
        width="20%" 
        height="20%" 
        fill="#6c757d"
        opacity="0.44"
        transform="rotate(132, 36%, 78%)"
      />
    
      <rect 
        x="68%" 
        y="10%" 
        width="12%" 
        height="12%" 
        fill="#adb5bd"
        opacity="0.36"
        transform="rotate(334, 74%, 16%)"
      />
    
      <rect 
        x="10%" 
        y="52%" 
        width="54%" 
        height="54%" 
        fill="#ced4da"
        opacity="0.98"
        transform="rotate(176, 37%, 79%)"
      />
    
      <circle cx="200" cy="150" r="100" fill="#adb5bd" opacity="0.7" />
      <circle cx="160" cy="120" r="20" fill="white" opacity="0.8" />
      <circle cx="240" cy="120" r="20" fill="white" opacity="0.8" />
      <circle cx="160" cy="120" r="10" fill="black" />
      <circle cx="240" cy="120" r="10" fill="black" />
      <path d="M 150 200 Q 200 250 250 200" stroke="black" stroke-width="5" fill="none" />
      
    <text 
      x="50%" 
      y="85%" 
      font-family="Arial, sans-serif" 
      font-size="14" 
      font-weight="bold"
      text-anchor="middle"
      fill="white"
    >
      MAYC #12034 - COMMON
    </text>
  
    </svg>
  