
    <svg xmlns="http://www.w3.org/2000/svg" viewBox="0 0 400 400" width="400" height="400">
      <defs>
        
    <linearGradient id="gradient-12076" x1="0%" y1="0%" x2="100%" y2="100%">
      <stop offset="0%" stop-color="#dc3545" stop-opacity="0.8" />
      <stop offset="50%" stop-color="#fd7e14" stop-opacity="0.5" />
      <stop offset="100%" stop-color="#f8f9fa" stop-opacity="0.8" />
    </linearGradient>
  
      </defs>
      <rect width="100%" height="100%" fill="url(#gradient-12076)" />
      
      <rect 
        x="88%" 
        y="76%" 
        width="24%" 
        height="24%" 
        fill="#fd7e14"
        opacity="0.6"
        transform="rotate(112, 100%, 88%)"
      />
    
      <rect 
        x="76%" 
        y="64%" 
        width="12%" 
        height="12%" 
        fill="#f8f9fa"
        opacity="0.38"
        transform="rotate(140, 82%, 70%)"
      />
    
      <rect 
        x="64%" 
        y="52%" 
        width="50%" 
        height="50%" 
        fill="#dc3545"
        opacity="0.86"
        transform="rotate(168, 89%, 77%)"
      />
    
      <rect 
        x="52%" 
        y="40%" 
        width="38%" 
        height="38%" 
        fill="#fd7e14"
        opacity="0.64"
        transform="rotate(196, 71%, 59%)"
      />
    
      <rect 
        x="40%" 
        y="28%" 
        width="26%" 
        height="26%" 
        fill="#f8f9fa"
        opacity="0.42"
        transform="rotate(224, 53%, 41%)"
      />
    
      <circle cx="200" cy="150" r="100" fill="#fd7e14" opacity="0.7" />
      <circle cx="160" cy="120" r="20" fill="white" opacity="0.8" />
      <circle cx="240" cy="120" r="20" fill="white" opacity="0.8" />
      <circle cx="160" cy="120" r="10" fill="black" />
      <circle cx="240" cy="120" r="10" fill="black" />
      <path d="M 150 200 Q 200 250 250 200" stroke="black" stroke-width="5" fill="none" />
      
    <text 
      x="50%" 
      y="85%" 
      font-family="Arial, sans-serif" 
      font-size="14" 
      font-weight="bold"
      text-anchor="middle"
      fill="white"
    >
      MAYC #12076 - EPIC
    </text>
  
    </svg>
  