
    <svg xmlns="http://www.w3.org/2000/svg" viewBox="0 0 400 400" width="400" height="400">
      <defs>
        
    <linearGradient id="gradient-11843" x1="0%" y1="0%" x2="100%" y2="100%">
      <stop offset="0%" stop-color="#dc3545" stop-opacity="0.8" />
      <stop offset="50%" stop-color="#fd7e14" stop-opacity="0.5" />
      <stop offset="100%" stop-color="#f8f9fa" stop-opacity="0.8" />
    </linearGradient>
  
      </defs>
      <rect width="100%" height="100%" fill="url(#gradient-11843)" />
      
      <rect 
        x="59%" 
        y="18%" 
        width="37%" 
        height="37%" 
        fill="#f8f9fa"
        opacity="0.35"
        transform="rotate(236, 77.5%, 36.5%)"
      />
    
      <rect 
        x="18%" 
        y="77%" 
        width="46%" 
        height="46%" 
        fill="#dc3545"
        opacity="0.64"
        transform="rotate(115, 41%, 100%)"
      />
    
      <rect 
        x="77%" 
        y="36%" 
        width="55%" 
        height="55%" 
        fill="#fd7e14"
        opacity="0.93"
        transform="rotate(354, 104.5%, 63.5%)"
      />
    
      <rect 
        x="36%" 
        y="95%" 
        width="14%" 
        height="14%" 
        fill="#f8f9fa"
        opacity="0.52"
        transform="rotate(233, 43%, 102%)"
      />
    
      <rect 
        x="95%" 
        y="54%" 
        width="23%" 
        height="23%" 
        fill="#dc3545"
        opacity="0.81"
        transform="rotate(112, 106.5%, 65.5%)"
      />
    
      <circle cx="200" cy="150" r="100" fill="#f8f9fa" opacity="0.7" />
      <circle cx="160" cy="120" r="20" fill="white" opacity="0.8" />
      <circle cx="240" cy="120" r="20" fill="white" opacity="0.8" />
      <circle cx="160" cy="120" r="10" fill="black" />
      <circle cx="240" cy="120" r="10" fill="black" />
      <path d="M 150 200 Q 200 250 250 200" stroke="black" stroke-width="5" fill="none" />
      
    <text 
      x="50%" 
      y="85%" 
      font-family="Arial, sans-serif" 
      font-size="14" 
      font-weight="bold"
      text-anchor="middle"
      fill="white"
    >
      MAYC #11843 - EPIC
    </text>
  
    </svg>
  