
    <svg xmlns="http://www.w3.org/2000/svg" viewBox="0 0 400 400" width="400" height="400">
      <defs>
        
    <linearGradient id="gradient-12149" x1="0%" y1="0%" x2="100%" y2="100%">
      <stop offset="0%" stop-color="#007bff" stop-opacity="0.8" />
      <stop offset="50%" stop-color="#0dcaf0" stop-opacity="0.5" />
      <stop offset="100%" stop-color="#6610f2" stop-opacity="0.8" />
    </linearGradient>
  
      </defs>
      <rect width="100%" height="100%" fill="url(#gradient-12149)" />
      
      <rect 
        x="37%" 
        y="74%" 
        width="21%" 
        height="21%" 
        fill="#6610f2"
        opacity="0.45"
        transform="rotate(308, 47.5%, 84.5%)"
      />
    
      <rect 
        x="74%" 
        y="11%" 
        width="58%" 
        height="58%" 
        fill="#007bff"
        opacity="0.62"
        transform="rotate(205, 103%, 40%)"
      />
    
      <rect 
        x="11%" 
        y="48%" 
        width="45%" 
        height="45%" 
        fill="#0dcaf0"
        opacity="0.79"
        transform="rotate(102, 33.5%, 70.5%)"
      />
    
      <rect 
        x="48%" 
        y="85%" 
        width="32%" 
        height="32%" 
        fill="#6610f2"
        opacity="0.96"
        transform="rotate(359, 64%, 101%)"
      />
    
      <rect 
        x="85%" 
        y="22%" 
        width="19%" 
        height="19%" 
        fill="#007bff"
        opacity="0.43"
        transform="rotate(256, 94.5%, 31.5%)"
      />
    
      <circle cx="200" cy="150" r="100" fill="#6610f2" opacity="0.7" />
      <circle cx="160" cy="120" r="20" fill="white" opacity="0.8" />
      <circle cx="240" cy="120" r="20" fill="white" opacity="0.8" />
      <circle cx="160" cy="120" r="10" fill="black" />
      <circle cx="240" cy="120" r="10" fill="black" />
      <path d="M 150 200 Q 200 250 250 200" stroke="black" stroke-width="5" fill="none" />
      
    <text 
      x="50%" 
      y="85%" 
      font-family="Arial, sans-serif" 
      font-size="14" 
      font-weight="bold"
      text-anchor="middle"
      fill="white"
    >
      MAYC #12149 - RARE
    </text>
  
    </svg>
  