
    <svg xmlns="http://www.w3.org/2000/svg" viewBox="0 0 400 400" width="400" height="400">
      <defs>
        
    <linearGradient id="gradient-11758" x1="0%" y1="0%" x2="100%" y2="100%">
      <stop offset="0%" stop-color="#007bff" stop-opacity="0.8" />
      <stop offset="50%" stop-color="#0dcaf0" stop-opacity="0.5" />
      <stop offset="100%" stop-color="#6610f2" stop-opacity="0.8" />
    </linearGradient>
  
      </defs>
      <rect width="100%" height="100%" fill="url(#gradient-11758)" />
      
      <rect 
        x="54%" 
        y="8%" 
        width="22%" 
        height="22%" 
        fill="#0dcaf0"
        opacity="0.4"
        transform="rotate(136, 65%, 19%)"
      />
    
      <rect 
        x="8%" 
        y="62%" 
        width="26%" 
        height="26%" 
        fill="#6610f2"
        opacity="0.84"
        transform="rotate(350, 21%, 75%)"
      />
    
      <rect 
        x="62%" 
        y="16%" 
        width="30%" 
        height="30%" 
        fill="#007bff"
        opacity="0.58"
        transform="rotate(204, 77%, 31%)"
      />
    
      <rect 
        x="16%" 
        y="70%" 
        width="34%" 
        height="34%" 
        fill="#0dcaf0"
        opacity="0.32"
        transform="rotate(58, 33%, 87%)"
      />
    
      <rect 
        x="70%" 
        y="24%" 
        width="38%" 
        height="38%" 
        fill="#6610f2"
        opacity="0.76"
        transform="rotate(272, 89%, 43%)"
      />
    
      <circle cx="200" cy="150" r="100" fill="#0dcaf0" opacity="0.7" />
      <circle cx="160" cy="120" r="20" fill="white" opacity="0.8" />
      <circle cx="240" cy="120" r="20" fill="white" opacity="0.8" />
      <circle cx="160" cy="120" r="10" fill="black" />
      <circle cx="240" cy="120" r="10" fill="black" />
      <path d="M 150 200 Q 200 250 250 200" stroke="black" stroke-width="5" fill="none" />
      
    <text 
      x="50%" 
      y="85%" 
      font-family="Arial, sans-serif" 
      font-size="14" 
      font-weight="bold"
      text-anchor="middle"
      fill="white"
    >
      MAYC #11758 - RARE
    </text>
  
    </svg>
  