
    <svg xmlns="http://www.w3.org/2000/svg" viewBox="0 0 400 400" width="400" height="400">
      <defs>
        
    <linearGradient id="gradient-11834" x1="0%" y1="0%" x2="100%" y2="100%">
      <stop offset="0%" stop-color="#28a745" stop-opacity="0.8" />
      <stop offset="50%" stop-color="#5cb85c" stop-opacity="0.5" />
      <stop offset="100%" stop-color="#20c997" stop-opacity="0.8" />
    </linearGradient>
  
      </defs>
      <rect width="100%" height="100%" fill="url(#gradient-11834)" />
      
      <rect 
        x="42%" 
        y="84%" 
        width="36%" 
        height="36%" 
        fill="#20c997"
        opacity="0.8"
        transform="rotate(128, 60%, 102%)"
      />
    
      <rect 
        x="84%" 
        y="26%" 
        width="28%" 
        height="28%" 
        fill="#28a745"
        opacity="0.62"
        transform="rotate(250, 98%, 40%)"
      />
    
      <rect 
        x="26%" 
        y="68%" 
        width="20%" 
        height="20%" 
        fill="#5cb85c"
        opacity="0.44"
        transform="rotate(12, 36%, 78%)"
      />
    
      <rect 
        x="68%" 
        y="10%" 
        width="12%" 
        height="12%" 
        fill="#20c997"
        opacity="0.96"
        transform="rotate(134, 74%, 16%)"
      />
    
      <rect 
        x="10%" 
        y="52%" 
        width="54%" 
        height="54%" 
        fill="#28a745"
        opacity="0.78"
        transform="rotate(256, 37%, 79%)"
      />
    
      <circle cx="200" cy="150" r="100" fill="#20c997" opacity="0.7" />
      <circle cx="160" cy="120" r="20" fill="white" opacity="0.8" />
      <circle cx="240" cy="120" r="20" fill="white" opacity="0.8" />
      <circle cx="160" cy="120" r="10" fill="black" />
      <circle cx="240" cy="120" r="10" fill="black" />
      <path d="M 150 200 Q 200 250 250 200" stroke="black" stroke-width="5" fill="none" />
      
    <text 
      x="50%" 
      y="85%" 
      font-family="Arial, sans-serif" 
      font-size="14" 
      font-weight="bold"
      text-anchor="middle"
      fill="white"
    >
      MAYC #11834 - UNCOMMON
    </text>
  
    </svg>
  