
    <svg xmlns="http://www.w3.org/2000/svg" viewBox="0 0 400 400" width="400" height="400">
      <defs>
        
    <linearGradient id="gradient-10686" x1="0%" y1="0%" x2="100%" y2="100%">
      <stop offset="0%" stop-color="#007bff" stop-opacity="0.8" />
      <stop offset="50%" stop-color="#0dcaf0" stop-opacity="0.5" />
      <stop offset="100%" stop-color="#6610f2" stop-opacity="0.8" />
    </linearGradient>
  
      </defs>
      <rect width="100%" height="100%" fill="url(#gradient-10686)" />
      
      <rect 
        x="18%" 
        y="36%" 
        width="14%" 
        height="14%" 
        fill="#007bff"
        opacity="0.8"
        transform="rotate(192, 25%, 43%)"
      />
    
      <rect 
        x="36%" 
        y="54%" 
        width="32%" 
        height="32%" 
        fill="#0dcaf0"
        opacity="0.48"
        transform="rotate(150, 52%, 70%)"
      />
    
      <rect 
        x="54%" 
        y="72%" 
        width="50%" 
        height="50%" 
        fill="#6610f2"
        opacity="0.86"
        transform="rotate(108, 79%, 97%)"
      />
    
      <rect 
        x="72%" 
        y="90%" 
        width="18%" 
        height="18%" 
        fill="#007bff"
        opacity="0.54"
        transform="rotate(66, 81%, 99%)"
      />
    
      <rect 
        x="90%" 
        y="8%" 
        width="36%" 
        height="36%" 
        fill="#0dcaf0"
        opacity="0.92"
        transform="rotate(24, 108%, 26%)"
      />
    
      <circle cx="200" cy="150" r="100" fill="#007bff" opacity="0.7" />
      <circle cx="160" cy="120" r="20" fill="white" opacity="0.8" />
      <circle cx="240" cy="120" r="20" fill="white" opacity="0.8" />
      <circle cx="160" cy="120" r="10" fill="black" />
      <circle cx="240" cy="120" r="10" fill="black" />
      <path d="M 150 200 Q 200 250 250 200" stroke="black" stroke-width="5" fill="none" />
      
    <text 
      x="50%" 
      y="85%" 
      font-family="Arial, sans-serif" 
      font-size="14" 
      font-weight="bold"
      text-anchor="middle"
      fill="white"
    >
      MAYC #10686 - RARE
    </text>
  
    </svg>
  