
    <svg xmlns="http://www.w3.org/2000/svg" viewBox="0 0 400 400" width="400" height="400">
      <defs>
        
    <linearGradient id="gradient-11656" x1="0%" y1="0%" x2="100%" y2="100%">
      <stop offset="0%" stop-color="#6c757d" stop-opacity="0.8" />
      <stop offset="50%" stop-color="#adb5bd" stop-opacity="0.5" />
      <stop offset="100%" stop-color="#ced4da" stop-opacity="0.8" />
    </linearGradient>
  
      </defs>
      <rect width="100%" height="100%" fill="url(#gradient-11656)" />
      
      <rect 
        x="28%" 
        y="56%" 
        width="44%" 
        height="44%" 
        fill="#adb5bd"
        opacity="0.6"
        transform="rotate(232, 50%, 78%)"
      />
    
      <rect 
        x="56%" 
        y="84%" 
        width="22%" 
        height="22%" 
        fill="#ced4da"
        opacity="0.38"
        transform="rotate(200, 67%, 95%)"
      />
    
      <rect 
        x="84%" 
        y="12%" 
        width="50%" 
        height="50%" 
        fill="#6c757d"
        opacity="0.86"
        transform="rotate(168, 109%, 37%)"
      />
    
      <rect 
        x="12%" 
        y="40%" 
        width="28%" 
        height="28%" 
        fill="#adb5bd"
        opacity="0.64"
        transform="rotate(136, 26%, 54%)"
      />
    
      <rect 
        x="40%" 
        y="68%" 
        width="56%" 
        height="56%" 
        fill="#ced4da"
        opacity="0.42"
        transform="rotate(104, 68%, 96%)"
      />
    
      <circle cx="200" cy="150" r="100" fill="#adb5bd" opacity="0.7" />
      <circle cx="160" cy="120" r="20" fill="white" opacity="0.8" />
      <circle cx="240" cy="120" r="20" fill="white" opacity="0.8" />
      <circle cx="160" cy="120" r="10" fill="black" />
      <circle cx="240" cy="120" r="10" fill="black" />
      <path d="M 150 200 Q 200 250 250 200" stroke="black" stroke-width="5" fill="none" />
      
    <text 
      x="50%" 
      y="85%" 
      font-family="Arial, sans-serif" 
      font-size="14" 
      font-weight="bold"
      text-anchor="middle"
      fill="white"
    >
      MAYC #11656 - COMMON
    </text>
  
    </svg>
  