
    <svg xmlns="http://www.w3.org/2000/svg" viewBox="0 0 400 400" width="400" height="400">
      <defs>
        
    <linearGradient id="gradient-12137" x1="0%" y1="0%" x2="100%" y2="100%">
      <stop offset="0%" stop-color="#28a745" stop-opacity="0.8" />
      <stop offset="50%" stop-color="#5cb85c" stop-opacity="0.5" />
      <stop offset="100%" stop-color="#20c997" stop-opacity="0.8" />
    </linearGradient>
  
      </defs>
      <rect width="100%" height="100%" fill="url(#gradient-12137)" />
      
      <rect 
        x="81%" 
        y="62%" 
        width="53%" 
        height="53%" 
        fill="#20c997"
        opacity="0.35"
        transform="rotate(44, 107.5%, 88.5%)"
      />
    
      <rect 
        x="62%" 
        y="43%" 
        width="34%" 
        height="34%" 
        fill="#28a745"
        opacity="0.36"
        transform="rotate(145, 79%, 60%)"
      />
    
      <rect 
        x="43%" 
        y="24%" 
        width="15%" 
        height="15%" 
        fill="#5cb85c"
        opacity="0.37"
        transform="rotate(246, 50.5%, 31.5%)"
      />
    
      <rect 
        x="24%" 
        y="5%" 
        width="46%" 
        height="46%" 
        fill="#20c997"
        opacity="0.38"
        transform="rotate(347, 47%, 28%)"
      />
    
      <rect 
        x="5%" 
        y="86%" 
        width="27%" 
        height="27%" 
        fill="#28a745"
        opacity="0.39"
        transform="rotate(88, 18.5%, 99.5%)"
      />
    
      <circle cx="200" cy="150" r="100" fill="#20c997" opacity="0.7" />
      <circle cx="160" cy="120" r="20" fill="white" opacity="0.8" />
      <circle cx="240" cy="120" r="20" fill="white" opacity="0.8" />
      <circle cx="160" cy="120" r="10" fill="black" />
      <circle cx="240" cy="120" r="10" fill="black" />
      <path d="M 150 200 Q 200 250 250 200" stroke="black" stroke-width="5" fill="none" />
      
    <text 
      x="50%" 
      y="85%" 
      font-family="Arial, sans-serif" 
      font-size="14" 
      font-weight="bold"
      text-anchor="middle"
      fill="white"
    >
      MAYC #12137 - UNCOMMON
    </text>
  
    </svg>
  