
    <svg xmlns="http://www.w3.org/2000/svg" viewBox="0 0 400 400" width="400" height="400">
      <defs>
        
    <linearGradient id="gradient-11708" x1="0%" y1="0%" x2="100%" y2="100%">
      <stop offset="0%" stop-color="#6c757d" stop-opacity="0.8" />
      <stop offset="50%" stop-color="#adb5bd" stop-opacity="0.5" />
      <stop offset="100%" stop-color="#ced4da" stop-opacity="0.8" />
    </linearGradient>
  
      </defs>
      <rect width="100%" height="100%" fill="url(#gradient-11708)" />
      
      <rect 
        x="4%" 
        y="8%" 
        width="22%" 
        height="22%" 
        fill="#ced4da"
        opacity="0.8"
        transform="rotate(56, 15%, 19%)"
      />
    
      <rect 
        x="8%" 
        y="12%" 
        width="26%" 
        height="26%" 
        fill="#6c757d"
        opacity="0.34"
        transform="rotate(340, 21%, 25%)"
      />
    
      <rect 
        x="12%" 
        y="16%" 
        width="30%" 
        height="30%" 
        fill="#adb5bd"
        opacity="0.58"
        transform="rotate(264, 27%, 31%)"
      />
    
      <rect 
        x="16%" 
        y="20%" 
        width="34%" 
        height="34%" 
        fill="#ced4da"
        opacity="0.82"
        transform="rotate(188, 33%, 37%)"
      />
    
      <rect 
        x="20%" 
        y="24%" 
        width="38%" 
        height="38%" 
        fill="#6c757d"
        opacity="0.36"
        transform="rotate(112, 39%, 43%)"
      />
    
      <circle cx="200" cy="150" r="100" fill="#ced4da" opacity="0.7" />
      <circle cx="160" cy="120" r="20" fill="white" opacity="0.8" />
      <circle cx="240" cy="120" r="20" fill="white" opacity="0.8" />
      <circle cx="160" cy="120" r="10" fill="black" />
      <circle cx="240" cy="120" r="10" fill="black" />
      <path d="M 150 200 Q 200 250 250 200" stroke="black" stroke-width="5" fill="none" />
      
    <text 
      x="50%" 
      y="85%" 
      font-family="Arial, sans-serif" 
      font-size="14" 
      font-weight="bold"
      text-anchor="middle"
      fill="white"
    >
      MAYC #11708 - COMMON
    </text>
  
    </svg>
  