
    <svg xmlns="http://www.w3.org/2000/svg" viewBox="0 0 400 400" width="400" height="400">
      <defs>
        
    <linearGradient id="gradient-10574" x1="0%" y1="0%" x2="100%" y2="100%">
      <stop offset="0%" stop-color="#6c757d" stop-opacity="0.8" />
      <stop offset="50%" stop-color="#adb5bd" stop-opacity="0.5" />
      <stop offset="100%" stop-color="#ced4da" stop-opacity="0.8" />
    </linearGradient>
  
      </defs>
      <rect width="100%" height="100%" fill="url(#gradient-10574)" />
      
      <rect 
        x="62%" 
        y="24%" 
        width="46%" 
        height="46%" 
        fill="#ced4da"
        opacity="0.8"
        transform="rotate(128, 85%, 47%)"
      />
    
      <rect 
        x="24%" 
        y="86%" 
        width="58%" 
        height="58%" 
        fill="#6c757d"
        opacity="0.62"
        transform="rotate(70, 53%, 115%)"
      />
    
      <rect 
        x="86%" 
        y="48%" 
        width="20%" 
        height="20%" 
        fill="#adb5bd"
        opacity="0.44"
        transform="rotate(12, 96%, 58%)"
      />
    
      <rect 
        x="48%" 
        y="10%" 
        width="32%" 
        height="32%" 
        fill="#ced4da"
        opacity="0.96"
        transform="rotate(314, 64%, 26%)"
      />
    
      <rect 
        x="10%" 
        y="72%" 
        width="44%" 
        height="44%" 
        fill="#6c757d"
        opacity="0.78"
        transform="rotate(256, 32%, 94%)"
      />
    
      <circle cx="200" cy="150" r="100" fill="#ced4da" opacity="0.7" />
      <circle cx="160" cy="120" r="20" fill="white" opacity="0.8" />
      <circle cx="240" cy="120" r="20" fill="white" opacity="0.8" />
      <circle cx="160" cy="120" r="10" fill="black" />
      <circle cx="240" cy="120" r="10" fill="black" />
      <path d="M 150 200 Q 200 250 250 200" stroke="black" stroke-width="5" fill="none" />
      
    <text 
      x="50%" 
      y="85%" 
      font-family="Arial, sans-serif" 
      font-size="14" 
      font-weight="bold"
      text-anchor="middle"
      fill="white"
    >
      MAYC #10574 - COMMON
    </text>
  
    </svg>
  