
    <svg xmlns="http://www.w3.org/2000/svg" viewBox="0 0 400 400" width="400" height="400">
      <defs>
        
    <linearGradient id="gradient-11639" x1="0%" y1="0%" x2="100%" y2="100%">
      <stop offset="0%" stop-color="#6c757d" stop-opacity="0.8" />
      <stop offset="50%" stop-color="#adb5bd" stop-opacity="0.5" />
      <stop offset="100%" stop-color="#ced4da" stop-opacity="0.8" />
    </linearGradient>
  
      </defs>
      <rect width="100%" height="100%" fill="url(#gradient-11639)" />
      
      <rect 
        x="7%" 
        y="14%" 
        width="31%" 
        height="31%" 
        fill="#ced4da"
        opacity="0.75"
        transform="rotate(68, 22.5%, 29.5%)"
      />
    
      <rect 
        x="14%" 
        y="21%" 
        width="38%" 
        height="38%" 
        fill="#6c757d"
        opacity="0.42"
        transform="rotate(175, 33%, 40%)"
      />
    
      <rect 
        x="21%" 
        y="28%" 
        width="45%" 
        height="45%" 
        fill="#adb5bd"
        opacity="0.79"
        transform="rotate(282, 43.5%, 50.5%)"
      />
    
      <rect 
        x="28%" 
        y="35%" 
        width="52%" 
        height="52%" 
        fill="#ced4da"
        opacity="0.46"
        transform="rotate(29, 54%, 61%)"
      />
    
      <rect 
        x="35%" 
        y="42%" 
        width="59%" 
        height="59%" 
        fill="#6c757d"
        opacity="0.83"
        transform="rotate(136, 64.5%, 71.5%)"
      />
    
      <circle cx="200" cy="150" r="100" fill="#ced4da" opacity="0.7" />
      <circle cx="160" cy="120" r="20" fill="white" opacity="0.8" />
      <circle cx="240" cy="120" r="20" fill="white" opacity="0.8" />
      <circle cx="160" cy="120" r="10" fill="black" />
      <circle cx="240" cy="120" r="10" fill="black" />
      <path d="M 150 200 Q 200 250 250 200" stroke="black" stroke-width="5" fill="none" />
      
    <text 
      x="50%" 
      y="85%" 
      font-family="Arial, sans-serif" 
      font-size="14" 
      font-weight="bold"
      text-anchor="middle"
      fill="white"
    >
      MAYC #11639 - COMMON
    </text>
  
    </svg>
  