
    <svg xmlns="http://www.w3.org/2000/svg" viewBox="0 0 400 400" width="400" height="400">
      <defs>
        
    <linearGradient id="gradient-11605" x1="0%" y1="0%" x2="100%" y2="100%">
      <stop offset="0%" stop-color="#007bff" stop-opacity="0.8" />
      <stop offset="50%" stop-color="#0dcaf0" stop-opacity="0.5" />
      <stop offset="100%" stop-color="#6610f2" stop-opacity="0.8" />
    </linearGradient>
  
      </defs>
      <rect width="100%" height="100%" fill="url(#gradient-11605)" />
      
      <rect 
        x="65%" 
        y="30%" 
        width="55%" 
        height="55%" 
        fill="#0dcaf0"
        opacity="0.35"
        transform="rotate(100, 92.5%, 57.5%)"
      />
    
      <rect 
        x="30%" 
        y="95%" 
        width="20%" 
        height="20%" 
        fill="#6610f2"
        opacity="0.5"
        transform="rotate(125, 40%, 105%)"
      />
    
      <rect 
        x="95%" 
        y="60%" 
        width="35%" 
        height="35%" 
        fill="#007bff"
        opacity="0.65"
        transform="rotate(150, 112.5%, 77.5%)"
      />
    
      <rect 
        x="60%" 
        y="25%" 
        width="50%" 
        height="50%" 
        fill="#0dcaf0"
        opacity="0.8"
        transform="rotate(175, 85%, 50%)"
      />
    
      <rect 
        x="25%" 
        y="90%" 
        width="15%" 
        height="15%" 
        fill="#6610f2"
        opacity="0.95"
        transform="rotate(200, 32.5%, 97.5%)"
      />
    
      <circle cx="200" cy="150" r="100" fill="#0dcaf0" opacity="0.7" />
      <circle cx="160" cy="120" r="20" fill="white" opacity="0.8" />
      <circle cx="240" cy="120" r="20" fill="white" opacity="0.8" />
      <circle cx="160" cy="120" r="10" fill="black" />
      <circle cx="240" cy="120" r="10" fill="black" />
      <path d="M 150 200 Q 200 250 250 200" stroke="black" stroke-width="5" fill="none" />
      
    <text 
      x="50%" 
      y="85%" 
      font-family="Arial, sans-serif" 
      font-size="14" 
      font-weight="bold"
      text-anchor="middle"
      fill="white"
    >
      MAYC #11605 - RARE
    </text>
  
    </svg>
  