
    <svg xmlns="http://www.w3.org/2000/svg" viewBox="0 0 400 400" width="400" height="400">
      <defs>
        
    <linearGradient id="gradient-11169" x1="0%" y1="0%" x2="100%" y2="100%">
      <stop offset="0%" stop-color="#6c757d" stop-opacity="0.8" />
      <stop offset="50%" stop-color="#adb5bd" stop-opacity="0.5" />
      <stop offset="100%" stop-color="#ced4da" stop-opacity="0.8" />
    </linearGradient>
  
      </defs>
      <rect width="100%" height="100%" fill="url(#gradient-11169)" />
      
      <rect 
        x="97%" 
        y="94%" 
        width="51%" 
        height="51%" 
        fill="#6c757d"
        opacity="0.45"
        transform="rotate(108, 122.5%, 119.5%)"
      />
    
      <rect 
        x="94%" 
        y="91%" 
        width="48%" 
        height="48%" 
        fill="#adb5bd"
        opacity="0.62"
        transform="rotate(225, 118%, 115%)"
      />
    
      <rect 
        x="91%" 
        y="88%" 
        width="45%" 
        height="45%" 
        fill="#ced4da"
        opacity="0.79"
        transform="rotate(342, 113.5%, 110.5%)"
      />
    
      <rect 
        x="88%" 
        y="85%" 
        width="42%" 
        height="42%" 
        fill="#6c757d"
        opacity="0.96"
        transform="rotate(99, 109%, 106%)"
      />
    
      <rect 
        x="85%" 
        y="82%" 
        width="39%" 
        height="39%" 
        fill="#adb5bd"
        opacity="0.43"
        transform="rotate(216, 104.5%, 101.5%)"
      />
    
      <circle cx="200" cy="150" r="100" fill="#6c757d" opacity="0.7" />
      <circle cx="160" cy="120" r="20" fill="white" opacity="0.8" />
      <circle cx="240" cy="120" r="20" fill="white" opacity="0.8" />
      <circle cx="160" cy="120" r="10" fill="black" />
      <circle cx="240" cy="120" r="10" fill="black" />
      <path d="M 150 200 Q 200 250 250 200" stroke="black" stroke-width="5" fill="none" />
      
    <text 
      x="50%" 
      y="85%" 
      font-family="Arial, sans-serif" 
      font-size="14" 
      font-weight="bold"
      text-anchor="middle"
      fill="white"
    >
      MAYC #11169 - COMMON
    </text>
  
    </svg>
  