
    <svg xmlns="http://www.w3.org/2000/svg" viewBox="0 0 400 400" width="400" height="400">
      <defs>
        
    <linearGradient id="gradient-11962" x1="0%" y1="0%" x2="100%" y2="100%">
      <stop offset="0%" stop-color="#6c757d" stop-opacity="0.8" />
      <stop offset="50%" stop-color="#adb5bd" stop-opacity="0.5" />
      <stop offset="100%" stop-color="#ced4da" stop-opacity="0.8" />
    </linearGradient>
  
      </defs>
      <rect width="100%" height="100%" fill="url(#gradient-11962)" />
      
      <rect 
        x="6%" 
        y="12%" 
        width="28%" 
        height="28%" 
        fill="#adb5bd"
        opacity="0.7"
        transform="rotate(304, 20%, 26%)"
      />
    
      <rect 
        x="12%" 
        y="18%" 
        width="34%" 
        height="34%" 
        fill="#ced4da"
        opacity="0.36"
        transform="rotate(290, 29%, 35%)"
      />
    
      <rect 
        x="18%" 
        y="24%" 
        width="40%" 
        height="40%" 
        fill="#6c757d"
        opacity="0.72"
        transform="rotate(276, 38%, 44%)"
      />
    
      <rect 
        x="24%" 
        y="30%" 
        width="46%" 
        height="46%" 
        fill="#adb5bd"
        opacity="0.38"
        transform="rotate(262, 47%, 53%)"
      />
    
      <rect 
        x="30%" 
        y="36%" 
        width="52%" 
        height="52%" 
        fill="#ced4da"
        opacity="0.74"
        transform="rotate(248, 56%, 62%)"
      />
    
      <circle cx="200" cy="150" r="100" fill="#adb5bd" opacity="0.7" />
      <circle cx="160" cy="120" r="20" fill="white" opacity="0.8" />
      <circle cx="240" cy="120" r="20" fill="white" opacity="0.8" />
      <circle cx="160" cy="120" r="10" fill="black" />
      <circle cx="240" cy="120" r="10" fill="black" />
      <path d="M 150 200 Q 200 250 250 200" stroke="black" stroke-width="5" fill="none" />
      
    <text 
      x="50%" 
      y="85%" 
      font-family="Arial, sans-serif" 
      font-size="14" 
      font-weight="bold"
      text-anchor="middle"
      fill="white"
    >
      MAYC #11962 - COMMON
    </text>
  
    </svg>
  