
    <svg xmlns="http://www.w3.org/2000/svg" viewBox="0 0 400 400" width="400" height="400">
      <defs>
        
    <linearGradient id="gradient-10165" x1="0%" y1="0%" x2="100%" y2="100%">
      <stop offset="0%" stop-color="#6c757d" stop-opacity="0.8" />
      <stop offset="50%" stop-color="#adb5bd" stop-opacity="0.5" />
      <stop offset="100%" stop-color="#ced4da" stop-opacity="0.8" />
    </linearGradient>
  
      </defs>
      <rect width="100%" height="100%" fill="url(#gradient-10165)" />
      
      <rect 
        x="45%" 
        y="90%" 
        width="45%" 
        height="45%" 
        fill="#adb5bd"
        opacity="0.95"
        transform="rotate(100, 67.5%, 112.5%)"
      />
    
      <rect 
        x="90%" 
        y="35%" 
        width="40%" 
        height="40%" 
        fill="#ced4da"
        opacity="0.8"
        transform="rotate(125, 110%, 55%)"
      />
    
      <rect 
        x="35%" 
        y="80%" 
        width="35%" 
        height="35%" 
        fill="#6c757d"
        opacity="0.65"
        transform="rotate(150, 52.5%, 97.5%)"
      />
    
      <rect 
        x="80%" 
        y="25%" 
        width="30%" 
        height="30%" 
        fill="#adb5bd"
        opacity="0.5"
        transform="rotate(175, 95%, 40%)"
      />
    
      <rect 
        x="25%" 
        y="70%" 
        width="25%" 
        height="25%" 
        fill="#ced4da"
        opacity="0.35"
        transform="rotate(200, 37.5%, 82.5%)"
      />
    
      <circle cx="200" cy="150" r="100" fill="#adb5bd" opacity="0.7" />
      <circle cx="160" cy="120" r="20" fill="white" opacity="0.8" />
      <circle cx="240" cy="120" r="20" fill="white" opacity="0.8" />
      <circle cx="160" cy="120" r="10" fill="black" />
      <circle cx="240" cy="120" r="10" fill="black" />
      <path d="M 150 200 Q 200 250 250 200" stroke="black" stroke-width="5" fill="none" />
      
    <text 
      x="50%" 
      y="85%" 
      font-family="Arial, sans-serif" 
      font-size="14" 
      font-weight="bold"
      text-anchor="middle"
      fill="white"
    >
      MAYC #10165 - COMMON
    </text>
  
    </svg>
  