
    <svg xmlns="http://www.w3.org/2000/svg" viewBox="0 0 400 400" width="400" height="400">
      <defs>
        
    <linearGradient id="gradient-10081" x1="0%" y1="0%" x2="100%" y2="100%">
      <stop offset="0%" stop-color="#6c757d" stop-opacity="0.8" />
      <stop offset="50%" stop-color="#adb5bd" stop-opacity="0.5" />
      <stop offset="100%" stop-color="#ced4da" stop-opacity="0.8" />
    </linearGradient>
  
      </defs>
      <rect width="100%" height="100%" fill="url(#gradient-10081)" />
      
      <rect 
        x="53%" 
        y="6%" 
        width="19%" 
        height="19%" 
        fill="#adb5bd"
        opacity="0.95"
        transform="rotate(52, 62.5%, 15.5%)"
      />
    
      <rect 
        x="6%" 
        y="59%" 
        width="22%" 
        height="22%" 
        fill="#ced4da"
        opacity="0.38"
        transform="rotate(65, 17%, 70%)"
      />
    
      <rect 
        x="59%" 
        y="12%" 
        width="25%" 
        height="25%" 
        fill="#6c757d"
        opacity="0.51"
        transform="rotate(78, 71.5%, 24.5%)"
      />
    
      <rect 
        x="12%" 
        y="65%" 
        width="28%" 
        height="28%" 
        fill="#adb5bd"
        opacity="0.64"
        transform="rotate(91, 26%, 79%)"
      />
    
      <rect 
        x="65%" 
        y="18%" 
        width="31%" 
        height="31%" 
        fill="#ced4da"
        opacity="0.77"
        transform="rotate(104, 80.5%, 33.5%)"
      />
    
      <circle cx="200" cy="150" r="100" fill="#adb5bd" opacity="0.7" />
      <circle cx="160" cy="120" r="20" fill="white" opacity="0.8" />
      <circle cx="240" cy="120" r="20" fill="white" opacity="0.8" />
      <circle cx="160" cy="120" r="10" fill="black" />
      <circle cx="240" cy="120" r="10" fill="black" />
      <path d="M 150 200 Q 200 250 250 200" stroke="black" stroke-width="5" fill="none" />
      
    <text 
      x="50%" 
      y="85%" 
      font-family="Arial, sans-serif" 
      font-size="14" 
      font-weight="bold"
      text-anchor="middle"
      fill="white"
    >
      MAYC #10081 - COMMON
    </text>
  
    </svg>
  