
    <svg xmlns="http://www.w3.org/2000/svg" viewBox="0 0 400 400" width="400" height="400">
      <defs>
        
    <linearGradient id="gradient-11178" x1="0%" y1="0%" x2="100%" y2="100%">
      <stop offset="0%" stop-color="#6c757d" stop-opacity="0.8" />
      <stop offset="50%" stop-color="#adb5bd" stop-opacity="0.5" />
      <stop offset="100%" stop-color="#ced4da" stop-opacity="0.8" />
    </linearGradient>
  
      </defs>
      <rect width="100%" height="100%" fill="url(#gradient-11178)" />
      
      <rect 
        x="14%" 
        y="28%" 
        width="52%" 
        height="52%" 
        fill="#6c757d"
        opacity="0.7"
        transform="rotate(216, 40%, 54%)"
      />
    
      <rect 
        x="28%" 
        y="42%" 
        width="16%" 
        height="16%" 
        fill="#adb5bd"
        opacity="0.64"
        transform="rotate(90, 36%, 50%)"
      />
    
      <rect 
        x="42%" 
        y="56%" 
        width="30%" 
        height="30%" 
        fill="#ced4da"
        opacity="0.58"
        transform="rotate(324, 57%, 71%)"
      />
    
      <rect 
        x="56%" 
        y="70%" 
        width="44%" 
        height="44%" 
        fill="#6c757d"
        opacity="0.52"
        transform="rotate(198, 78%, 92%)"
      />
    
      <rect 
        x="70%" 
        y="84%" 
        width="58%" 
        height="58%" 
        fill="#adb5bd"
        opacity="0.46"
        transform="rotate(72, 99%, 113%)"
      />
    
      <circle cx="200" cy="150" r="100" fill="#6c757d" opacity="0.7" />
      <circle cx="160" cy="120" r="20" fill="white" opacity="0.8" />
      <circle cx="240" cy="120" r="20" fill="white" opacity="0.8" />
      <circle cx="160" cy="120" r="10" fill="black" />
      <circle cx="240" cy="120" r="10" fill="black" />
      <path d="M 150 200 Q 200 250 250 200" stroke="black" stroke-width="5" fill="none" />
      
    <text 
      x="50%" 
      y="85%" 
      font-family="Arial, sans-serif" 
      font-size="14" 
      font-weight="bold"
      text-anchor="middle"
      fill="white"
    >
      MAYC #11178 - COMMON
    </text>
  
    </svg>
  