
    <svg xmlns="http://www.w3.org/2000/svg" viewBox="0 0 400 400" width="400" height="400">
      <defs>
        
    <linearGradient id="gradient-11816" x1="0%" y1="0%" x2="100%" y2="100%">
      <stop offset="0%" stop-color="#6c757d" stop-opacity="0.8" />
      <stop offset="50%" stop-color="#adb5bd" stop-opacity="0.5" />
      <stop offset="100%" stop-color="#ced4da" stop-opacity="0.8" />
    </linearGradient>
  
      </defs>
      <rect width="100%" height="100%" fill="url(#gradient-11816)" />
      
      <rect 
        x="8%" 
        y="16%" 
        width="34%" 
        height="34%" 
        fill="#ced4da"
        opacity="0.3"
        transform="rotate(272, 25%, 33%)"
      />
    
      <rect 
        x="16%" 
        y="24%" 
        width="42%" 
        height="42%" 
        fill="#6c757d"
        opacity="0.58"
        transform="rotate(160, 37%, 45%)"
      />
    
      <rect 
        x="24%" 
        y="32%" 
        width="50%" 
        height="50%" 
        fill="#adb5bd"
        opacity="0.86"
        transform="rotate(48, 49%, 57%)"
      />
    
      <rect 
        x="32%" 
        y="40%" 
        width="58%" 
        height="58%" 
        fill="#ced4da"
        opacity="0.44"
        transform="rotate(296, 61%, 69%)"
      />
    
      <rect 
        x="40%" 
        y="48%" 
        width="16%" 
        height="16%" 
        fill="#6c757d"
        opacity="0.72"
        transform="rotate(184, 48%, 56%)"
      />
    
      <circle cx="200" cy="150" r="100" fill="#ced4da" opacity="0.7" />
      <circle cx="160" cy="120" r="20" fill="white" opacity="0.8" />
      <circle cx="240" cy="120" r="20" fill="white" opacity="0.8" />
      <circle cx="160" cy="120" r="10" fill="black" />
      <circle cx="240" cy="120" r="10" fill="black" />
      <path d="M 150 200 Q 200 250 250 200" stroke="black" stroke-width="5" fill="none" />
      
    <text 
      x="50%" 
      y="85%" 
      font-family="Arial, sans-serif" 
      font-size="14" 
      font-weight="bold"
      text-anchor="middle"
      fill="white"
    >
      MAYC #11816 - COMMON
    </text>
  
    </svg>
  