
    <svg xmlns="http://www.w3.org/2000/svg" viewBox="0 0 400 400" width="400" height="400">
      <defs>
        
    <linearGradient id="gradient-12157" x1="0%" y1="0%" x2="100%" y2="100%">
      <stop offset="0%" stop-color="#6c757d" stop-opacity="0.8" />
      <stop offset="50%" stop-color="#adb5bd" stop-opacity="0.5" />
      <stop offset="100%" stop-color="#ced4da" stop-opacity="0.8" />
    </linearGradient>
  
      </defs>
      <rect width="100%" height="100%" fill="url(#gradient-12157)" />
      
      <rect 
        x="41%" 
        y="82%" 
        width="33%" 
        height="33%" 
        fill="#adb5bd"
        opacity="0.75"
        transform="rotate(4, 57.5%, 98.5%)"
      />
    
      <rect 
        x="82%" 
        y="23%" 
        width="24%" 
        height="24%" 
        fill="#ced4da"
        opacity="0.56"
        transform="rotate(5, 94%, 35%)"
      />
    
      <rect 
        x="23%" 
        y="64%" 
        width="15%" 
        height="15%" 
        fill="#6c757d"
        opacity="0.37"
        transform="rotate(6, 30.5%, 71.5%)"
      />
    
      <rect 
        x="64%" 
        y="5%" 
        width="56%" 
        height="56%" 
        fill="#adb5bd"
        opacity="0.88"
        transform="rotate(7, 92%, 33%)"
      />
    
      <rect 
        x="5%" 
        y="46%" 
        width="47%" 
        height="47%" 
        fill="#ced4da"
        opacity="0.69"
        transform="rotate(8, 28.5%, 69.5%)"
      />
    
      <circle cx="200" cy="150" r="100" fill="#adb5bd" opacity="0.7" />
      <circle cx="160" cy="120" r="20" fill="white" opacity="0.8" />
      <circle cx="240" cy="120" r="20" fill="white" opacity="0.8" />
      <circle cx="160" cy="120" r="10" fill="black" />
      <circle cx="240" cy="120" r="10" fill="black" />
      <path d="M 150 200 Q 200 250 250 200" stroke="black" stroke-width="5" fill="none" />
      
    <text 
      x="50%" 
      y="85%" 
      font-family="Arial, sans-serif" 
      font-size="14" 
      font-weight="bold"
      text-anchor="middle"
      fill="white"
    >
      MAYC #12157 - COMMON
    </text>
  
    </svg>
  