
    <svg xmlns="http://www.w3.org/2000/svg" viewBox="0 0 400 400" width="400" height="400">
      <defs>
        
    <linearGradient id="gradient-11822" x1="0%" y1="0%" x2="100%" y2="100%">
      <stop offset="0%" stop-color="#6c757d" stop-opacity="0.8" />
      <stop offset="50%" stop-color="#adb5bd" stop-opacity="0.5" />
      <stop offset="100%" stop-color="#ced4da" stop-opacity="0.8" />
    </linearGradient>
  
      </defs>
      <rect width="100%" height="100%" fill="url(#gradient-11822)" />
      
      <rect 
        x="86%" 
        y="72%" 
        width="18%" 
        height="18%" 
        fill="#ced4da"
        opacity="0.7"
        transform="rotate(224, 95%, 81%)"
      />
    
      <rect 
        x="72%" 
        y="58%" 
        width="54%" 
        height="54%" 
        fill="#6c757d"
        opacity="0.36"
        transform="rotate(190, 99%, 85%)"
      />
    
      <rect 
        x="58%" 
        y="44%" 
        width="40%" 
        height="40%" 
        fill="#adb5bd"
        opacity="0.72"
        transform="rotate(156, 78%, 64%)"
      />
    
      <rect 
        x="44%" 
        y="30%" 
        width="26%" 
        height="26%" 
        fill="#ced4da"
        opacity="0.38"
        transform="rotate(122, 57%, 43%)"
      />
    
      <rect 
        x="30%" 
        y="16%" 
        width="12%" 
        height="12%" 
        fill="#6c757d"
        opacity="0.74"
        transform="rotate(88, 36%, 22%)"
      />
    
      <circle cx="200" cy="150" r="100" fill="#ced4da" opacity="0.7" />
      <circle cx="160" cy="120" r="20" fill="white" opacity="0.8" />
      <circle cx="240" cy="120" r="20" fill="white" opacity="0.8" />
      <circle cx="160" cy="120" r="10" fill="black" />
      <circle cx="240" cy="120" r="10" fill="black" />
      <path d="M 150 200 Q 200 250 250 200" stroke="black" stroke-width="5" fill="none" />
      
    <text 
      x="50%" 
      y="85%" 
      font-family="Arial, sans-serif" 
      font-size="14" 
      font-weight="bold"
      text-anchor="middle"
      fill="white"
    >
      MAYC #11822 - COMMON
    </text>
  
    </svg>
  