
    <svg xmlns="http://www.w3.org/2000/svg" viewBox="0 0 400 400" width="400" height="400">
      <defs>
        
    <linearGradient id="gradient-10171" x1="0%" y1="0%" x2="100%" y2="100%">
      <stop offset="0%" stop-color="#6c757d" stop-opacity="0.8" />
      <stop offset="50%" stop-color="#adb5bd" stop-opacity="0.5" />
      <stop offset="100%" stop-color="#ced4da" stop-opacity="0.8" />
    </linearGradient>
  
      </defs>
      <rect width="100%" height="100%" fill="url(#gradient-10171)" />
      
      <rect 
        x="23%" 
        y="46%" 
        width="29%" 
        height="29%" 
        fill="#adb5bd"
        opacity="0.65"
        transform="rotate(52, 37.5%, 60.5%)"
      />
    
      <rect 
        x="46%" 
        y="69%" 
        width="52%" 
        height="52%" 
        fill="#ced4da"
        opacity="0.58"
        transform="rotate(155, 72%, 95%)"
      />
    
      <rect 
        x="69%" 
        y="92%" 
        width="25%" 
        height="25%" 
        fill="#6c757d"
        opacity="0.51"
        transform="rotate(258, 81.5%, 104.5%)"
      />
    
      <rect 
        x="92%" 
        y="15%" 
        width="48%" 
        height="48%" 
        fill="#adb5bd"
        opacity="0.44"
        transform="rotate(1, 116%, 39%)"
      />
    
      <rect 
        x="15%" 
        y="38%" 
        width="21%" 
        height="21%" 
        fill="#ced4da"
        opacity="0.37"
        transform="rotate(104, 25.5%, 48.5%)"
      />
    
      <circle cx="200" cy="150" r="100" fill="#adb5bd" opacity="0.7" />
      <circle cx="160" cy="120" r="20" fill="white" opacity="0.8" />
      <circle cx="240" cy="120" r="20" fill="white" opacity="0.8" />
      <circle cx="160" cy="120" r="10" fill="black" />
      <circle cx="240" cy="120" r="10" fill="black" />
      <path d="M 150 200 Q 200 250 250 200" stroke="black" stroke-width="5" fill="none" />
      
    <text 
      x="50%" 
      y="85%" 
      font-family="Arial, sans-serif" 
      font-size="14" 
      font-weight="bold"
      text-anchor="middle"
      fill="white"
    >
      MAYC #10171 - COMMON
    </text>
  
    </svg>
  