
    <svg xmlns="http://www.w3.org/2000/svg" viewBox="0 0 400 400" width="400" height="400">
      <defs>
        
    <linearGradient id="gradient-11844" x1="0%" y1="0%" x2="100%" y2="100%">
      <stop offset="0%" stop-color="#dc3545" stop-opacity="0.8" />
      <stop offset="50%" stop-color="#fd7e14" stop-opacity="0.5" />
      <stop offset="100%" stop-color="#f8f9fa" stop-opacity="0.8" />
    </linearGradient>
  
      </defs>
      <rect width="100%" height="100%" fill="url(#gradient-11844)" />
      
      <rect 
        x="72%" 
        y="44%" 
        width="26%" 
        height="26%" 
        fill="#dc3545"
        opacity="0.3"
        transform="rotate(288, 85%, 57%)"
      />
    
      <rect 
        x="44%" 
        y="16%" 
        width="48%" 
        height="48%" 
        fill="#fd7e14"
        opacity="0.72"
        transform="rotate(180, 68%, 40%)"
      />
    
      <rect 
        x="16%" 
        y="88%" 
        width="20%" 
        height="20%" 
        fill="#f8f9fa"
        opacity="0.44"
        transform="rotate(72, 26%, 98%)"
      />
    
      <rect 
        x="88%" 
        y="60%" 
        width="42%" 
        height="42%" 
        fill="#dc3545"
        opacity="0.86"
        transform="rotate(324, 109%, 81%)"
      />
    
      <rect 
        x="60%" 
        y="32%" 
        width="14%" 
        height="14%" 
        fill="#fd7e14"
        opacity="0.58"
        transform="rotate(216, 67%, 39%)"
      />
    
      <circle cx="200" cy="150" r="100" fill="#dc3545" opacity="0.7" />
      <circle cx="160" cy="120" r="20" fill="white" opacity="0.8" />
      <circle cx="240" cy="120" r="20" fill="white" opacity="0.8" />
      <circle cx="160" cy="120" r="10" fill="black" />
      <circle cx="240" cy="120" r="10" fill="black" />
      <path d="M 150 200 Q 200 250 250 200" stroke="black" stroke-width="5" fill="none" />
      
    <text 
      x="50%" 
      y="85%" 
      font-family="Arial, sans-serif" 
      font-size="14" 
      font-weight="bold"
      text-anchor="middle"
      fill="white"
    >
      MAYC #11844 - EPIC
    </text>
  
    </svg>
  