
    <svg xmlns="http://www.w3.org/2000/svg" viewBox="0 0 400 400" width="400" height="400">
      <defs>
        
    <linearGradient id="gradient-11611" x1="0%" y1="0%" x2="100%" y2="100%">
      <stop offset="0%" stop-color="#007bff" stop-opacity="0.8" />
      <stop offset="50%" stop-color="#0dcaf0" stop-opacity="0.5" />
      <stop offset="100%" stop-color="#6610f2" stop-opacity="0.8" />
    </linearGradient>
  
      </defs>
      <rect width="100%" height="100%" fill="url(#gradient-11611)" />
      
      <rect 
        x="43%" 
        y="86%" 
        width="39%" 
        height="39%" 
        fill="#0dcaf0"
        opacity="0.75"
        transform="rotate(52, 62.5%, 105.5%)"
      />
    
      <rect 
        x="86%" 
        y="29%" 
        width="32%" 
        height="32%" 
        fill="#6610f2"
        opacity="0.98"
        transform="rotate(155, 102%, 45%)"
      />
    
      <rect 
        x="29%" 
        y="72%" 
        width="25%" 
        height="25%" 
        fill="#007bff"
        opacity="0.51"
        transform="rotate(258, 41.5%, 84.5%)"
      />
    
      <rect 
        x="72%" 
        y="15%" 
        width="18%" 
        height="18%" 
        fill="#0dcaf0"
        opacity="0.74"
        transform="rotate(1, 81%, 24%)"
      />
    
      <rect 
        x="15%" 
        y="58%" 
        width="11%" 
        height="11%" 
        fill="#6610f2"
        opacity="0.97"
        transform="rotate(104, 20.5%, 63.5%)"
      />
    
      <circle cx="200" cy="150" r="100" fill="#0dcaf0" opacity="0.7" />
      <circle cx="160" cy="120" r="20" fill="white" opacity="0.8" />
      <circle cx="240" cy="120" r="20" fill="white" opacity="0.8" />
      <circle cx="160" cy="120" r="10" fill="black" />
      <circle cx="240" cy="120" r="10" fill="black" />
      <path d="M 150 200 Q 200 250 250 200" stroke="black" stroke-width="5" fill="none" />
      
    <text 
      x="50%" 
      y="85%" 
      font-family="Arial, sans-serif" 
      font-size="14" 
      font-weight="bold"
      text-anchor="middle"
      fill="white"
    >
      MAYC #11611 - RARE
    </text>
  
    </svg>
  