
    <svg xmlns="http://www.w3.org/2000/svg" viewBox="0 0 400 400" width="400" height="400">
      <defs>
        
    <linearGradient id="gradient-11748" x1="0%" y1="0%" x2="100%" y2="100%">
      <stop offset="0%" stop-color="#28a745" stop-opacity="0.8" />
      <stop offset="50%" stop-color="#5cb85c" stop-opacity="0.5" />
      <stop offset="100%" stop-color="#20c997" stop-opacity="0.8" />
    </linearGradient>
  
      </defs>
      <rect width="100%" height="100%" fill="url(#gradient-11748)" />
      
      <rect 
        x="24%" 
        y="48%" 
        width="32%" 
        height="32%" 
        fill="#28a745"
        opacity="0.9"
        transform="rotate(336, 40%, 64%)"
      />
    
      <rect 
        x="48%" 
        y="72%" 
        width="56%" 
        height="56%" 
        fill="#5cb85c"
        opacity="0.74"
        transform="rotate(60, 76%, 100%)"
      />
    
      <rect 
        x="72%" 
        y="96%" 
        width="30%" 
        height="30%" 
        fill="#20c997"
        opacity="0.58"
        transform="rotate(144, 87%, 111%)"
      />
    
      <rect 
        x="96%" 
        y="20%" 
        width="54%" 
        height="54%" 
        fill="#28a745"
        opacity="0.42"
        transform="rotate(228, 123%, 47%)"
      />
    
      <rect 
        x="20%" 
        y="44%" 
        width="28%" 
        height="28%" 
        fill="#5cb85c"
        opacity="0.96"
        transform="rotate(312, 34%, 58%)"
      />
    
      <circle cx="200" cy="150" r="100" fill="#28a745" opacity="0.7" />
      <circle cx="160" cy="120" r="20" fill="white" opacity="0.8" />
      <circle cx="240" cy="120" r="20" fill="white" opacity="0.8" />
      <circle cx="160" cy="120" r="10" fill="black" />
      <circle cx="240" cy="120" r="10" fill="black" />
      <path d="M 150 200 Q 200 250 250 200" stroke="black" stroke-width="5" fill="none" />
      
    <text 
      x="50%" 
      y="85%" 
      font-family="Arial, sans-serif" 
      font-size="14" 
      font-weight="bold"
      text-anchor="middle"
      fill="white"
    >
      MAYC #11748 - UNCOMMON
    </text>
  
    </svg>
  