
    <svg xmlns="http://www.w3.org/2000/svg" viewBox="0 0 400 400" width="400" height="400">
      <defs>
        
    <linearGradient id="gradient-11607" x1="0%" y1="0%" x2="100%" y2="100%">
      <stop offset="0%" stop-color="#007bff" stop-opacity="0.8" />
      <stop offset="50%" stop-color="#0dcaf0" stop-opacity="0.5" />
      <stop offset="100%" stop-color="#6610f2" stop-opacity="0.8" />
    </linearGradient>
  
      </defs>
      <rect width="100%" height="100%" fill="url(#gradient-11607)" />
      
      <rect 
        x="91%" 
        y="82%" 
        width="33%" 
        height="33%" 
        fill="#007bff"
        opacity="0.95"
        transform="rotate(204, 107.5%, 98.5%)"
      />
    
      <rect 
        x="82%" 
        y="73%" 
        width="24%" 
        height="24%" 
        fill="#0dcaf0"
        opacity="0.66"
        transform="rotate(255, 94%, 85%)"
      />
    
      <rect 
        x="73%" 
        y="64%" 
        width="15%" 
        height="15%" 
        fill="#6610f2"
        opacity="0.37"
        transform="rotate(306, 80.5%, 71.5%)"
      />
    
      <rect 
        x="64%" 
        y="55%" 
        width="56%" 
        height="56%" 
        fill="#007bff"
        opacity="0.78"
        transform="rotate(357, 92%, 83%)"
      />
    
      <rect 
        x="55%" 
        y="46%" 
        width="47%" 
        height="47%" 
        fill="#0dcaf0"
        opacity="0.49"
        transform="rotate(48, 78.5%, 69.5%)"
      />
    
      <circle cx="200" cy="150" r="100" fill="#007bff" opacity="0.7" />
      <circle cx="160" cy="120" r="20" fill="white" opacity="0.8" />
      <circle cx="240" cy="120" r="20" fill="white" opacity="0.8" />
      <circle cx="160" cy="120" r="10" fill="black" />
      <circle cx="240" cy="120" r="10" fill="black" />
      <path d="M 150 200 Q 200 250 250 200" stroke="black" stroke-width="5" fill="none" />
      
    <text 
      x="50%" 
      y="85%" 
      font-family="Arial, sans-serif" 
      font-size="14" 
      font-weight="bold"
      text-anchor="middle"
      fill="white"
    >
      MAYC #11607 - RARE
    </text>
  
    </svg>
  