
    <svg xmlns="http://www.w3.org/2000/svg" viewBox="0 0 400 400" width="400" height="400">
      <defs>
        
    <linearGradient id="gradient-10674" x1="0%" y1="0%" x2="100%" y2="100%">
      <stop offset="0%" stop-color="#28a745" stop-opacity="0.8" />
      <stop offset="50%" stop-color="#5cb85c" stop-opacity="0.5" />
      <stop offset="100%" stop-color="#20c997" stop-opacity="0.8" />
    </linearGradient>
  
      </defs>
      <rect width="100%" height="100%" fill="url(#gradient-10674)" />
      
      <rect 
        x="62%" 
        y="24%" 
        width="46%" 
        height="46%" 
        fill="#28a745"
        opacity="0.7"
        transform="rotate(288, 85%, 47%)"
      />
    
      <rect 
        x="24%" 
        y="86%" 
        width="58%" 
        height="58%" 
        fill="#5cb85c"
        opacity="0.92"
        transform="rotate(90, 53%, 115%)"
      />
    
      <rect 
        x="86%" 
        y="48%" 
        width="20%" 
        height="20%" 
        fill="#20c997"
        opacity="0.44"
        transform="rotate(252, 96%, 58%)"
      />
    
      <rect 
        x="48%" 
        y="10%" 
        width="32%" 
        height="32%" 
        fill="#28a745"
        opacity="0.66"
        transform="rotate(54, 64%, 26%)"
      />
    
      <rect 
        x="10%" 
        y="72%" 
        width="44%" 
        height="44%" 
        fill="#5cb85c"
        opacity="0.88"
        transform="rotate(216, 32%, 94%)"
      />
    
      <circle cx="200" cy="150" r="100" fill="#28a745" opacity="0.7" />
      <circle cx="160" cy="120" r="20" fill="white" opacity="0.8" />
      <circle cx="240" cy="120" r="20" fill="white" opacity="0.8" />
      <circle cx="160" cy="120" r="10" fill="black" />
      <circle cx="240" cy="120" r="10" fill="black" />
      <path d="M 150 200 Q 200 250 250 200" stroke="black" stroke-width="5" fill="none" />
      
    <text 
      x="50%" 
      y="85%" 
      font-family="Arial, sans-serif" 
      font-size="14" 
      font-weight="bold"
      text-anchor="middle"
      fill="white"
    >
      MAYC #10674 - UNCOMMON
    </text>
  
    </svg>
  