
    <svg xmlns="http://www.w3.org/2000/svg" viewBox="0 0 400 400" width="400" height="400">
      <defs>
        
    <linearGradient id="gradient-10131" x1="0%" y1="0%" x2="100%" y2="100%">
      <stop offset="0%" stop-color="#28a745" stop-opacity="0.8" />
      <stop offset="50%" stop-color="#5cb85c" stop-opacity="0.5" />
      <stop offset="100%" stop-color="#20c997" stop-opacity="0.8" />
    </linearGradient>
  
      </defs>
      <rect width="100%" height="100%" fill="url(#gradient-10131)" />
      
      <rect 
        x="3%" 
        y="6%" 
        width="19%" 
        height="19%" 
        fill="#28a745"
        opacity="0.55"
        transform="rotate(132, 12.5%, 15.5%)"
      />
    
      <rect 
        x="6%" 
        y="9%" 
        width="22%" 
        height="22%" 
        fill="#5cb85c"
        opacity="0.88"
        transform="rotate(75, 17%, 20%)"
      />
    
      <rect 
        x="9%" 
        y="12%" 
        width="25%" 
        height="25%" 
        fill="#20c997"
        opacity="0.51"
        transform="rotate(18, 21.5%, 24.5%)"
      />
    
      <rect 
        x="12%" 
        y="15%" 
        width="28%" 
        height="28%" 
        fill="#28a745"
        opacity="0.84"
        transform="rotate(321, 26%, 29%)"
      />
    
      <rect 
        x="15%" 
        y="18%" 
        width="31%" 
        height="31%" 
        fill="#5cb85c"
        opacity="0.47"
        transform="rotate(264, 30.5%, 33.5%)"
      />
    
      <circle cx="200" cy="150" r="100" fill="#28a745" opacity="0.7" />
      <circle cx="160" cy="120" r="20" fill="white" opacity="0.8" />
      <circle cx="240" cy="120" r="20" fill="white" opacity="0.8" />
      <circle cx="160" cy="120" r="10" fill="black" />
      <circle cx="240" cy="120" r="10" fill="black" />
      <path d="M 150 200 Q 200 250 250 200" stroke="black" stroke-width="5" fill="none" />
      
    <text 
      x="50%" 
      y="85%" 
      font-family="Arial, sans-serif" 
      font-size="14" 
      font-weight="bold"
      text-anchor="middle"
      fill="white"
    >
      MAYC #10131 - UNCOMMON
    </text>
  
    </svg>
  