
    <svg xmlns="http://www.w3.org/2000/svg" viewBox="0 0 400 400" width="400" height="400">
      <defs>
        
    <linearGradient id="gradient-12023" x1="0%" y1="0%" x2="100%" y2="100%">
      <stop offset="0%" stop-color="#6c757d" stop-opacity="0.8" />
      <stop offset="50%" stop-color="#adb5bd" stop-opacity="0.5" />
      <stop offset="100%" stop-color="#ced4da" stop-opacity="0.8" />
    </linearGradient>
  
      </defs>
      <rect width="100%" height="100%" fill="url(#gradient-12023)" />
      
      <rect 
        x="99%" 
        y="98%" 
        width="57%" 
        height="57%" 
        fill="#ced4da"
        opacity="0.45"
        transform="rotate(236, 127.5%, 126.5%)"
      />
    
      <rect 
        x="98%" 
        y="97%" 
        width="56%" 
        height="56%" 
        fill="#6c757d"
        opacity="0.34"
        transform="rotate(295, 126%, 125%)"
      />
    
      <rect 
        x="97%" 
        y="96%" 
        width="55%" 
        height="55%" 
        fill="#adb5bd"
        opacity="0.93"
        transform="rotate(354, 124.5%, 123.5%)"
      />
    
      <rect 
        x="96%" 
        y="95%" 
        width="54%" 
        height="54%" 
        fill="#ced4da"
        opacity="0.82"
        transform="rotate(53, 123%, 122%)"
      />
    
      <rect 
        x="95%" 
        y="94%" 
        width="53%" 
        height="53%" 
        fill="#6c757d"
        opacity="0.71"
        transform="rotate(112, 121.5%, 120.5%)"
      />
    
      <circle cx="200" cy="150" r="100" fill="#ced4da" opacity="0.7" />
      <circle cx="160" cy="120" r="20" fill="white" opacity="0.8" />
      <circle cx="240" cy="120" r="20" fill="white" opacity="0.8" />
      <circle cx="160" cy="120" r="10" fill="black" />
      <circle cx="240" cy="120" r="10" fill="black" />
      <path d="M 150 200 Q 200 250 250 200" stroke="black" stroke-width="5" fill="none" />
      
    <text 
      x="50%" 
      y="85%" 
      font-family="Arial, sans-serif" 
      font-size="14" 
      font-weight="bold"
      text-anchor="middle"
      fill="white"
    >
      MAYC #12023 - COMMON
    </text>
  
    </svg>
  