
    <svg xmlns="http://www.w3.org/2000/svg" viewBox="0 0 400 400" width="400" height="400">
      <defs>
        
    <linearGradient id="gradient-11654" x1="0%" y1="0%" x2="100%" y2="100%">
      <stop offset="0%" stop-color="#6c757d" stop-opacity="0.8" />
      <stop offset="50%" stop-color="#adb5bd" stop-opacity="0.5" />
      <stop offset="100%" stop-color="#ced4da" stop-opacity="0.8" />
    </linearGradient>
  
      </defs>
      <rect width="100%" height="100%" fill="url(#gradient-11654)" />
      
      <rect 
        x="2%" 
        y="4%" 
        width="16%" 
        height="16%" 
        fill="#ced4da"
        opacity="0.7"
        transform="rotate(128, 10%, 12%)"
      />
    
      <rect 
        x="4%" 
        y="6%" 
        width="18%" 
        height="18%" 
        fill="#6c757d"
        opacity="0.92"
        transform="rotate(70, 13%, 15%)"
      />
    
      <rect 
        x="6%" 
        y="8%" 
        width="20%" 
        height="20%" 
        fill="#adb5bd"
        opacity="0.44"
        transform="rotate(12, 16%, 18%)"
      />
    
      <rect 
        x="8%" 
        y="10%" 
        width="22%" 
        height="22%" 
        fill="#ced4da"
        opacity="0.66"
        transform="rotate(314, 19%, 21%)"
      />
    
      <rect 
        x="10%" 
        y="12%" 
        width="24%" 
        height="24%" 
        fill="#6c757d"
        opacity="0.88"
        transform="rotate(256, 22%, 24%)"
      />
    
      <circle cx="200" cy="150" r="100" fill="#ced4da" opacity="0.7" />
      <circle cx="160" cy="120" r="20" fill="white" opacity="0.8" />
      <circle cx="240" cy="120" r="20" fill="white" opacity="0.8" />
      <circle cx="160" cy="120" r="10" fill="black" />
      <circle cx="240" cy="120" r="10" fill="black" />
      <path d="M 150 200 Q 200 250 250 200" stroke="black" stroke-width="5" fill="none" />
      
    <text 
      x="50%" 
      y="85%" 
      font-family="Arial, sans-serif" 
      font-size="14" 
      font-weight="bold"
      text-anchor="middle"
      fill="white"
    >
      MAYC #11654 - COMMON
    </text>
  
    </svg>
  