
    <svg xmlns="http://www.w3.org/2000/svg" viewBox="0 0 400 400" width="400" height="400">
      <defs>
        
    <linearGradient id="gradient-10158" x1="0%" y1="0%" x2="100%" y2="100%">
      <stop offset="0%" stop-color="#6c757d" stop-opacity="0.8" />
      <stop offset="50%" stop-color="#adb5bd" stop-opacity="0.5" />
      <stop offset="100%" stop-color="#ced4da" stop-opacity="0.8" />
    </linearGradient>
  
      </defs>
      <rect width="100%" height="100%" fill="url(#gradient-10158)" />
      
      <rect 
        x="54%" 
        y="8%" 
        width="22%" 
        height="22%" 
        fill="#6c757d"
        opacity="0.6"
        transform="rotate(96, 65%, 19%)"
      />
    
      <rect 
        x="8%" 
        y="62%" 
        width="26%" 
        height="26%" 
        fill="#adb5bd"
        opacity="0.94"
        transform="rotate(30, 21%, 75%)"
      />
    
      <rect 
        x="62%" 
        y="16%" 
        width="30%" 
        height="30%" 
        fill="#ced4da"
        opacity="0.58"
        transform="rotate(324, 77%, 31%)"
      />
    
      <rect 
        x="16%" 
        y="70%" 
        width="34%" 
        height="34%" 
        fill="#6c757d"
        opacity="0.92"
        transform="rotate(258, 33%, 87%)"
      />
    
      <rect 
        x="70%" 
        y="24%" 
        width="38%" 
        height="38%" 
        fill="#adb5bd"
        opacity="0.56"
        transform="rotate(192, 89%, 43%)"
      />
    
      <circle cx="200" cy="150" r="100" fill="#6c757d" opacity="0.7" />
      <circle cx="160" cy="120" r="20" fill="white" opacity="0.8" />
      <circle cx="240" cy="120" r="20" fill="white" opacity="0.8" />
      <circle cx="160" cy="120" r="10" fill="black" />
      <circle cx="240" cy="120" r="10" fill="black" />
      <path d="M 150 200 Q 200 250 250 200" stroke="black" stroke-width="5" fill="none" />
      
    <text 
      x="50%" 
      y="85%" 
      font-family="Arial, sans-serif" 
      font-size="14" 
      font-weight="bold"
      text-anchor="middle"
      fill="white"
    >
      MAYC #10158 - COMMON
    </text>
  
    </svg>
  