
    <svg xmlns="http://www.w3.org/2000/svg" viewBox="0 0 400 400" width="400" height="400">
      <defs>
        
    <linearGradient id="gradient-12151" x1="0%" y1="0%" x2="100%" y2="100%">
      <stop offset="0%" stop-color="#dc3545" stop-opacity="0.8" />
      <stop offset="50%" stop-color="#fd7e14" stop-opacity="0.5" />
      <stop offset="100%" stop-color="#f8f9fa" stop-opacity="0.8" />
    </linearGradient>
  
      </defs>
      <rect width="100%" height="100%" fill="url(#gradient-12151)" />
      
      <rect 
        x="63%" 
        y="26%" 
        width="49%" 
        height="49%" 
        fill="#fd7e14"
        opacity="0.35"
        transform="rotate(52, 87.5%, 50.5%)"
      />
    
      <rect 
        x="26%" 
        y="89%" 
        width="12%" 
        height="12%" 
        fill="#f8f9fa"
        opacity="0.78"
        transform="rotate(335, 32%, 95%)"
      />
    
      <rect 
        x="89%" 
        y="52%" 
        width="25%" 
        height="25%" 
        fill="#dc3545"
        opacity="0.51"
        transform="rotate(258, 101.5%, 64.5%)"
      />
    
      <rect 
        x="52%" 
        y="15%" 
        width="38%" 
        height="38%" 
        fill="#fd7e14"
        opacity="0.94"
        transform="rotate(181, 71%, 34%)"
      />
    
      <rect 
        x="15%" 
        y="78%" 
        width="51%" 
        height="51%" 
        fill="#f8f9fa"
        opacity="0.67"
        transform="rotate(104, 40.5%, 103.5%)"
      />
    
      <circle cx="200" cy="150" r="100" fill="#fd7e14" opacity="0.7" />
      <circle cx="160" cy="120" r="20" fill="white" opacity="0.8" />
      <circle cx="240" cy="120" r="20" fill="white" opacity="0.8" />
      <circle cx="160" cy="120" r="10" fill="black" />
      <circle cx="240" cy="120" r="10" fill="black" />
      <path d="M 150 200 Q 200 250 250 200" stroke="black" stroke-width="5" fill="none" />
      
    <text 
      x="50%" 
      y="85%" 
      font-family="Arial, sans-serif" 
      font-size="14" 
      font-weight="bold"
      text-anchor="middle"
      fill="white"
    >
      MAYC #12151 - EPIC
    </text>
  
    </svg>
  