
    <svg xmlns="http://www.w3.org/2000/svg" viewBox="0 0 400 400" width="400" height="400">
      <defs>
        
    <linearGradient id="gradient-11691" x1="0%" y1="0%" x2="100%" y2="100%">
      <stop offset="0%" stop-color="#dc3545" stop-opacity="0.8" />
      <stop offset="50%" stop-color="#fd7e14" stop-opacity="0.5" />
      <stop offset="100%" stop-color="#f8f9fa" stop-opacity="0.8" />
    </linearGradient>
  
      </defs>
      <rect width="100%" height="100%" fill="url(#gradient-11691)" />
      
      <rect 
        x="83%" 
        y="66%" 
        width="59%" 
        height="59%" 
        fill="#dc3545"
        opacity="0.95"
        transform="rotate(252, 112.5%, 95.5%)"
      />
    
      <rect 
        x="66%" 
        y="49%" 
        width="42%" 
        height="42%" 
        fill="#fd7e14"
        opacity="0.38"
        transform="rotate(315, 87%, 70%)"
      />
    
      <rect 
        x="49%" 
        y="32%" 
        width="25%" 
        height="25%" 
        fill="#f8f9fa"
        opacity="0.51"
        transform="rotate(18, 61.5%, 44.5%)"
      />
    
      <rect 
        x="32%" 
        y="15%" 
        width="58%" 
        height="58%" 
        fill="#dc3545"
        opacity="0.64"
        transform="rotate(81, 61%, 44%)"
      />
    
      <rect 
        x="15%" 
        y="98%" 
        width="41%" 
        height="41%" 
        fill="#fd7e14"
        opacity="0.77"
        transform="rotate(144, 35.5%, 118.5%)"
      />
    
      <circle cx="200" cy="150" r="100" fill="#dc3545" opacity="0.7" />
      <circle cx="160" cy="120" r="20" fill="white" opacity="0.8" />
      <circle cx="240" cy="120" r="20" fill="white" opacity="0.8" />
      <circle cx="160" cy="120" r="10" fill="black" />
      <circle cx="240" cy="120" r="10" fill="black" />
      <path d="M 150 200 Q 200 250 250 200" stroke="black" stroke-width="5" fill="none" />
      
    <text 
      x="50%" 
      y="85%" 
      font-family="Arial, sans-serif" 
      font-size="14" 
      font-weight="bold"
      text-anchor="middle"
      fill="white"
    >
      MAYC #11691 - EPIC
    </text>
  
    </svg>
  