
    <svg xmlns="http://www.w3.org/2000/svg" viewBox="0 0 400 400" width="400" height="400">
      <defs>
        
    <linearGradient id="gradient-11769" x1="0%" y1="0%" x2="100%" y2="100%">
      <stop offset="0%" stop-color="#ffc107" stop-opacity="0.8" />
      <stop offset="50%" stop-color="#fd7e14" stop-opacity="0.5" />
      <stop offset="100%" stop-color="#e83e8c" stop-opacity="0.8" />
    </linearGradient>
  
      </defs>
      <rect width="100%" height="100%" fill="url(#gradient-11769)" />
      
      <rect 
        x="97%" 
        y="94%" 
        width="51%" 
        height="51%" 
        fill="#ffc107"
        opacity="0.55"
        transform="rotate(348, 122.5%, 119.5%)"
      />
    
      <rect 
        x="94%" 
        y="91%" 
        width="48%" 
        height="48%" 
        fill="#fd7e14"
        opacity="0.32"
        transform="rotate(345, 118%, 115%)"
      />
    
      <rect 
        x="91%" 
        y="88%" 
        width="45%" 
        height="45%" 
        fill="#e83e8c"
        opacity="0.79"
        transform="rotate(342, 113.5%, 110.5%)"
      />
    
      <rect 
        x="88%" 
        y="85%" 
        width="42%" 
        height="42%" 
        fill="#ffc107"
        opacity="0.56"
        transform="rotate(339, 109%, 106%)"
      />
    
      <rect 
        x="85%" 
        y="82%" 
        width="39%" 
        height="39%" 
        fill="#fd7e14"
        opacity="0.33"
        transform="rotate(336, 104.5%, 101.5%)"
      />
    
      <circle cx="200" cy="150" r="100" fill="#ffc107" opacity="0.7" />
      <circle cx="160" cy="120" r="20" fill="white" opacity="0.8" />
      <circle cx="240" cy="120" r="20" fill="white" opacity="0.8" />
      <circle cx="160" cy="120" r="10" fill="black" />
      <circle cx="240" cy="120" r="10" fill="black" />
      <path d="M 150 200 Q 200 250 250 200" stroke="black" stroke-width="5" fill="none" />
      
    <text 
      x="50%" 
      y="85%" 
      font-family="Arial, sans-serif" 
      font-size="14" 
      font-weight="bold"
      text-anchor="middle"
      fill="white"
    >
      MAYC #11769 - LEGENDARY
    </text>
  
    </svg>
  