
    <svg xmlns="http://www.w3.org/2000/svg" viewBox="0 0 400 400" width="400" height="400">
      <defs>
        
    <linearGradient id="gradient-11839" x1="0%" y1="0%" x2="100%" y2="100%">
      <stop offset="0%" stop-color="#007bff" stop-opacity="0.8" />
      <stop offset="50%" stop-color="#0dcaf0" stop-opacity="0.5" />
      <stop offset="100%" stop-color="#6610f2" stop-opacity="0.8" />
    </linearGradient>
  
      </defs>
      <rect width="100%" height="100%" fill="url(#gradient-11839)" />
      
      <rect 
        x="7%" 
        y="14%" 
        width="31%" 
        height="31%" 
        fill="#0dcaf0"
        opacity="0.55"
        transform="rotate(28, 22.5%, 29.5%)"
      />
    
      <rect 
        x="14%" 
        y="21%" 
        width="38%" 
        height="38%" 
        fill="#6610f2"
        opacity="0.32"
        transform="rotate(215, 33%, 40%)"
      />
    
      <rect 
        x="21%" 
        y="28%" 
        width="45%" 
        height="45%" 
        fill="#007bff"
        opacity="0.79"
        transform="rotate(42, 43.5%, 50.5%)"
      />
    
      <rect 
        x="28%" 
        y="35%" 
        width="52%" 
        height="52%" 
        fill="#0dcaf0"
        opacity="0.56"
        transform="rotate(229, 54%, 61%)"
      />
    
      <rect 
        x="35%" 
        y="42%" 
        width="59%" 
        height="59%" 
        fill="#6610f2"
        opacity="0.33"
        transform="rotate(56, 64.5%, 71.5%)"
      />
    
      <circle cx="200" cy="150" r="100" fill="#0dcaf0" opacity="0.7" />
      <circle cx="160" cy="120" r="20" fill="white" opacity="0.8" />
      <circle cx="240" cy="120" r="20" fill="white" opacity="0.8" />
      <circle cx="160" cy="120" r="10" fill="black" />
      <circle cx="240" cy="120" r="10" fill="black" />
      <path d="M 150 200 Q 200 250 250 200" stroke="black" stroke-width="5" fill="none" />
      
    <text 
      x="50%" 
      y="85%" 
      font-family="Arial, sans-serif" 
      font-size="14" 
      font-weight="bold"
      text-anchor="middle"
      fill="white"
    >
      MAYC #11839 - RARE
    </text>
  
    </svg>
  