
    <svg xmlns="http://www.w3.org/2000/svg" viewBox="0 0 400 400" width="400" height="400">
      <defs>
        
    <linearGradient id="gradient-12153" x1="0%" y1="0%" x2="100%" y2="100%">
      <stop offset="0%" stop-color="#dc3545" stop-opacity="0.8" />
      <stop offset="50%" stop-color="#fd7e14" stop-opacity="0.5" />
      <stop offset="100%" stop-color="#f8f9fa" stop-opacity="0.8" />
    </linearGradient>
  
      </defs>
      <rect width="100%" height="100%" fill="url(#gradient-12153)" />
      
      <rect 
        x="89%" 
        y="78%" 
        width="27%" 
        height="27%" 
        fill="#dc3545"
        opacity="0.95"
        transform="rotate(156, 102.5%, 91.5%)"
      />
    
      <rect 
        x="78%" 
        y="67%" 
        width="16%" 
        height="16%" 
        fill="#fd7e14"
        opacity="0.94"
        transform="rotate(105, 86%, 75%)"
      />
    
      <rect 
        x="67%" 
        y="56%" 
        width="55%" 
        height="55%" 
        fill="#f8f9fa"
        opacity="0.93"
        transform="rotate(54, 94.5%, 83.5%)"
      />
    
      <rect 
        x="56%" 
        y="45%" 
        width="44%" 
        height="44%" 
        fill="#dc3545"
        opacity="0.92"
        transform="rotate(3, 78%, 67%)"
      />
    
      <rect 
        x="45%" 
        y="34%" 
        width="33%" 
        height="33%" 
        fill="#fd7e14"
        opacity="0.91"
        transform="rotate(312, 61.5%, 50.5%)"
      />
    
      <circle cx="200" cy="150" r="100" fill="#dc3545" opacity="0.7" />
      <circle cx="160" cy="120" r="20" fill="white" opacity="0.8" />
      <circle cx="240" cy="120" r="20" fill="white" opacity="0.8" />
      <circle cx="160" cy="120" r="10" fill="black" />
      <circle cx="240" cy="120" r="10" fill="black" />
      <path d="M 150 200 Q 200 250 250 200" stroke="black" stroke-width="5" fill="none" />
      
    <text 
      x="50%" 
      y="85%" 
      font-family="Arial, sans-serif" 
      font-size="14" 
      font-weight="bold"
      text-anchor="middle"
      fill="white"
    >
      MAYC #12153 - EPIC
    </text>
  
    </svg>
  