
    <svg xmlns="http://www.w3.org/2000/svg" viewBox="0 0 400 400" width="400" height="400">
      <defs>
        
    <linearGradient id="gradient-11920" x1="0%" y1="0%" x2="100%" y2="100%">
      <stop offset="0%" stop-color="#dc3545" stop-opacity="0.8" />
      <stop offset="50%" stop-color="#fd7e14" stop-opacity="0.5" />
      <stop offset="100%" stop-color="#f8f9fa" stop-opacity="0.8" />
    </linearGradient>
  
      </defs>
      <rect width="100%" height="100%" fill="url(#gradient-11920)" />
      
      <rect 
        x="60%" 
        y="20%" 
        width="40%" 
        height="40%" 
        fill="#fd7e14"
        opacity="0.7"
        transform="rotate(280, 80%, 40%)"
      />
    
      <rect 
        x="20%" 
        y="80%" 
        width="50%" 
        height="50%" 
        fill="#f8f9fa"
        opacity="0.5"
        transform="rotate(80, 45%, 105%)"
      />
    
      <rect 
        x="80%" 
        y="40%" 
        width="10%" 
        height="10%" 
        fill="#dc3545"
        opacity="0.3"
        transform="rotate(240, 85%, 45%)"
      />
    
      <rect 
        x="40%" 
        y="0%" 
        width="20%" 
        height="20%" 
        fill="#fd7e14"
        opacity="0.8"
        transform="rotate(40, 50%, 10%)"
      />
    
      <rect 
        x="0%" 
        y="60%" 
        width="30%" 
        height="30%" 
        fill="#f8f9fa"
        opacity="0.6"
        transform="rotate(200, 15%, 75%)"
      />
    
      <circle cx="200" cy="150" r="100" fill="#fd7e14" opacity="0.7" />
      <circle cx="160" cy="120" r="20" fill="white" opacity="0.8" />
      <circle cx="240" cy="120" r="20" fill="white" opacity="0.8" />
      <circle cx="160" cy="120" r="10" fill="black" />
      <circle cx="240" cy="120" r="10" fill="black" />
      <path d="M 150 200 Q 200 250 250 200" stroke="black" stroke-width="5" fill="none" />
      
    <text 
      x="50%" 
      y="85%" 
      font-family="Arial, sans-serif" 
      font-size="14" 
      font-weight="bold"
      text-anchor="middle"
      fill="white"
    >
      MAYC #11920 - EPIC
    </text>
  
    </svg>
  