
    <svg xmlns="http://www.w3.org/2000/svg" viewBox="0 0 400 400" width="400" height="400">
      <defs>
        
    <linearGradient id="gradient-11615" x1="0%" y1="0%" x2="100%" y2="100%">
      <stop offset="0%" stop-color="#ffc107" stop-opacity="0.8" />
      <stop offset="50%" stop-color="#fd7e14" stop-opacity="0.5" />
      <stop offset="100%" stop-color="#e83e8c" stop-opacity="0.8" />
    </linearGradient>
  
      </defs>
      <rect width="100%" height="100%" fill="url(#gradient-11615)" />
      
      <rect 
        x="95%" 
        y="90%" 
        width="45%" 
        height="45%" 
        fill="#e83e8c"
        opacity="0.55"
        transform="rotate(260, 117.5%, 112.5%)"
      />
    
      <rect 
        x="90%" 
        y="85%" 
        width="40%" 
        height="40%" 
        fill="#ffc107"
        opacity="0.6"
        transform="rotate(55, 110%, 105%)"
      />
    
      <rect 
        x="85%" 
        y="80%" 
        width="35%" 
        height="35%" 
        fill="#fd7e14"
        opacity="0.65"
        transform="rotate(210, 102.5%, 97.5%)"
      />
    
      <rect 
        x="80%" 
        y="75%" 
        width="30%" 
        height="30%" 
        fill="#e83e8c"
        opacity="0.7"
        transform="rotate(5, 95%, 90%)"
      />
    
      <rect 
        x="75%" 
        y="70%" 
        width="25%" 
        height="25%" 
        fill="#ffc107"
        opacity="0.75"
        transform="rotate(160, 87.5%, 82.5%)"
      />
    
      <circle cx="200" cy="150" r="100" fill="#e83e8c" opacity="0.7" />
      <circle cx="160" cy="120" r="20" fill="white" opacity="0.8" />
      <circle cx="240" cy="120" r="20" fill="white" opacity="0.8" />
      <circle cx="160" cy="120" r="10" fill="black" />
      <circle cx="240" cy="120" r="10" fill="black" />
      <path d="M 150 200 Q 200 250 250 200" stroke="black" stroke-width="5" fill="none" />
      
    <text 
      x="50%" 
      y="85%" 
      font-family="Arial, sans-serif" 
      font-size="14" 
      font-weight="bold"
      text-anchor="middle"
      fill="white"
    >
      MAYC #11615 - LEGENDARY
    </text>
  
    </svg>
  