
    <svg xmlns="http://www.w3.org/2000/svg" viewBox="0 0 400 400" width="400" height="400">
      <defs>
        
    <linearGradient id="gradient-11983" x1="0%" y1="0%" x2="100%" y2="100%">
      <stop offset="0%" stop-color="#28a745" stop-opacity="0.8" />
      <stop offset="50%" stop-color="#5cb85c" stop-opacity="0.5" />
      <stop offset="100%" stop-color="#20c997" stop-opacity="0.8" />
    </linearGradient>
  
      </defs>
      <rect width="100%" height="100%" fill="url(#gradient-11983)" />
      
      <rect 
        x="79%" 
        y="58%" 
        width="47%" 
        height="47%" 
        fill="#5cb85c"
        opacity="0.35"
        transform="rotate(316, 102.5%, 81.5%)"
      />
    
      <rect 
        x="58%" 
        y="37%" 
        width="26%" 
        height="26%" 
        fill="#20c997"
        opacity="0.64"
        transform="rotate(215, 71%, 50%)"
      />
    
      <rect 
        x="37%" 
        y="16%" 
        width="55%" 
        height="55%" 
        fill="#28a745"
        opacity="0.93"
        transform="rotate(114, 64.5%, 43.5%)"
      />
    
      <rect 
        x="16%" 
        y="95%" 
        width="34%" 
        height="34%" 
        fill="#5cb85c"
        opacity="0.52"
        transform="rotate(13, 33%, 112%)"
      />
    
      <rect 
        x="95%" 
        y="74%" 
        width="13%" 
        height="13%" 
        fill="#20c997"
        opacity="0.81"
        transform="rotate(272, 101.5%, 80.5%)"
      />
    
      <circle cx="200" cy="150" r="100" fill="#5cb85c" opacity="0.7" />
      <circle cx="160" cy="120" r="20" fill="white" opacity="0.8" />
      <circle cx="240" cy="120" r="20" fill="white" opacity="0.8" />
      <circle cx="160" cy="120" r="10" fill="black" />
      <circle cx="240" cy="120" r="10" fill="black" />
      <path d="M 150 200 Q 200 250 250 200" stroke="black" stroke-width="5" fill="none" />
      
    <text 
      x="50%" 
      y="85%" 
      font-family="Arial, sans-serif" 
      font-size="14" 
      font-weight="bold"
      text-anchor="middle"
      fill="white"
    >
      MAYC #11983 - UNCOMMON
    </text>
  
    </svg>
  