
    <svg xmlns="http://www.w3.org/2000/svg" viewBox="0 0 400 400" width="400" height="400">
      <defs>
        
    <linearGradient id="gradient-11687" x1="0%" y1="0%" x2="100%" y2="100%">
      <stop offset="0%" stop-color="#007bff" stop-opacity="0.8" />
      <stop offset="50%" stop-color="#0dcaf0" stop-opacity="0.5" />
      <stop offset="100%" stop-color="#6610f2" stop-opacity="0.8" />
    </linearGradient>
  
      </defs>
      <rect width="100%" height="100%" fill="url(#gradient-11687)" />
      
      <rect 
        x="31%" 
        y="62%" 
        width="53%" 
        height="53%" 
        fill="#6610f2"
        opacity="0.45"
        transform="rotate(44, 57.5%, 88.5%)"
      />
    
      <rect 
        x="62%" 
        y="93%" 
        width="34%" 
        height="34%" 
        fill="#007bff"
        opacity="0.76"
        transform="rotate(55, 79%, 110%)"
      />
    
      <rect 
        x="93%" 
        y="24%" 
        width="15%" 
        height="15%" 
        fill="#0dcaf0"
        opacity="0.37"
        transform="rotate(66, 100.5%, 31.5%)"
      />
    
      <rect 
        x="24%" 
        y="55%" 
        width="46%" 
        height="46%" 
        fill="#6610f2"
        opacity="0.68"
        transform="rotate(77, 47%, 78%)"
      />
    
      <rect 
        x="55%" 
        y="86%" 
        width="27%" 
        height="27%" 
        fill="#007bff"
        opacity="0.99"
        transform="rotate(88, 68.5%, 99.5%)"
      />
    
      <circle cx="200" cy="150" r="100" fill="#6610f2" opacity="0.7" />
      <circle cx="160" cy="120" r="20" fill="white" opacity="0.8" />
      <circle cx="240" cy="120" r="20" fill="white" opacity="0.8" />
      <circle cx="160" cy="120" r="10" fill="black" />
      <circle cx="240" cy="120" r="10" fill="black" />
      <path d="M 150 200 Q 200 250 250 200" stroke="black" stroke-width="5" fill="none" />
      
    <text 
      x="50%" 
      y="85%" 
      font-family="Arial, sans-serif" 
      font-size="14" 
      font-weight="bold"
      text-anchor="middle"
      fill="white"
    >
      MAYC #11687 - RARE
    </text>
  
    </svg>
  