
    <svg xmlns="http://www.w3.org/2000/svg" viewBox="0 0 400 400" width="400" height="400">
      <defs>
        
    <linearGradient id="gradient-10570" x1="0%" y1="0%" x2="100%" y2="100%">
      <stop offset="0%" stop-color="#6c757d" stop-opacity="0.8" />
      <stop offset="50%" stop-color="#adb5bd" stop-opacity="0.5" />
      <stop offset="100%" stop-color="#ced4da" stop-opacity="0.8" />
    </linearGradient>
  
      </defs>
      <rect width="100%" height="100%" fill="url(#gradient-10570)" />
      
      <rect 
        x="10%" 
        y="20%" 
        width="40%" 
        height="40%" 
        fill="#adb5bd"
        opacity="0.3"
        transform="rotate(280, 30%, 40%)"
      />
    
      <rect 
        x="20%" 
        y="30%" 
        width="50%" 
        height="50%" 
        fill="#ced4da"
        opacity="0.3"
        transform="rotate(170, 45%, 55%)"
      />
    
      <rect 
        x="30%" 
        y="40%" 
        width="10%" 
        height="10%" 
        fill="#6c757d"
        opacity="0.3"
        transform="rotate(60, 35%, 45%)"
      />
    
      <rect 
        x="40%" 
        y="50%" 
        width="20%" 
        height="20%" 
        fill="#adb5bd"
        opacity="0.3"
        transform="rotate(310, 50%, 60%)"
      />
    
      <rect 
        x="50%" 
        y="60%" 
        width="30%" 
        height="30%" 
        fill="#ced4da"
        opacity="0.3"
        transform="rotate(200, 65%, 75%)"
      />
    
      <circle cx="200" cy="150" r="100" fill="#adb5bd" opacity="0.7" />
      <circle cx="160" cy="120" r="20" fill="white" opacity="0.8" />
      <circle cx="240" cy="120" r="20" fill="white" opacity="0.8" />
      <circle cx="160" cy="120" r="10" fill="black" />
      <circle cx="240" cy="120" r="10" fill="black" />
      <path d="M 150 200 Q 200 250 250 200" stroke="black" stroke-width="5" fill="none" />
      
    <text 
      x="50%" 
      y="85%" 
      font-family="Arial, sans-serif" 
      font-size="14" 
      font-weight="bold"
      text-anchor="middle"
      fill="white"
    >
      MAYC #10570 - COMMON
    </text>
  
    </svg>
  