
    <svg xmlns="http://www.w3.org/2000/svg" viewBox="0 0 400 400" width="400" height="400">
      <defs>
        
    <linearGradient id="gradient-10198" x1="0%" y1="0%" x2="100%" y2="100%">
      <stop offset="0%" stop-color="#6c757d" stop-opacity="0.8" />
      <stop offset="50%" stop-color="#adb5bd" stop-opacity="0.5" />
      <stop offset="100%" stop-color="#ced4da" stop-opacity="0.8" />
    </linearGradient>
  
      </defs>
      <rect width="100%" height="100%" fill="url(#gradient-10198)" />
      
      <rect 
        x="74%" 
        y="48%" 
        width="32%" 
        height="32%" 
        fill="#adb5bd"
        opacity="0.7"
        transform="rotate(16, 90%, 64%)"
      />
    
      <rect 
        x="48%" 
        y="22%" 
        width="56%" 
        height="56%" 
        fill="#ced4da"
        opacity="0.64"
        transform="rotate(110, 76%, 50%)"
      />
    
      <rect 
        x="22%" 
        y="96%" 
        width="30%" 
        height="30%" 
        fill="#6c757d"
        opacity="0.58"
        transform="rotate(204, 37%, 111%)"
      />
    
      <rect 
        x="96%" 
        y="70%" 
        width="54%" 
        height="54%" 
        fill="#adb5bd"
        opacity="0.52"
        transform="rotate(298, 123%, 97%)"
      />
    
      <rect 
        x="70%" 
        y="44%" 
        width="28%" 
        height="28%" 
        fill="#ced4da"
        opacity="0.46"
        transform="rotate(32, 84%, 58%)"
      />
    
      <circle cx="200" cy="150" r="100" fill="#adb5bd" opacity="0.7" />
      <circle cx="160" cy="120" r="20" fill="white" opacity="0.8" />
      <circle cx="240" cy="120" r="20" fill="white" opacity="0.8" />
      <circle cx="160" cy="120" r="10" fill="black" />
      <circle cx="240" cy="120" r="10" fill="black" />
      <path d="M 150 200 Q 200 250 250 200" stroke="black" stroke-width="5" fill="none" />
      
    <text 
      x="50%" 
      y="85%" 
      font-family="Arial, sans-serif" 
      font-size="14" 
      font-weight="bold"
      text-anchor="middle"
      fill="white"
    >
      MAYC #10198 - COMMON
    </text>
  
    </svg>
  