
    <svg xmlns="http://www.w3.org/2000/svg" viewBox="0 0 400 400" width="400" height="400">
      <defs>
        
    <linearGradient id="gradient-11975" x1="0%" y1="0%" x2="100%" y2="100%">
      <stop offset="0%" stop-color="#6c757d" stop-opacity="0.8" />
      <stop offset="50%" stop-color="#adb5bd" stop-opacity="0.5" />
      <stop offset="100%" stop-color="#ced4da" stop-opacity="0.8" />
    </linearGradient>
  
      </defs>
      <rect width="100%" height="100%" fill="url(#gradient-11975)" />
      
      <rect 
        x="75%" 
        y="50%" 
        width="35%" 
        height="35%" 
        fill="#ced4da"
        opacity="0.75"
        transform="rotate(260, 92.5%, 67.5%)"
      />
    
      <rect 
        x="50%" 
        y="25%" 
        width="10%" 
        height="10%" 
        fill="#6c757d"
        opacity="0.7"
        transform="rotate(55, 55%, 30%)"
      />
    
      <rect 
        x="25%" 
        y="0%" 
        width="35%" 
        height="35%" 
        fill="#adb5bd"
        opacity="0.65"
        transform="rotate(210, 42.5%, 17.5%)"
      />
    
      <rect 
        x="0%" 
        y="75%" 
        width="10%" 
        height="10%" 
        fill="#ced4da"
        opacity="0.6"
        transform="rotate(5, 5%, 80%)"
      />
    
      <rect 
        x="75%" 
        y="50%" 
        width="35%" 
        height="35%" 
        fill="#6c757d"
        opacity="0.55"
        transform="rotate(160, 92.5%, 67.5%)"
      />
    
      <circle cx="200" cy="150" r="100" fill="#ced4da" opacity="0.7" />
      <circle cx="160" cy="120" r="20" fill="white" opacity="0.8" />
      <circle cx="240" cy="120" r="20" fill="white" opacity="0.8" />
      <circle cx="160" cy="120" r="10" fill="black" />
      <circle cx="240" cy="120" r="10" fill="black" />
      <path d="M 150 200 Q 200 250 250 200" stroke="black" stroke-width="5" fill="none" />
      
    <text 
      x="50%" 
      y="85%" 
      font-family="Arial, sans-serif" 
      font-size="14" 
      font-weight="bold"
      text-anchor="middle"
      fill="white"
    >
      MAYC #11975 - COMMON
    </text>
  
    </svg>
  