
    <svg xmlns="http://www.w3.org/2000/svg" viewBox="0 0 400 400" width="400" height="400">
      <defs>
        
    <linearGradient id="gradient-10694" x1="0%" y1="0%" x2="100%" y2="100%">
      <stop offset="0%" stop-color="#6c757d" stop-opacity="0.8" />
      <stop offset="50%" stop-color="#adb5bd" stop-opacity="0.5" />
      <stop offset="100%" stop-color="#ced4da" stop-opacity="0.8" />
    </linearGradient>
  
      </defs>
      <rect width="100%" height="100%" fill="url(#gradient-10694)" />
      
      <rect 
        x="22%" 
        y="44%" 
        width="26%" 
        height="26%" 
        fill="#ced4da"
        opacity="0.4"
        transform="rotate(248, 35%, 57%)"
      />
    
      <rect 
        x="44%" 
        y="66%" 
        width="48%" 
        height="48%" 
        fill="#6c757d"
        opacity="0.42"
        transform="rotate(310, 68%, 90%)"
      />
    
      <rect 
        x="66%" 
        y="88%" 
        width="20%" 
        height="20%" 
        fill="#adb5bd"
        opacity="0.44"
        transform="rotate(12, 76%, 98%)"
      />
    
      <rect 
        x="88%" 
        y="10%" 
        width="42%" 
        height="42%" 
        fill="#ced4da"
        opacity="0.46"
        transform="rotate(74, 109%, 31%)"
      />
    
      <rect 
        x="10%" 
        y="32%" 
        width="14%" 
        height="14%" 
        fill="#6c757d"
        opacity="0.48"
        transform="rotate(136, 17%, 39%)"
      />
    
      <circle cx="200" cy="150" r="100" fill="#ced4da" opacity="0.7" />
      <circle cx="160" cy="120" r="20" fill="white" opacity="0.8" />
      <circle cx="240" cy="120" r="20" fill="white" opacity="0.8" />
      <circle cx="160" cy="120" r="10" fill="black" />
      <circle cx="240" cy="120" r="10" fill="black" />
      <path d="M 150 200 Q 200 250 250 200" stroke="black" stroke-width="5" fill="none" />
      
    <text 
      x="50%" 
      y="85%" 
      font-family="Arial, sans-serif" 
      font-size="14" 
      font-weight="bold"
      text-anchor="middle"
      fill="white"
    >
      MAYC #10694 - COMMON
    </text>
  
    </svg>
  