
    <svg xmlns="http://www.w3.org/2000/svg" viewBox="0 0 400 400" width="400" height="400">
      <defs>
        
    <linearGradient id="gradient-11805" x1="0%" y1="0%" x2="100%" y2="100%">
      <stop offset="0%" stop-color="#6c757d" stop-opacity="0.8" />
      <stop offset="50%" stop-color="#adb5bd" stop-opacity="0.5" />
      <stop offset="100%" stop-color="#ced4da" stop-opacity="0.8" />
    </linearGradient>
  
      </defs>
      <rect width="100%" height="100%" fill="url(#gradient-11805)" />
      
      <rect 
        x="65%" 
        y="30%" 
        width="55%" 
        height="55%" 
        fill="#6c757d"
        opacity="0.85"
        transform="rotate(60, 92.5%, 57.5%)"
      />
    
      <rect 
        x="30%" 
        y="95%" 
        width="20%" 
        height="20%" 
        fill="#adb5bd"
        opacity="0.4"
        transform="rotate(165, 40%, 105%)"
      />
    
      <rect 
        x="95%" 
        y="60%" 
        width="35%" 
        height="35%" 
        fill="#ced4da"
        opacity="0.65"
        transform="rotate(270, 112.5%, 77.5%)"
      />
    
      <rect 
        x="60%" 
        y="25%" 
        width="50%" 
        height="50%" 
        fill="#6c757d"
        opacity="0.9"
        transform="rotate(15, 85%, 50%)"
      />
    
      <rect 
        x="25%" 
        y="90%" 
        width="15%" 
        height="15%" 
        fill="#adb5bd"
        opacity="0.45"
        transform="rotate(120, 32.5%, 97.5%)"
      />
    
      <circle cx="200" cy="150" r="100" fill="#6c757d" opacity="0.7" />
      <circle cx="160" cy="120" r="20" fill="white" opacity="0.8" />
      <circle cx="240" cy="120" r="20" fill="white" opacity="0.8" />
      <circle cx="160" cy="120" r="10" fill="black" />
      <circle cx="240" cy="120" r="10" fill="black" />
      <path d="M 150 200 Q 200 250 250 200" stroke="black" stroke-width="5" fill="none" />
      
    <text 
      x="50%" 
      y="85%" 
      font-family="Arial, sans-serif" 
      font-size="14" 
      font-weight="bold"
      text-anchor="middle"
      fill="white"
    >
      MAYC #11805 - COMMON
    </text>
  
    </svg>
  