
    <svg xmlns="http://www.w3.org/2000/svg" viewBox="0 0 400 400" width="400" height="400">
      <defs>
        
    <linearGradient id="gradient-10678" x1="0%" y1="0%" x2="100%" y2="100%">
      <stop offset="0%" stop-color="#28a745" stop-opacity="0.8" />
      <stop offset="50%" stop-color="#5cb85c" stop-opacity="0.5" />
      <stop offset="100%" stop-color="#20c997" stop-opacity="0.8" />
    </linearGradient>
  
      </defs>
      <rect width="100%" height="100%" fill="url(#gradient-10678)" />
      
      <rect 
        x="14%" 
        y="28%" 
        width="52%" 
        height="52%" 
        fill="#5cb85c"
        opacity="0.5"
        transform="rotate(136, 40%, 54%)"
      />
    
      <rect 
        x="28%" 
        y="42%" 
        width="16%" 
        height="16%" 
        fill="#20c997"
        opacity="0.54"
        transform="rotate(350, 36%, 50%)"
      />
    
      <rect 
        x="42%" 
        y="56%" 
        width="30%" 
        height="30%" 
        fill="#28a745"
        opacity="0.58"
        transform="rotate(204, 57%, 71%)"
      />
    
      <rect 
        x="56%" 
        y="70%" 
        width="44%" 
        height="44%" 
        fill="#5cb85c"
        opacity="0.62"
        transform="rotate(58, 78%, 92%)"
      />
    
      <rect 
        x="70%" 
        y="84%" 
        width="58%" 
        height="58%" 
        fill="#20c997"
        opacity="0.66"
        transform="rotate(272, 99%, 113%)"
      />
    
      <circle cx="200" cy="150" r="100" fill="#5cb85c" opacity="0.7" />
      <circle cx="160" cy="120" r="20" fill="white" opacity="0.8" />
      <circle cx="240" cy="120" r="20" fill="white" opacity="0.8" />
      <circle cx="160" cy="120" r="10" fill="black" />
      <circle cx="240" cy="120" r="10" fill="black" />
      <path d="M 150 200 Q 200 250 250 200" stroke="black" stroke-width="5" fill="none" />
      
    <text 
      x="50%" 
      y="85%" 
      font-family="Arial, sans-serif" 
      font-size="14" 
      font-weight="bold"
      text-anchor="middle"
      fill="white"
    >
      MAYC #10678 - UNCOMMON
    </text>
  
    </svg>
  