
    <svg xmlns="http://www.w3.org/2000/svg" viewBox="0 0 400 400" width="400" height="400">
      <defs>
        
    <linearGradient id="gradient-11613" x1="0%" y1="0%" x2="100%" y2="100%">
      <stop offset="0%" stop-color="#dc3545" stop-opacity="0.8" />
      <stop offset="50%" stop-color="#fd7e14" stop-opacity="0.5" />
      <stop offset="100%" stop-color="#f8f9fa" stop-opacity="0.8" />
    </linearGradient>
  
      </defs>
      <rect width="100%" height="100%" fill="url(#gradient-11613)" />
      
      <rect 
        x="69%" 
        y="38%" 
        width="17%" 
        height="17%" 
        fill="#dc3545"
        opacity="0.65"
        transform="rotate(156, 77.5%, 46.5%)"
      />
    
      <rect 
        x="38%" 
        y="7%" 
        width="36%" 
        height="36%" 
        fill="#fd7e14"
        opacity="0.44"
        transform="rotate(285, 56%, 25%)"
      />
    
      <rect 
        x="7%" 
        y="76%" 
        width="55%" 
        height="55%" 
        fill="#f8f9fa"
        opacity="0.93"
        transform="rotate(54, 34.5%, 103.5%)"
      />
    
      <rect 
        x="76%" 
        y="45%" 
        width="24%" 
        height="24%" 
        fill="#dc3545"
        opacity="0.72"
        transform="rotate(183, 88%, 57%)"
      />
    
      <rect 
        x="45%" 
        y="14%" 
        width="43%" 
        height="43%" 
        fill="#fd7e14"
        opacity="0.51"
        transform="rotate(312, 66.5%, 35.5%)"
      />
    
      <circle cx="200" cy="150" r="100" fill="#dc3545" opacity="0.7" />
      <circle cx="160" cy="120" r="20" fill="white" opacity="0.8" />
      <circle cx="240" cy="120" r="20" fill="white" opacity="0.8" />
      <circle cx="160" cy="120" r="10" fill="black" />
      <circle cx="240" cy="120" r="10" fill="black" />
      <path d="M 150 200 Q 200 250 250 200" stroke="black" stroke-width="5" fill="none" />
      
    <text 
      x="50%" 
      y="85%" 
      font-family="Arial, sans-serif" 
      font-size="14" 
      font-weight="bold"
      text-anchor="middle"
      fill="white"
    >
      MAYC #11613 - EPIC
    </text>
  
    </svg>
  