
    <svg xmlns="http://www.w3.org/2000/svg" viewBox="0 0 400 400" width="400" height="400">
      <defs>
        
    <linearGradient id="gradient-11595" x1="0%" y1="0%" x2="100%" y2="100%">
      <stop offset="0%" stop-color="#28a745" stop-opacity="0.8" />
      <stop offset="50%" stop-color="#5cb85c" stop-opacity="0.5" />
      <stop offset="100%" stop-color="#20c997" stop-opacity="0.8" />
    </linearGradient>
  
      </defs>
      <rect width="100%" height="100%" fill="url(#gradient-11595)" />
      
      <rect 
        x="35%" 
        y="70%" 
        width="15%" 
        height="15%" 
        fill="#28a745"
        opacity="0.85"
        transform="rotate(300, 42.5%, 77.5%)"
      />
    
      <rect 
        x="70%" 
        y="5%" 
        width="50%" 
        height="50%" 
        fill="#5cb85c"
        opacity="0.4"
        transform="rotate(195, 95%, 30%)"
      />
    
      <rect 
        x="5%" 
        y="40%" 
        width="35%" 
        height="35%" 
        fill="#20c997"
        opacity="0.65"
        transform="rotate(90, 22.5%, 57.5%)"
      />
    
      <rect 
        x="40%" 
        y="75%" 
        width="20%" 
        height="20%" 
        fill="#28a745"
        opacity="0.9"
        transform="rotate(345, 50%, 85%)"
      />
    
      <rect 
        x="75%" 
        y="10%" 
        width="55%" 
        height="55%" 
        fill="#5cb85c"
        opacity="0.45"
        transform="rotate(240, 102.5%, 37.5%)"
      />
    
      <circle cx="200" cy="150" r="100" fill="#28a745" opacity="0.7" />
      <circle cx="160" cy="120" r="20" fill="white" opacity="0.8" />
      <circle cx="240" cy="120" r="20" fill="white" opacity="0.8" />
      <circle cx="160" cy="120" r="10" fill="black" />
      <circle cx="240" cy="120" r="10" fill="black" />
      <path d="M 150 200 Q 200 250 250 200" stroke="black" stroke-width="5" fill="none" />
      
    <text 
      x="50%" 
      y="85%" 
      font-family="Arial, sans-serif" 
      font-size="14" 
      font-weight="bold"
      text-anchor="middle"
      fill="white"
    >
      MAYC #11595 - UNCOMMON
    </text>
  
    </svg>
  