
    <svg xmlns="http://www.w3.org/2000/svg" viewBox="0 0 400 400" width="400" height="400">
      <defs>
        
    <linearGradient id="gradient-11827" x1="0%" y1="0%" x2="100%" y2="100%">
      <stop offset="0%" stop-color="#28a745" stop-opacity="0.8" />
      <stop offset="50%" stop-color="#5cb85c" stop-opacity="0.5" />
      <stop offset="100%" stop-color="#20c997" stop-opacity="0.8" />
    </linearGradient>
  
      </defs>
      <rect width="100%" height="100%" fill="url(#gradient-11827)" />
      
      <rect 
        x="51%" 
        y="2%" 
        width="13%" 
        height="13%" 
        fill="#5cb85c"
        opacity="0.45"
        transform="rotate(124, 57.5%, 8.5%)"
      />
    
      <rect 
        x="2%" 
        y="53%" 
        width="14%" 
        height="14%" 
        fill="#20c997"
        opacity="0.76"
        transform="rotate(155, 9%, 60%)"
      />
    
      <rect 
        x="53%" 
        y="4%" 
        width="15%" 
        height="15%" 
        fill="#28a745"
        opacity="0.37"
        transform="rotate(186, 60.5%, 11.5%)"
      />
    
      <rect 
        x="4%" 
        y="55%" 
        width="16%" 
        height="16%" 
        fill="#5cb85c"
        opacity="0.68"
        transform="rotate(217, 12%, 63%)"
      />
    
      <rect 
        x="55%" 
        y="6%" 
        width="17%" 
        height="17%" 
        fill="#20c997"
        opacity="0.99"
        transform="rotate(248, 63.5%, 14.5%)"
      />
    
      <circle cx="200" cy="150" r="100" fill="#5cb85c" opacity="0.7" />
      <circle cx="160" cy="120" r="20" fill="white" opacity="0.8" />
      <circle cx="240" cy="120" r="20" fill="white" opacity="0.8" />
      <circle cx="160" cy="120" r="10" fill="black" />
      <circle cx="240" cy="120" r="10" fill="black" />
      <path d="M 150 200 Q 200 250 250 200" stroke="black" stroke-width="5" fill="none" />
      
    <text 
      x="50%" 
      y="85%" 
      font-family="Arial, sans-serif" 
      font-size="14" 
      font-weight="bold"
      text-anchor="middle"
      fill="white"
    >
      MAYC #11827 - UNCOMMON
    </text>
  
    </svg>
  