
    <svg xmlns="http://www.w3.org/2000/svg" viewBox="0 0 400 400" width="400" height="400">
      <defs>
        
    <linearGradient id="gradient-10147" x1="0%" y1="0%" x2="100%" y2="100%">
      <stop offset="0%" stop-color="#007bff" stop-opacity="0.8" />
      <stop offset="50%" stop-color="#0dcaf0" stop-opacity="0.5" />
      <stop offset="100%" stop-color="#6610f2" stop-opacity="0.8" />
    </linearGradient>
  
      </defs>
      <rect width="100%" height="100%" fill="url(#gradient-10147)" />
      
      <rect 
        x="11%" 
        y="22%" 
        width="43%" 
        height="43%" 
        fill="#0dcaf0"
        opacity="0.45"
        transform="rotate(244, 32.5%, 43.5%)"
      />
    
      <rect 
        x="22%" 
        y="33%" 
        width="54%" 
        height="54%" 
        fill="#6610f2"
        opacity="0.76"
        transform="rotate(35, 49%, 60%)"
      />
    
      <rect 
        x="33%" 
        y="44%" 
        width="15%" 
        height="15%" 
        fill="#007bff"
        opacity="0.37"
        transform="rotate(186, 40.5%, 51.5%)"
      />
    
      <rect 
        x="44%" 
        y="55%" 
        width="26%" 
        height="26%" 
        fill="#0dcaf0"
        opacity="0.68"
        transform="rotate(337, 57%, 68%)"
      />
    
      <rect 
        x="55%" 
        y="66%" 
        width="37%" 
        height="37%" 
        fill="#6610f2"
        opacity="0.99"
        transform="rotate(128, 73.5%, 84.5%)"
      />
    
      <circle cx="200" cy="150" r="100" fill="#0dcaf0" opacity="0.7" />
      <circle cx="160" cy="120" r="20" fill="white" opacity="0.8" />
      <circle cx="240" cy="120" r="20" fill="white" opacity="0.8" />
      <circle cx="160" cy="120" r="10" fill="black" />
      <circle cx="240" cy="120" r="10" fill="black" />
      <path d="M 150 200 Q 200 250 250 200" stroke="black" stroke-width="5" fill="none" />
      
    <text 
      x="50%" 
      y="85%" 
      font-family="Arial, sans-serif" 
      font-size="14" 
      font-weight="bold"
      text-anchor="middle"
      fill="white"
    >
      MAYC #10147 - RARE
    </text>
  
    </svg>
  