
    <svg xmlns="http://www.w3.org/2000/svg" viewBox="0 0 400 400" width="400" height="400">
      <defs>
        
    <linearGradient id="gradient-11749" x1="0%" y1="0%" x2="100%" y2="100%">
      <stop offset="0%" stop-color="#28a745" stop-opacity="0.8" />
      <stop offset="50%" stop-color="#5cb85c" stop-opacity="0.5" />
      <stop offset="100%" stop-color="#20c997" stop-opacity="0.8" />
    </linearGradient>
  
      </defs>
      <rect width="100%" height="100%" fill="url(#gradient-11749)" />
      
      <rect 
        x="37%" 
        y="74%" 
        width="21%" 
        height="21%" 
        fill="#5cb85c"
        opacity="0.85"
        transform="rotate(28, 47.5%, 84.5%)"
      />
    
      <rect 
        x="74%" 
        y="11%" 
        width="58%" 
        height="58%" 
        fill="#20c997"
        opacity="0.82"
        transform="rotate(125, 103%, 40%)"
      />
    
      <rect 
        x="11%" 
        y="48%" 
        width="45%" 
        height="45%" 
        fill="#28a745"
        opacity="0.79"
        transform="rotate(222, 33.5%, 70.5%)"
      />
    
      <rect 
        x="48%" 
        y="85%" 
        width="32%" 
        height="32%" 
        fill="#5cb85c"
        opacity="0.76"
        transform="rotate(319, 64%, 101%)"
      />
    
      <rect 
        x="85%" 
        y="22%" 
        width="19%" 
        height="19%" 
        fill="#20c997"
        opacity="0.73"
        transform="rotate(56, 94.5%, 31.5%)"
      />
    
      <circle cx="200" cy="150" r="100" fill="#5cb85c" opacity="0.7" />
      <circle cx="160" cy="120" r="20" fill="white" opacity="0.8" />
      <circle cx="240" cy="120" r="20" fill="white" opacity="0.8" />
      <circle cx="160" cy="120" r="10" fill="black" />
      <circle cx="240" cy="120" r="10" fill="black" />
      <path d="M 150 200 Q 200 250 250 200" stroke="black" stroke-width="5" fill="none" />
      
    <text 
      x="50%" 
      y="85%" 
      font-family="Arial, sans-serif" 
      font-size="14" 
      font-weight="bold"
      text-anchor="middle"
      fill="white"
    >
      MAYC #11749 - UNCOMMON
    </text>
  
    </svg>
  