
    <svg xmlns="http://www.w3.org/2000/svg" viewBox="0 0 400 400" width="400" height="400">
      <defs>
        
    <linearGradient id="gradient-12063" x1="0%" y1="0%" x2="100%" y2="100%">
      <stop offset="0%" stop-color="#28a745" stop-opacity="0.8" />
      <stop offset="50%" stop-color="#5cb85c" stop-opacity="0.5" />
      <stop offset="100%" stop-color="#20c997" stop-opacity="0.8" />
    </linearGradient>
  
      </defs>
      <rect width="100%" height="100%" fill="url(#gradient-12063)" />
      
      <rect 
        x="19%" 
        y="38%" 
        width="17%" 
        height="17%" 
        fill="#28a745"
        opacity="0.55"
        transform="rotate(156, 27.5%, 46.5%)"
      />
    
      <rect 
        x="38%" 
        y="57%" 
        width="36%" 
        height="36%" 
        fill="#5cb85c"
        opacity="0.74"
        transform="rotate(15, 56%, 75%)"
      />
    
      <rect 
        x="57%" 
        y="76%" 
        width="55%" 
        height="55%" 
        fill="#20c997"
        opacity="0.93"
        transform="rotate(234, 84.5%, 103.5%)"
      />
    
      <rect 
        x="76%" 
        y="95%" 
        width="24%" 
        height="24%" 
        fill="#28a745"
        opacity="0.42"
        transform="rotate(93, 88%, 107%)"
      />
    
      <rect 
        x="95%" 
        y="14%" 
        width="43%" 
        height="43%" 
        fill="#5cb85c"
        opacity="0.61"
        transform="rotate(312, 116.5%, 35.5%)"
      />
    
      <circle cx="200" cy="150" r="100" fill="#28a745" opacity="0.7" />
      <circle cx="160" cy="120" r="20" fill="white" opacity="0.8" />
      <circle cx="240" cy="120" r="20" fill="white" opacity="0.8" />
      <circle cx="160" cy="120" r="10" fill="black" />
      <circle cx="240" cy="120" r="10" fill="black" />
      <path d="M 150 200 Q 200 250 250 200" stroke="black" stroke-width="5" fill="none" />
      
    <text 
      x="50%" 
      y="85%" 
      font-family="Arial, sans-serif" 
      font-size="14" 
      font-weight="bold"
      text-anchor="middle"
      fill="white"
    >
      MAYC #12063 - UNCOMMON
    </text>
  
    </svg>
  