
    <svg xmlns="http://www.w3.org/2000/svg" viewBox="0 0 400 400" width="400" height="400">
      <defs>
        
    <linearGradient id="gradient-11768" x1="0%" y1="0%" x2="100%" y2="100%">
      <stop offset="0%" stop-color="#dc3545" stop-opacity="0.8" />
      <stop offset="50%" stop-color="#fd7e14" stop-opacity="0.5" />
      <stop offset="100%" stop-color="#f8f9fa" stop-opacity="0.8" />
    </linearGradient>
  
      </defs>
      <rect width="100%" height="100%" fill="url(#gradient-11768)" />
      
      <rect 
        x="84%" 
        y="68%" 
        width="12%" 
        height="12%" 
        fill="#f8f9fa"
        opacity="0.6"
        transform="rotate(296, 90%, 74%)"
      />
    
      <rect 
        x="68%" 
        y="52%" 
        width="46%" 
        height="46%" 
        fill="#dc3545"
        opacity="0.94"
        transform="rotate(280, 91%, 75%)"
      />
    
      <rect 
        x="52%" 
        y="36%" 
        width="30%" 
        height="30%" 
        fill="#fd7e14"
        opacity="0.58"
        transform="rotate(264, 67%, 51%)"
      />
    
      <rect 
        x="36%" 
        y="20%" 
        width="14%" 
        height="14%" 
        fill="#f8f9fa"
        opacity="0.92"
        transform="rotate(248, 43%, 27%)"
      />
    
      <rect 
        x="20%" 
        y="4%" 
        width="48%" 
        height="48%" 
        fill="#dc3545"
        opacity="0.56"
        transform="rotate(232, 44%, 28%)"
      />
    
      <circle cx="200" cy="150" r="100" fill="#f8f9fa" opacity="0.7" />
      <circle cx="160" cy="120" r="20" fill="white" opacity="0.8" />
      <circle cx="240" cy="120" r="20" fill="white" opacity="0.8" />
      <circle cx="160" cy="120" r="10" fill="black" />
      <circle cx="240" cy="120" r="10" fill="black" />
      <path d="M 150 200 Q 200 250 250 200" stroke="black" stroke-width="5" fill="none" />
      
    <text 
      x="50%" 
      y="85%" 
      font-family="Arial, sans-serif" 
      font-size="14" 
      font-weight="bold"
      text-anchor="middle"
      fill="white"
    >
      MAYC #11768 - EPIC
    </text>
  
    </svg>
  