
    <svg xmlns="http://www.w3.org/2000/svg" viewBox="0 0 400 400" width="400" height="400">
      <defs>
        
    <linearGradient id="gradient-11806" x1="0%" y1="0%" x2="100%" y2="100%">
      <stop offset="0%" stop-color="#6c757d" stop-opacity="0.8" />
      <stop offset="50%" stop-color="#adb5bd" stop-opacity="0.5" />
      <stop offset="100%" stop-color="#ced4da" stop-opacity="0.8" />
    </linearGradient>
  
      </defs>
      <rect width="100%" height="100%" fill="url(#gradient-11806)" />
      
      <rect 
        x="78%" 
        y="56%" 
        width="44%" 
        height="44%" 
        fill="#adb5bd"
        opacity="0.8"
        transform="rotate(112, 100%, 78%)"
      />
    
      <rect 
        x="56%" 
        y="34%" 
        width="22%" 
        height="22%" 
        fill="#ced4da"
        opacity="0.48"
        transform="rotate(230, 67%, 45%)"
      />
    
      <rect 
        x="34%" 
        y="12%" 
        width="50%" 
        height="50%" 
        fill="#6c757d"
        opacity="0.86"
        transform="rotate(348, 59%, 37%)"
      />
    
      <rect 
        x="12%" 
        y="90%" 
        width="28%" 
        height="28%" 
        fill="#adb5bd"
        opacity="0.54"
        transform="rotate(106, 26%, 104%)"
      />
    
      <rect 
        x="90%" 
        y="68%" 
        width="56%" 
        height="56%" 
        fill="#ced4da"
        opacity="0.92"
        transform="rotate(224, 118%, 96%)"
      />
    
      <circle cx="200" cy="150" r="100" fill="#adb5bd" opacity="0.7" />
      <circle cx="160" cy="120" r="20" fill="white" opacity="0.8" />
      <circle cx="240" cy="120" r="20" fill="white" opacity="0.8" />
      <circle cx="160" cy="120" r="10" fill="black" />
      <circle cx="240" cy="120" r="10" fill="black" />
      <path d="M 150 200 Q 200 250 250 200" stroke="black" stroke-width="5" fill="none" />
      
    <text 
      x="50%" 
      y="85%" 
      font-family="Arial, sans-serif" 
      font-size="14" 
      font-weight="bold"
      text-anchor="middle"
      fill="white"
    >
      MAYC #11806 - COMMON
    </text>
  
    </svg>
  