
    <svg xmlns="http://www.w3.org/2000/svg" viewBox="0 0 400 400" width="400" height="400">
      <defs>
        
    <linearGradient id="gradient-11835" x1="0%" y1="0%" x2="100%" y2="100%">
      <stop offset="0%" stop-color="#007bff" stop-opacity="0.8" />
      <stop offset="50%" stop-color="#0dcaf0" stop-opacity="0.5" />
      <stop offset="100%" stop-color="#6610f2" stop-opacity="0.8" />
    </linearGradient>
  
      </defs>
      <rect width="100%" height="100%" fill="url(#gradient-11835)" />
      
      <rect 
        x="55%" 
        y="10%" 
        width="25%" 
        height="25%" 
        fill="#007bff"
        opacity="0.75"
        transform="rotate(180, 67.5%, 22.5%)"
      />
    
      <rect 
        x="10%" 
        y="65%" 
        width="30%" 
        height="30%" 
        fill="#0dcaf0"
        opacity="0.7"
        transform="rotate(315, 25%, 80%)"
      />
    
      <rect 
        x="65%" 
        y="20%" 
        width="35%" 
        height="35%" 
        fill="#6610f2"
        opacity="0.65"
        transform="rotate(90, 82.5%, 37.5%)"
      />
    
      <rect 
        x="20%" 
        y="75%" 
        width="40%" 
        height="40%" 
        fill="#007bff"
        opacity="0.6"
        transform="rotate(225, 40%, 95%)"
      />
    
      <rect 
        x="75%" 
        y="30%" 
        width="45%" 
        height="45%" 
        fill="#0dcaf0"
        opacity="0.55"
        transform="rotate(0, 97.5%, 52.5%)"
      />
    
      <circle cx="200" cy="150" r="100" fill="#007bff" opacity="0.7" />
      <circle cx="160" cy="120" r="20" fill="white" opacity="0.8" />
      <circle cx="240" cy="120" r="20" fill="white" opacity="0.8" />
      <circle cx="160" cy="120" r="10" fill="black" />
      <circle cx="240" cy="120" r="10" fill="black" />
      <path d="M 150 200 Q 200 250 250 200" stroke="black" stroke-width="5" fill="none" />
      
    <text 
      x="50%" 
      y="85%" 
      font-family="Arial, sans-serif" 
      font-size="14" 
      font-weight="bold"
      text-anchor="middle"
      fill="white"
    >
      MAYC #11835 - RARE
    </text>
  
    </svg>
  