
    <svg xmlns="http://www.w3.org/2000/svg" viewBox="0 0 400 400" width="400" height="400">
      <defs>
        
    <linearGradient id="gradient-11896" x1="0%" y1="0%" x2="100%" y2="100%">
      <stop offset="0%" stop-color="#6c757d" stop-opacity="0.8" />
      <stop offset="50%" stop-color="#adb5bd" stop-opacity="0.5" />
      <stop offset="100%" stop-color="#ced4da" stop-opacity="0.8" />
    </linearGradient>
  
      </defs>
      <rect width="100%" height="100%" fill="url(#gradient-11896)" />
      
      <rect 
        x="48%" 
        y="96%" 
        width="54%" 
        height="54%" 
        fill="#adb5bd"
        opacity="0.5"
        transform="rotate(112, 75%, 123%)"
      />
    
      <rect 
        x="96%" 
        y="44%" 
        width="52%" 
        height="52%" 
        fill="#ced4da"
        opacity="0.68"
        transform="rotate(320, 122%, 70%)"
      />
    
      <rect 
        x="44%" 
        y="92%" 
        width="50%" 
        height="50%" 
        fill="#6c757d"
        opacity="0.86"
        transform="rotate(168, 69%, 117%)"
      />
    
      <rect 
        x="92%" 
        y="40%" 
        width="48%" 
        height="48%" 
        fill="#adb5bd"
        opacity="0.34"
        transform="rotate(16, 116%, 64%)"
      />
    
      <rect 
        x="40%" 
        y="88%" 
        width="46%" 
        height="46%" 
        fill="#ced4da"
        opacity="0.52"
        transform="rotate(224, 63%, 111%)"
      />
    
      <circle cx="200" cy="150" r="100" fill="#adb5bd" opacity="0.7" />
      <circle cx="160" cy="120" r="20" fill="white" opacity="0.8" />
      <circle cx="240" cy="120" r="20" fill="white" opacity="0.8" />
      <circle cx="160" cy="120" r="10" fill="black" />
      <circle cx="240" cy="120" r="10" fill="black" />
      <path d="M 150 200 Q 200 250 250 200" stroke="black" stroke-width="5" fill="none" />
      
    <text 
      x="50%" 
      y="85%" 
      font-family="Arial, sans-serif" 
      font-size="14" 
      font-weight="bold"
      text-anchor="middle"
      fill="white"
    >
      MAYC #11896 - COMMON
    </text>
  
    </svg>
  