
    <svg xmlns="http://www.w3.org/2000/svg" viewBox="0 0 400 400" width="400" height="400">
      <defs>
        
    <linearGradient id="gradient-11718" x1="0%" y1="0%" x2="100%" y2="100%">
      <stop offset="0%" stop-color="#6c757d" stop-opacity="0.8" />
      <stop offset="50%" stop-color="#adb5bd" stop-opacity="0.5" />
      <stop offset="100%" stop-color="#ced4da" stop-opacity="0.8" />
    </linearGradient>
  
      </defs>
      <rect width="100%" height="100%" fill="url(#gradient-11718)" />
      
      <rect 
        x="34%" 
        y="68%" 
        width="12%" 
        height="12%" 
        fill="#6c757d"
        opacity="0.3"
        transform="rotate(216, 40%, 74%)"
      />
    
      <rect 
        x="68%" 
        y="2%" 
        width="46%" 
        height="46%" 
        fill="#adb5bd"
        opacity="0.44"
        transform="rotate(270, 91%, 25%)"
      />
    
      <rect 
        x="2%" 
        y="36%" 
        width="30%" 
        height="30%" 
        fill="#ced4da"
        opacity="0.58"
        transform="rotate(324, 17%, 51%)"
      />
    
      <rect 
        x="36%" 
        y="70%" 
        width="14%" 
        height="14%" 
        fill="#6c757d"
        opacity="0.72"
        transform="rotate(18, 43%, 77%)"
      />
    
      <rect 
        x="70%" 
        y="4%" 
        width="48%" 
        height="48%" 
        fill="#adb5bd"
        opacity="0.86"
        transform="rotate(72, 94%, 28%)"
      />
    
      <circle cx="200" cy="150" r="100" fill="#6c757d" opacity="0.7" />
      <circle cx="160" cy="120" r="20" fill="white" opacity="0.8" />
      <circle cx="240" cy="120" r="20" fill="white" opacity="0.8" />
      <circle cx="160" cy="120" r="10" fill="black" />
      <circle cx="240" cy="120" r="10" fill="black" />
      <path d="M 150 200 Q 200 250 250 200" stroke="black" stroke-width="5" fill="none" />
      
    <text 
      x="50%" 
      y="85%" 
      font-family="Arial, sans-serif" 
      font-size="14" 
      font-weight="bold"
      text-anchor="middle"
      fill="white"
    >
      MAYC #11718 - COMMON
    </text>
  
    </svg>
  