
    <svg xmlns="http://www.w3.org/2000/svg" viewBox="0 0 400 400" width="400" height="400">
      <defs>
        
    <linearGradient id="gradient-11838" x1="0%" y1="0%" x2="100%" y2="100%">
      <stop offset="0%" stop-color="#007bff" stop-opacity="0.8" />
      <stop offset="50%" stop-color="#0dcaf0" stop-opacity="0.5" />
      <stop offset="100%" stop-color="#6610f2" stop-opacity="0.8" />
    </linearGradient>
  
      </defs>
      <rect width="100%" height="100%" fill="url(#gradient-11838)" />
      
      <rect 
        x="94%" 
        y="88%" 
        width="42%" 
        height="42%" 
        fill="#007bff"
        opacity="0.6"
        transform="rotate(336, 115%, 109%)"
      />
    
      <rect 
        x="88%" 
        y="82%" 
        width="36%" 
        height="36%" 
        fill="#0dcaf0"
        opacity="0.94"
        transform="rotate(150, 106%, 100%)"
      />
    
      <rect 
        x="82%" 
        y="76%" 
        width="30%" 
        height="30%" 
        fill="#6610f2"
        opacity="0.58"
        transform="rotate(324, 97%, 91%)"
      />
    
      <rect 
        x="76%" 
        y="70%" 
        width="24%" 
        height="24%" 
        fill="#007bff"
        opacity="0.92"
        transform="rotate(138, 88%, 82%)"
      />
    
      <rect 
        x="70%" 
        y="64%" 
        width="18%" 
        height="18%" 
        fill="#0dcaf0"
        opacity="0.56"
        transform="rotate(312, 79%, 73%)"
      />
    
      <circle cx="200" cy="150" r="100" fill="#007bff" opacity="0.7" />
      <circle cx="160" cy="120" r="20" fill="white" opacity="0.8" />
      <circle cx="240" cy="120" r="20" fill="white" opacity="0.8" />
      <circle cx="160" cy="120" r="10" fill="black" />
      <circle cx="240" cy="120" r="10" fill="black" />
      <path d="M 150 200 Q 200 250 250 200" stroke="black" stroke-width="5" fill="none" />
      
    <text 
      x="50%" 
      y="85%" 
      font-family="Arial, sans-serif" 
      font-size="14" 
      font-weight="bold"
      text-anchor="middle"
      fill="white"
    >
      MAYC #11838 - RARE
    </text>
  
    </svg>
  