
    <svg xmlns="http://www.w3.org/2000/svg" viewBox="0 0 400 400" width="400" height="400">
      <defs>
        
    <linearGradient id="gradient-11916" x1="0%" y1="0%" x2="100%" y2="100%">
      <stop offset="0%" stop-color="#007bff" stop-opacity="0.8" />
      <stop offset="50%" stop-color="#0dcaf0" stop-opacity="0.5" />
      <stop offset="100%" stop-color="#6610f2" stop-opacity="0.8" />
    </linearGradient>
  
      </defs>
      <rect width="100%" height="100%" fill="url(#gradient-11916)" />
      
      <rect 
        x="8%" 
        y="16%" 
        width="34%" 
        height="34%" 
        fill="#007bff"
        opacity="0.9"
        transform="rotate(72, 25%, 33%)"
      />
    
      <rect 
        x="16%" 
        y="24%" 
        width="42%" 
        height="42%" 
        fill="#0dcaf0"
        opacity="0.88"
        transform="rotate(180, 37%, 45%)"
      />
    
      <rect 
        x="24%" 
        y="32%" 
        width="50%" 
        height="50%" 
        fill="#6610f2"
        opacity="0.86"
        transform="rotate(288, 49%, 57%)"
      />
    
      <rect 
        x="32%" 
        y="40%" 
        width="58%" 
        height="58%" 
        fill="#007bff"
        opacity="0.84"
        transform="rotate(36, 61%, 69%)"
      />
    
      <rect 
        x="40%" 
        y="48%" 
        width="16%" 
        height="16%" 
        fill="#0dcaf0"
        opacity="0.82"
        transform="rotate(144, 48%, 56%)"
      />
    
      <circle cx="200" cy="150" r="100" fill="#007bff" opacity="0.7" />
      <circle cx="160" cy="120" r="20" fill="white" opacity="0.8" />
      <circle cx="240" cy="120" r="20" fill="white" opacity="0.8" />
      <circle cx="160" cy="120" r="10" fill="black" />
      <circle cx="240" cy="120" r="10" fill="black" />
      <path d="M 150 200 Q 200 250 250 200" stroke="black" stroke-width="5" fill="none" />
      
    <text 
      x="50%" 
      y="85%" 
      font-family="Arial, sans-serif" 
      font-size="14" 
      font-weight="bold"
      text-anchor="middle"
      fill="white"
    >
      MAYC #11916 - RARE
    </text>
  
    </svg>
  