
    <svg xmlns="http://www.w3.org/2000/svg" viewBox="0 0 400 400" width="400" height="400">
      <defs>
        
    <linearGradient id="gradient-11754" x1="0%" y1="0%" x2="100%" y2="100%">
      <stop offset="0%" stop-color="#28a745" stop-opacity="0.8" />
      <stop offset="50%" stop-color="#5cb85c" stop-opacity="0.5" />
      <stop offset="100%" stop-color="#20c997" stop-opacity="0.8" />
    </linearGradient>
  
      </defs>
      <rect width="100%" height="100%" fill="url(#gradient-11754)" />
      
      <rect 
        x="2%" 
        y="4%" 
        width="16%" 
        height="16%" 
        fill="#28a745"
        opacity="0.6"
        transform="rotate(288, 10%, 12%)"
      />
    
      <rect 
        x="4%" 
        y="6%" 
        width="18%" 
        height="18%" 
        fill="#5cb85c"
        opacity="0.52"
        transform="rotate(90, 13%, 15%)"
      />
    
      <rect 
        x="6%" 
        y="8%" 
        width="20%" 
        height="20%" 
        fill="#20c997"
        opacity="0.44"
        transform="rotate(252, 16%, 18%)"
      />
    
      <rect 
        x="8%" 
        y="10%" 
        width="22%" 
        height="22%" 
        fill="#28a745"
        opacity="0.36"
        transform="rotate(54, 19%, 21%)"
      />
    
      <rect 
        x="10%" 
        y="12%" 
        width="24%" 
        height="24%" 
        fill="#5cb85c"
        opacity="0.98"
        transform="rotate(216, 22%, 24%)"
      />
    
      <circle cx="200" cy="150" r="100" fill="#28a745" opacity="0.7" />
      <circle cx="160" cy="120" r="20" fill="white" opacity="0.8" />
      <circle cx="240" cy="120" r="20" fill="white" opacity="0.8" />
      <circle cx="160" cy="120" r="10" fill="black" />
      <circle cx="240" cy="120" r="10" fill="black" />
      <path d="M 150 200 Q 200 250 250 200" stroke="black" stroke-width="5" fill="none" />
      
    <text 
      x="50%" 
      y="85%" 
      font-family="Arial, sans-serif" 
      font-size="14" 
      font-weight="bold"
      text-anchor="middle"
      fill="white"
    >
      MAYC #11754 - UNCOMMON
    </text>
  
    </svg>
  