
    <svg xmlns="http://www.w3.org/2000/svg" viewBox="0 0 400 400" width="400" height="400">
      <defs>
        
    <linearGradient id="gradient-10603" x1="0%" y1="0%" x2="100%" y2="100%">
      <stop offset="0%" stop-color="#28a745" stop-opacity="0.8" />
      <stop offset="50%" stop-color="#5cb85c" stop-opacity="0.5" />
      <stop offset="100%" stop-color="#20c997" stop-opacity="0.8" />
    </linearGradient>
  
      </defs>
      <rect width="100%" height="100%" fill="url(#gradient-10603)" />
      
      <rect 
        x="39%" 
        y="78%" 
        width="27%" 
        height="27%" 
        fill="#5cb85c"
        opacity="0.75"
        transform="rotate(196, 52.5%, 91.5%)"
      />
    
      <rect 
        x="78%" 
        y="17%" 
        width="16%" 
        height="16%" 
        fill="#20c997"
        opacity="0.84"
        transform="rotate(155, 86%, 25%)"
      />
    
      <rect 
        x="17%" 
        y="56%" 
        width="55%" 
        height="55%" 
        fill="#28a745"
        opacity="0.93"
        transform="rotate(114, 44.5%, 83.5%)"
      />
    
      <rect 
        x="56%" 
        y="95%" 
        width="44%" 
        height="44%" 
        fill="#5cb85c"
        opacity="0.32"
        transform="rotate(73, 78%, 117%)"
      />
    
      <rect 
        x="95%" 
        y="34%" 
        width="33%" 
        height="33%" 
        fill="#20c997"
        opacity="0.41"
        transform="rotate(32, 111.5%, 50.5%)"
      />
    
      <circle cx="200" cy="150" r="100" fill="#5cb85c" opacity="0.7" />
      <circle cx="160" cy="120" r="20" fill="white" opacity="0.8" />
      <circle cx="240" cy="120" r="20" fill="white" opacity="0.8" />
      <circle cx="160" cy="120" r="10" fill="black" />
      <circle cx="240" cy="120" r="10" fill="black" />
      <path d="M 150 200 Q 200 250 250 200" stroke="black" stroke-width="5" fill="none" />
      
    <text 
      x="50%" 
      y="85%" 
      font-family="Arial, sans-serif" 
      font-size="14" 
      font-weight="bold"
      text-anchor="middle"
      fill="white"
    >
      MAYC #10603 - UNCOMMON
    </text>
  
    </svg>
  