
    <svg xmlns="http://www.w3.org/2000/svg" viewBox="0 0 400 400" width="400" height="400">
      <defs>
        
    <linearGradient id="gradient-11142" x1="0%" y1="0%" x2="100%" y2="100%">
      <stop offset="0%" stop-color="#007bff" stop-opacity="0.8" />
      <stop offset="50%" stop-color="#0dcaf0" stop-opacity="0.5" />
      <stop offset="100%" stop-color="#6610f2" stop-opacity="0.8" />
    </linearGradient>
  
      </defs>
      <rect width="100%" height="100%" fill="url(#gradient-11142)" />
      
      <rect 
        x="46%" 
        y="92%" 
        width="48%" 
        height="48%" 
        fill="#007bff"
        opacity="0.4"
        transform="rotate(144, 70%, 116%)"
      />
    
      <rect 
        x="92%" 
        y="38%" 
        width="44%" 
        height="44%" 
        fill="#0dcaf0"
        opacity="0.56"
        transform="rotate(270, 114%, 60%)"
      />
    
      <rect 
        x="38%" 
        y="84%" 
        width="40%" 
        height="40%" 
        fill="#6610f2"
        opacity="0.72"
        transform="rotate(36, 58%, 104%)"
      />
    
      <rect 
        x="84%" 
        y="30%" 
        width="36%" 
        height="36%" 
        fill="#007bff"
        opacity="0.88"
        transform="rotate(162, 102%, 48%)"
      />
    
      <rect 
        x="30%" 
        y="76%" 
        width="32%" 
        height="32%" 
        fill="#0dcaf0"
        opacity="0.34"
        transform="rotate(288, 46%, 92%)"
      />
    
      <circle cx="200" cy="150" r="100" fill="#007bff" opacity="0.7" />
      <circle cx="160" cy="120" r="20" fill="white" opacity="0.8" />
      <circle cx="240" cy="120" r="20" fill="white" opacity="0.8" />
      <circle cx="160" cy="120" r="10" fill="black" />
      <circle cx="240" cy="120" r="10" fill="black" />
      <path d="M 150 200 Q 200 250 250 200" stroke="black" stroke-width="5" fill="none" />
      
    <text 
      x="50%" 
      y="85%" 
      font-family="Arial, sans-serif" 
      font-size="14" 
      font-weight="bold"
      text-anchor="middle"
      fill="white"
    >
      MAYC #11142 - RARE
    </text>
  
    </svg>
  