
    <svg xmlns="http://www.w3.org/2000/svg" viewBox="0 0 400 400" width="400" height="400">
      <defs>
        
    <linearGradient id="gradient-12073" x1="0%" y1="0%" x2="100%" y2="100%">
      <stop offset="0%" stop-color="#007bff" stop-opacity="0.8" />
      <stop offset="50%" stop-color="#0dcaf0" stop-opacity="0.5" />
      <stop offset="100%" stop-color="#6610f2" stop-opacity="0.8" />
    </linearGradient>
  
      </defs>
      <rect width="100%" height="100%" fill="url(#gradient-12073)" />
      
      <rect 
        x="49%" 
        y="98%" 
        width="57%" 
        height="57%" 
        fill="#0dcaf0"
        opacity="0.75"
        transform="rotate(316, 77.5%, 126.5%)"
      />
    
      <rect 
        x="98%" 
        y="47%" 
        width="56%" 
        height="56%" 
        fill="#6610f2"
        opacity="0.84"
        transform="rotate(305, 126%, 75%)"
      />
    
      <rect 
        x="47%" 
        y="96%" 
        width="55%" 
        height="55%" 
        fill="#007bff"
        opacity="0.93"
        transform="rotate(294, 74.5%, 123.5%)"
      />
    
      <rect 
        x="96%" 
        y="45%" 
        width="54%" 
        height="54%" 
        fill="#0dcaf0"
        opacity="0.32"
        transform="rotate(283, 123%, 72%)"
      />
    
      <rect 
        x="45%" 
        y="94%" 
        width="53%" 
        height="53%" 
        fill="#6610f2"
        opacity="0.41"
        transform="rotate(272, 71.5%, 120.5%)"
      />
    
      <circle cx="200" cy="150" r="100" fill="#0dcaf0" opacity="0.7" />
      <circle cx="160" cy="120" r="20" fill="white" opacity="0.8" />
      <circle cx="240" cy="120" r="20" fill="white" opacity="0.8" />
      <circle cx="160" cy="120" r="10" fill="black" />
      <circle cx="240" cy="120" r="10" fill="black" />
      <path d="M 150 200 Q 200 250 250 200" stroke="black" stroke-width="5" fill="none" />
      
    <text 
      x="50%" 
      y="85%" 
      font-family="Arial, sans-serif" 
      font-size="14" 
      font-weight="bold"
      text-anchor="middle"
      fill="white"
    >
      MAYC #12073 - RARE
    </text>
  
    </svg>
  