
    <svg xmlns="http://www.w3.org/2000/svg" viewBox="0 0 400 400" width="400" height="400">
      <defs>
        
    <linearGradient id="gradient-11784" x1="0%" y1="0%" x2="100%" y2="100%">
      <stop offset="0%" stop-color="#6c757d" stop-opacity="0.8" />
      <stop offset="50%" stop-color="#adb5bd" stop-opacity="0.5" />
      <stop offset="100%" stop-color="#ced4da" stop-opacity="0.8" />
    </linearGradient>
  
      </defs>
      <rect width="100%" height="100%" fill="url(#gradient-11784)" />
      
      <rect 
        x="92%" 
        y="84%" 
        width="36%" 
        height="36%" 
        fill="#6c757d"
        opacity="0.5"
        transform="rotate(48, 110%, 102%)"
      />
    
      <rect 
        x="84%" 
        y="76%" 
        width="28%" 
        height="28%" 
        fill="#adb5bd"
        opacity="0.82"
        transform="rotate(240, 98%, 90%)"
      />
    
      <rect 
        x="76%" 
        y="68%" 
        width="20%" 
        height="20%" 
        fill="#ced4da"
        opacity="0.44"
        transform="rotate(72, 86%, 78%)"
      />
    
      <rect 
        x="68%" 
        y="60%" 
        width="12%" 
        height="12%" 
        fill="#6c757d"
        opacity="0.76"
        transform="rotate(264, 74%, 66%)"
      />
    
      <rect 
        x="60%" 
        y="52%" 
        width="54%" 
        height="54%" 
        fill="#adb5bd"
        opacity="0.38"
        transform="rotate(96, 87%, 79%)"
      />
    
      <circle cx="200" cy="150" r="100" fill="#6c757d" opacity="0.7" />
      <circle cx="160" cy="120" r="20" fill="white" opacity="0.8" />
      <circle cx="240" cy="120" r="20" fill="white" opacity="0.8" />
      <circle cx="160" cy="120" r="10" fill="black" />
      <circle cx="240" cy="120" r="10" fill="black" />
      <path d="M 150 200 Q 200 250 250 200" stroke="black" stroke-width="5" fill="none" />
      
    <text 
      x="50%" 
      y="85%" 
      font-family="Arial, sans-serif" 
      font-size="14" 
      font-weight="bold"
      text-anchor="middle"
      fill="white"
    >
      MAYC #11784 - COMMON
    </text>
  
    </svg>
  