
    <svg xmlns="http://www.w3.org/2000/svg" viewBox="0 0 400 400" width="400" height="400">
      <defs>
        
    <linearGradient id="gradient-10609" x1="0%" y1="0%" x2="100%" y2="100%">
      <stop offset="0%" stop-color="#007bff" stop-opacity="0.8" />
      <stop offset="50%" stop-color="#0dcaf0" stop-opacity="0.5" />
      <stop offset="100%" stop-color="#6610f2" stop-opacity="0.8" />
    </linearGradient>
  
      </defs>
      <rect width="100%" height="100%" fill="url(#gradient-10609)" />
      
      <rect 
        x="17%" 
        y="34%" 
        width="11%" 
        height="11%" 
        fill="#0dcaf0"
        opacity="0.45"
        transform="rotate(148, 22.5%, 39.5%)"
      />
    
      <rect 
        x="34%" 
        y="51%" 
        width="28%" 
        height="28%" 
        fill="#6610f2"
        opacity="0.62"
        transform="rotate(185, 48%, 65%)"
      />
    
      <rect 
        x="51%" 
        y="68%" 
        width="45%" 
        height="45%" 
        fill="#007bff"
        opacity="0.79"
        transform="rotate(222, 73.5%, 90.5%)"
      />
    
      <rect 
        x="68%" 
        y="85%" 
        width="12%" 
        height="12%" 
        fill="#0dcaf0"
        opacity="0.96"
        transform="rotate(259, 74%, 91%)"
      />
    
      <rect 
        x="85%" 
        y="2%" 
        width="29%" 
        height="29%" 
        fill="#6610f2"
        opacity="0.43"
        transform="rotate(296, 99.5%, 16.5%)"
      />
    
      <circle cx="200" cy="150" r="100" fill="#0dcaf0" opacity="0.7" />
      <circle cx="160" cy="120" r="20" fill="white" opacity="0.8" />
      <circle cx="240" cy="120" r="20" fill="white" opacity="0.8" />
      <circle cx="160" cy="120" r="10" fill="black" />
      <circle cx="240" cy="120" r="10" fill="black" />
      <path d="M 150 200 Q 200 250 250 200" stroke="black" stroke-width="5" fill="none" />
      
    <text 
      x="50%" 
      y="85%" 
      font-family="Arial, sans-serif" 
      font-size="14" 
      font-weight="bold"
      text-anchor="middle"
      fill="white"
    >
      MAYC #10609 - RARE
    </text>
  
    </svg>
  