
    <svg xmlns="http://www.w3.org/2000/svg" viewBox="0 0 400 400" width="400" height="400">
      <defs>
        
    <linearGradient id="gradient-10596" x1="0%" y1="0%" x2="100%" y2="100%">
      <stop offset="0%" stop-color="#28a745" stop-opacity="0.8" />
      <stop offset="50%" stop-color="#5cb85c" stop-opacity="0.5" />
      <stop offset="100%" stop-color="#20c997" stop-opacity="0.8" />
    </linearGradient>
  
      </defs>
      <rect width="100%" height="100%" fill="url(#gradient-10596)" />
      
      <rect 
        x="48%" 
        y="96%" 
        width="54%" 
        height="54%" 
        fill="#28a745"
        opacity="0.4"
        transform="rotate(192, 75%, 123%)"
      />
    
      <rect 
        x="96%" 
        y="44%" 
        width="52%" 
        height="52%" 
        fill="#5cb85c"
        opacity="0.98"
        transform="rotate(60, 122%, 70%)"
      />
    
      <rect 
        x="44%" 
        y="92%" 
        width="50%" 
        height="50%" 
        fill="#20c997"
        opacity="0.86"
        transform="rotate(288, 69%, 117%)"
      />
    
      <rect 
        x="92%" 
        y="40%" 
        width="48%" 
        height="48%" 
        fill="#28a745"
        opacity="0.74"
        transform="rotate(156, 116%, 64%)"
      />
    
      <rect 
        x="40%" 
        y="88%" 
        width="46%" 
        height="46%" 
        fill="#5cb85c"
        opacity="0.62"
        transform="rotate(24, 63%, 111%)"
      />
    
      <circle cx="200" cy="150" r="100" fill="#28a745" opacity="0.7" />
      <circle cx="160" cy="120" r="20" fill="white" opacity="0.8" />
      <circle cx="240" cy="120" r="20" fill="white" opacity="0.8" />
      <circle cx="160" cy="120" r="10" fill="black" />
      <circle cx="240" cy="120" r="10" fill="black" />
      <path d="M 150 200 Q 200 250 250 200" stroke="black" stroke-width="5" fill="none" />
      
    <text 
      x="50%" 
      y="85%" 
      font-family="Arial, sans-serif" 
      font-size="14" 
      font-weight="bold"
      text-anchor="middle"
      fill="white"
    >
      MAYC #10596 - UNCOMMON
    </text>
  
    </svg>
  