
    <svg xmlns="http://www.w3.org/2000/svg" viewBox="0 0 400 400" width="400" height="400">
      <defs>
        
    <linearGradient id="gradient-11599" x1="0%" y1="0%" x2="100%" y2="100%">
      <stop offset="0%" stop-color="#28a745" stop-opacity="0.8" />
      <stop offset="50%" stop-color="#5cb85c" stop-opacity="0.5" />
      <stop offset="100%" stop-color="#20c997" stop-opacity="0.8" />
    </linearGradient>
  
      </defs>
      <rect width="100%" height="100%" fill="url(#gradient-11599)" />
      
      <rect 
        x="87%" 
        y="74%" 
        width="21%" 
        height="21%" 
        fill="#5cb85c"
        opacity="0.65"
        transform="rotate(148, 97.5%, 84.5%)"
      />
    
      <rect 
        x="74%" 
        y="61%" 
        width="58%" 
        height="58%" 
        fill="#20c997"
        opacity="0.72"
        transform="rotate(95, 103%, 90%)"
      />
    
      <rect 
        x="61%" 
        y="48%" 
        width="45%" 
        height="45%" 
        fill="#28a745"
        opacity="0.79"
        transform="rotate(42, 83.5%, 70.5%)"
      />
    
      <rect 
        x="48%" 
        y="35%" 
        width="32%" 
        height="32%" 
        fill="#5cb85c"
        opacity="0.86"
        transform="rotate(349, 64%, 51%)"
      />
    
      <rect 
        x="35%" 
        y="22%" 
        width="19%" 
        height="19%" 
        fill="#20c997"
        opacity="0.93"
        transform="rotate(296, 44.5%, 31.5%)"
      />
    
      <circle cx="200" cy="150" r="100" fill="#5cb85c" opacity="0.7" />
      <circle cx="160" cy="120" r="20" fill="white" opacity="0.8" />
      <circle cx="240" cy="120" r="20" fill="white" opacity="0.8" />
      <circle cx="160" cy="120" r="10" fill="black" />
      <circle cx="240" cy="120" r="10" fill="black" />
      <path d="M 150 200 Q 200 250 250 200" stroke="black" stroke-width="5" fill="none" />
      
    <text 
      x="50%" 
      y="85%" 
      font-family="Arial, sans-serif" 
      font-size="14" 
      font-weight="bold"
      text-anchor="middle"
      fill="white"
    >
      MAYC #11599 - UNCOMMON
    </text>
  
    </svg>
  