
    <svg xmlns="http://www.w3.org/2000/svg" viewBox="0 0 400 400" width="400" height="400">
      <defs>
        
    <linearGradient id="gradient-12164" x1="0%" y1="0%" x2="100%" y2="100%">
      <stop offset="0%" stop-color="#6c757d" stop-opacity="0.8" />
      <stop offset="50%" stop-color="#adb5bd" stop-opacity="0.5" />
      <stop offset="100%" stop-color="#ced4da" stop-opacity="0.8" />
    </linearGradient>
  
      </defs>
      <rect width="100%" height="100%" fill="url(#gradient-12164)" />
      
      <rect 
        x="32%" 
        y="64%" 
        width="56%" 
        height="56%" 
        fill="#ced4da"
        opacity="0.4"
        transform="rotate(8, 60%, 92%)"
      />
    
      <rect 
        x="64%" 
        y="96%" 
        width="38%" 
        height="38%" 
        fill="#6c757d"
        opacity="0.42"
        transform="rotate(100, 83%, 115%)"
      />
    
      <rect 
        x="96%" 
        y="28%" 
        width="20%" 
        height="20%" 
        fill="#adb5bd"
        opacity="0.44"
        transform="rotate(192, 106%, 38%)"
      />
    
      <rect 
        x="28%" 
        y="60%" 
        width="52%" 
        height="52%" 
        fill="#ced4da"
        opacity="0.46"
        transform="rotate(284, 54%, 86%)"
      />
    
      <rect 
        x="60%" 
        y="92%" 
        width="34%" 
        height="34%" 
        fill="#6c757d"
        opacity="0.48"
        transform="rotate(16, 77%, 109%)"
      />
    
      <circle cx="200" cy="150" r="100" fill="#ced4da" opacity="0.7" />
      <circle cx="160" cy="120" r="20" fill="white" opacity="0.8" />
      <circle cx="240" cy="120" r="20" fill="white" opacity="0.8" />
      <circle cx="160" cy="120" r="10" fill="black" />
      <circle cx="240" cy="120" r="10" fill="black" />
      <path d="M 150 200 Q 200 250 250 200" stroke="black" stroke-width="5" fill="none" />
      
    <text 
      x="50%" 
      y="85%" 
      font-family="Arial, sans-serif" 
      font-size="14" 
      font-weight="bold"
      text-anchor="middle"
      fill="white"
    >
      MAYC #12164 - COMMON
    </text>
  
    </svg>
  