
    <svg xmlns="http://www.w3.org/2000/svg" viewBox="0 0 400 400" width="400" height="400">
      <defs>
        
    <linearGradient id="gradient-11764" x1="0%" y1="0%" x2="100%" y2="100%">
      <stop offset="0%" stop-color="#007bff" stop-opacity="0.8" />
      <stop offset="50%" stop-color="#0dcaf0" stop-opacity="0.5" />
      <stop offset="100%" stop-color="#6610f2" stop-opacity="0.8" />
    </linearGradient>
  
      </defs>
      <rect width="100%" height="100%" fill="url(#gradient-11764)" />
      
      <rect 
        x="32%" 
        y="64%" 
        width="56%" 
        height="56%" 
        fill="#0dcaf0"
        opacity="0.8"
        transform="rotate(88, 60%, 92%)"
      />
    
      <rect 
        x="64%" 
        y="96%" 
        width="38%" 
        height="38%" 
        fill="#6610f2"
        opacity="0.62"
        transform="rotate(20, 83%, 115%)"
      />
    
      <rect 
        x="96%" 
        y="28%" 
        width="20%" 
        height="20%" 
        fill="#007bff"
        opacity="0.44"
        transform="rotate(312, 106%, 38%)"
      />
    
      <rect 
        x="28%" 
        y="60%" 
        width="52%" 
        height="52%" 
        fill="#0dcaf0"
        opacity="0.96"
        transform="rotate(244, 54%, 86%)"
      />
    
      <rect 
        x="60%" 
        y="92%" 
        width="34%" 
        height="34%" 
        fill="#6610f2"
        opacity="0.78"
        transform="rotate(176, 77%, 109%)"
      />
    
      <circle cx="200" cy="150" r="100" fill="#0dcaf0" opacity="0.7" />
      <circle cx="160" cy="120" r="20" fill="white" opacity="0.8" />
      <circle cx="240" cy="120" r="20" fill="white" opacity="0.8" />
      <circle cx="160" cy="120" r="10" fill="black" />
      <circle cx="240" cy="120" r="10" fill="black" />
      <path d="M 150 200 Q 200 250 250 200" stroke="black" stroke-width="5" fill="none" />
      
    <text 
      x="50%" 
      y="85%" 
      font-family="Arial, sans-serif" 
      font-size="14" 
      font-weight="bold"
      text-anchor="middle"
      fill="white"
    >
      MAYC #11764 - RARE
    </text>
  
    </svg>
  