
    <svg xmlns="http://www.w3.org/2000/svg" viewBox="0 0 400 400" width="400" height="400">
      <defs>
        
    <linearGradient id="gradient-10672" x1="0%" y1="0%" x2="100%" y2="100%">
      <stop offset="0%" stop-color="#28a745" stop-opacity="0.8" />
      <stop offset="50%" stop-color="#5cb85c" stop-opacity="0.5" />
      <stop offset="100%" stop-color="#20c997" stop-opacity="0.8" />
    </linearGradient>
  
      </defs>
      <rect width="100%" height="100%" fill="url(#gradient-10672)" />
      
      <rect 
        x="36%" 
        y="72%" 
        width="18%" 
        height="18%" 
        fill="#5cb85c"
        opacity="0.8"
        transform="rotate(184, 45%, 81%)"
      />
    
      <rect 
        x="72%" 
        y="8%" 
        width="54%" 
        height="54%" 
        fill="#20c997"
        opacity="0.76"
        transform="rotate(320, 99%, 35%)"
      />
    
      <rect 
        x="8%" 
        y="44%" 
        width="40%" 
        height="40%" 
        fill="#28a745"
        opacity="0.72"
        transform="rotate(96, 28%, 64%)"
      />
    
      <rect 
        x="44%" 
        y="80%" 
        width="26%" 
        height="26%" 
        fill="#5cb85c"
        opacity="0.68"
        transform="rotate(232, 57%, 93%)"
      />
    
      <rect 
        x="80%" 
        y="16%" 
        width="12%" 
        height="12%" 
        fill="#20c997"
        opacity="0.64"
        transform="rotate(8, 86%, 22%)"
      />
    
      <circle cx="200" cy="150" r="100" fill="#5cb85c" opacity="0.7" />
      <circle cx="160" cy="120" r="20" fill="white" opacity="0.8" />
      <circle cx="240" cy="120" r="20" fill="white" opacity="0.8" />
      <circle cx="160" cy="120" r="10" fill="black" />
      <circle cx="240" cy="120" r="10" fill="black" />
      <path d="M 150 200 Q 200 250 250 200" stroke="black" stroke-width="5" fill="none" />
      
    <text 
      x="50%" 
      y="85%" 
      font-family="Arial, sans-serif" 
      font-size="14" 
      font-weight="bold"
      text-anchor="middle"
      fill="white"
    >
      MAYC #10672 - UNCOMMON
    </text>
  
    </svg>
  