
    <svg xmlns="http://www.w3.org/2000/svg" viewBox="0 0 400 400" width="400" height="400">
      <defs>
        
    <linearGradient id="gradient-10097" x1="0%" y1="0%" x2="100%" y2="100%">
      <stop offset="0%" stop-color="#6c757d" stop-opacity="0.8" />
      <stop offset="50%" stop-color="#adb5bd" stop-opacity="0.5" />
      <stop offset="100%" stop-color="#ced4da" stop-opacity="0.8" />
    </linearGradient>
  
      </defs>
      <rect width="100%" height="100%" fill="url(#gradient-10097)" />
      
      <rect 
        x="61%" 
        y="22%" 
        width="43%" 
        height="43%" 
        fill="#ced4da"
        opacity="0.85"
        transform="rotate(164, 82.5%, 43.5%)"
      />
    
      <rect 
        x="22%" 
        y="83%" 
        width="54%" 
        height="54%" 
        fill="#6c757d"
        opacity="0.96"
        transform="rotate(25, 49%, 110%)"
      />
    
      <rect 
        x="83%" 
        y="44%" 
        width="15%" 
        height="15%" 
        fill="#adb5bd"
        opacity="0.37"
        transform="rotate(246, 90.5%, 51.5%)"
      />
    
      <rect 
        x="44%" 
        y="5%" 
        width="26%" 
        height="26%" 
        fill="#ced4da"
        opacity="0.48"
        transform="rotate(107, 57%, 18%)"
      />
    
      <rect 
        x="5%" 
        y="66%" 
        width="37%" 
        height="37%" 
        fill="#6c757d"
        opacity="0.59"
        transform="rotate(328, 23.5%, 84.5%)"
      />
    
      <circle cx="200" cy="150" r="100" fill="#ced4da" opacity="0.7" />
      <circle cx="160" cy="120" r="20" fill="white" opacity="0.8" />
      <circle cx="240" cy="120" r="20" fill="white" opacity="0.8" />
      <circle cx="160" cy="120" r="10" fill="black" />
      <circle cx="240" cy="120" r="10" fill="black" />
      <path d="M 150 200 Q 200 250 250 200" stroke="black" stroke-width="5" fill="none" />
      
    <text 
      x="50%" 
      y="85%" 
      font-family="Arial, sans-serif" 
      font-size="14" 
      font-weight="bold"
      text-anchor="middle"
      fill="white"
    >
      MAYC #10097 - COMMON
    </text>
  
    </svg>
  