
    <svg xmlns="http://www.w3.org/2000/svg" viewBox="0 0 400 400" width="400" height="400">
      <defs>
        
    <linearGradient id="gradient-11128" x1="0%" y1="0%" x2="100%" y2="100%">
      <stop offset="0%" stop-color="#6c757d" stop-opacity="0.8" />
      <stop offset="50%" stop-color="#adb5bd" stop-opacity="0.5" />
      <stop offset="100%" stop-color="#ced4da" stop-opacity="0.8" />
    </linearGradient>
  
      </defs>
      <rect width="100%" height="100%" fill="url(#gradient-11128)" />
      
      <rect 
        x="64%" 
        y="28%" 
        width="52%" 
        height="52%" 
        fill="#adb5bd"
        opacity="0.4"
        transform="rotate(136, 90%, 54%)"
      />
    
      <rect 
        x="28%" 
        y="92%" 
        width="16%" 
        height="16%" 
        fill="#ced4da"
        opacity="0.84"
        transform="rotate(80, 36%, 100%)"
      />
    
      <rect 
        x="92%" 
        y="56%" 
        width="30%" 
        height="30%" 
        fill="#6c757d"
        opacity="0.58"
        transform="rotate(24, 107%, 71%)"
      />
    
      <rect 
        x="56%" 
        y="20%" 
        width="44%" 
        height="44%" 
        fill="#adb5bd"
        opacity="0.32"
        transform="rotate(328, 78%, 42%)"
      />
    
      <rect 
        x="20%" 
        y="84%" 
        width="58%" 
        height="58%" 
        fill="#ced4da"
        opacity="0.76"
        transform="rotate(272, 49%, 113%)"
      />
    
      <circle cx="200" cy="150" r="100" fill="#adb5bd" opacity="0.7" />
      <circle cx="160" cy="120" r="20" fill="white" opacity="0.8" />
      <circle cx="240" cy="120" r="20" fill="white" opacity="0.8" />
      <circle cx="160" cy="120" r="10" fill="black" />
      <circle cx="240" cy="120" r="10" fill="black" />
      <path d="M 150 200 Q 200 250 250 200" stroke="black" stroke-width="5" fill="none" />
      
    <text 
      x="50%" 
      y="85%" 
      font-family="Arial, sans-serif" 
      font-size="14" 
      font-weight="bold"
      text-anchor="middle"
      fill="white"
    >
      MAYC #11128 - COMMON
    </text>
  
    </svg>
  