
    <svg xmlns="http://www.w3.org/2000/svg" viewBox="0 0 400 400" width="400" height="400">
      <defs>
        
    <linearGradient id="gradient-11191" x1="0%" y1="0%" x2="100%" y2="100%">
      <stop offset="0%" stop-color="#6c757d" stop-opacity="0.8" />
      <stop offset="50%" stop-color="#adb5bd" stop-opacity="0.5" />
      <stop offset="100%" stop-color="#ced4da" stop-opacity="0.8" />
    </linearGradient>
  
      </defs>
      <rect width="100%" height="100%" fill="url(#gradient-11191)" />
      
      <rect 
        x="83%" 
        y="66%" 
        width="59%" 
        height="59%" 
        fill="#adb5bd"
        opacity="0.75"
        transform="rotate(172, 112.5%, 95.5%)"
      />
    
      <rect 
        x="66%" 
        y="49%" 
        width="42%" 
        height="42%" 
        fill="#ced4da"
        opacity="0.98"
        transform="rotate(215, 87%, 70%)"
      />
    
      <rect 
        x="49%" 
        y="32%" 
        width="25%" 
        height="25%" 
        fill="#6c757d"
        opacity="0.51"
        transform="rotate(258, 61.5%, 44.5%)"
      />
    
      <rect 
        x="32%" 
        y="15%" 
        width="58%" 
        height="58%" 
        fill="#adb5bd"
        opacity="0.74"
        transform="rotate(301, 61%, 44%)"
      />
    
      <rect 
        x="15%" 
        y="98%" 
        width="41%" 
        height="41%" 
        fill="#ced4da"
        opacity="0.97"
        transform="rotate(344, 35.5%, 118.5%)"
      />
    
      <circle cx="200" cy="150" r="100" fill="#adb5bd" opacity="0.7" />
      <circle cx="160" cy="120" r="20" fill="white" opacity="0.8" />
      <circle cx="240" cy="120" r="20" fill="white" opacity="0.8" />
      <circle cx="160" cy="120" r="10" fill="black" />
      <circle cx="240" cy="120" r="10" fill="black" />
      <path d="M 150 200 Q 200 250 250 200" stroke="black" stroke-width="5" fill="none" />
      
    <text 
      x="50%" 
      y="85%" 
      font-family="Arial, sans-serif" 
      font-size="14" 
      font-weight="bold"
      text-anchor="middle"
      fill="white"
    >
      MAYC #11191 - COMMON
    </text>
  
    </svg>
  