
    <svg xmlns="http://www.w3.org/2000/svg" viewBox="0 0 400 400" width="400" height="400">
      <defs>
        
    <linearGradient id="gradient-11146" x1="0%" y1="0%" x2="100%" y2="100%">
      <stop offset="0%" stop-color="#007bff" stop-opacity="0.8" />
      <stop offset="50%" stop-color="#0dcaf0" stop-opacity="0.5" />
      <stop offset="100%" stop-color="#6610f2" stop-opacity="0.8" />
    </linearGradient>
  
      </defs>
      <rect width="100%" height="100%" fill="url(#gradient-11146)" />
      
      <rect 
        x="98%" 
        y="96%" 
        width="54%" 
        height="54%" 
        fill="#0dcaf0"
        opacity="0.9"
        transform="rotate(352, 125%, 123%)"
      />
    
      <rect 
        x="96%" 
        y="94%" 
        width="52%" 
        height="52%" 
        fill="#6610f2"
        opacity="0.88"
        transform="rotate(170, 122%, 120%)"
      />
    
      <rect 
        x="94%" 
        y="92%" 
        width="50%" 
        height="50%" 
        fill="#007bff"
        opacity="0.86"
        transform="rotate(348, 119%, 117%)"
      />
    
      <rect 
        x="92%" 
        y="90%" 
        width="48%" 
        height="48%" 
        fill="#0dcaf0"
        opacity="0.84"
        transform="rotate(166, 116%, 114%)"
      />
    
      <rect 
        x="90%" 
        y="88%" 
        width="46%" 
        height="46%" 
        fill="#6610f2"
        opacity="0.82"
        transform="rotate(344, 113%, 111%)"
      />
    
      <circle cx="200" cy="150" r="100" fill="#0dcaf0" opacity="0.7" />
      <circle cx="160" cy="120" r="20" fill="white" opacity="0.8" />
      <circle cx="240" cy="120" r="20" fill="white" opacity="0.8" />
      <circle cx="160" cy="120" r="10" fill="black" />
      <circle cx="240" cy="120" r="10" fill="black" />
      <path d="M 150 200 Q 200 250 250 200" stroke="black" stroke-width="5" fill="none" />
      
    <text 
      x="50%" 
      y="85%" 
      font-family="Arial, sans-serif" 
      font-size="14" 
      font-weight="bold"
      text-anchor="middle"
      fill="white"
    >
      MAYC #11146 - RARE
    </text>
  
    </svg>
  