
    <svg xmlns="http://www.w3.org/2000/svg" viewBox="0 0 400 400" width="400" height="400">
      <defs>
        
    <linearGradient id="gradient-11733" x1="0%" y1="0%" x2="100%" y2="100%">
      <stop offset="0%" stop-color="#6c757d" stop-opacity="0.8" />
      <stop offset="50%" stop-color="#adb5bd" stop-opacity="0.5" />
      <stop offset="100%" stop-color="#ced4da" stop-opacity="0.8" />
    </linearGradient>
  
      </defs>
      <rect width="100%" height="100%" fill="url(#gradient-11733)" />
      
      <rect 
        x="29%" 
        y="58%" 
        width="47%" 
        height="47%" 
        fill="#6c757d"
        opacity="0.95"
        transform="rotate(276, 52.5%, 81.5%)"
      />
    
      <rect 
        x="58%" 
        y="87%" 
        width="26%" 
        height="26%" 
        fill="#adb5bd"
        opacity="0.94"
        transform="rotate(165, 71%, 100%)"
      />
    
      <rect 
        x="87%" 
        y="16%" 
        width="55%" 
        height="55%" 
        fill="#ced4da"
        opacity="0.93"
        transform="rotate(54, 114.5%, 43.5%)"
      />
    
      <rect 
        x="16%" 
        y="45%" 
        width="34%" 
        height="34%" 
        fill="#6c757d"
        opacity="0.92"
        transform="rotate(303, 33%, 62%)"
      />
    
      <rect 
        x="45%" 
        y="74%" 
        width="13%" 
        height="13%" 
        fill="#adb5bd"
        opacity="0.91"
        transform="rotate(192, 51.5%, 80.5%)"
      />
    
      <circle cx="200" cy="150" r="100" fill="#6c757d" opacity="0.7" />
      <circle cx="160" cy="120" r="20" fill="white" opacity="0.8" />
      <circle cx="240" cy="120" r="20" fill="white" opacity="0.8" />
      <circle cx="160" cy="120" r="10" fill="black" />
      <circle cx="240" cy="120" r="10" fill="black" />
      <path d="M 150 200 Q 200 250 250 200" stroke="black" stroke-width="5" fill="none" />
      
    <text 
      x="50%" 
      y="85%" 
      font-family="Arial, sans-serif" 
      font-size="14" 
      font-weight="bold"
      text-anchor="middle"
      fill="white"
    >
      MAYC #11733 - COMMON
    </text>
  
    </svg>
  