
    <svg xmlns="http://www.w3.org/2000/svg" viewBox="0 0 400 400" width="400" height="400">
      <defs>
        
    <linearGradient id="gradient-11841" x1="0%" y1="0%" x2="100%" y2="100%">
      <stop offset="0%" stop-color="#007bff" stop-opacity="0.8" />
      <stop offset="50%" stop-color="#0dcaf0" stop-opacity="0.5" />
      <stop offset="100%" stop-color="#6610f2" stop-opacity="0.8" />
    </linearGradient>
  
      </defs>
      <rect width="100%" height="100%" fill="url(#gradient-11841)" />
      
      <rect 
        x="33%" 
        y="66%" 
        width="59%" 
        height="59%" 
        fill="#007bff"
        opacity="0.45"
        transform="rotate(132, 62.5%, 95.5%)"
      />
    
      <rect 
        x="66%" 
        y="99%" 
        width="42%" 
        height="42%" 
        fill="#0dcaf0"
        opacity="0.48"
        transform="rotate(345, 87%, 120%)"
      />
    
      <rect 
        x="99%" 
        y="32%" 
        width="25%" 
        height="25%" 
        fill="#6610f2"
        opacity="0.51"
        transform="rotate(198, 111.5%, 44.5%)"
      />
    
      <rect 
        x="32%" 
        y="65%" 
        width="58%" 
        height="58%" 
        fill="#007bff"
        opacity="0.54"
        transform="rotate(51, 61%, 94%)"
      />
    
      <rect 
        x="65%" 
        y="98%" 
        width="41%" 
        height="41%" 
        fill="#0dcaf0"
        opacity="0.57"
        transform="rotate(264, 85.5%, 118.5%)"
      />
    
      <circle cx="200" cy="150" r="100" fill="#007bff" opacity="0.7" />
      <circle cx="160" cy="120" r="20" fill="white" opacity="0.8" />
      <circle cx="240" cy="120" r="20" fill="white" opacity="0.8" />
      <circle cx="160" cy="120" r="10" fill="black" />
      <circle cx="240" cy="120" r="10" fill="black" />
      <path d="M 150 200 Q 200 250 250 200" stroke="black" stroke-width="5" fill="none" />
      
    <text 
      x="50%" 
      y="85%" 
      font-family="Arial, sans-serif" 
      font-size="14" 
      font-weight="bold"
      text-anchor="middle"
      fill="white"
    >
      MAYC #11841 - RARE
    </text>
  
    </svg>
  