
    <svg xmlns="http://www.w3.org/2000/svg" viewBox="0 0 400 400" width="400" height="400">
      <defs>
        
    <linearGradient id="gradient-11902" x1="0%" y1="0%" x2="100%" y2="100%">
      <stop offset="0%" stop-color="#28a745" stop-opacity="0.8" />
      <stop offset="50%" stop-color="#5cb85c" stop-opacity="0.5" />
      <stop offset="100%" stop-color="#20c997" stop-opacity="0.8" />
    </linearGradient>
  
      </defs>
      <rect width="100%" height="100%" fill="url(#gradient-11902)" />
      
      <rect 
        x="26%" 
        y="52%" 
        width="38%" 
        height="38%" 
        fill="#5cb85c"
        opacity="0.9"
        transform="rotate(64, 45%, 71%)"
      />
    
      <rect 
        x="52%" 
        y="78%" 
        width="14%" 
        height="14%" 
        fill="#20c997"
        opacity="0.46"
        transform="rotate(350, 59%, 85%)"
      />
    
      <rect 
        x="78%" 
        y="4%" 
        width="40%" 
        height="40%" 
        fill="#28a745"
        opacity="0.72"
        transform="rotate(276, 98%, 24%)"
      />
    
      <rect 
        x="4%" 
        y="30%" 
        width="16%" 
        height="16%" 
        fill="#5cb85c"
        opacity="0.98"
        transform="rotate(202, 12%, 38%)"
      />
    
      <rect 
        x="30%" 
        y="56%" 
        width="42%" 
        height="42%" 
        fill="#20c997"
        opacity="0.54"
        transform="rotate(128, 51%, 77%)"
      />
    
      <circle cx="200" cy="150" r="100" fill="#5cb85c" opacity="0.7" />
      <circle cx="160" cy="120" r="20" fill="white" opacity="0.8" />
      <circle cx="240" cy="120" r="20" fill="white" opacity="0.8" />
      <circle cx="160" cy="120" r="10" fill="black" />
      <circle cx="240" cy="120" r="10" fill="black" />
      <path d="M 150 200 Q 200 250 250 200" stroke="black" stroke-width="5" fill="none" />
      
    <text 
      x="50%" 
      y="85%" 
      font-family="Arial, sans-serif" 
      font-size="14" 
      font-weight="bold"
      text-anchor="middle"
      fill="white"
    >
      MAYC #11902 - UNCOMMON
    </text>
  
    </svg>
  