
    <svg xmlns="http://www.w3.org/2000/svg" viewBox="0 0 400 400" width="400" height="400">
      <defs>
        
    <linearGradient id="gradient-10624" x1="0%" y1="0%" x2="100%" y2="100%">
      <stop offset="0%" stop-color="#6c757d" stop-opacity="0.8" />
      <stop offset="50%" stop-color="#adb5bd" stop-opacity="0.5" />
      <stop offset="100%" stop-color="#ced4da" stop-opacity="0.8" />
    </linearGradient>
  
      </defs>
      <rect width="100%" height="100%" fill="url(#gradient-10624)" />
      
      <rect 
        x="12%" 
        y="24%" 
        width="46%" 
        height="46%" 
        fill="#adb5bd"
        opacity="0.4"
        transform="rotate(208, 35%, 47%)"
      />
    
      <rect 
        x="24%" 
        y="36%" 
        width="58%" 
        height="58%" 
        fill="#ced4da"
        opacity="0.42"
        transform="rotate(80, 53%, 65%)"
      />
    
      <rect 
        x="36%" 
        y="48%" 
        width="20%" 
        height="20%" 
        fill="#6c757d"
        opacity="0.44"
        transform="rotate(312, 46%, 58%)"
      />
    
      <rect 
        x="48%" 
        y="60%" 
        width="32%" 
        height="32%" 
        fill="#adb5bd"
        opacity="0.46"
        transform="rotate(184, 64%, 76%)"
      />
    
      <rect 
        x="60%" 
        y="72%" 
        width="44%" 
        height="44%" 
        fill="#ced4da"
        opacity="0.48"
        transform="rotate(56, 82%, 94%)"
      />
    
      <circle cx="200" cy="150" r="100" fill="#adb5bd" opacity="0.7" />
      <circle cx="160" cy="120" r="20" fill="white" opacity="0.8" />
      <circle cx="240" cy="120" r="20" fill="white" opacity="0.8" />
      <circle cx="160" cy="120" r="10" fill="black" />
      <circle cx="240" cy="120" r="10" fill="black" />
      <path d="M 150 200 Q 200 250 250 200" stroke="black" stroke-width="5" fill="none" />
      
    <text 
      x="50%" 
      y="85%" 
      font-family="Arial, sans-serif" 
      font-size="14" 
      font-weight="bold"
      text-anchor="middle"
      fill="white"
    >
      MAYC #10624 - COMMON
    </text>
  
    </svg>
  