
    <svg xmlns="http://www.w3.org/2000/svg" viewBox="0 0 400 400" width="400" height="400">
      <defs>
        
    <linearGradient id="gradient-12059" x1="0%" y1="0%" x2="100%" y2="100%">
      <stop offset="0%" stop-color="#28a745" stop-opacity="0.8" />
      <stop offset="50%" stop-color="#5cb85c" stop-opacity="0.5" />
      <stop offset="100%" stop-color="#20c997" stop-opacity="0.8" />
    </linearGradient>
  
      </defs>
      <rect width="100%" height="100%" fill="url(#gradient-12059)" />
      
      <rect 
        x="67%" 
        y="34%" 
        width="11%" 
        height="11%" 
        fill="#20c997"
        opacity="0.75"
        transform="rotate(308, 72.5%, 39.5%)"
      />
    
      <rect 
        x="34%" 
        y="1%" 
        width="28%" 
        height="28%" 
        fill="#28a745"
        opacity="0.42"
        transform="rotate(115, 48%, 15%)"
      />
    
      <rect 
        x="1%" 
        y="68%" 
        width="45%" 
        height="45%" 
        fill="#5cb85c"
        opacity="0.79"
        transform="rotate(282, 23.5%, 90.5%)"
      />
    
      <rect 
        x="68%" 
        y="35%" 
        width="12%" 
        height="12%" 
        fill="#20c997"
        opacity="0.46"
        transform="rotate(89, 74%, 41%)"
      />
    
      <rect 
        x="35%" 
        y="2%" 
        width="29%" 
        height="29%" 
        fill="#28a745"
        opacity="0.83"
        transform="rotate(256, 49.5%, 16.5%)"
      />
    
      <circle cx="200" cy="150" r="100" fill="#20c997" opacity="0.7" />
      <circle cx="160" cy="120" r="20" fill="white" opacity="0.8" />
      <circle cx="240" cy="120" r="20" fill="white" opacity="0.8" />
      <circle cx="160" cy="120" r="10" fill="black" />
      <circle cx="240" cy="120" r="10" fill="black" />
      <path d="M 150 200 Q 200 250 250 200" stroke="black" stroke-width="5" fill="none" />
      
    <text 
      x="50%" 
      y="85%" 
      font-family="Arial, sans-serif" 
      font-size="14" 
      font-weight="bold"
      text-anchor="middle"
      fill="white"
    >
      MAYC #12059 - UNCOMMON
    </text>
  
    </svg>
  