
    <svg xmlns="http://www.w3.org/2000/svg" viewBox="0 0 400 400" width="400" height="400">
      <defs>
        
    <linearGradient id="gradient-10684" x1="0%" y1="0%" x2="100%" y2="100%">
      <stop offset="0%" stop-color="#007bff" stop-opacity="0.8" />
      <stop offset="50%" stop-color="#0dcaf0" stop-opacity="0.5" />
      <stop offset="100%" stop-color="#6610f2" stop-opacity="0.8" />
    </linearGradient>
  
      </defs>
      <rect width="100%" height="100%" fill="url(#gradient-10684)" />
      
      <rect 
        x="92%" 
        y="84%" 
        width="36%" 
        height="36%" 
        fill="#0dcaf0"
        opacity="0.9"
        transform="rotate(88, 110%, 102%)"
      />
    
      <rect 
        x="84%" 
        y="76%" 
        width="28%" 
        height="28%" 
        fill="#6610f2"
        opacity="0.32"
        transform="rotate(20, 98%, 90%)"
      />
    
      <rect 
        x="76%" 
        y="68%" 
        width="20%" 
        height="20%" 
        fill="#007bff"
        opacity="0.44"
        transform="rotate(312, 86%, 78%)"
      />
    
      <rect 
        x="68%" 
        y="60%" 
        width="12%" 
        height="12%" 
        fill="#0dcaf0"
        opacity="0.56"
        transform="rotate(244, 74%, 66%)"
      />
    
      <rect 
        x="60%" 
        y="52%" 
        width="54%" 
        height="54%" 
        fill="#6610f2"
        opacity="0.68"
        transform="rotate(176, 87%, 79%)"
      />
    
      <circle cx="200" cy="150" r="100" fill="#0dcaf0" opacity="0.7" />
      <circle cx="160" cy="120" r="20" fill="white" opacity="0.8" />
      <circle cx="240" cy="120" r="20" fill="white" opacity="0.8" />
      <circle cx="160" cy="120" r="10" fill="black" />
      <circle cx="240" cy="120" r="10" fill="black" />
      <path d="M 150 200 Q 200 250 250 200" stroke="black" stroke-width="5" fill="none" />
      
    <text 
      x="50%" 
      y="85%" 
      font-family="Arial, sans-serif" 
      font-size="14" 
      font-weight="bold"
      text-anchor="middle"
      fill="white"
    >
      MAYC #10684 - RARE
    </text>
  
    </svg>
  